<?xml version="1.0" encoding="UTF-8"?><svg id="Capa_2" xmlns="http://www.w3.org/2000/svg" xmlns:xlink="http://www.w3.org/1999/xlink" viewBox="0 0 1046 771"><defs><style>.cls-1{fill:none;}.cls-1,.cls-2,.cls-3{stroke-width:0px;}.cls-2{fill:#ba17ff;}.cls-4{clip-path:url(#clippath);}.cls-3{fill:#ae10c0;}</style><clipPath id="clippath"><rect class="cls-1" width="1046" height="771"/></clipPath></defs><g id="Home"><rect class="cls-2" width="1046" height="771"/><g class="cls-4"><path class="cls-3" d="M-8.9,96.18c-1.21,6.18-3.78,11.26-7.71,15.23-3.93,3.97-8.44,6.32-13.54,7.06-5.1.74-8.92-.41-11.47-3.45-2.55-3.03-3.21-7.64-2-13.82L-20.86-14.57c-10.01-2.76-19.38-7.07-27.8-12.69l-26.13,132.95c-2.96,15.04-.85,26.6,6.33,34.67,7.17,8.08,17.92,11.08,32.24,9.01,14.31-2.06,26.81-8.42,37.48-19.07,10.67-10.65,17.48-23.49,20.44-38.54L43.5-19.17c-9.69,4.24-20.21,6.93-31.25,7.77L-8.9,96.18Z"/><path class="cls-3" d="M88.13-11.79c1.21-6.18,3.78-11.26,7.71-15.23,3.93-3.97,8.44-6.32,13.54-7.06,5.1-.74,8.92.41,11.47,3.45,2.55,3.03,3.21,7.64,2,13.82l-22.75,115.76c10.01,2.76,19.38,7.07,27.8,12.69l26.13-132.95c2.96-15.04.85-26.6-6.33-34.67-7.17-8.08-17.92-11.08-32.24-9.01-14.31,2.06-26.81,8.42-37.48,19.07-10.67,10.65-17.48,23.49-20.44,38.54l-21.8,110.94c9.69-4.24,20.21-6.93,31.25-7.77L88.13-11.79Z"/><path class="cls-3" d="M212.29,96.18c-1.21,6.18-3.78,11.26-7.71,15.23-3.93,3.97-8.44,6.32-13.54,7.06-5.1.74-8.92-.41-11.47-3.45-2.55-3.03-3.21-7.64-2-13.82l22.75-115.76c-10.01-2.76-19.38-7.07-27.8-12.69l-26.13,132.95c-2.96,15.04-.85,26.6,6.33,34.67,7.17,8.08,17.92,11.08,32.24,9.01,14.31-2.06,26.81-8.42,37.48-19.07,10.67-10.65,17.48-23.49,20.44-38.54l21.8-110.94c-9.69,4.24-20.21,6.93-31.25,7.77l-21.15,107.59Z"/><path class="cls-3" d="M309.32-11.79c1.21-6.18,3.78-11.26,7.71-15.23,3.93-3.97,8.44-6.32,13.54-7.06,5.1-.74,8.92.41,11.47,3.45,2.55,3.03,3.21,7.64,2,13.82l-22.75,115.76c10.01,2.76,19.38,7.07,27.8,12.69l26.13-132.95c2.96-15.04.85-26.6-6.33-34.67-7.17-8.08-17.92-11.08-32.24-9.01-14.31,2.06-26.81,8.42-37.48,19.07-10.67,10.65-17.48,23.49-20.44,38.54l-21.8,110.94c9.69-4.24,20.21-6.93,31.25-7.77l21.15-107.59Z"/><path class="cls-3" d="M433.48,96.18c-1.21,6.18-3.78,11.26-7.71,15.23-3.93,3.97-8.44,6.32-13.54,7.06-5.1.74-8.92-.41-11.47-3.45-2.55-3.03-3.21-7.64-2-13.82l22.75-115.76c-10.01-2.76-19.38-7.07-27.8-12.69l-26.13,132.95c-2.96,15.04-.85,26.6,6.33,34.67,7.17,8.08,17.92,11.08,32.24,9.01,14.31-2.06,26.81-8.42,37.48-19.07,10.67-10.65,17.48-23.49,20.44-38.54l21.8-110.94c-9.69,4.24-20.21,6.93-31.25,7.77l-21.15,107.59Z"/><path class="cls-3" d="M530.51-11.79c1.21-6.18,3.78-11.26,7.71-15.23,3.93-3.97,8.44-6.32,13.54-7.06,5.1-.74,8.92.41,11.47,3.45,2.55,3.03,3.21,7.64,2,13.82l-22.75,115.76c10.01,2.76,19.38,7.07,27.8,12.69l26.13-132.95c2.96-15.04.85-26.6-6.33-34.67-7.17-8.08-17.92-11.08-32.24-9.01-14.31,2.06-26.81,8.42-37.48,19.07-10.67,10.65-17.48,23.49-20.44,38.54l-21.8,110.94c9.69-4.24,20.21-6.93,31.25-7.77l21.15-107.59Z"/><path class="cls-3" d="M654.67,96.18c-1.21,6.18-3.78,11.26-7.71,15.23-3.93,3.97-8.44,6.32-13.54,7.06-5.1.74-8.92-.41-11.47-3.45-2.55-3.03-3.21-7.64-2-13.82l22.75-115.76c-10.01-2.76-19.38-7.07-27.8-12.69l-26.13,132.95c-2.96,15.04-.85,26.6,6.33,34.67,7.17,8.08,17.92,11.08,32.24,9.01,14.31-2.06,26.81-8.42,37.48-19.07,10.67-10.65,17.48-23.49,20.44-38.54l21.8-110.94c-9.69,4.24-20.21,6.93-31.25,7.77l-21.15,107.59Z"/><path class="cls-3" d="M751.7-11.79c1.21-6.18,3.78-11.26,7.71-15.23,3.93-3.97,8.44-6.32,13.54-7.06,5.1-.74,8.92.41,11.47,3.45,2.55,3.03,3.21,7.64,2,13.82l-22.75,115.76c10.01,2.76,19.38,7.07,27.8,12.69l26.13-132.95c2.96-15.04.85-26.6-6.33-34.67-7.17-8.08-17.92-11.08-32.24-9.01-14.31,2.06-26.81,8.42-37.48,19.07-10.67,10.65-17.48,23.49-20.44,38.54l-21.8,110.94c9.69-4.24,20.21-6.93,31.25-7.77l21.15-107.59Z"/><path class="cls-3" d="M875.86,96.18c-1.21,6.18-3.78,11.26-7.71,15.23-3.93,3.97-8.44,6.32-13.54,7.06-5.1.74-8.92-.41-11.47-3.45-2.55-3.03-3.21-7.64-2-13.82l22.75-115.76c-10.01-2.76-19.38-7.07-27.8-12.69l-26.13,132.95c-2.96,15.04-.85,26.6,6.33,34.67,7.17,8.08,17.92,11.08,32.24,9.01,14.31-2.06,26.81-8.42,37.48-19.07,10.67-10.65,17.48-23.49,20.44-38.54l21.8-110.94c-9.69,4.24-20.21,6.93-31.25,7.77l-21.15,107.59Z"/><path class="cls-3" d="M972.9-11.79c1.21-6.18,3.78-11.26,7.71-15.23,3.93-3.97,8.44-6.32,13.54-7.06,5.1-.74,8.92.41,11.47,3.45,2.55,3.03,3.21,7.64,2,13.82l-22.75,115.76c10.01,2.76,19.38,7.07,27.8,12.69l26.13-132.95c2.96-15.04.85-26.6-6.33-34.67-7.17-8.08-17.92-11.08-32.24-9.01-14.31,2.06-26.81,8.42-37.48,19.07-10.67,10.65-17.48,23.49-20.44,38.54l-21.8,110.94c9.69-4.24,20.21-6.93,31.25-7.77l21.15-107.59Z"/><path class="cls-3" d="M1097.06,96.18c-1.21,6.18-3.78,11.26-7.71,15.23-3.93,3.97-8.44,6.32-13.54,7.06-5.1.74-8.92-.41-11.47-3.45-2.55-3.03-3.21-7.64-2-13.82l22.75-115.76c-10.01-2.76-19.38-7.07-27.8-12.69l-26.13,132.95c-2.96,15.04-.85,26.6,6.33,34.67,7.17,8.08,17.92,11.08,32.24,9.01,14.31-2.06,26.81-8.42,37.48-19.07,10.67-10.65,17.48-23.49,20.44-38.54l21.8-110.94c-9.69,4.24-20.21,6.93-31.25,7.77l-21.15,107.59Z"/><path class="cls-3" d="M42.29,167.75c1.21-6.18,3.78-11.26,7.71-15.23,3.93-3.97,8.44-6.32,13.54-7.06,5.1-.74,8.92.41,11.47,3.45,2.55,3.03,3.21,7.64,2,13.82l-22.75,115.76c10.01,2.76,19.38,7.07,27.8,12.69l26.13-132.95c2.96-15.04.85-26.6-6.33-34.67-7.17-8.08-17.92-11.08-32.24-9.01-14.31,2.06-26.81,8.42-37.48,19.07-10.67,10.65-17.48,23.49-20.44,38.54l-21.8,110.94c9.69-4.24,20.21-6.93,31.25-7.77l21.15-107.59Z"/><path class="cls-3" d="M166.45,275.73c-1.21,6.18-3.78,11.26-7.71,15.23-3.93,3.97-8.44,6.32-13.54,7.06-5.1.74-8.92-.41-11.47-3.45-2.55-3.03-3.21-7.64-2-13.82l22.75-115.76c-10.01-2.76-19.38-7.07-27.8-12.69l-26.13,132.95c-2.96,15.04-.85,26.6,6.33,34.67,7.17,8.08,17.92,11.08,32.24,9.01,14.31-2.06,26.81-8.42,37.48-19.07,10.67-10.65,17.48-23.49,20.44-38.54l21.8-110.94c-9.69,4.24-20.21,6.93-31.25,7.77l-21.15,107.59Z"/><path class="cls-3" d="M263.48,167.75c1.21-6.18,3.78-11.26,7.71-15.23,3.93-3.97,8.44-6.32,13.54-7.06,5.1-.74,8.92.41,11.47,3.45,2.55,3.03,3.21,7.64,2,13.82l-22.75,115.76c10.01,2.76,19.38,7.07,27.8,12.69l26.13-132.95c2.96-15.04.85-26.6-6.33-34.67-7.17-8.08-17.92-11.08-32.24-9.01-14.31,2.06-26.81,8.42-37.48,19.07-10.67,10.65-17.48,23.49-20.44,38.54l-21.8,110.94c9.69-4.24,20.21-6.93,31.25-7.77l21.15-107.59Z"/><path class="cls-3" d="M387.64,275.73c-1.21,6.18-3.78,11.26-7.71,15.23-3.93,3.97-8.44,6.32-13.54,7.06-5.1.74-8.92-.41-11.47-3.45-2.55-3.03-3.21-7.64-2-13.82l22.75-115.76c-10.01-2.76-19.38-7.07-27.8-12.69l-26.13,132.95c-2.96,15.04-.85,26.6,6.33,34.67,7.17,8.08,17.92,11.08,32.24,9.01,14.31-2.06,26.81-8.42,37.48-19.07,10.67-10.65,17.48-23.49,20.44-38.54l21.8-110.94c-9.69,4.24-20.21,6.93-31.25,7.77l-21.15,107.59Z"/><path class="cls-3" d="M484.67,167.75c1.21-6.18,3.78-11.26,7.71-15.23,3.93-3.97,8.44-6.32,13.54-7.06,5.1-.74,8.92.41,11.47,3.45,2.55,3.03,3.21,7.64,2,13.82l-22.75,115.76c10.01,2.76,19.38,7.07,27.8,12.69l26.13-132.95c2.96-15.04.85-26.6-6.33-34.67-7.17-8.08-17.92-11.08-32.24-9.01-14.31,2.06-26.81,8.42-37.48,19.07-10.67,10.65-17.48,23.49-20.44,38.54l-21.8,110.94c9.69-4.24,20.21-6.93,31.25-7.77l21.15-107.59Z"/><path class="cls-3" d="M608.83,275.73c-1.21,6.18-3.78,11.26-7.71,15.23-3.93,3.97-8.44,6.32-13.54,7.06-5.1.74-8.92-.41-11.47-3.45-2.55-3.03-3.21-7.64-2-13.82l22.75-115.76c-10.01-2.76-19.38-7.07-27.8-12.69l-26.13,132.95c-2.96,15.04-.85,26.6,6.33,34.67,7.17,8.08,17.92,11.08,32.24,9.01,14.31-2.06,26.81-8.42,37.48-19.07,10.67-10.65,17.48-23.49,20.44-38.54l21.8-110.94c-9.69,4.24-20.21,6.93-31.25,7.77l-21.15,107.59Z"/><path class="cls-3" d="M705.86,167.75c1.21-6.18,3.78-11.26,7.71-15.23,3.93-3.97,8.44-6.32,13.54-7.06,5.1-.74,8.92.41,11.47,3.45,2.55,3.03,3.21,7.64,2,13.82l-22.75,115.76c10.01,2.76,19.38,7.07,27.8,12.69l26.13-132.95c2.96-15.04.85-26.6-6.33-34.67-7.17-8.08-17.92-11.08-32.24-9.01-14.31,2.06-26.81,8.42-37.48,19.07-10.67,10.65-17.48,23.49-20.44,38.54l-21.8,110.94c9.69-4.24,20.21-6.93,31.25-7.77l21.15-107.59Z"/><path class="cls-3" d="M830.02,275.73c-1.21,6.18-3.78,11.26-7.71,15.23-3.93,3.97-8.44,6.32-13.54,7.06-5.1.74-8.92-.41-11.47-3.45-2.55-3.03-3.21-7.64-2-13.82l22.75-115.76c-10.01-2.76-19.38-7.07-27.8-12.69l-26.13,132.95c-2.96,15.04-.85,26.6,6.33,34.67,7.17,8.08,17.92,11.08,32.24,9.01,14.31-2.06,26.81-8.42,37.48-19.07,10.67-10.65,17.48-23.49,20.44-38.54l21.8-110.94c-9.69,4.24-20.21,6.93-31.25,7.77l-21.15,107.59Z"/><path class="cls-3" d="M927.06,167.75c1.21-6.18,3.78-11.26,7.71-15.23,3.93-3.97,8.44-6.32,13.54-7.06,5.1-.74,8.92.41,11.47,3.45,2.55,3.03,3.21,7.64,2,13.82l-22.75,115.76c10.01,2.76,19.38,7.07,27.8,12.69l26.13-132.95c2.96-15.04.85-26.6-6.33-34.67-7.17-8.08-17.92-11.08-32.24-9.01-14.31,2.06-26.81,8.42-37.48,19.07-10.67,10.65-17.48,23.49-20.44,38.54l-21.8,110.94c9.69-4.24,20.21-6.93,31.25-7.77l21.15-107.59Z"/><path class="cls-3" d="M1051.21,275.73c-1.21,6.18-3.78,11.26-7.71,15.23-3.93,3.97-8.44,6.32-13.54,7.06-5.1.74-8.92-.41-11.47-3.45-2.55-3.03-3.21-7.64-2-13.82l22.75-115.76c-10.01-2.76-19.38-7.07-27.8-12.69l-26.13,132.95c-2.96,15.04-.85,26.6,6.33,34.67,7.17,8.08,17.92,11.08,32.24,9.01,14.31-2.06,26.81-8.42,37.48-19.07,10.67-10.65,17.48-23.49,20.44-38.54l21.8-110.94c-9.69,4.24-20.21,6.93-31.25,7.77l-21.15,107.59Z"/><path class="cls-3" d="M-3.55,347.3c1.21-6.18,3.78-11.26,7.71-15.23,3.93-3.97,8.44-6.32,13.54-7.06,5.1-.74,8.92.41,11.47,3.45,2.55,3.03,3.21,7.64,2,13.82l-22.75,115.76c10.01,2.76,19.38,7.07,27.8,12.69l26.13-132.95c2.96-15.04.85-26.6-6.33-34.67-7.17-8.08-17.92-11.08-32.24-9.01-14.31,2.06-26.81,8.42-37.48,19.07-10.67,10.65-17.48,23.49-20.44,38.54l-21.8,110.94c9.69-4.24,20.21-6.93,31.25-7.77L-3.55,347.3Z"/><path class="cls-3" d="M120.61,455.28c-1.21,6.18-3.78,11.26-7.71,15.23-3.93,3.97-8.44,6.32-13.54,7.06-5.1.74-8.92-.41-11.47-3.45-2.55-3.03-3.21-7.64-2-13.82l22.75-115.76c-10.01-2.76-19.38-7.07-27.8-12.69l-26.13,132.95c-2.96,15.04-.85,26.6,6.33,34.67,7.17,8.08,17.92,11.08,32.24,9.01,14.31-2.06,26.81-8.42,37.48-19.07,10.67-10.65,17.48-23.49,20.44-38.54l21.8-110.94c-9.69,4.24-20.21,6.93-31.25,7.77l-21.15,107.59Z"/><path class="cls-3" d="M217.64,347.3c1.21-6.18,3.78-11.26,7.71-15.23,3.93-3.97,8.44-6.32,13.54-7.06,5.1-.74,8.92.41,11.47,3.45,2.55,3.03,3.21,7.64,2,13.82l-22.75,115.76c10.01,2.76,19.38,7.07,27.8,12.69l26.13-132.95c2.96-15.04.85-26.6-6.33-34.67-7.17-8.08-17.92-11.08-32.24-9.01-14.31,2.06-26.81,8.42-37.48,19.07-10.67,10.65-17.48,23.49-20.44,38.54l-21.8,110.94c9.69-4.24,20.21-6.93,31.25-7.77l21.15-107.59Z"/><path class="cls-3" d="M341.8,455.28c-1.21,6.18-3.78,11.26-7.71,15.23-3.93,3.97-8.44,6.32-13.54,7.06-5.1.74-8.92-.41-11.47-3.45-2.55-3.03-3.21-7.64-2-13.82l22.75-115.76c-10.01-2.76-19.38-7.07-27.8-12.69l-26.13,132.95c-2.96,15.04-.85,26.6,6.33,34.67,7.17,8.08,17.92,11.08,32.24,9.01,14.31-2.06,26.81-8.42,37.48-19.07,10.67-10.65,17.48-23.49,20.44-38.54l21.8-110.94c-9.69,4.24-20.21,6.93-31.25,7.77l-21.15,107.59Z"/><path class="cls-3" d="M438.83,347.3c1.21-6.18,3.78-11.26,7.71-15.23,3.93-3.97,8.44-6.32,13.54-7.06,5.1-.74,8.92.41,11.47,3.45,2.55,3.03,3.21,7.64,2,13.82l-22.75,115.76c10.01,2.76,19.38,7.07,27.8,12.69l26.13-132.95c2.96-15.04.85-26.6-6.33-34.67-7.17-8.08-17.92-11.08-32.24-9.01-14.31,2.06-26.81,8.42-37.48,19.07-10.67,10.65-17.48,23.49-20.44,38.54l-21.8,110.94c9.69-4.24,20.21-6.93,31.25-7.77l21.15-107.59Z"/><path class="cls-3" d="M562.99,455.28c-1.21,6.18-3.78,11.26-7.71,15.23-3.93,3.97-8.44,6.32-13.54,7.06-5.1.74-8.92-.41-11.47-3.45-2.55-3.03-3.21-7.64-2-13.82l22.75-115.76c-10.01-2.76-19.38-7.07-27.8-12.69l-26.13,132.95c-2.96,15.04-.85,26.6,6.33,34.67,7.17,8.08,17.92,11.08,32.24,9.01,14.31-2.06,26.81-8.42,37.48-19.07,10.67-10.65,17.48-23.49,20.44-38.54l21.8-110.94c-9.69,4.24-20.21,6.93-31.25,7.77l-21.15,107.59Z"/><path class="cls-3" d="M660.02,347.3c1.21-6.18,3.78-11.26,7.71-15.23,3.93-3.97,8.44-6.32,13.54-7.06,5.1-.74,8.92.41,11.47,3.45,2.55,3.03,3.21,7.64,2,13.82l-22.75,115.76c10.01,2.76,19.38,7.07,27.8,12.69l26.13-132.95c2.96-15.04.85-26.6-6.33-34.67-7.17-8.08-17.92-11.08-32.24-9.01-14.31,2.06-26.81,8.42-37.48,19.07-10.67,10.65-17.48,23.49-20.44,38.54l-21.8,110.94c9.69-4.24,20.21-6.93,31.25-7.77l21.15-107.59Z"/><path class="cls-3" d="M784.18,455.28c-1.21,6.18-3.78,11.26-7.71,15.23-3.93,3.97-8.44,6.32-13.54,7.06-5.1.74-8.92-.41-11.47-3.45-2.55-3.03-3.21-7.64-2-13.82l22.75-115.76c-10.01-2.76-19.38-7.07-27.8-12.69l-26.13,132.95c-2.96,15.04-.85,26.6,6.33,34.67,7.17,8.08,17.92,11.08,32.24,9.01,14.31-2.06,26.81-8.42,37.48-19.07,10.67-10.65,17.48-23.49,20.44-38.54l21.8-110.94c-9.69,4.24-20.21,6.93-31.25,7.77l-21.15,107.59Z"/><path class="cls-3" d="M881.21,347.3c1.21-6.18,3.78-11.26,7.71-15.23,3.93-3.97,8.44-6.32,13.54-7.06,5.1-.74,8.92.41,11.47,3.45,2.55,3.03,3.21,7.64,2,13.82l-22.75,115.76c10.01,2.76,19.38,7.07,27.8,12.69l26.13-132.95c2.96-15.04.85-26.6-6.33-34.67-7.17-8.08-17.92-11.08-32.24-9.01-14.31,2.06-26.81,8.42-37.48,19.07-10.67,10.65-17.48,23.49-20.44,38.54l-21.8,110.94c9.69-4.24,20.21-6.93,31.25-7.77l21.15-107.59Z"/><path class="cls-3" d="M1005.37,455.28c-1.21,6.18-3.78,11.26-7.71,15.23-3.93,3.97-8.44,6.32-13.54,7.06-5.1.74-8.92-.41-11.47-3.45-2.55-3.03-3.21-7.64-2-13.82l22.75-115.76c-10.01-2.76-19.38-7.07-27.8-12.69l-26.13,132.95c-2.96,15.04-.85,26.6,6.33,34.67,7.17,8.08,17.92,11.08,32.24,9.01,14.31-2.06,26.81-8.42,37.48-19.07,10.67-10.65,17.48-23.49,20.44-38.54l21.8-110.94c-9.69,4.24-20.21,6.93-31.25,7.77l-21.15,107.59Z"/><path class="cls-3" d="M-49.4,526.84c1.21-6.18,3.78-11.26,7.71-15.23,3.93-3.97,8.44-6.32,13.54-7.06,5.1-.74,8.92.41,11.47,3.45,2.55,3.03,3.21,7.64,2,13.82l-22.75,115.76c10.01,2.76,19.38,7.07,27.8,12.69l26.13-132.95c2.96-15.04.85-26.6-6.33-34.67-7.17-8.08-17.92-11.08-32.24-9.01-14.31,2.06-26.81,8.42-37.48,19.07-10.67,10.65-17.48,23.49-20.44,38.54l-21.8,110.94c9.69-4.24,20.21-6.93,31.25-7.77l21.15-107.59Z"/><path class="cls-3" d="M74.76,634.82c-1.21,6.18-3.78,11.26-7.71,15.23-3.93,3.97-8.44,6.32-13.54,7.06-5.1.74-8.92-.41-11.47-3.45-2.55-3.03-3.21-7.64-2-13.82l22.75-115.76c-10.01-2.76-19.38-7.07-27.8-12.69l-26.13,132.95c-2.96,15.04-.85,26.6,6.33,34.67,7.17,8.08,17.92,11.08,32.24,9.01,14.31-2.06,26.81-8.42,37.48-19.07,10.67-10.65,17.48-23.49,20.44-38.54l21.8-110.94c-9.69,4.24-20.21,6.93-31.25,7.77l-21.15,107.59Z"/><path class="cls-3" d="M171.8,526.84c1.21-6.18,3.78-11.26,7.71-15.23,3.93-3.97,8.44-6.32,13.54-7.06,5.1-.74,8.92.41,11.47,3.45,2.55,3.03,3.21,7.64,2,13.82l-22.75,115.76c10.01,2.76,19.38,7.07,27.8,12.69l26.13-132.95c2.96-15.04.85-26.6-6.33-34.67-7.17-8.08-17.92-11.08-32.24-9.01-14.31,2.06-26.81,8.42-37.48,19.07-10.67,10.65-17.48,23.49-20.44,38.54l-21.8,110.94c9.69-4.24,20.21-6.93,31.25-7.77l21.15-107.59Z"/><path class="cls-3" d="M295.96,634.82c-1.21,6.18-3.78,11.26-7.71,15.23-3.93,3.97-8.44,6.32-13.54,7.06-5.1.74-8.92-.41-11.47-3.45-2.55-3.03-3.21-7.64-2-13.82l22.75-115.76c-10.01-2.76-19.38-7.07-27.8-12.69l-26.13,132.95c-2.96,15.04-.85,26.6,6.33,34.67,7.17,8.08,17.92,11.08,32.24,9.01,14.31-2.06,26.81-8.42,37.48-19.07,10.67-10.65,17.48-23.49,20.44-38.54l21.8-110.94c-9.69,4.24-20.21,6.93-31.25,7.77l-21.15,107.59Z"/><path class="cls-3" d="M392.99,526.84c1.21-6.18,3.78-11.26,7.71-15.23,3.93-3.97,8.44-6.32,13.54-7.06,5.1-.74,8.92.41,11.47,3.45,2.55,3.03,3.21,7.64,2,13.82l-22.75,115.76c10.01,2.76,19.38,7.07,27.8,12.69l26.13-132.95c2.96-15.04.85-26.6-6.33-34.67-7.17-8.08-17.92-11.08-32.24-9.01-14.31,2.06-26.81,8.42-37.48,19.07-10.67,10.65-17.48,23.49-20.44,38.54l-21.8,110.94c9.69-4.24,20.21-6.93,31.25-7.77l21.15-107.59Z"/><path class="cls-3" d="M517.15,634.82c-1.21,6.18-3.78,11.26-7.71,15.23-3.93,3.97-8.44,6.32-13.54,7.06-5.1.74-8.92-.41-11.47-3.45-2.55-3.03-3.21-7.64-2-13.82l22.75-115.76c-10.01-2.76-19.38-7.07-27.8-12.69l-26.13,132.95c-2.96,15.04-.85,26.6,6.33,34.67,7.17,8.08,17.92,11.08,32.24,9.01,14.31-2.06,26.81-8.42,37.48-19.07,10.67-10.65,17.48-23.49,20.44-38.54l21.8-110.94c-9.69,4.24-20.21,6.93-31.25,7.77l-21.15,107.59Z"/><path class="cls-3" d="M614.18,526.84c1.21-6.18,3.78-11.26,7.71-15.23,3.93-3.97,8.44-6.32,13.54-7.06,5.1-.74,8.92.41,11.47,3.45,2.55,3.03,3.21,7.64,2,13.82l-22.75,115.76c10.01,2.76,19.38,7.07,27.8,12.69l26.13-132.95c2.96-15.04.85-26.6-6.33-34.67-7.17-8.08-17.92-11.08-32.24-9.01-14.31,2.06-26.81,8.42-37.48,19.07-10.67,10.65-17.48,23.49-20.44,38.54l-21.8,110.94c9.69-4.24,20.21-6.93,31.25-7.77l21.15-107.59Z"/><path class="cls-3" d="M738.34,634.82c-1.21,6.18-3.78,11.26-7.71,15.23-3.93,3.97-8.44,6.32-13.54,7.06-5.1.74-8.92-.41-11.47-3.45-2.55-3.03-3.21-7.64-2-13.82l22.75-115.76c-10.01-2.76-19.38-7.07-27.8-12.69l-26.13,132.95c-2.96,15.04-.85,26.6,6.33,34.67,7.17,8.08,17.92,11.08,32.24,9.01,14.31-2.06,26.81-8.42,37.48-19.07,10.67-10.65,17.48-23.49,20.44-38.54l21.8-110.94c-9.69,4.24-20.21,6.93-31.25,7.77l-21.15,107.59Z"/><path class="cls-3" d="M835.37,526.84c1.21-6.18,3.78-11.26,7.71-15.23,3.93-3.97,8.44-6.32,13.54-7.06,5.1-.74,8.92.41,11.47,3.45,2.55,3.03,3.21,7.64,2,13.82l-22.75,115.76c10.01,2.76,19.38,7.07,27.8,12.69l26.13-132.95c2.96-15.04.85-26.6-6.33-34.67-7.17-8.08-17.92-11.08-32.24-9.01-14.31,2.06-26.81,8.42-37.48,19.07-10.67,10.65-17.48,23.49-20.44,38.54l-21.8,110.94c9.69-4.24,20.21-6.93,31.25-7.77l21.15-107.59Z"/><path class="cls-3" d="M959.53,634.82c-1.21,6.18-3.78,11.26-7.71,15.23-3.93,3.97-8.44,6.32-13.54,7.06-5.1.74-8.92-.41-11.47-3.45-2.55-3.03-3.21-7.64-2-13.82l22.75-115.76c-10.01-2.76-19.38-7.07-27.8-12.69l-26.13,132.95c-2.96,15.04-.85,26.6,6.33,34.67,7.17,8.08,17.92,11.08,32.24,9.01,14.31-2.06,26.81-8.42,37.48-19.07,10.67-10.65,17.48-23.49,20.44-38.54l21.8-110.94c-9.69,4.24-20.21,6.93-31.25,7.77l-21.15,107.59Z"/><path class="cls-3" d="M1056.56,526.84c1.21-6.18,3.78-11.26,7.71-15.23,3.93-3.97,8.44-6.32,13.54-7.06,5.1-.74,8.92.41,11.47,3.45,2.55,3.03,3.21,7.64,2,13.82l-22.75,115.76c10.01,2.76,19.38,7.07,27.8,12.69l26.13-132.95c2.96-15.04.85-26.6-6.33-34.67-7.17-8.08-17.92-11.08-32.24-9.01-14.31,2.06-26.81,8.42-37.48,19.07-10.67,10.65-17.48,23.49-20.44,38.54l-21.8,110.94c9.69-4.24,20.21-6.93,31.25-7.77l21.15-107.59Z"/><path class="cls-3" d="M28.92,814.37c-1.21,6.18-3.78,11.26-7.71,15.23-3.93,3.97-8.44,6.32-13.54,7.06-5.1.74-8.92-.41-11.47-3.45-2.55-3.03-3.21-7.64-2-13.82l22.75-115.76c-10.01-2.76-19.38-7.07-27.8-12.69l-26.13,132.95c-2.96,15.04-.85,26.6,6.33,34.67,7.17,8.08,17.92,11.08,32.24,9.01,14.31-2.06,26.81-8.42,37.48-19.07,10.67-10.65,17.48-23.49,20.44-38.54l21.8-110.94c-9.69,4.24-20.21,6.93-31.25,7.77l-21.15,107.59Z"/><path class="cls-3" d="M125.95,706.39c1.21-6.18,3.78-11.26,7.71-15.23,3.93-3.97,8.44-6.32,13.54-7.06,5.1-.74,8.92.41,11.47,3.45,2.55,3.03,3.21,7.64,2,13.82l-22.75,115.76c10.01,2.76,19.38,7.07,27.8,12.69l26.13-132.95c2.96-15.04.85-26.6-6.33-34.67-7.17-8.08-17.92-11.08-32.24-9.01-14.31,2.06-26.81,8.42-37.48,19.07-10.67,10.65-17.48,23.49-20.44,38.54l-21.8,110.94c9.69-4.24,20.21-6.93,31.25-7.77l21.15-107.59Z"/><path class="cls-3" d="M250.11,814.37c-1.21,6.18-3.78,11.26-7.71,15.23-3.93,3.97-8.44,6.32-13.54,7.06-5.1.74-8.92-.41-11.47-3.45-2.55-3.03-3.21-7.64-2-13.82l22.75-115.76c-10.01-2.76-19.38-7.07-27.8-12.69l-26.13,132.95c-2.96,15.04-.85,26.6,6.33,34.67,7.17,8.08,17.92,11.08,32.24,9.01,14.31-2.06,26.81-8.42,37.48-19.07,10.67-10.65,17.48-23.49,20.44-38.54l21.8-110.94c-9.69,4.24-20.21,6.93-31.25,7.77l-21.15,107.59Z"/><path class="cls-3" d="M347.15,706.39c1.21-6.18,3.78-11.26,7.71-15.23,3.93-3.97,8.44-6.32,13.54-7.06,5.1-.74,8.92.41,11.47,3.45,2.55,3.03,3.21,7.64,2,13.82l-22.75,115.76c10.01,2.76,19.38,7.07,27.8,12.69l26.13-132.95c2.96-15.04.85-26.6-6.33-34.67-7.17-8.08-17.92-11.08-32.24-9.01-14.31,2.06-26.81,8.42-37.48,19.07-10.67,10.65-17.48,23.49-20.44,38.54l-21.8,110.94c9.69-4.24,20.21-6.93,31.25-7.77l21.15-107.59Z"/><path class="cls-3" d="M471.31,814.37c-1.21,6.18-3.78,11.26-7.71,15.23-3.93,3.97-8.44,6.32-13.54,7.06-5.1.74-8.92-.41-11.47-3.45-2.55-3.03-3.21-7.64-2-13.82l22.75-115.76c-10.01-2.76-19.38-7.07-27.8-12.69l-26.13,132.95c-2.96,15.04-.85,26.6,6.33,34.67,7.17,8.08,17.92,11.08,32.24,9.01,14.31-2.06,26.81-8.42,37.48-19.07,10.67-10.65,17.48-23.49,20.44-38.54l21.8-110.94c-9.69,4.24-20.21,6.93-31.25,7.77l-21.15,107.59Z"/><path class="cls-3" d="M568.34,706.39c1.21-6.18,3.78-11.26,7.71-15.23,3.93-3.97,8.44-6.32,13.54-7.06,5.1-.74,8.92.41,11.47,3.45,2.55,3.03,3.21,7.64,2,13.82l-22.75,115.76c10.01,2.76,19.38,7.07,27.8,12.69l26.13-132.95c2.96-15.04.85-26.6-6.33-34.67-7.17-8.08-17.92-11.08-32.24-9.01-14.31,2.06-26.81,8.42-37.48,19.07-10.67,10.65-17.48,23.49-20.44,38.54l-21.8,110.94c9.69-4.24,20.21-6.93,31.25-7.77l21.15-107.59Z"/><path class="cls-3" d="M692.5,814.37c-1.21,6.18-3.78,11.26-7.71,15.23-3.93,3.97-8.44,6.32-13.54,7.06-5.1.74-8.92-.41-11.47-3.45-2.55-3.03-3.21-7.64-2-13.82l22.75-115.76c-10.01-2.76-19.38-7.07-27.8-12.69l-26.13,132.95c-2.96,15.04-.85,26.6,6.33,34.67,7.17,8.08,17.92,11.08,32.24,9.01,14.31-2.06,26.81-8.42,37.48-19.07,10.67-10.65,17.48-23.49,20.44-38.54l21.8-110.94c-9.69,4.24-20.21,6.93-31.25,7.77l-21.15,107.59Z"/><path class="cls-3" d="M789.53,706.39c1.21-6.18,3.78-11.26,7.71-15.23,3.93-3.97,8.44-6.32,13.54-7.06,5.1-.74,8.92.41,11.47,3.45,2.55,3.03,3.21,7.64,2,13.82l-22.75,115.76c10.01,2.76,19.38,7.07,27.8,12.69l26.13-132.95c2.96-15.04.85-26.6-6.33-34.67-7.17-8.08-17.92-11.08-32.24-9.01-14.31,2.06-26.81,8.42-37.48,19.07-10.67,10.65-17.48,23.49-20.44,38.54l-21.8,110.94c9.69-4.24,20.21-6.93,31.25-7.77l21.15-107.59Z"/><path class="cls-3" d="M913.69,814.37c-1.21,6.18-3.78,11.26-7.71,15.23-3.93,3.97-8.44,6.32-13.54,7.06-5.1.74-8.92-.41-11.47-3.45-2.55-3.03-3.21-7.64-2-13.82l22.75-115.76c-10.01-2.76-19.38-7.07-27.8-12.69l-26.13,132.95c-2.96,15.04-.85,26.6,6.33,34.67,7.17,8.08,17.92,11.08,32.24,9.01,14.31-2.06,26.81-8.42,37.48-19.07,10.67-10.65,17.48-23.49,20.44-38.54l21.8-110.94c-9.69,4.24-20.21,6.93-31.25,7.77l-21.15,107.59Z"/><path class="cls-3" d="M1010.72,706.39c1.21-6.18,3.78-11.26,7.71-15.23,3.93-3.97,8.44-6.32,13.54-7.06,5.1-.74,8.92.41,11.47,3.45,2.55,3.03,3.21,7.64,2,13.82l-22.75,115.76c10.01,2.76,19.38,7.07,27.8,12.69l26.13-132.95c2.96-15.04.85-26.6-6.33-34.67-7.17-8.08-17.92-11.08-32.24-9.01-14.31,2.06-26.81,8.42-37.48,19.07-10.67,10.65-17.48,23.49-20.44,38.54l-21.8,110.94c9.69-4.24,20.21-6.93,31.25-7.77l21.15-107.59Z"/></g></g></svg>