<?xml version="1.0" encoding="UTF-8"?><svg id="Capa_2" xmlns="http://www.w3.org/2000/svg" viewBox="0 0 94.04 39.9"><defs><style>.cls-1{fill:#020202;}.cls-1,.cls-2,.cls-3{stroke-width:0px;}.cls-2{fill:none;}.cls-3{fill:#b3b3b3;}</style></defs><g id="Home"><polyline class="cls-2" points="19.47 18.89 19.47 18.89 19.47 18.89"/><path class="cls-1" d="M5.1,38.26c.7-1.62,2.33-5.85,2.59-6.72.06-.18.11-.35.11-.46,0-.1-.04-.22-.16-.28-.15-.05-.33-.05-.46-.05-.07,0-.13-.01-.13-.07,0-.07.07-.1.27-.1.48,0,1.04.04,1.19.04.07,0,.59-.04.94-.04.13,0,.21.02.21.09s-.05.09-.15.09c-.09,0-.35,0-.58.14-.16.11-.34.32-.67,1.14-.13.34-.74,1.79-1.36,3.28-.74,1.77-1.28,3.08-1.56,3.67-.34.73-.39.92-.51.92-.15,0-.21-.17-.44-.75l-2.97-7.42c-.27-.68-.45-.81-.87-.93-.18-.05-.39-.05-.46-.05s-.1-.04-.1-.09c0-.07.12-.09.31-.09.58,0,1.27.04,1.42.04.12,0,.67-.04,1.13-.04.22,0,.33.02.33.09s-.04.09-.12.09c-.13,0-.35.01-.46.06-.13.06-.16.16-.16.24,0,.16.15.53.33,1.01l2.32,6.2Z"/><polygon class="cls-3" points="23.58 24.77 23.58 24.77 23.58 24.77 23.58 24.77"/><path class="cls-1" d="M18.3,38.33c.02.85.12,1.1.41,1.17.19.05.43.06.53.06.05,0,.09.04.09.09,0,.06-.07.09-.19.09-.61,0-1.03-.04-1.13-.04s-.54.04-1.03.04c-.11,0-.17-.01-.17-.09,0-.05.04-.09.09-.09.09,0,.28-.01.44-.06.27-.07.3-.35.3-1.28v-5.9c0-.41.06-.52.15-.52.12,0,.3.21.41.31.17.17,1.72,1.82,3.37,3.51,1.05,1.09,2.19,2.31,2.52,2.65l-.11-5.16c-.01-.67-.07-.9-.4-.96-.2-.04-.44-.05-.52-.05-.07,0-.09-.06-.09-.1,0-.06.09-.07.21-.07.48,0,.99.02,1.11.02s.47-.02.91-.02c.11,0,.19.01.19.07,0,.04-.05.1-.12.1-.05,0-.13,0-.25.03-.35.07-.38.28-.38.9l-.02,6.03c0,.68-.01.74-.08.74-.11,0-.22-.08-.81-.63-.11-.1-1.65-1.61-2.77-2.79-1.24-1.3-2.43-2.56-2.76-2.92l.12,4.86Z"/><path class="cls-1" d="M60.52,38.33c.02.8.14,1.04.33,1.11.16.06.35.07.5.07.11,0,.16.05.16.11,0,.09-.09.11-.22.11-.62,0-1.07-.04-1.24-.04-.09,0-.54.04-1.04.04-.13,0-.22-.01-.22-.11,0-.06.07-.11.15-.11.13,0,.3-.01.44-.05.25-.07.28-.35.29-1.25l.09-6.11c0-.2.06-.35.16-.35.12,0,.25.16.41.34.12.13,1.56,1.77,2.95,3.28.65.71,1.93,2.17,2.07,2.31h.04l-.1-4.58c-.01-.63-.1-.81-.33-.91-.14-.06-.37-.06-.5-.06-.12,0-.15-.05-.15-.11,0-.09.1-.1.24-.1.5,0,1.01.02,1.22.02.11,0,.47-.02.94-.02.13,0,.22.01.22.1,0,.06-.06.11-.16.11-.1,0-.17,0-.29.04-.26.09-.34.27-.35.85l-.11,6.49c0,.23-.08.33-.15.33-.16,0-.29-.11-.39-.22-.6-.62-1.8-1.89-2.8-2.97-1.05-1.11-2.06-2.36-2.25-2.54h-.03l.11,4.2Z"/><path class="cls-1" d="M27.39,34.93c0-1.6,0-1.89-.02-2.22-.02-.33-.09-.52-.44-.57-.08-.01-.27-.03-.36-.03-.04,0-.09-.05-.09-.08,0-.06.05-.08.17-.08.48,0,1.13.03,1.22.03s.76-.03,1.08-.03c.12,0,.18.03.18.08,0,.04-.05.08-.1.08-.07,0-.13,0-.27.03-.28.05-.34.23-.36.57-.02.33-.02.62-.02,2.22v1.44c0,1.49.33,2.11.79,2.52.52.47.98.56,1.59.56.65,0,1.28-.29,1.65-.73.5-.59.61-1.44.61-2.49v-1.3c0-1.6-.01-1.89-.02-2.22-.01-.33-.07-.52-.42-.57-.08-.01-.27-.03-.36-.03-.05,0-.08-.05-.08-.08,0-.06.05-.08.17-.08.47,0,1.09.03,1.15.03.07,0,.58-.03.9-.03.12,0,.17.03.17.08,0,.04-.04.08-.08.08-.07,0-.13,0-.27.03-.29.06-.35.23-.38.57-.02.33-.01.62-.01,2.22v1.1c0,1.11-.15,2.36-.99,3.09-.77.67-1.6.75-2.23.75-.35,0-1.47-.02-2.22-.73-.52-.49-.93-1.2-.93-2.7v-1.51Z"/><path class="cls-1" d="M43.22,38.58c-1.07-1.04-1.35-2.4-1.35-3.57,0-.82.23-2.25,1.27-3.32.79-.8,1.82-1.28,3.44-1.28.68,0,1.08.05,1.58.12.41.06.76.17,1.09.21.12.01.16.07.16.15,0,.1-.03.24-.06.67-.02.4-.01,1.07-.03,1.31-.01.18-.03.28-.13.28-.09,0-.11-.1-.11-.27-.01-.38-.15-.8-.43-1.11-.36-.42-1.21-.75-2.21-.75-.95,0-1.57.27-2.05.75-.8.81-1,1.96-1,3.14,0,2.88,1.97,4.31,3.43,4.31.97,0,1.56-.12,1.99-.68.18-.23.33-.58.37-.8.03-.19.05-.24.14-.24.08,0,.1.09.1.18,0,.15-.13,1.2-.24,1.61-.05.21-.1.27-.28.35-.44.19-1.26.28-1.96.28-1.49,0-2.75-.36-3.74-1.32h0Z"/><path class="cls-1" d="M69.03,38.75c-.95-.88-1.2-2.05-1.2-3.04,0-.7.21-1.91,1.12-2.82.7-.68,1.61-1.09,3.04-1.09.6,0,.96.05,1.4.11.36.06.67.13.96.17.11.01.14.06.14.12,0,.09-.02.21-.04.57-.02.34-.02.91-.03,1.11-.01.15-.04.25-.13.25-.08,0-.1-.08-.1-.22-.01-.33-.13-.69-.37-.96-.33-.35-.97-.61-1.85-.61-.84,0-1.37.17-1.81.58-.71.68-.88,1.67-.88,2.68,0,2.45,1.7,3.61,2.99,3.61.85,0,1.32-.07,1.7-.54.16-.2.29-.5.33-.69.02-.16.04-.21.12-.21.07,0,.11.1.11.18,0,.12-.11,1.02-.21,1.37-.04.18-.09.23-.25.3-.38.17-1.11.23-1.73.23-1.31,0-2.42-.3-3.29-1.11h0Z"/><path class="cls-1" d="M90.18,32.58l-1.43.04c-.56.01-.78.08-.93.32-.1.14-.14.28-.16.35-.02.09-.04.13-.11.13s-.09-.06-.09-.17c0-.17.19-1.16.21-1.25.02-.13.05-.19.11-.19.08,0,.17.09.41.12.28.04.64.05.96.05h3.89c.3,0,.51-.02.65-.05.15-.02.23-.05.26-.05.06,0,.08.06.08.22,0,.22-.02.98-.02,1.25-.01.11-.03.17-.09.17-.08,0-.1-.05-.11-.2v-.11c-.03-.27-.28-.58-1.14-.59l-1.21-.02v4.17c0,.94.01,1.76.05,2.2.03.29.09.48.37.53.13.02.35.04.49.04.11,0,.15.06.15.11,0,.07-.08.11-.19.11-.63,0-1.27-.04-1.55-.04-.22,0-.87.04-1.25.04-.12,0-.18-.04-.18-.11,0-.05.03-.11.15-.11.14,0,.26-.01.34-.04.2-.05.25-.24.28-.55.04-.44.04-1.25.04-2.19v-4.17Z"/><path class="cls-1" d="M82.41,34.93c0-1.56,0-1.85-.01-2.18-.02-.35-.11-.46-.41-.56-.08-.02-.24-.04-.38-.04-.1,0-.16-.04-.16-.11s.08-.1.22-.1c.5,0,1.11.03,1.38.03.39,0,1.16-.03,1.59-.03,1.2,0,1.64.44,1.79.58.21.22.48.68.48,1.24,0,1.45-1.05,2.49-2.41,2.49-.04,0-.24,0-.28-.01-.05,0-.12-.04-.12-.11,0-.09.11-.13.31-.13.53,0,1.29-.62,1.29-1.67,0-.34-.03-1.02-.57-1.53-.35-.34-.74-.39-.96-.39-.14,0-.33.01-.41.05-.05.02-.08.09-.08.19v4.08c0,.94,0,1.76.04,2.2.03.29.09.48.37.53.14.02.35.04.49.04.11,0,.15.06.15.11,0,.07-.08.11-.17.11-.64,0-1.32-.04-1.57-.04-.22,0-.83.04-1.21.04-.12,0-.18-.04-.18-.11,0-.05.03-.11.15-.11.14,0,.25-.01.34-.04.19-.05.25-.24.28-.55.04-.44.04-1.25.04-2.19v-1.82Z"/><path class="cls-1" d="M54.53,31.8c-2.91,0-4.02,2.28-4.02,4.03s1.13,4.03,3.92,4.03c2.47,0,4.02-1.85,4.02-4.22s-1.5-3.85-3.92-3.85h0ZM54.83,39.31c-1.81,0-2.9-1.67-2.9-3.79,0-2.54,1.25-3.17,2.32-3.17,1.55,0,2.78,1.41,2.78,3.68,0,2.93-1.53,3.28-2.2,3.28h0Z"/><path class="cls-1" d="M76.56,34.93c0-1.56,0-1.85-.01-2.18-.02-.35-.11-.46-.41-.56-.08-.02-.24-.04-.38-.04-.1,0-.16-.04-.16-.11s.08-.1.22-.1c.5,0,1.11.03,1.39.03.3,0,2.43.01,2.61,0,.18-.01.33-.05.4-.06.05-.01.11-.05.15-.05.06,0,.07.05.07.1,0,.07-.05.19-.08.67-.01.11-.03.56-.06.68-.01.05-.03.17-.11.17-.07,0-.08-.05-.08-.13,0-.07-.01-.25-.07-.38-.08-.18-.15-.33-.63-.38-.16-.02-1.31-.05-1.5-.05-.04,0-.06.04-.06.1v2.54c0,.06,0,.11.06.11.22,0,1.46,0,1.68-.02.23-.02.37-.05.46-.16.08-.07.11-.13.15-.13s.08.05.08.11-.02.23-.08.75c-.02.21-.04.62-.04.69,0,.09-.01.23-.1.23-.06,0-.09-.04-.09-.09-.01-.11-.01-.24-.03-.37-.05-.21-.17-.36-.53-.4-.17-.02-1.26-.05-1.5-.05-.04,0-.05.05-.05.11v.82c0,.35-.01,1.22,0,1.53.02.7.31.86,1.3.86.25,0,.65-.01.9-.13.24-.12.35-.34.41-.76.02-.11.04-.16.11-.16.08,0,.09.13.09.24,0,.23-.08.93-.13,1.14-.06.27-.15.27-.51.27-.72,0-1.3-.01-1.77-.04-.47-.01-.83-.02-1.11-.02-.11,0-.32.01-.54.01-.23.01-.47.02-.66.02-.12,0-.19-.04-.19-.11,0-.05.03-.11.15-.11.14,0,.25-.01.34-.04.2-.05.25-.24.28-.55.04-.44.04-1.25.04-2.19v-1.82Z"/><path class="cls-1" d="M11.18,34.93c0-1.6,0-1.89-.02-2.22-.02-.35-.08-.52-.43-.57-.09-.01-.27-.03-.36-.03-.04,0-.09-.05-.09-.08,0-.06.05-.08.17-.08.48,0,1.17.03,1.24.03.07,0,2.3.01,2.54,0,.21-.01.4-.05.48-.06.05-.01.1-.05.15-.05.04,0,.05.05.05.1,0,.07-.06.19-.09.49-.01.1-.04.56-.06.68-.01.05-.05.11-.1.11-.06,0-.08-.05-.08-.13,0-.07-.01-.24-.06-.36-.07-.17-.18-.24-.76-.32-.18-.02-1.42-.04-1.54-.04-.05,0-.06.04-.06.11v2.8c0,.07,0,.11.06.11.13,0,1.54,0,1.78-.02.25-.02.41-.04.52-.14.07-.07.12-.13.16-.13s.06.02.06.08-.06.23-.09.57c-.02.21-.05.59-.05.67,0,.09-.02.2-.1.2-.05,0-.07-.04-.07-.1,0-.1,0-.21-.05-.34-.04-.15-.13-.27-.55-.31-.29-.04-1.43-.05-1.61-.05-.06,0-.07.04-.07.07v.86c0,.35-.01,1.55,0,1.76.02.69.22.82,1.27.82.28,0,.79,0,1.07-.11.28-.12.42-.3.48-.71.02-.12.05-.16.11-.16s.07.08.07.16-.09.78-.14.99c-.07.27-.18.27-.59.27-.8,0-1.42-.02-1.85-.04-.45-.02-.73-.02-.88-.02-.02,0-.23,0-.46.01-.21.01-.45.02-.62.02-.11,0-.17-.02-.17-.09,0-.04.02-.09.09-.09.1,0,.23-.04.33-.05.2-.04.23-.24.28-.55.06-.42.06-1.23.06-2.23v-1.82Z"/><path class="cls-1" d="M35.91,39.59c-.14-.07-.16-.11-.16-.39,0-.51.05-.92.06-1.09,0-.11.02-.17.09-.17s.1.04.1.12,0,.23.04.37c.17.75.97,1.02,1.68,1.02,1.05,0,1.6-.59,1.6-1.37s-.4-1.09-1.34-1.79l-.48-.36c-1.15-.86-1.53-1.49-1.53-2.2,0-1.21.96-1.94,2.36-1.94.42,0,.85.06,1.1.12.21.05.29.05.38.05s.11.01.11.07c0,.05-.05.39-.05,1.09,0,.16-.01.23-.08.23s-.09-.05-.1-.13c-.01-.12-.1-.4-.16-.51-.07-.12-.42-.51-1.38-.51-.78,0-1.42.39-1.42,1.11,0,.65.33,1.03,1.38,1.74l.3.21c1.3.88,1.74,1.6,1.74,2.48,0,.61-.23,1.26-.99,1.76-.45.29-1.11.36-1.7.36-.5,0-1.11-.07-1.55-.28h0Z"/><polygon class="cls-3" points="19.25 19.67 19.26 19.67 19.26 19.67 19.25 19.67"/><polyline class="cls-2" points="19.26 19.67 19.25 19.68 19.25 19.68 19.26 19.68 19.26 19.67"/><polygon class="cls-3" points="22.64 10.31 22.64 10.31 22.64 10.3 22.64 10.3 22.64 10.31"/><polyline class="cls-2" points="28.71 22.34 28.71 22.35 28.71 22.34"/><polygon class="cls-3" points="28.95 10.92 28.94 10.92 28.95 10.92 28.95 10.92"/><path class="cls-2" d="M28.06,25.17c-.13,0,.16.01,0,0"/><polygon class="cls-3" points="23.42 13.99 23.42 13.99 23.42 13.99 23.42 13.99"/><polygon class="cls-3" points="23.65 15.43 23.64 15.44 23.65 15.43 23.65 15.43"/><polygon class="cls-3" points="22.32 14.91 22.32 14.91 22.32 14.91 22.32 14.91"/><polyline class="cls-2" points="31.67 24.38 31.67 24.38 31.66 24.38 31.67 24.38"/><polyline class="cls-2" points="34.41 23.97 34.41 23.97 34.42 23.97 34.42 23.97 34.41 23.97"/><path class="cls-2" d="M34.42,23.97h0s0,0,0,0"/><polyline class="cls-2" points="34.42 23.97 34.41 23.97 34.42 23.97"/><path class="cls-2" d="M34.41,23.97h0s0,0,0,0"/><polygon class="cls-3" points="34.87 11.54 34.86 11.54 34.86 11.54 34.87 11.54"/><path class="cls-1" d="M64.17,6.82c-5.7-.16-11.41-.09-17.09.37-4.06.33-8.13.89-12.09,1.85-.73.18-1.46.37-2.2.58-.4-.66-.85-1.28-1.36-1.85-1.11-1.25-2.54-2.37-4.19-2.79-1.25-.31-2.5-.04-3.57.66-.43.28-.8.63-1.13,1.03.11-2.23.52-4.44,1.13-6.58.02-.08-.28-.13-.3-.04-.65,2.29-1.06,4.67-1.14,7.05-.2.3-.37.63-.52.97-4.36.64-8.54,2.84-11.22,6.39-.05.07-.1.14-.16.22-.1.14.41.29.49.17,2.54-3.52,6.52-5.72,10.75-6.47-.29.77-.45,1.59-.48,2.38h0s0,0,0,0c-2.5.88-4.75,2.4-6.35,4.6.01-.02.31,0,.57.02-.23.26-.44.53-.64.81.02-.03.08-.03.1-.06.19-.26.39-.51.59-.75.17.01.31.02.34.02.14,0,.85.07.95-.06,1.16-1.58,2.68-2.85,4.4-3.77.03-.01.06-.02.08-.03.08.85.34,1.69.62,2.49.12.35.26.68.41,1.02.02,0-.01.01-.02.02-1.09,1.02-2.16,2.34-2.67,3.81h0c-.17.36-.3.74-.38,1.15-.18.88-.07,1.77.34,2.58.38.75.98,1.37,1.65,1.85.29.2.59.39.9.55-.88.15-1.77.28-2.67.37-1.29-.76-2.35-1.84-2.89-3.33-.48-1.32-.16-2.9.47-4.11.79-1.5,2.23-2.56,3.86-2.97.28-.07-.2-.27-.33-.24-2.09.52-3.78,1.99-4.46,4.05-.28.87-.35,1.8-.18,2.7.15.81.58,1.58,1.1,2.22.55.7,1.24,1.26,2,1.71-1.16.11-2.34.18-3.51.22-.06,0-.12.1-.18.1,1.26-.04,2.54-.11,3.82-.24.72.41,1.49.73,2.27.97,1.89.59,3.91.76,5.88.62,1.93-.14,3.88-.61,5.61-1.49,1.17.69,2.41,1.29,3.68,1.79,2.36.94,4.87,1.59,7.4,1.78.21.01.06-.12-.06-.13-2.78-.21-5.53-.99-8.08-2.11-.95-.42-1.88-.89-2.77-1.41.15-.08.3-.17.45-.25.31.15.63.3.95.45,2.21,1.04,4.58,2.05,7.08,2.06.06,0,.12-.1.18-.1-2.85-.02-5.51-1.31-8.04-2.51,1.06-.67,2-1.54,2.74-2.56,0,0,0,0,0,0s0,0,0,0c2.01-1.99,2.84-5.01,1.6-7.73-.42-.93-1-1.7-1.69-2.33-.11-.14-.22-.28-.33-.41-.71-.84-1.57-1.53-2.51-2.1,3.31-1.08,6.76-1.76,10.22-2.24,4.93-.68,9.92-.92,14.9-.94,1.57,0,3.14.02,4.71.07.43.01.87.01,1.3-.03.35-.04-.29-.07-.34-.07M32.88,10.19c.1.19.19.37.29.56h0c-.33-.12-.66-.22-1-.31.24-.09.48-.17.72-.25M23.58,24.77h0c1.7.51,3.52.55,5.28.49.95-.03,1.91-.14,2.84-.34.07.04.13.09.2.13-.9.39-1.87.65-2.85.8-1.94.3-3.98.19-5.85-.44-.31-.1-.62-.23-.91-.37.43-.08.87-.17,1.3-.27h0s0,0,0,0M31.67,24.38s0,0,0,0c-.1.04-.2.08-.3.11-.54-.38-1.07-.78-1.58-1.2.61.39,1.24.75,1.88,1.09,0,0,0,0,0,0h0ZM31.16,24.56c-.78.27-1.6.44-2.41.54-.23.03-.46.05-.69.06,0,0,0,0,0,0,.16.01-.13,0,0,0-.02,0-.05,0-.09,0-.51-.02-1.01-.09-1.51-.19-.59-.11-1.18-.27-1.75-.49,1.08-.3,2.13-.67,3.14-1.12.37-.16.74-.34,1.1-.53.7.62,1.44,1.2,2.22,1.73M28.71,22.35h0s0,0,0,0c-.36-.33-.7-.68-1.03-1.04-1.65-1.78-2.94-3.84-3.82-6.08,1.74-1.73,3.95-3,6.24-3.98,1.42.38,2.77,1,3.9,1.95.09.45.15.92.18,1.38.12,2.09-.58,4.11-1.95,5.69-.85.99-1.89,1.78-3.03,2.41,0,0,0,0,0,0-.16-.11-.33-.23-.49-.34M22.85,11.71c-.04-.2-.07-.4-.1-.61,1.91-.42,3.92-.47,5.86-.16.07.01.14.02.22.04h0c-1.93.79-3.77,1.77-5.4,3.02t0,0h0s0,0,0,0c-.24-.75-.43-1.51-.57-2.29M22.64,10.3h0s0,0,0,0c-.08-.68-.12-1.37-.13-2.06.23-.03.46-.05.69-.07,2.64-.23,5.43.07,7.91,1.02.42.16.84.35,1.25.56-.46.14-.92.28-1.38.43-1.69-.32-3.46-.37-5.05-.32-1.11.04-2.22.18-3.3.44,0,0,0,0,0,0M25.83,10.05c1.29-.18,2.55-.02,3.82.25.19.04.39.09.58.14-.43.15-.88.31-1.3.48h.01s0,0,0,0h0c-1.12-.2-2.24-.27-3.3-.24-.97.03-1.94.15-2.9.37-.01-.07-.02-.14-.03-.22h0c1.01-.38,2.06-.64,3.12-.79M23.64,15.44h0s0,0,0,0c0,0,0,0,0,0h0c.89,2.19,2.2,4.2,3.81,5.93-.21-.17-.41-.34-.61-.52-1.52-1.34-2.86-2.9-3.87-4.66.21-.25.44-.51.67-.75M30.2,11.21c.35-.15.71-.29,1.06-.43.88.34,1.72.8,2.45,1.37.09.29.17.58.24.88-1.07-.85-2.38-1.44-3.76-1.81M22.53,6.83c.22-.31.47-.6.75-.85.77-.71,1.77-1.05,2.82-1.03.75.02,1.48.25,2.15.57,1.62.78,2.96,2.12,3.97,3.59.1.14.2.29.28.43-.55-.28-1.13-.52-1.72-.72-2.51-.85-5.28-1.11-7.91-.9-.12.01-.24.02-.36.03,0-.38,0-.76.02-1.14M22.22,7.31c0,.23,0,.46,0,.69-.12.01-.24.03-.37.05.11-.25.23-.5.37-.74M21.69,8.47s.03-.08.04-.12c.16-.03.33-.05.49-.08.01.7.06,1.4.14,2.09-.37.1-.73.2-1.09.32.02-.76.17-1.51.42-2.23M21.29,11.45h0c.27-.14.55-.27.84-.39.1-.04.19-.08.29-.12h0c0,.06.02.12.03.18-.39.1-.78.21-1.16.34,0,0,0,0,0,0M21.3,11.5c.38-.13.77-.24,1.16-.33.11.71.26,1.41.44,2.11.08.3.18.62.28.92h0c-.29.22-.58.47-.86.72,0,0,0,0,0,0h0s0,0,0,0c0-.02-.02-.04-.03-.06-.47-1.05-.87-2.2-.99-3.35M22.81,16.4s.02-.03.03-.04h0s0,0,0,0c.2.35.42.69.64,1.02,1.33,1.96,3.08,3.62,5,5.02.15.14.31.29.47.42-1.37.72-2.86,1.23-4.34,1.62-.29-.12-.57-.25-.84-.39-1.14-.61-2.38-1.71-2.66-3.04-.33-1.6.77-3.43,1.7-4.61M19.36,22.19c-.33-.79-.32-1.68-.1-2.51h0s0,0,0,0c0,0,0,0,0,0h0s0,0,0,0c0,0,0,0,0,0h0c-.05.25-.08.5-.09.75-.08,1.91,1.92,3.35,3.48,4.01.26.11.52.21.79.29-.42.09-.85.18-1.28.25-1.21-.6-2.26-1.52-2.8-2.79M25.39,26.89c-1.94-.03-4.15-.44-5.94-1.43.89-.1,1.78-.22,2.66-.38,1.33.65,2.85.92,4.31.98,1.86.07,3.78-.23,5.49-.99.15.1.31.2.47.29-2.12,1.11-4.61,1.57-7,1.53M31.93,24.87h0c.15-.04.3-.08.46-.12h0s.04.02.07.03c-.12.06-.25.13-.37.18-.05-.03-.11-.07-.16-.1M32.55,25.27c-.15-.09-.3-.19-.45-.28.02-.01.05-.02.07-.03.1-.05.21-.1.31-.15.16.08.32.16.48.24-.13.08-.26.16-.4.23M32.6,24.69l.06-.02h0,0s0,0,0,0c-.01,0-.03.02-.05.03,0,0,0,0-.01,0M34.42,23.97s0,0,0,0h0c-.41.36-.85.68-1.3.97-.16-.08-.32-.15-.48-.23.04-.02.07-.04.11-.06.57-.18,1.13-.4,1.67-.68,0,0,0,0,0,0,0,0,0,0,0,0h0ZM36.55,18.61h0c-.26,1.7-1.22,3.2-2.49,4.33-.65.58-1.41,1.02-2.21,1.37-.91-.49-1.79-1.02-2.64-1.61,1.73-.96,3.29-2.26,4.24-4.01.88-1.62,1.1-3.48.79-5.28.12.11.23.21.34.33,1.23,1.26,1.98,2.95,1.98,4.72v.15ZM36.62,17.83h0s0,0,0,0h0c-.04-.44-.12-.87-.25-1.3-.41-1.38-1.18-2.47-2.18-3.32-.02-.11-.04-.22-.07-.33-.04-.18-.09-.35-.13-.53,1.62,1.34,2.69,3.22,2.63,5.48h0ZM34.86,11.54h0s0,0,0,0h0c-.45-.27-.93-.49-1.42-.68-.11-.24-.22-.47-.34-.7.64.4,1.23.86,1.76,1.38h0Z"/><polyline class="cls-2" points="32.6 24.69 32.66 24.67 32.67 24.67"/><path class="cls-2" d="M36.31,22.6s0,0,0,0"/></g></svg>