<?xml version="1.0" encoding="UTF-8"?><svg id="Capa_2" xmlns="http://www.w3.org/2000/svg" viewBox="0 0 59.22 40.56"><defs><style>.cls-1{fill-rule:evenodd;stroke-width:0px;}</style></defs><g id="Home"><path class="cls-1" d="M59.1,26.51c-.04-.49-.13-.76-.2-1.25-.07-.49-.22-1.08-.31-1.57-.09-.49-.25-1.3-.36-1.78-.12-.48-.28-.95-.42-1.43-.14-.47-.38-1.07-.55-1.53-.17-.46-.31-.83-.51-1.28-.19-.45-.42-.86-.64-1.3-.21-.44-.38-.92-.62-1.35-.24-.43-.57-.81-.84-1.23-.26-.42-.51-.85-.79-1.25-.29-.4-.65-.74-.96-1.14-.31-.39-.56-.81-.89-1.19-.33-.38-.67-.75-1.02-1.1-.35-.36-.73-.69-1.09-1.02-.37-.34-.73-.68-1.11-1-.38-.32-.79-.61-1.19-.91-.4-.3-.75-.68-1.16-.95-.41-.28-.86-.51-1.29-.77-.43-.26-.88-.48-1.32-.71-.44-.24-.84-.56-1.29-.78-.45-.21-.95-.34-1.41-.53-.46-.19-.9-.44-1.37-.61-.47-.17-.96-.28-1.44-.43-.48-.15-.99-.15-1.48-.27-.48-.12-.96-.25-1.45-.35-.49-.1-.97-.23-1.46-.31-.49-.08-.99-.16-1.49-.21-.5-.05-.99-.17-1.49-.2-.5-.03-1-.03-1.5-.04-.5,0-1,.02-1.5.03-.52.02-1.06-.03-1.58.02-.52.05-1.03.23-1.55.31-.52.07-1.02.23-1.53.33-.51.1-1.02.21-1.53.34-.51.13-1,.29-1.5.45-.5.16-1.04.2-1.53.39-.49.19-.99.36-1.47.57-.48.21-.89.56-1.36.8-.47.24-.99.36-1.45.63-.45.26-.82.67-1.25.96-.44.29-.94.47-1.37.79-.42.31-.82.65-1.23.98-.41.33-.81.67-1.2,1.02-.39.35-.75.73-1.12,1.11-.37.37-.76.72-1.11,1.11-.35.39-.67.81-1,1.22-.31.39-.64.76-.93,1.17-.29.4-.52.85-.78,1.27-.26.42-.53.84-.77,1.28-.24.43-.36.93-.57,1.38-.22.45-.44.89-.63,1.34-.19.46-.42.9-.59,1.36-.17.47-.44.9-.59,1.37-.15.47-.15.99-.27,1.47-.13.48-.35.94-.45,1.42-.1.49-.21.97-.29,1.46-.08.49-.05,1-.1,1.49-.05.49-.16.98-.19,1.48-.03.5,0,1,0,1.49,0,.5.03.99.06,1.49.02.5.13.98.17,1.48.05.5.04.99.11,1.48.07.49.05,1,.15,1.49.1.49.27.96.4,1.44l.2.24.34.13.24.12.27.13.18.03.15.1.24.02.18.11.3.04.21.05.18.11.19.08.18.11.2.06.2.06.18.09.18.11.19.07.2.05.2.05.17.12.19.07.2.06.2.06.2.04.17.13.2.06.2.06.2.06.19.08.2.04.2.04.19.08.2.03.2.06.19.08.2.06.19.07.2.05.2.06.21.02.19.07.2.05h.21s.19.09.19.09l.2.06.2.05h.21s.2.07.2.07l.2.06.2.06.21.02h.21s.2.03.2.03l.21.02.19.1h.21s.2.06.2.06h.21s.2.04.2.04l.21.02.21.02.2.06.21-.03h.21s.2.08.2.08l.2.03.21.02h.21s.21.02.21.02l.21-.03h.2s.2.07.2.07l.21-.07.2.02.2.06h.21s.21-.01.21-.01h.21s.21-.03.21-.03h.21s.21.03.21.03h.21s.2-.06.2-.06l.21.05.2-.04h.21s.21.01.21.01h.21s.2-.03.2-.03l.2-.05.21.04.2-.07h.21s.21,0,.21,0l.2-.06.2-.02.21.05.2-.08.21.03.2-.07.2-.04h.21s.21.02.21.02l.2-.08.2-.05h.21s.2-.03.2-.03l.2-.04h.21s.21,0,.21,0l.19-.1.21.03.2-.08h.21s.21-.02.21-.02l.2-.06.2-.05h.21s.21-.04.21-.04l.19-.12h.21s.2-.02.2-.02l.2-.04.2-.04.2-.04.19-.1h.21s.21-.02.21-.02l.2-.04.19-.09.2-.05h.21s.19-.1.19-.1l.21-.03.21-.03.2-.06.19-.09.21-.02.2-.07.21-.03.19-.1.21-.03h.21s.19-.09.19-.09l.19-.08.21-.02.2-.04.2-.06.2-.07.2-.05.18-.12.2-.05.2-.05.2-.05.2-.03.18-.11.2-.05h.21s.18-.11.18-.11l.19-.06.21-.03.18-.1.2-.04.2-.03.19-.08.19-.06.19-.07.2-.05.21-.02.2-.05.19-.07.19-.09.19-.08.2-.05h.21s.2-.04.2-.04l.18-.1.2-.05.2-.06.2-.05.2-.03.19-.08.21-.02.19-.07.2-.06h.21s.2-.04.2-.04l.19-.09.19-.07.2-.03.2-.04.2-.04.2-.03.18-.12.21.02.2-.06.2-.04.19-.09.2-.03.2-.03.2-.03.19-.09h.21s.19-.1.19-.1l.21.02.19-.1.2-.06.21.02.19-.09.2-.03.2-.03.2-.07.21-.02h.21s.2-.03.2-.03l.2-.05.2-.06h.21s.2-.05.2-.05l.21-.02.2-.06.2-.05.2-.05h.21s.2-.05.2-.05l.2-.06.2-.03h.21s.2-.03.2-.03l.2-.07h.21s.2-.06.2-.06l.2-.03.21.03.2-.1.21.03.2-.03h.21s.2-.08.2-.08l.2-.03.21-.02.2-.03h.21s.21.03.21.03l.2-.04.2-.02.2-.05h.21s.21,0,.21,0h.21s.21,0,.21,0l.2-.03.2-.05.21.04.2-.04.21.04.2-.05.21.02.2-.05.21.03.2-.05.21.06.21-.05.21.03.21-.02h.21s.21.03.21.03l.21-.03.21.02h.21s.21,0,.21,0h.21s.2.06.2.06h.21s.21-.03.21-.03l.2.07.2.03h.21s.21-.03.21-.03l.2.08h.21s.21-.01.21-.01h.21s.1.04.1.04l-.06-.04-.2-.04h-.21s-.18-.12-.18-.12l-.19-.07h-.21s-.18-.11-.18-.11l-.2-.06-.21-.02h-.21s-.2-.06-.2-.06l-.18-.11-.2-.07-.22.04-.19-.1-.2-.04-.2-.04h-.21s-.2-.06-.2-.06l-.21.02-.19-.1-.2-.02h-.21s-.19-.09-.19-.09l-.21.05-.2-.03-.2-.08-.21.03-.2-.06h-.21s-.2-.03-.2-.03l-.2-.05-.21.06h-.21s-.2-.12-.2-.12l-.21.05-.21.03-.2-.03h-.21s-.2-.03-.2-.03l-.2-.07-.21.07-.21-.03-.2.02-.21-.05-.2.04h-.21s-.2.04-.2.04h-.21s-.21-.05-.21-.05l-.2.09-.21-.05-.2.04h-.21s-.21,0-.21,0l-.2.08-.21-.08-.2.05-.2.08h-.21s-.2,0-.2,0l-.2.03-.2.04-.21-.03-.2.05-.2.04h-.21s-.21,0-.21,0l-.2.06h-.21s-.2.06-.2.06l-.2.05-.2.04-.2.03-.2.03h-.21s-.19.07-.19.07l-.21-.03-.18.14-.22-.05-.2.04-.19.12-.22-.06-.2.06-.2.03-.19.08s-.03,0-.04,0c-.08,0-.06,0-.13,0-.03,0-.04,0-.06.01-.03-.03-.07-.06-.12-.08-.12-.05-.05,0-.15-.02-.1-.02-.26-.11-.36-.09-.09.01-.06.03-.15.05-.09.02-.12.02-.2.05-.09.03-.09.12-.14.16-.05.04-.22.13-.22.13,0,0-.09-.1-.16-.12-.07-.02-.07.03-.17.03-.1,0-.19-.15-.27-.13-.08.02-.08.09-.14.11-.06.03-.18,0-.19.03-.01.02-.14.14-.14.14,0,0-.08-.16-.15-.22-.08-.06-.12-.04-.18-.07-.06-.04-.14-.17-.2-.18-.06-.01-.09.04-.18,0-.09-.03-.21-.09-.28-.12-.07-.03-.2.01-.29.02-.09,0-.04.06-.12.06-.09,0-.24.1-.32.16-.08.05-.04.11-.1.15-.06.04-.07.08-.11.17-.03.09-.01.14-.04.16-.02.01-.03.06-.05.1-.04,0-.09-.01-.17,0-.09.02-.13,0-.18.02-.06,0-.12.07-.17.1-.05.03-.07.02-.11.06-.04.04-.1.21-.1.21,0,0-.02-.05-.06-.1-.03-.06-.07-.05-.11-.1-.04-.05-.06.02-.1,0-.05-.02-.03-.05-.1-.09-.06-.04-.1,0-.17-.03-.07-.02-.05.03-.11.04-.06,0-.09.02-.16.03-.07.02-.13.09-.13.09l-.11-.11s-.06-.06-.1-.1c-.05-.05-.07-.08-.11-.1-.04-.02-.18-.06-.18-.06,0,0-.1-.02-.14-.06-.05-.04-.08-.02-.21-.02-.13,0-.1-.05-.19-.06-.09,0-.18.04-.18.04,0,0-.15.02-.22.05-.06.02-.12.03-.17.03-.05,0-.07.06-.11.1-.04.04-.16.07-.21.12-.05.05-.05.09-.08.13-.03.04-.1.13-.15.18-.05.06-.1.25-.1.25,0,0-.1-.06-.15-.09-.05-.02-.12-.02-.18-.03-.06,0-.11-.02-.11-.02,0,0,0-.08-.02-.11-.02-.03-.04-.06-.06-.1-.02-.04-.06-.11-.08-.16-.02-.05-.1-.06-.14-.09-.03-.03-.09-.07-.14-.1-.05-.02-.07-.06-.11-.08-.04-.02-.12,0-.19,0-.07-.02-.06-.05-.14-.06-.07,0-.12,0-.22,0-.1,0-.1.06-.18.06-.07,0-.09-.02-.14-.02-.05,0-.13.05-.18.06-.06.02-.06.08-.11.11-.06.03-.1.02-.16.05-.06.03-.06.1-.1.14-.05.04-.07.02-.1.06-.03.03-.1.13-.1.13,0,0-.1.02-.14,0-.04,0-.1,0-.14,0-.05,0-.1,0-.14,0-.04,0-.08.03-.12.04-.04,0-.1,0-.16.02-.06.02-.05.06-.09.08-.04.02-.14.02-.18.03-.04.02-.03.07-.06.1-.03.03-.06.04-.1.06-.03.02-.04.08-.07.11-.03.03-.06.04-.08.07-.02.03-.05.13-.05.13,0,0-.12-.1-.16-.14-.04-.05-.02-.06-.09-.1-.06-.03-.18-.06-.26-.06-.08,0-.16-.06-.26-.08-.1-.02-.1.06-.16.06-.06,0-.26,0-.34,0-.08,0-.13.08-.18.09-.05.02-.22.07-.3.1-.07.03-.06.08-.1.13-.05.06-.12.11-.16.15-.04.04-.02.14-.06.2-.03.06-.06.05-.07.1-.02.05-.04.17-.04.17,0,0-.12-.1-.14-.15-.02-.06-.04,0-.08-.03-.04-.02-.1,0-.15-.03-.05-.02-.06-.04-.11-.05-.06,0-.09.05-.15.05-.06,0-.06-.03-.11-.02-.06,0-.12.02-.12.02,0,0-.05-.06-.08-.09-.03-.02-.05-.07-.1-.11-.05-.04-.08,0-.14-.04-.06-.03-.07-.05-.16-.08-.09-.03-.11,0-.18,0-.07,0-.1-.02-.17-.02-.07,0-.12.07-.18.08-.06,0-.21,0-.27.04-.06.03-.08.08-.12.09-.04,0-.14.08-.2.11-.06.03-.07.09-.11.13-.04.04-.09.03-.16.09-.07.06-.12.21-.12.21,0,0-.07-.06-.1-.06-.02,0-.08-.05-.13-.06-.05-.02-.08,0-.12,0-.04,0-.1-.02-.17-.02-.07,0-.1.06-.15.09-.06.03-.07,0-.14.04-.07.04-.1.13-.1.13,0,0-.07-.14-.09-.2-.02-.06-.03-.08-.06-.13-.02-.05-.08-.04-.14-.09-.06-.05-.04-.06-.07-.09-.03-.04-.13-.06-.19-.07-.06,0,0-.08-.06-.09-.06-.02-.14,0-.21,0-.07,0-.15.02-.22,0-.06,0-.11,0-.22.06-.1.05-.15.07-.15.07,0,0-.03-.09-.07-.14-.04-.06-.1-.06-.18-.1-.07-.04-.09-.06-.18-.09-.09-.02-.24-.06-.3-.06-.06,0-.14.08-.18.09-.05,0-.14.02-.2.06-.06.04-.07.1-.12.16-.05.06-.1.06-.12.1-.02.04-.04.11-.06.18-.02.07-.06.07-.08.16-.02.09,0,.22,0,.22,0,0-.09-.06-.13-.07-.04,0-.12,0-.19,0-.07,0-.18-.06-.26-.06-.08,0-.1.06-.15.09-.05.02-.18.07-.23.12-.06.05-.06.12-.09.17-.03.06-.09.07-.13.16-.04.09-.03.21-.03.21,0,0-.14-.07-.19-.1-.05-.03-.12-.02-.18-.02-.06,0-.12-.04-.19-.06-.07-.02-.11.08-.18.1-.06.02-.11.04-.21.11-.1.07-.1.17-.1.17,0,0-.04-.02-.06-.06-.02-.04-.06-.04-.1-.06-.05-.02-.15-.15-.19-.17-.04-.02-.13.02-.18.02-.05,0-.22,0-.28.02-.06.02-.14.12-.2.16-.06.04-.11.06-.18.13-.06.08-.11.24-.11.24,0,0-.05-.02-.08-.04-.03-.02-.11-.08-.18-.1-.06-.02-.1.02-.18.06-.08.03-.1-.02-.19.03-.09.05-.12.09-.12.09,0,0-.05-.13-.09-.17-.04-.05-.06-.09-.1-.17-.04-.08-.09-.08-.19-.12-.1-.04-.11-.09-.19-.12-.08-.03-.1.03-.17.04-.07,0-.21-.02-.29-.02-.08,0-.15.1-.25.14-.1.05-.1,0-.16.03-.06.04-.25.25-.25.25,0,0-.05-.15-.08-.17-.03-.02-.02-.07-.06-.16-.04-.09-.06-.12-.12-.16-.06-.04-.03-.09-.11-.14-.08-.05-.24-.14-.33-.13-.09,0-.04-.06-.13-.06-.09,0-.22-.03-.29,0-.06.03-.18.1-.27.13-.09.04-.12,0-.18,0-.06.02-.13.15-.18.19-.06.04-.1.02-.18.09-.07.06-.14.23-.14.23,0,0-.14-.1-.15-.13-.02-.02-.13,0-.19-.02-.06-.02-.07-.09-.15-.1-.08-.02-.17.14-.26.15-.1,0-.1-.04-.17-.02-.07.02-.15.13-.15.13,0,0-.18-.08-.23-.12-.06-.04-.06-.13-.15-.15-.09-.02-.12-.02-.21-.03-.09-.02-.06-.03-.15-.04-.1,0-.26.1-.35.12-.1.02-.03-.02-.14.03-.11.06-.18.17-.18.17,0,0,.15.08.34.13.12.03.23,0,.43.05.07.01.14.05.21.06.09.02.18.02.28.04.05,0,.12.04.18.05.08.01.15,0,.24.02.08.01.13.05.22.07.09.01.23,0,.32.01.07,0,.14.05.21.06.07,0,.13-.02.2-.01.05,0,.12.04.16.04.06,0,.11-.01.17,0,.06,0,.18.04.24.05.11.01.16,0,.28,0,.05,0,.11.03.16.03.06,0,.12,0,.17,0,.06,0,.13.01.19.02.03,0,.12.03.15.03.07,0,.1,0,.17,0,.08,0,.2.04.28.05.12,0,.2-.01.32,0,.06,0,.12,0,.18.01.04,0,.08-.02.12-.02.05,0,.1.03.15.03.02,0,.04,0,.05,0,.06,0,.12.02.17.02.04,0,.08,0,.12,0,.06,0,.13,0,.19,0,.07,0,.16.05.23.05.06,0,.09-.04.15-.04.07,0,.14,0,.2,0,.07,0,.14,0,.22,0,.12,0,.2-.03.26-.03.07,0,.14.04.22.04.03,0,.05,0,.08,0,.05,0,.11,0,.16,0,.06,0,.11,0,.17,0,.05,0,.11.01.16.01.06,0,.17.04.23.04.11,0,.17-.04.28-.04.03,0,.06,0,.1,0,.04,0,.08,0,.12,0,.04,0,.15.02.19.02.1,0,.13-.03.23-.03.06,0,.12,0,.18,0,.06,0,.13,0,.19,0,.03,0,.08-.04.11-.04.05,0,.08.04.13.04.08,0,.13.02.21.02.04,0,.12-.03.16-.03.04,0,.07,0,.11,0,.04,0,.09,0,.13,0,.07,0,.15,0,.23,0,.05,0,.18-.05.23-.05.09,0,.11.04.21.03.03,0,.06,0,.1,0,.05,0,.09,0,.14,0,.11,0,.15.03.26.02.06,0,.19-.05.25-.05.08,0,.17,0,.25-.02.01,0,.03,0,.05,0,.07,0,.09-.05.16-.05.04,0,.13.03.17.03.06,0,.19-.04.26-.04.1,0,.13.01.23,0,.07,0,.13,0,.19-.01.11,0,.23.02.33,0,.05,0,.08-.04.13-.04.04,0,.09,0,.13-.01.05,0,.09,0,.14-.01.08,0,.13-.04.21-.04.05,0,.12.01.16.01.07,0,.14-.01.21-.02.04,0,.1-.03.14-.03.05,0,.09.01.14,0,.06,0,.12-.01.18-.02.06,0,.1,0,.16,0,.05,0,.11-.03.16-.03.05,0,.1-.01.15-.02.08,0,.17-.04.25-.05.06,0,.12,0,.18,0,.09-.01.18-.04.27-.05.09-.01.18,0,.27,0,.06,0,.12-.02.18-.02.12-.02.18-.06.29-.08.06,0,.18.01.25,0,.07,0,.14-.02.21-.03.06,0,.16-.09.23-.09.1-.01.15.04.25.03.07,0,.13-.02.2-.03.05,0,.07-.03.12-.04.05,0,.14,0,.2-.01.12-.02.22-.09.34-.11.08-.01.17.02.25.01.05,0,.09-.02.14-.02.04,0,.07-.01.11-.02.11-.02.2-.08.31-.1.1-.02.2,0,.3-.01.1-.02.17-.09.27-.11.05,0,.1,0,.16,0l-.1.08h-.21s-.19.09-.19.09l-.2.06h-.21s-.2.03-.2.03l-.19.1h-.21s-.2.06-.2.06l-.2.03-.2.04-.19.1-.21.02-.19.07-.22-.03-.19.1-.21.02-.19.07-.2.02-.2.04-.19.07-.2.04-.2.07-.22-.04-.2.05-.19.09-.22-.04-.19.11-.21-.03-.2.06-.2.05-.2.06-.2.05h-.21s-.21.02-.21.02l-.2.05-.2.06-.22-.05-.2.02-.2.05-.2.07-.21-.05-.2.08-.2.06-.21-.02-.2.06-.2.03h-.21s-.21.02-.21.02h-.21s-.21,0-.21,0h-.2s-.21.02-.21.02l-.2.05-.21-.02-.2.05-.21-.02-.2.08-.2.02-.21-.07-.2.03-.2.03-.21-.07-.2.05-.21-.04h-.21s-.21.05-.21.05l-.21.03h-.21s-.2-.05-.2-.05l-.2-.02-.21.05-.2-.02-.2-.06-.21.06-.2-.04-.21.04-.2-.05-.2-.04-.21.03h-.21s-.21-.03-.21-.03l-.2-.1h-.21s-.21,0-.21,0l-.21.02-.2-.04-.2-.07h-.21s-.21.06-.21.06l-.19-.12-.21.06-.2-.03-.2-.03-.19-.1h-.21s-.21.05-.21.05l-.2-.08-.2-.03-.21-.02h-.21s-.19-.12-.19-.12h-.21s-.21,0-.21,0h-.21s-.19-.09-.19-.09l-.2-.07h-.21s-.19-.06-.19-.06l-.2-.07-.21.02-.21-.02h-.21s-.19-.1-.19-.1l-.21-.02-.2-.04-.2-.04-.2-.07-.2-.07-.2-.05h-.21s-.2-.06-.2-.06l-.2-.04h-.21s-.19-.09-.19-.09l-.2-.03-.21-.02-.2-.04-.17-.15h-.06s-.25-.01-.25-.01l-.2-.11-.22-.1h-.23s-.17-.08-.17-.08l-.18-.04-.18-.13-.29-.07h0s-.11-.13-.11-.13v-.18s0-.18,0-.18v-.19s-.02-.18-.02-.18l-.07-.17-.03-.18v-.18s-.06-.18-.06-.18l-.04-.18-.02-.18v-.16s0-.15,0-.15l-.05-.23.03-.21-.15-.16.08-.28-.02-.3-.05-.19v-.24s-.05-.14-.05-.14l.06-.18.03-.27-.08-.2-.05-.19.02-.25.02-.2-.07-.24.1-.15-.07-.19v-.18s.14-.27.14-.27l-.03-.1v-.12s-.06-.18-.06-.18l.05-.22.05-.24-.03-.25-.13-.17.06-.17.1-.15.09-.23-.04-.25v-.16s-.08-.15-.08-.15l.18-.17v-.19s-.06-.15-.06-.15l.09-.2-.05-.11.1-.21-.08-.21.2-.21-.08-.27.08-.19.03-.2.03-.2.07-.2v-.2s-.07-.2-.07-.2l.04-.15-.04-.16.1-.16.15-.1-.04-.19.06-.18.02-.21.09-.21.16-.16-.05-.28-.02-.22.15-.19.05-.28.12-.22.16-.2v-.16s.05-.14.05-.14v-.27s.1-.18.1-.18l.06-.25.1-.2.02-.27.19-.17.03-.22.05-.16v-.29s.3-.13.3-.13v-.18s.05-.16.05-.16l.08-.14.21-.22v-.24s.06-.15.06-.15l.02-.17.23-.08v-.21s.14-.21.14-.21l.08-.22-.03-.3.2-.15.21-.15-.03-.21v-.17s.06-.18.06-.18l.2-.13.08-.21.08-.25.26-.11.05-.21.08-.15-.03-.16.22-.1.16-.17.13-.19.03-.27.17-.05.21-.21.06-.3.13-.22.11-.15.18-.19.07-.27.19-.18.18-.11.18-.15.09-.16.08-.15v-.16s.23-.08.23-.08l.14-.22.13-.24h.16s.15-.26.15-.26l.06-.15.02-.18.2-.09.23-.13.14-.27.17-.13.19-.09.18-.12-.02-.27.29-.04.18-.23.19-.02.09-.18.12-.13.08-.13.21-.16.15-.19.24-.09.08-.19.18-.14.23-.18.22-.08.08-.12v-.15s.26-.1.26-.1l.18-.02.11-.14.08-.13.21-.07.09-.18.09-.1.1-.14h.28s.17-.16.17-.16l.22-.08.18-.2.19-.05.23-.09.06-.27.18-.18.33.03.21-.15.17-.09.14-.19.13-.1.15-.03.18-.13h.29s.18-.15.18-.15l.18-.22.2-.03.24-.08.14-.16h.3l.15-.22h.21s.22-.2.22-.2h.27s.2-.21.2-.21h.24s.16-.13.16-.13l.16-.09.28-.02.22-.15.18-.19.29.05.22-.1.14-.06.24-.1.2-.21.28.04h.14s.15-.05.15-.05l.15-.15.21-.07.29-.07.19-.08.2.05.15-.13.16-.06.18-.05.22-.02h.17s.17.05.17.05l.17-.11.13-.13.17.02h.18s.19.05.19.05l.17-.17.22-.06.17-.02.13-.11.21.07.23-.02.16-.1.18.07h.2s.2.01.2.01l.14-.1.19-.03.18-.11.2-.03.19.08.22.02.18-.07h.19s.16-.05.16-.05l.16-.06.18-.02.17-.02.19.03.21.03.19-.07h.19s.19.11.19.11l.22-.04h.21s.16-.15.16-.15l.23.13.25.03h.21s.2-.07.2-.07l.21.04.18-.02h.16s.22.05.22.05l.25.02h.19s.17-.05.17-.05l.16-.03.21.11.25.05h.22s.23-.05.23-.05l.26.07.25.11.23-.11.17.05.17.02.19.04.17.07.24-.14.19.09.16.1.18.03.23.02.2.13.23.06.17-.03.19.06.18.09.19-.02.15-.03.15.06.21.06.17.13.27.07.16.06h.19s.12-.03.12-.03l.18.06.24.12h.27s.2.16.2.16l.21-.05.29.07.21.21.22.06.2.12.22.15.25.02.22.1.2.05h.23s.18.15.18.15l.14.1.24.17.3-.07.21.14.22.2.22.09.16.07.3.05.22.11.09.14h.17s.15.05.15.05l.2.16.15.07.22.21.22.11.16.16.3.02.22.06.07.25.25.09.19.22.22.05.18.15.23.1.11.21.17-.06.16.07.15.17.16.09.18.25.22.05.18.08.1.13.08.15.13.2.25.04.13.07.15.06.05.23.17.14.26.14.15.13.19.12.21.19.2.13.13.15.12.25.16.14.12.14.19.21.15.15.19.1.2.2.23.09.03.25.18.17.19.2.11.11.1.12.12.11.17.13.06.17.3.08-.02.17.11.12.13.13.05.3.21.16.24.15.05.19.14.22.22.1.15.25.09.19.1.26.11.2.16.17.17.11.1.28.19.16-.04.21.17.06.13.12.04.23.14.11.09.29.22.15.07.14v.19s.09.15.09.15l.23.15v.2s.07.28.07.28l.22.17.02.17.18.2.05.27.1.12-.02.17.12.13.09.23.13.12.09.11.06.15.04.27.09.15v.29s.14.23.14.23l.11.16.1.23.06.26.09.19.18.25-.05.25.1.21.08.18.1.28.05.14v.2s.04.19.04.19l.06.17.11.22v.2s.15.25.15.25l-.07.17.13.12.05.15-.07.29.11.1v.16s.05.15.05.15l.17.19-.09.26.08.14.12.13-.04.27-.06.16.11.24.08.16-.06.17.04.21.04.29.07.22.1.21-.02.16v.16s.02.2.02.2v.23s.05.14.05.14l.12.12c.05-.07.08-.16.07-.29-.02-.5-.07-.92-.11-1.41ZM29.44,36.62c.06-.01.12-.01.18-.02l-.07.05-.21.02h-.04s.09-.05.14-.06Z"/><path class="cls-1" d="M53.61,15.35c.02.17-.18.21-.28.28-.07.05-.13.14-.21.18-.38.24-.94.33-1.42.48-.06.02.06.04.02.11-.17.03-.32.09-.48.14-.05.05.02.09,0,.18-.6.1-.78.61-1.44.64.07-.28.16-.55.16-.89.23-.18.66-.17.92-.32,1-.05,2.05-.23,2.66-.8h.07ZM47.93,16.25c-.13-.33-.31-.61-.54-.84-.11-.11-.19-.24-.32-.34-.26-.2-.6-.34-.9-.49-.24-.12-.48-.23-.72-.35-.17-.25-.5-.25-.76-.44-.03-.03-.03-.08-.07-.11-.1-.09-.31-.14-.46-.23-.1-.06-.14-.15-.21-.18-.08-.03-.17-.02-.25-.05-.5-.18-.93-.57-1.4-.8-.27-.13-.59-.18-.78-.44-.32-.01-.58-.36-.87-.18.04.26.29.33.44.48-.08.24.21.31.32.44-.04.29.23.46.44.57-.02.06-.09.06-.07.16.12.23.38.33.6.46-.09,0-.14.02-.14.11.06.23.27.31.44.44.1.3.4.39.69.5-.02.1.04.11.05.18.35.26.7.53,1.15.69,0,.13.06.2.09.3.05.04.13.05.18.09,0,.18.15.2.23.3,0,.34.46.44.55.78.33.02.35.33.69.25-.06.15-.15.26-.24.37-.07.09-.12.18-.2.25-.08.07-.18.11-.27.17-.08.06-.16.14-.25.2-.08.06-.22.07-.3.13-.1.07-.16.18-.26.24-.09.05-.18.11-.28.16-.22.12-.43.2-.66.31-.08.04-.17.11-.25.14-.13.06-.33.14-.48.22-.14.07-.25.15-.25.21.13.06.45-.12.71-.19.17-.04.35-.08.53-.11.14-.02.27,0,.41-.03.21-.03.43-.07.62-.07.32.01.62.08.85.23.32.03.53.24.57.55.01.1-.05.24-.02.32.1.01.16-.23.22-.37.04-.1.1-.17.13-.28.03-.1.03-.23.06-.34.02-.07.05-.16.07-.24.02-.09.08-.15.11-.24.03-.1.04-.22.08-.3.05-.08.1-.16.17-.2.24-.17.56-.16.83-.28.19-.08.29-.29.53-.3.11-.09.23-.17.32-.27.17-.18.29-.39.42-.6.17-.29.31-.61.43-.96.1-.06.32-.08.32-.16-.02-.1-.18-.08-.32-.07-.18-.18-.36-.29-.64-.32-.56-.05-1,.3-1.33.5h0Z"/><path class="cls-1" d="M19.64,27.38c-.06-.02-.08-.12-.06-.19.08-.06.05-.19.06-.3,0-.01,0-.01.02-.01,0-.06,0-.1.03-.15.01-.03,0-.02,0-.05,0-.03.02-.09.04-.11,0,0,.02,0,.02,0,.01-.03,0-.07,0-.1,0-.04.03-.08.04-.11,0-.01.02-.04.03-.06.02-.03.04-.04.04-.06,0-.01.02-.02.02-.02,0-.03,0-.09,0-.12.01-.07.07-.11.09-.17,0-.07.03-.13.06-.16,0-.06.03-.09.06-.12,0-.1.08-.11.15-.13,0-.06.06-.1.09-.16,0-.02,0-.01-.01-.02,0-.02.03,0,.02-.02-.03-.1,0-.19.05-.27.01-.01.01,0,.03,0,.02-.03.05-.05.09-.06.02-.02.04-.05.09-.05-.01-.06,0-.11.03-.15,0,0,.02,0,.03,0,.02-.01.04-.06.06-.08.02-.02.05-.06.1-.05.02-.03.05-.05.05-.1h.02c0-.07.06-.09.06-.13.09-.02.12-.1.19-.13,0-.03.03-.04.03-.06.03,0,.06-.03.07-.06.07-.04.12-.09.17-.14.01,0,.02-.01.03,0,.03-.06.1-.06.14-.12.01,0,0,.02.03.01.13-.06.23-.12.35-.18.03.01.09,0,.11.02.02,0,.02-.01.03-.02.08,0,.13-.03.19-.06.04-.01.07-.02.11-.03.06-.02.11-.07.16-.06.04,0,.07.05.11.04.01,0,.02-.02.02-.03.11-.02.24-.02.35-.03.04,0,.1-.01.14-.03.02,0,0,.02.02.02.06,0,.13,0,.19.01.05,0,.09.03.14.05.06.01.14,0,.2.01.14.03.26.06.37.14.1,0,.12.06.17.11,0,.05,0,.09.03.12.07.03.13-.02.2,0,.06.02.07.1.13.12,0,.02.01.02.01.04.09.1.25.16.28.3.04.04.03.09.05.14.01.04.04.08.07.11.03.05.06.13.07.22,0,.02.02.02.03.03,0,.02,0,.05,0,.06-.04,0-.04.05-.06.07.09.1.15.29.04.4,0,.04.04.09.02.13.11.05-.02.26.02.31-.01.02-.03.04-.05.06,0,.03,0,.05,0,.09-.02.07-.07.13-.07.2-.03.05-.08.08-.1.14-.02,0-.01,0-.03,0-.01,0,0,.03-.01.03-.07,0-.07.05-.11.07-.02,0-.05,0-.06-.01-.05.04-.11.07-.16.13-.01.01-.01.04-.03.05-.02,0-.08-.02-.12-.02-.06,0-.13.06-.18.06-.01,0-.03,0-.04,0-.03,0-.06.03-.09.03-.02,0-.03-.01-.06-.02,0,0-.02,0-.03,0-.02,0-.04-.03-.07-.04-.05-.01-.12.02-.16-.02-.08.02-.13-.01-.19-.03-.02,0,0,.02-.02.02-.06-.03-.1-.08-.14-.13.03-.02.02-.05.02-.1.02,0,.02-.02.05-.01.04-.09.07-.2.07-.32,0-.07-.02-.14.04-.18v-.25c-.03-.05-.05-.12-.06-.19.02-.02.02-.05.03-.06-.01-.05-.02-.1-.05-.13-.12-.01-.08-.16-.19-.18-.01-.07-.03-.11-.09-.12-.03,0-.04-.04-.08-.05-.02,0-.04.01-.05.01-.06,0-.1-.08-.17-.07-.05.05-.1.02-.15,0-.02.02-.03.04-.05.06-.04,0-.06.02-.09.03-.03-.03-.06.03-.1.01-.07.05-.13.12-.21.17-.03.07-.07.11-.13.15-.01.11-.08.16-.11.26-.05,0-.05.03-.1.02-.03.01-.05.04-.05.09-.02.03-.04.06-.06.09,0,.02,0,.02,0,.05-.05.06-.02.11-.05.17-.02.06-.1.1-.15.15-.05.06-.06.16-.05.26,0,.08.06.21-.05.23-.02.07-.04.16-.03.24,0,0-.01.02-.02.02.02.05.02.13-.02.15.01.09,0,.18-.06.23-.04.03-.06.06-.07.11.02.04,0,.12-.01.15.01.07.03.13.08.18,0,.11-.09.18-.05.27-.01.05,0,.11.03.15-.04.2,0,.35.02.59,0,0,0,.03-.02.03,0,.09.04.2,0,.28.03.05.02.1.03.17.04.04.07.06.1.11.03.05.03.12,0,.19,0,.03-.03.06-.03.09,0,.11.15.19.12.31.03.02.05.05.07.07.02.2.11.31.17.47,0,.02.02.03.04.03.07.07.06.23.19.23.05.03.09.09.14.13.04.05.03.15.05.22.07,0,.12-.03.17-.02.03,0,.05.04.08.02.04.08.1.14.23.14.02.02.05.03.07.06.09.02.19,0,.29.05.02,0,.02,0,.03-.01.11.06.22.04.32,0,.03-.01.06-.02.09-.03.04-.02.07-.05.11-.05.07-.01.15.01.2-.03.02,0,.02.01.03,0,.04-.04.1-.05.13-.1,0,0,0,0,.02,0,.05-.05.08-.16.18-.15.05-.07.12-.07.18-.11,0,0,0-.02.01-.03,0-.01.03-.01.04-.02.02-.02.01-.06.03-.09.02-.04.08-.06.1-.1.07-.02.08-.1.11-.17.03,0,.05-.05.07-.06.02-.01.02,0,.03-.01.02-.03,0-.07,0-.11.01-.05.06-.09.09-.11.03-.04.03-.09.08-.11,0-.02.01-.04,0-.06.04-.02.04-.08.03-.13.03-.03.05-.07.05-.12.03-.04.08-.05.09-.11.03,0,.02-.03.06-.02.07-.09.25-.03.29.05.02,0,.02,0,.04,0,.03.05.02.14.05.21,0,0,.02,0,.02.02.04.06.02.18.03.27.01.11.05.18-.03.23,0,.02,0,.02,0,.04-.05.06-.04.13-.09.17,0,.05.02.09.02.13,0,.17-.15.24-.18.39-.01,0-.02,0-.03.02-.01.09,0,.16-.02.23-.16.25-.3.51-.49.73-.13.05-.18.16-.29.23-.01.02-.03.04-.04.06-.04,0-.05.03-.07.04-.05-.04-.07-.01-.11.02-.02.02-.05.03-.07.04-.04.03-.06.08-.08.1-.06,0-.09.01-.14,0-.08.04-.11.14-.21.15-.01.02-.03.02-.05.04-.07,0-.12.06-.18.03-.02,0-.02.03-.03.04-.1,0-.18.03-.23.08-.11,0-.19.06-.26.02-.09.06-.18.03-.27.04-.05,0-.1.04-.16.05-.03,0-.06-.02-.09,0,0-.03-.04-.01-.04-.03-.06,0-.11-.02-.17,0-.11-.07-.22,0-.3-.07,0-.04-.03-.06-.03-.09-.1,0-.19.02-.28,0-.15.06-.24-.06-.3-.14-.08.02-.12,0-.22,0-.04-.03-.09-.04-.12-.07-.02,0-.02,0-.05-.01-.01-.01-.01-.04-.04-.03-.02-.08-.12-.08-.14-.17-.05,0-.07-.02-.11-.02-.05-.07-.16-.1-.21-.17-.02-.03-.05-.07-.05-.09,0-.02,0-.05,0-.07-.01-.05-.07-.07-.07-.14-.06-.02-.09-.07-.15-.09-.02-.07-.08-.1-.13-.14,0-.05,0-.08.03-.1-.03-.06-.01-.17-.08-.2-.04-.02-.08,0-.11-.02-.03-.02-.05-.08-.08-.11-.01-.01-.03-.02-.04-.03-.04-.06-.03-.13-.06-.19,0-.02-.03-.03-.03-.05-.04-.16-.1-.36-.16-.53-.02,0-.01-.03-.03-.03,0-.07-.04-.2.02-.25-.02-.04,0-.08-.02-.13-.04-.05-.03-.14-.09-.18-.04-.14.08-.25.04-.39-.02-.07-.09-.12-.09-.21,0-.01-.02,0-.02-.02.01-.19,0-.36-.02-.52-.01-.16-.04-.34.09-.42.02-.05-.02-.08-.03-.13-.02-.08.03-.16.03-.25,0-.05-.04-.1-.03-.14,0-.07.09-.11.08-.18,0-.02.03-.03.03-.05,0-.04,0-.07-.01-.1ZM45.95,22.47s0,0-.01,0c-.02-.03-.01-.06,0-.1-.02-.05.01-.09.02-.13.02-.14,0-.27-.02-.37-.07-.19-.06-.42-.25-.5-.04-.09-.13-.13-.19-.2-.06-.02-.11-.03-.16-.05-.05-.07-.14-.07-.21-.11-.04,0-.11.02-.13.02-.03,0-.06-.03-.1-.03-.11,0-.2.06-.3.06-.14-.13-.33.05-.46.08-.14-.13-.26.06-.43.07-.07.06-.14.08-.22.12,0,.03-.03.03-.03.05,0,0-.02,0-.05,0,0,.01.01.01,0,.03-.07.03-.1.09-.1.18,0,.02.01.03.02.05,0,.03-.02.06,0,.07.03,0,.05,0,.06.03,0,.02,0,.02-.01.03.02.01.04,0,.05.03.01.06.02.12.03.19.04.05.11.15.06.21.03,0,.02.05.05.06v.25c.02.06.06.08.07.14.02.11-.06.16-.03.29.02.05.07.08.07.15-.06.15-.03.35-.03.52,0,.01.02.01.02.03-.02.16.01.29.03.44.01.11-.03.16-.04.25,0,.07,0,.15,0,.23.03.04,0,.15.03.2-.03.03-.03.08-.07.1,0,.16.02.28.03.45-.03.02-.04.05-.06.09.01.08.04.2,0,.26,0,.03.02.03.02.05-.02.03-.05.05-.05.11-.07.03-.05.14-.06.23,0,.07-.04.17-.05.19-.01.02-.01.02-.02.03.02,0,.02,0,.01.02-.01.04-.03.11-.03.17-.03.04-.04.1-.04.16-.03,0-.01.05-.04.05.01.09-.09.18-.07.27-.02.03-.04.07-.07.09,0,.07-.06.11-.07.18-.01.01-.01,0-.02,0-.01.15-.18.18-.18.36-.06.04-.09.14-.19.1-.04.03-.06.07-.07.12-.02,0-.03,0-.04,0-.03.06-.05.11-.13.11-.05-.04-.14,0-.16.03-.1,0-.19-.01-.29-.03-.03-.04-.08-.08-.13-.09-.03-.05-.08-.07-.08-.15-.1-.15-.19-.32-.17-.53,0-.06,0-.1-.03-.14-.02-.02-.04-.04-.05-.06,0-.02.01-.06.01-.08,0-.07-.04-.14-.02-.21-.03-.04-.07-.14-.02-.19-.01-.06.03-.09.03-.15,0-.12-.05-.24-.03-.35.02-.03,0-.07.03-.11-.03-.04-.03-.1-.05-.16,0-.03-.03-.05-.03-.07,0-.03,0-.08.01-.11.02-.05.05-.11.07-.15,0-.03,0-.05,0-.07-.03-.03-.08-.03-.07-.09,0-.01.03,0,.02-.02-.01,0-.02-.01-.02-.03.04-.05.02-.14.03-.18,0-.02.03-.03.04-.05.01-.02.02-.06.02-.08,0-.04-.02-.05-.02-.09,0,0,0-.03,0-.05,0-.02-.01-.03-.02-.06.03-.04.02-.09.01-.14,0-.12.04-.25.03-.38,0-.01.03,0,.02-.02,0-.13.1-.26.05-.38.04-.06.01-.14.04-.21-.03-.04,0-.08.03-.11-.02-.05-.04-.18.03-.21.03-.11,0-.17-.01-.27-.03-.02-.04-.06-.06-.09,0,.01-.03,0-.04,0-.01-.01-.02-.03-.02-.06-.09,0-.14-.13-.23-.1-.02.02-.06.01-.09,0,0-.01,0-.03-.02-.04-.08-.03-.12-.11-.26-.09,0-.01-.02,0-.02-.02-.02-.04,0-.06,0-.1,0-.03-.04-.04-.05-.06,0-.02,0-.05,0-.08,0-.07-.05-.13-.05-.22-.05-.03-.06-.08-.09-.13-.03,0-.04,0-.06-.01,0-.03-.03-.04-.04-.07,0-.07,0-.13-.02-.17-.04,0-.07-.03-.08-.07-.08,0-.08-.07-.1-.13-.08-.02-.08-.12-.18-.12,0-.01-.02-.02-.02-.05-.09-.01-.13-.08-.23-.08-.01,0-.02-.03-.03-.03-.01-.01-.04,0-.06,0,0-.02.02-.03,0-.05-.06-.02-.1-.07-.19-.08-.06-.06-.15-.09-.26-.05-.07-.02-.13-.06-.21-.06-.05-.06-.14-.04-.21-.06-.01.01-.04.02-.06.02-.01-.03-.04-.04-.06-.06-.07,0-.13.02-.18,0-.04,0-.08.03-.12.03-.05,0-.1.02-.17,0-.05-.01-.12-.02-.18-.02-.02,0-.09,0-.1,0-.03.01-.06.05-.09.06-.03,0-.07,0-.08,0-.02,0-.03.02-.05.02-.06,0-.08.02-.12.04-.12-.05-.18,0-.3,0-.04.03-.1.04-.14.07-.05-.01-.07.04-.13.04-.11.11-.25.18-.37.27-.07,0-.08.06-.15.06-.06.03-.07.11-.14.13-.04.08-.08.16-.13.23-.13-.03-.18.12-.18.21-.04.07-.11.11-.14.19-.1.06-.2.13-.23.27-.02,0-.02.02-.03.02-.03.16-.2.33-.17.51-.03.03-.01.06-.05.07.03.03,0,.05-.01.07-.02.06-.01.13-.02.2-.01.06-.05.13-.07.17-.01.02-.01.04-.02.05-.02.03-.06.05-.07.08-.02.06,0,.11,0,.14.01.08-.03.15-.02.22-.04.03-.04.05-.03.1-.13.02-.15.2-.1.29-.02.2-.06.48-.14.64,0,.1-.02.16-.05.23.02.04,0,.09.02.14-.01,0-.02.01-.02.03,0,.14-.01.25-.03.37-.07.03-.05.1-.06.17-.02.1-.08.2-.09.3,0,.13.03.25-.06.31.01.04-.02.07-.02.11,0,.04.01.07,0,.1-.01.05-.05.09-.06.12,0,0,0,.02,0,.03,0,.02-.03.03-.04.05-.01.02,0,.07-.02.1,0,.01-.02.01-.02.02,0,.03,0,.07,0,.11-.01.06-.08.1-.09.17,0,0-.02,0-.03,0,0,.02,0,.02,0,.05-.11.1-.11.32-.22.42-.02,0-.02.01-.04,0-.04.04-.07.08-.07.17-.05.06-.09.14-.13.22-.1.02-.08.12-.13.19-.03.05-.09.05-.14.08-.05.03-.06.09-.1.12-.01,0-.02,0-.04,0-.04.06-.09.1-.13.15,0-.01-.02,0-.03,0-.04.02-.06.06-.1.08,0,.03-.04.06-.08.07,0,.03-.02.04-.03.07-.04,0-.05.04-.07.05-.02-.02-.06.02-.09.02-.03.03-.06.07-.11.08-.02,0-.03-.02-.05,0-.03.02-.06.08-.1.07,0,.05-.07.04-.1.07-.07-.03-.1.03-.19.01-.05.03-.13.05-.17.1-.18-.02-.34-.03-.43.08-.02-.02-.03,0-.05,0-.05-.02-.12-.05-.19-.04-.05,0-.08.04-.11.03-.03,0-.05-.03-.07-.05-.08-.02-.16-.01-.23-.05,0,0,0-.02-.02-.02-.03,0-.08,0-.12,0-.04-.01-.09-.04-.14-.07-.1-.05-.21-.11-.33-.11-.02.01-.03.03-.05.04-.05-.01-.09-.04-.13-.06,0-.03-.01-.05-.02-.09-.06-.04-.09-.11-.18-.12-.08-.1-.16-.2-.31-.23,0-.06-.07-.05-.08-.09-.01-.05.05-.11,0-.17-.06-.01-.08-.06-.12-.09,0-.13-.12-.2-.16-.31,0,0-.03,0-.03-.01,0-.06-.03-.08-.06-.11-.01-.1-.08-.15-.09-.25,0-.01.01-.02,0-.03-.02-.03-.03-.07-.05-.1-.02,0-.02,0-.03-.01,0-.08-.05-.13-.09-.22-.03-.06-.02-.18-.07-.22-.02-.02-.05-.01-.06-.03-.06-.1-.06-.23-.02-.37,0-.02-.02-.02-.02-.04,0-.1-.1-.13-.12-.22-.01-.06,0-.12,0-.19,0-.04-.01-.09-.02-.14-.02-.12-.12-.21-.14-.33,0-.01-.03,0-.03-.01-.01-.07.03-.12.03-.19-.04-.04-.04-.07-.09-.09-.03-.07-.04-.15-.03-.2.04-.04.09-.08.1-.14,0-.03,0-.05-.01-.08,0-.06,0-.12,0-.17,0-.08-.06-.15-.07-.21.01,0,.02,0,.02-.01-.03-.04-.02-.07-.02-.12,0-.07-.03-.19-.02-.25,0,0,.02-.02.02-.03,0,0-.01-.02-.01-.03,0-.04-.01-.11,0-.15,0-.02.02-.04.03-.06.02-.06.02-.16.02-.22,0-.04-.02-.06-.02-.08-.01-.05,0-.1-.03-.15-.01-.03-.04-.03-.05-.06,0-.04.02-.08.02-.11,0-.02,0-.04,0-.05.02-.04.07-.05.07-.09-.04-.12-.02-.28-.07-.39.16-.05.16-.29.11-.45,0-.01.02,0,.03-.02-.04-.05-.02-.12-.02-.17,0-.18.02-.38.02-.58,0-.02.04-.02.04-.04.04-.04,0-.12.04-.17,0-.11.01-.19.03-.29,0-.03.03-.07.03-.09,0-.06-.03-.12,0-.18.09-.04.02-.19,0-.26.02-.01,0-.03,0-.05,0-.04.04-.04.06-.07,0-.01,0-.03.01-.04,0-.01.03-.02.03-.03.02-.04.05-.11.05-.14,0-.08-.04-.15-.06-.22.04-.13.2-.14.24-.26,0-.09.04-.13.05-.2.05-.03.07-.11.08-.18.03-.07.06-.14.09-.21,0-.01.03-.01.03-.03.04-.14.17-.2.16-.37.05-.02.08-.05.14-.06.06-.11.18-.21.15-.35.13-.08.19-.23.36-.27.06-.03.07-.11.07-.19.06-.01.1-.05.17-.06,0,0,0-.02,0-.02.09-.05.17-.1.26-.14,0,.03.04.02.05.05.18-.09.37-.24.62-.17,0,0,0-.01.02-.02.05,0,.09.04.13.02.01.01.04.01.04.03.09,0,.12.06.19.05.08.08.17.16.28.21.08.09.07.23.14.32.02,0,.03,0,.05-.01.07.06.05.17.1.24-.01,0-.01.01-.01.03,0,.02.02.02.02.04-.07.04,0,.09.02.13.03.07.01.15.03.23-.01,0-.02,0-.03,0,0,.02.03.02.03.04,0,.06,0,.1.01.15,0,.03-.02.06-.02.1,0,.07.04.14.04.21,0,.03-.01.05-.02.09-.01.1,0,.2-.02.3,0,.05,0,.11,0,.16,0,.01-.02.03-.02.05,0,.01,0,.03,0,.04,0,.05-.04.09-.05.12,0,.03.03.05,0,.07.05.02.04.09.06.14-.01.03-.02.05-.02.09-.03.02-.06.05-.1.06-.02.02,0,.06-.04.06.03.11,0,.16,0,.29-.09.11-.13.27-.25.36-.01.03,0,.05-.01.07.04,0,.04.04.05.06.02,0,.03.02.06.01-.02.06.06.06.09.1.07,0,.12-.01.2-.02.02.03.05.05.1.06.03-.06.17-.02.23-.05.04.15.24.07.35.07.03.03.06.06.11.07.04-.01.1-.05.15-.06.11-.02.22,0,.27-.07.05.03.07,0,.13.03.05-.02.1-.04.14-.07.06.02.09-.05.17-.05.01,0-.01-.02,0-.02.06-.04.14-.08.17-.15.01,0,.01-.01.03,0,.06-.12.17-.2.3-.25.06-.07.1-.16.13-.26.01-.04.05-.05.07-.09.01-.02.01-.04.02-.06,0,0,.02,0,.03-.02.01-.01.01-.06.05-.05.03-.17.1-.29.14-.46,0-.05-.06-.08-.07-.13-.01-.06.03-.09.03-.16.05-.03.08-.09.1-.15-.03-.03-.01-.07-.02-.1-.01-.03-.05-.06-.05-.1-.01-.07-.01-.17.03-.2.02-.09.01-.15.02-.24,0-.02.03-.02.03-.04-.01-.13.03-.29-.03-.4,0-.06-.02-.07-.03-.11.04-.07.02-.17-.02-.23-.05-.19-.08-.4-.21-.52-.04-.04-.04-.11-.06-.17-.01,0-.02-.02-.04-.03,0-.26-.2-.38-.38-.48-.04-.06-.02-.17-.03-.23-.14-.12-.34-.17-.46-.32-.02,0-.03,0-.04,0-.12-.11-.25-.21-.46-.23,0-.07-.08-.11-.11-.16-.06,0-.09-.04-.15-.04-.1,0-.24.05-.34.02-.05-.02-.08-.07-.14-.09-.01,0-.03,0-.04,0-.09-.03-.19-.12-.28-.03-.05-.02-.1.04-.14.06,0-.03-.03-.03-.03-.05-.03,0-.04-.02-.07-.03-.09-.03-.21.02-.29-.03-.04.02-.09,0-.13,0-.04,0-.08.02-.12.02-.05,0-.1-.02-.14-.02-.1,0-.22.07-.32.06-.06,0-.11,0-.17,0-.1.08-.22.15-.38.17-.04-.03-.06-.04-.11-.02-.03,0-.1.05-.11.07-.03.03-.04.07-.06.1-.04.03-.07.03-.12.03-.03,0-.06.01-.09.01-.02,0-.05-.02-.07-.02-.06,0-.08.04-.13.06-.05.02-.1.04-.13.05-.02.01-.04.03-.06.05-.06.04-.13.09-.19.13-.14.08-.27.15-.36.27-.06,0-.08.02-.14.03-.01.02-.03.04-.05.05,0,.02,0,.03-.01.05-.03.02-.05.05-.07.09-.11.06-.14.21-.25.26-.14,0-.21.1-.32.14,0,.05-.07.09-.05.15-.12.06-.16.2-.27.26-.02.09-.07.17-.13.22.01,0,0,.02,0,.03-.08.05-.11.16-.22.19-.06.05-.03.13-.03.21,0,.06-.07.1-.12.13,0,.06-.05.11-.07.18-.06,0-.07.01-.11.03-.04.08-.02.17-.05.26-.02.08-.1.12-.14.18-.02,0-.03,0-.05.01-.03.03-.03.08-.06.11,0,.16-.1.27-.12.42,0,0,0,.02-.02.02-.02.1-.04.21-.09.28-.02.08-.07.12-.07.21-.08.06-.06.17-.08.29-.03.04-.07.07-.11.1,0,.06-.03.12-.04.17,0,.03-.02.07-.02.09-.01.08,0,.17,0,.25-.01.11-.09.24-.14.32,0,.06,0,.12-.03.16.02.04.04.09.03.14,0,.02-.03.03-.03.06-.03.08-.03.19-.1.22-.02.1-.07.21-.05.31-.03.03-.02.09-.03.14.01.12-.05.22-.04.34-.07.07,0,.16-.03.23.01.07-.02.23-.03.32,0,.02.02,0,.02.03,0,.07,0,.08,0,.14-.07.08-.05.25,0,.33-.02.03-.02.09-.04.13.01.03.01.07,0,.1,0,.04-.07.12-.07.15,0,0,.01.03.01.03,0,.1-.01.24-.02.33.03.09,0,.19.03.25,0,.01-.02,0-.01.02.05.05.02.12.02.19,0,.05.02.11,0,.17.02.02,0,.07,0,.09.04.09.05.21.11.28.01.11-.06.16-.07.25,0,.02,0,.04,0,.06,0,.01-.01.03-.01.04,0,.13.12.18.14.27.02.1-.04.18-.04.26,0,.1.07.16.1.25-.04.16,0,.25.03.38.04.05.04.11.05.18.01.08.05.15.06.23.02.1.05.19.06.29.05.06.05.15.1.22,0,.02,0,.03,0,.06.05,0,.07.08.04.1.04,0,.04.04.04.08.02.04.03.06.03.12.03.09.08.17.13.26,0,0,0,.02,0,.03.03.07.15.15.11.23.04.07.06.17.11.23.07.03.13.08.18.13.05.11.11.26.14.38,0,.04.09.07.09.11.01.01.02,0,.03,0,.05.06.13.21.23.17.01,0,.03.01.05.02.02.05.06.08.09.11.02.09.06.15.1.22.06,0,.07.05.11.07.05.02.09.02.14.02.07.06.09.16.16.21.03.03.08.02.1.06.12.02.19.11.3.13.05.07.16.07.19.15.06.01.08.05.11.09.2-.02.3.07.47.1.03.03.07.02.11.03.03,0,.05.03.09.04.01,0,.03,0,.04,0,.05,0,.1.04.14.05.01,0,.02,0,.03,0,.01,0,.03.02.04.02.1.03.2.01.31.02.03.04.1.04.13.09.07,0,.12-.05.17-.07.04.02.06-.02.11-.01.04.06.17.02.25.03v.02c.05.01.09.04.16.05.01,0,.01-.03.03-.03.09-.02.16,0,.25-.01.04,0,.08-.03.13-.05.06-.02.15-.06.22-.03,0-.03.05-.04.06-.02.02-.05.07-.03.13-.05.01,0,.02-.02.04-.02.05-.01.09,0,.14,0,.02,0,.04-.03.06-.03,0,0,.01,0,.02,0,.02,0,.03-.02.05-.02.02,0,.03.01.05,0,.04-.03.07-.05.1-.09.06,0,.12,0,.17.03.01-.03.05-.03.06-.06.07,0,.11-.06.17-.09.06-.06.1-.13.17-.17.08-.05.2,0,.28-.03.04-.01.05-.05.07-.07.02-.02.04-.01.04-.05.05-.01.07-.05.13-.05.08-.06.12-.16.22-.19.02-.01.02-.04.04-.05.01-.01.02,0,.04,0,.05-.11.19-.14.22-.29.05-.01.07-.06.1-.09.02-.01.04,0,.05-.03.07.01.09-.07.15-.09,0-.01,0-.02,0-.02.05,0,.07-.09.14-.09.02-.05.07-.08.08-.15.07-.02.06-.11.14-.12.02-.07.08-.11.1-.17.01,0,.02-.01.03,0,0-.03-.03-.02-.01-.04.02-.01.03,0,.04-.01,0-.04.04-.06.08-.07.07-.06.06-.18.14-.23.02-.14.13-.18.15-.31.05-.03.04-.1.09-.13,0-.03,0-.05.02-.05.03.12.08.24.12.36.02.02.04.05.05.09.08.06.06.23.17.27v.02s.03.01.04.02c0,.03,0,.04.01.06.09.06.18.16.18.28.08.12.24.16.36.24-.02.06.09.05.07.13.15.03.27.08.42.09.03.02.05.05.09.05.05,0,.12-.01.18-.02.01,0,.03.01.04.01.05,0,.09-.03.13-.02.05.01.07.07.11.09.09-.02.16-.05.26-.07.03,0,.01.03.04.02.02,0,0-.03.02-.03.04.03.06-.04.09-.06.03.02.05-.01.09-.02.07.05.14-.02.22-.02,0-.03.03,0,.04-.02,0,0,.01-.02.02-.03.04-.02.09-.04.14-.06.05-.03.09-.03.14-.02.09-.08.23-.12.3-.22.11-.08.25-.14.34-.24.01-.04.04-.08.05-.13.12-.1.25-.2.3-.37.05-.02.04-.09.09-.11.03-.09.05-.2.13-.25.01-.12.04-.23.1-.29h.06c.04.07.12.12.1.22.02,0,.01.03.02.03.03.01.05.03.09.02.02.03.05.05.07.09,0,.1.06.13.09.2.06,0,.12.01.19.02.05.16.19.23.32.32.04-.01.07.03.1.05.06.02.15.03.22.04.07.01.14.07.2.07.09.01.16-.04.25-.06.06.04.09.09.18.08.07-.07.14-.11.27-.09.03.05.07.07.11.06.04,0,.1-.05.14-.06.08-.02.14,0,.21-.03,0-.01,0-.02.02-.02.16-.05.25-.16.39-.23.02,0,.04,0,.06,0,.07-.16.25-.2.37-.33,0-.2.27-.19.23-.41.07-.04.08-.11.18-.13.04-.05.07-.11.11-.16.04-.1.05-.23.14-.29.02.08.09.13.1.2.06,0,.05.12.09.16,0,.01.03.01.04.03.02.03.03.04.06.06,0,.04.04.05.05.07,0,.1.12.1.17.15,0,.04.02.1.04.11.08.02.15.05.23.07.04.07.14.04.18.1,0,.02.01-.01.03,0,.01.04.05.06.07.1.07,0,.1.08.18.06.03.03.11.04.17.03.02,0,0,.03.02.02.06-.02.22-.02.29,0,.02,0,.03.04.06.04.1.02.14-.04.23-.06.07-.01.15.02.22.02.07,0,.12-.03.15-.06.02-.01.03-.01.04-.02.11.03.18-.03.25-.09.12.02.21-.08.32-.1.05-.07.09-.14.18-.17.01,0,.02.01.05.01.06,0,.09-.06.14-.09,0,0,.02,0,.02,0,.05-.03.14-.12.18-.17.04-.06.1-.09.14-.14.05-.05.07-.11.11-.17,0-.02,0-.03,0-.05.06,0,.03-.07.07-.08.08.05.1.16.17.22,0,.02,0,.04,0,.06.05.08.14.13.22.18.1-.04.15.05.18.13.06,0,.08.04.16.03,0,.01.02.02.02.05.08.02.17,0,.25-.01.03.02.03.05.09.03,0,.04.05.04.05.08.07.02.1.05.17.04.06,0,.1-.06.14-.06.03,0,.04.04.06.06.14,0,.3,0,.38-.06,0,.01.03.01.05.01.03-.04.08-.08.09-.14.03-.17-.05-.38,0-.47-.01-.01-.02-.03-.02-.05.04-.06,0-.15,0-.24,0-.08.02-.17-.04-.21-.02-.04,0-.1,0-.15.07-.09.11-.26.02-.34,0,0,.02,0,.01-.02-.05-.09-.03-.21.02-.29,0,0,0-.02.02-.01.02-.05,0-.1,0-.15,0-.04.01-.11,0-.15,0-.1,0-.17-.01-.26,0-.05-.02-.08-.02-.13,0-.07.03-.14.02-.2-.06,0-.05-.09,0-.1-.01-.04,0-.09-.01-.15-.08-.02-.04-.13-.05-.21.06-.05.08-.14.06-.25-.05-.05-.09-.12-.1-.21.06-.08.09-.16.11-.25.03-.12-.03-.25-.02-.38,0-.04.03-.07.03-.11.01-.09,0-.18,0-.27,0-.02.02-.02.02-.03-.03,0-.02-.04-.02-.05,0-.05.09-.09.08-.15.01,0,.02-.01.03-.01,0-.06,0-.14-.01-.19.04-.16.07-.33.15-.45.01-.09.01-.17.03-.26.12-.06.14-.21.24-.29,0-.15.11-.2.19-.25.02,0,.03,0,.04,0,.01-.02.04-.03.06-.04,0-.02.05-.03.06-.05.12.02.25.02.33.09,0,.02.01.03.01.05.03,0,.05.03.06.06.07.03.13.07.16.14-.03.09.05.15.07.23.03,0,.06,0,.07.02,0,.09.03.16.02.26.01,0,.03.01.03.03,0,.09.02.19.04.25.03.1.02.18.02.3,0,.09.04.13.05.19,0,.02,0,.05,0,.07,0,.03.03.07.03.1,0,.06,0,.17-.02.24.04.08.13.21.1.34-.01.04-.06.07-.09.11,0,.14.12.26.11.42,0,.03-.01.05-.02.08,0,.05,0,.11,0,.16,0,0-.01.02-.02.02,0,.03-.01.08-.03.1.05.13.06.27.06.42,0,.04.02.06.02.09,0,0-.01.01-.01.02,0,0,.02,0,.02.01,0,.06-.02.14,0,.2,0,.05.04.09.05.14,0,.01.03,0,.03.01.05.06,0,.22.03.29-.04.07.04.16,0,.22.03.02.04.05.06.07.02.09.02.17,0,.25.09.33.24.57.35.85,0,.04.01.04.01.07.06.06.1.14.15.2v.03s.04.04.06.06c0,0-.02.02-.01.03.01.02.02.02.02.05.12.09.22.19.31.31.02,0,.03.02.06.02.05.07.11.15.21.16.03.03.08.06.12.06.02.04.06.07.07.11.09,0,.12.07.23.06.08.02.16.08.26.06.05.04.14.03.18.07.08-.03.18-.02.25-.05.03,0,.04.02.06.03.02-.03.06-.04.1-.06.03.01.04.05.06.07.13.02.33,0,.46-.01.03-.04.07-.07.13-.08.02,0,.02.03.02.04.1-.04.2-.1.3-.15.04-.02.07-.02.09-.05.03-.03.04-.1.09-.11-.01-.03.02-.06.01-.11-.03-.03-.04-.07-.07-.09-.06,0-.09-.07-.17-.05-.02,0,0-.03-.03-.02-.03,0-.03,0-.06,0-.05-.08-.16-.11-.2-.19-.15-.04-.2-.18-.29-.27-.04-.08-.1-.13-.11-.23-.1-.04-.05-.24-.09-.33-.02,0-.03-.02-.05-.03-.04-.07-.07-.14-.12-.21-.01-.14,0-.25-.05-.38-.06-.04-.12-.13-.1-.19-.04-.04-.06-.15-.04-.21-.03-.07-.05-.17-.03-.26-.02,0-.04,0-.05-.02-.02-.06-.03-.19,0-.23-.02-.11.02-.22-.01-.3-.01-.04-.05-.08-.06-.13.04-.15-.05-.27-.02-.43-.03-.03-.04-.1-.06-.14.03,0,.01-.05.04-.07,0-.08.01-.14,0-.2,0-.04-.04-.07-.06-.11-.02-.07-.05-.11-.05-.15,0-.05.02-.1,0-.17h.02s.03-.06.04-.09c.02-.08-.02-.22-.02-.33,0-.09-.02-.19-.02-.28,0-.07,0-.15,0-.22,0-.1-.01-.2-.02-.3,0-.09,0-.16-.03-.23.02-.01,0-.02,0-.05-.04-.02-.04-.05-.04-.09,0-.03-.02-.07-.02-.1,0-.05,0-.11-.02-.15-.02-.06,0-.14-.03-.21,0-.02-.02-.02-.02-.03-.01-.04-.02-.08-.04-.1.02-.11-.04-.18-.08-.25.02-.04,0-.06,0-.11-.02-.01-.02-.04-.02-.07-.05-.07-.13-.11-.2-.17-.03-.12-.02-.27-.11-.35,0-.02-.01-.02,0-.03-.08-.1-.15-.21-.23-.31-.12,0-.12-.14-.22-.17-.04-.07-.11-.11-.2-.13-.02-.05-.09-.07-.14-.11-.05-.04-.09-.08-.13-.1-.04-.02-.1-.01-.15-.03-.04-.01-.08-.04-.12-.06-.06-.02-.12,0-.18-.01-.06,0-.12-.03-.18,0-.02.02,0,.04-.02.06-.04,0-.08-.02-.13,0-.05-.06-.1-.13-.21-.11,0,0,0,.02-.02.02-.07-.01-.19.03-.22.02-.13.05-.27.05-.43.09-.05.03-.1.08-.16.08-.04.07-.1.11-.15.16-.02,0-.01,0-.03,0-.01.03-.04.05-.08.07-.13-.05-.13.16-.26.17,0,.01-.01.05,0,.07-.06.05-.12.08-.17.14-.14.04-.14.23-.24.31,0,.06-.05.13-.1.17-.02-.01-.06,0-.09.01-.01.03-.03.06-.06.09-.02.06-.03.13-.09.16-.01.1-.11.12-.1.24-.01,0-.03.01-.03.02,0,.04,0,.07-.02.09-.03,0-.05,0-.06,0-.04-.08-.16-.09-.22-.15-.05,0-.07-.04-.13-.03-.02-.02-.04-.03-.06-.04,0,.04-.07.02-.07.06-.03-.07-.08-.12-.15-.15-.09-.02-.23-.06-.36-.03-.01.02-.02,0-.03.02-.02-.02-.07-.01-.07-.04-.08,0-.15.01-.2.05-.09.07-.09.19-.09.29.02.03.04.11.02.15.01.03.03.08.03.12,0,.06.02.1.02.14,0,.02-.01.04-.01.06,0,.09.02.18.06.25-.02.08,0,.19-.01.29-.05.07-.04.14-.01.21.02.04.06.11.06.15,0,.03-.03.06-.04.1,0,.04-.01.1-.02.15,0,.08.02.11.03.17.04.17-.01.39,0,.55.06.06.07.19.05.29-.04.03-.01.13-.06.15,0,.06,0,.1,0,.15,0,.02.02.04.03.06.01.07,0,.17-.01.22,0,.02-.03.03-.04.05-.04.09.01.16.02.25,0,.07-.04.13-.04.21,0,.08,0,.17-.02.25-.01.04-.05.07-.03.12-.01.02-.02.04-.03.06v.17s-.04.03-.05.05c0,.08-.03.14-.03.19,0,.02,0,.04,0,.06-.01.07-.08.1-.09.16-.02.08.01.17-.07.21h-.03c-.03.06-.03.16-.1.17,0,.08-.04.12-.07.17h-.07c-.05.04-.05.14-.15.14-.02.05-.07.08-.11.12-.05,0-.12,0-.17.02-.03-.02-.05-.05-.09-.06-.07.08-.18.07-.27.02,0,0-.01-.02-.02-.03-.02-.01-.04,0-.06-.02-.04-.03-.06-.09-.09-.11-.03,0-.09-.05-.09-.07-.01-.03,0-.08,0-.11-.04-.06-.05-.15-.11-.19,0-.04-.03-.07-.02-.1,0-.02-.02,0-.02-.02.02-.04,0-.07-.02-.09-.01-.04-.01-.1-.02-.14,0-.03-.03-.06-.03-.09,0,0,.02-.01.02-.02,0-.01-.02-.03-.02-.04,0-.02,0-.04.02-.06-.12-.17-.04-.42-.05-.61-.06-.11-.03-.25-.02-.41.02,0,.04,0,.05-.01.03-.09-.05-.18-.03-.29,0-.04.04-.09.02-.16,0-.02-.02-.02-.03-.05,0-.08.03-.15.02-.25.09-.05.07-.21.06-.34,0-.01.02,0,.02-.02-.02-.1,0-.24,0-.38.06-.06-.05-.16,0-.25-.02-.04,0-.12.02-.17.09-.04.05-.11.04-.19,0-.05,0-.12-.01-.19-.01-.07-.03-.15-.01-.21.01-.04.07-.06.07-.1,0-.07-.04-.1-.05-.15.02-.04,0-.13.03-.15,0,0,0,0,0,0ZM38.97,22.45c0,.09.1.12.18.14.01-.01.01-.04.04-.03.03.01.04.05.08.04.01.06.06.09.07.15.02-.01.06-.02.07,0,.01.01,0,.04,0,.06.05.01.05.07.1.09.04.14,0,.27.02.39.01.08.09.15.06.25,0,.01-.02.02-.03.03-.04.17-.03.37-.04.57.01.02.03.04.04.05,0,.09,0,.19-.02.29,0,.03-.04.05-.03.07,0,.03.02.03.04.05.05.08.04.22.02.33,0,.03-.05.04-.06.09.02.04,0,.09,0,.13,0,.02.02.03.02.05,0,.02-.02.04-.02.07,0,.03.03.06.03.09,0,.03.01.09.01.12,0,.11-.04.21-.08.31-.02.13.07.29.02.41.01.05,0,.1-.03.13-.02.11,0,.19-.02.29,0,.02-.02.03-.02.05,0,.02,0,.05-.01.07-.02.06-.06.1-.05.17-.03.08-.02.16-.04.23-.04.02-.05.08-.09.12,0,.06,0,.08-.03.12,0,.04,0,.12-.04.14,0,.01.02.02.02.04-.1.18-.22.34-.35.49h-.02c-.04.05-.09.09-.15.12-.06-.03-.09.02-.12.04-.05.02-.09,0-.14.03-.02,0-.01.03-.02.04-.03.01-.05-.02-.07-.04-.12-.02-.18.06-.29.05-.06,0-.05-.05-.11-.07,0-.08-.09-.12-.16-.07-.05-.04-.13-.08-.12-.17-.03-.02-.03-.07-.06-.09-.06-.11-.07-.25-.2-.3-.01-.03,0-.06-.03-.09.03-.09,0-.19-.03-.25.04-.09-.02-.17-.03-.25,0-.06,0-.11-.03-.16.03-.05-.01-.1-.02-.16,0-.11.04-.25-.02-.34,0-.09,0-.18,0-.26-.1-.14.07-.3-.03-.47-.01-.01-.03-.02-.04-.04,0-.06.03-.14.08-.18.03-.13-.06-.19-.08-.27,0-.09.04-.19.11-.24.02-.16.03-.33.07-.46-.01,0,0-.03-.02-.03.01-.04.02-.08.04-.13.01-.04.01-.08.03-.14.03-.1.09-.17.05-.25.03-.05.03-.1.05-.15.02-.05.08-.09.06-.18,0-.02-.03-.04-.03-.06,0-.03.02-.1.03-.12,0,0,.08-.06.09-.06.02,0,.04,0,.06,0,.09-.04.09-.22.1-.32.07-.1.16-.17.25-.25-.02-.05.06-.06.07-.1.02,0,.03-.02.05-.02.09-.09.22-.18.37-.16.05-.02.12-.03.17-.06.03.02.05.04.08.06.02-.02.05,0,.07-.01.03,0,.03-.03.06-.03.05,0,.08.04.13.06ZM12.25,27.29s.03-.06.03-.1c0-.03,0-.07,0-.11,0-.04.02-.09.02-.12,0-.06-.04-.09-.04-.15,0-.02.02-.04.02-.06,0-.05-.04-.11-.01-.16-.04-.07-.04-.15-.08-.23.05-.11-.09-.27,0-.38-.01-.02-.01-.05,0-.07-.07-.13-.18-.34-.07-.49v-.11c-.04-.11-.05-.25-.06-.37,0-.11-.03-.24-.03-.35,0-.1-.03-.15-.03-.22,0-.11-.03-.23,0-.35-.01,0-.02-.02-.02-.04.04-.02-.02-.06.02-.09-.05-.1-.03-.24-.07-.36.03-.11-.06-.22-.02-.34-.01-.05-.06-.07-.07-.12,0-.04.01-.08.01-.12,0-.06-.02-.12-.01-.19-.04-.08-.05-.17-.09-.25-.03-.05-.08-.1-.06-.18.02,0,0-.04.01-.06.01-.06.07-.13.07-.19-.02-.04-.02-.11-.02-.18,0-.09-.01-.17-.02-.24-.02,0-.02-.04-.03-.05,0-.01,0-.03.01-.05-.02-.15-.04-.3-.07-.45,0-.04-.02-.08-.02-.11-.01-.1.03-.19.02-.29,0-.09-.09-.18-.11-.29,0-.04,0-.08-.02-.13-.07-.1.04-.15.05-.23,0-.07-.03-.13-.04-.21,0-.02,0-.03,0-.05,0-.06-.04-.12-.03-.19-.05-.07-.05-.16-.1-.23,0-.03,0-.03,0-.06,0-.01-.02,0-.02-.02,0-.05,0-.12,0-.19-.05-.05-.04-.15-.06-.22-.02-.05-.06-.08-.09-.13-.02-.03-.02-.06-.05-.08-.02-.05-.05-.09-.09-.13v-.03c-.08-.07-.15-.15-.29-.16-.01-.02-.03-.04-.02-.09-.08-.13-.26-.19-.42-.16-.08-.05-.21-.07-.33-.08-.03-.03-.1-.07-.14-.03-.15.02-.26.04-.41.07,0-.01,0-.02-.02-.02-.08,0-.17-.02-.23,0-.06.01-.12.08-.18.1-.04.01-.08,0-.12.03-.07-.03-.15-.06-.23-.07-.05.03-.15.03-.21.07-.06,0-.13,0-.17.05-.05,0-.08,0-.13,0-.04.04-.09.07-.15.09-.02.03-.04.06-.07.08,0,.03-.01.07,0,.13.03.01.04.03.06.05.01.04.02.07.02.12,0,.07.05.13.06.19.01.07-.02.13-.01.21,0,.06.03.15.04.22,0,.07,0,.09.04.12-.02.07-.03.13-.04.21-.05.05-.09.15-.07.22.06,0,.03.11.07.14-.02,0-.02.02-.03.03.01.1-.02.24-.03.34-.01,0-.02,0-.02.02,0,0,0,0,0,.01,0,0,.02,0,.02.02-.01.03,0,.04.01.07-.01.17-.08.34-.05.51.03.07.05.15.02.24.01.05.03.11.01.17.04.15-.06.28-.07.41,0,.01.03,0,.03.02-.03.09.02.2-.01.29-.02.04-.01.1-.02.14-.01.05-.04.06-.06.09-.02.03-.02.07-.05.08-.03.15.06.27.03.46-.03.05-.06.11-.03.18-.05.08-.03.19-.04.29-.01.12-.1.19-.13.27,0,.06-.02.12.01.17-.02.02.02.06,0,.09.03.07,0,.12,0,.2-.02,0,0,.05-.04.05,0,.06-.05.09-.03.15,0,.01-.03,0-.02.03-.02.14.05.24.05.37,0,.13-.05.22-.09.3-.02.04-.05.09-.06.12,0,.02.01.05.02.07.01.08,0,.14.03.18-.04.16-.09.3-.06.44-.04.05-.03.15-.04.23.05.08,0,.19-.05.23-.02,0-.02,0-.03,0-.02.12-.08.23-.05.36-.03.02,0,.07-.01.11,0,.02-.01.02-.03.02.03.06-.02.15-.06.19.02.09-.07.15-.06.26-.02.02-.03.04-.02.08-.01,0-.02.02-.02.03,0,.08,0,.17-.03.25.07.24-.08.46-.1.72-.06.06-.1.14-.13.23,0,.08.04.2,0,.28.02.05,0,.11-.03.15h-.04s-.04.04-.06.07c-.05.07-.05.19-.07.3-.01.09-.08.18-.05.26,0,.01-.03,0-.02.03-.03.1-.06.26-.1.37,0,.01,0,.03.01.04-.04.07-.06.18-.09.26,0,.01,0,.02.01.03-.06.07-.05.25-.15.31-.04.12-.03.26-.08.35.03.14-.08.28-.09.45-.03.03-.03.09-.05.13-.03.04-.07.07-.11.1,0,.04-.03.07-.04.11,0,.02,0,.04,0,.06,0,0-.01,0-.02.02-.02.04-.03.11-.04.16-.02.11-.05.19-.13.26-.03.12,0,.29-.15.29-.05.12-.1.26-.15.38h-.03c-.04.09-.12.16-.16.25-.07,0-.08.07-.14.07-.03.07-.07.1-.04.19.04.05.11.08.14.14.05,0,.08.03.1.07.04.01.08.02.11.05.11,0,.15.04.2.1.02,0,.02-.01.04,0,.03.12.19.04.27.03.09,0,.18.03.25.02.09.07.18.05.3.05,0-.01,0-.02.01-.03.07-.03.1-.03.18-.05.04-.09.17-.14.3-.1.02-.06.07-.09.15-.1.05-.09.12-.16.13-.29.05-.02.08-.06.17-.05.01-.02.03-.08.07-.09.05-.1.1-.21.12-.32.06-.03.08-.12.07-.22,0-.01-.01-.02-.02-.02.04-.08.06-.25.07-.35.06-.03.08-.09.13-.13-.02-.03,0-.05.02-.06,0-.14,0-.3.03-.41.02-.06.05-.12.07-.18.02,0,.04-.02.05-.03.02-.08.05-.16.07-.24,0-.06,0-.11.01-.16,0-.11,0-.22.06-.31-.02-.05.01-.1.02-.14,0-.03,0-.05,0-.08,0-.07.04-.14.05-.21.02-.09.04-.13.06-.2.02-.07.05-.14.03-.23.04-.03.04-.11.03-.15.04-.09,0-.18.02-.27,0-.05.05-.1.06-.15,0-.03.02-.07.02-.11.01-.06,0-.12,0-.19.01-.08.06-.16.09-.24.03-.12.07-.22.05-.35.01-.03.03-.06.02-.1.04-.06.09-.11.1-.19,0-.02-.01-.04-.01-.06,0-.03.01-.06.01-.09,0-.05-.01-.08-.02-.11-.02-.07,0-.12,0-.18.04-.03.05-.09.07-.14.02-.04.07-.06.07-.11,0-.14.02-.31.03-.47.07-.19,0-.46.11-.64.04-.18.06-.39.05-.57.04-.08.01-.19.07-.25-.03-.1.08-.15.1-.21.02-.07,0-.13.02-.22-.03-.03-.02-.09-.03-.14-.02-.06-.04-.09-.03-.14,0-.07.04-.13.04-.21.02-.03.04-.06.07-.07-.01-.08.03-.15.04-.21.01-.09-.05-.18-.02-.29,0-.02.03-.02.03-.05v-.29s.02,0,.03,0c.02-.06.01-.14.03-.21.01,0,.03,0,.06,0,.02.1.06.18.07.27.01.19,0,.33.02.51.03.02.04.05.06.08-.01.27.03.49.1.68,0,.1-.03.17-.02.24,0,.04,0,.09,0,.13,0,.04.03.09.03.14.01.14.09.21.09.33,0,.08-.03.16-.05.23-.02.1.05.15.04.25.04.04.03.12.07.15.02.08.06.16.06.27,0,.1-.01.2,0,.29,0,.07.05.11.04.17,0,.02-.02.03-.02.05,0,.04.03.07.06.1,0,.07.04.14.06.21-.02.05,0,.09-.01.13-.01.09-.05.18-.04.28,0,.04.02.11.04.14.01.02.04.02.05.04.01.02,0,.04.02.07,0,.02.03.04.03.06,0,.02,0,.03,0,.05,0,.07.03.17.03.24,0,.07-.04.14-.06.21.02.04,0,.11.02.15-.04.06,0,.12.01.18.03.11.05.23.06.32,0,.12-.03.26.03.39-.04.13.04.23.02.34.09.11.07.32.13.45-.04.11,0,.25-.04.38.02.06.05.1.08.15,0,.1.07.16.06.27,0,0,.02,0,.02.01.01.13.02.24.01.35,0,.01.03,0,.02.02.05.14.07.22.09.38.08.03.04.13.07.2-.02.03,0,.08-.03.11.03.03.04.08.04.14.01.02.03.05.02.09.01,0,.02.02.03.03.01.1.08.15.09.25.04.05.09.09.11.15.06.04.15.06.2.11.06,0,.13.04.2.01.07.07.18.11.29.15.03-.02.06-.03.1-.03.05.04.12.07.18.1.02-.02.12-.03.15,0,.08-.04.17,0,.24-.01.07-.01.12-.06.19-.06.01,0,.01-.02.03-.03.02,0,.02,0,.05,0,.04-.1.17-.11.18-.24.06-.07.12-.13.13-.23,0,0,.02,0,.02,0,.01-.12.08-.17.08-.3.05-.05.04-.12.09-.17.01-.01.03-.01.03-.02.03-.04.06-.09.07-.14,0-.01,0-.03,0-.05,0-.04.04-.06.05-.1,0-.04-.01-.08-.01-.13,0-.05.05-.2.07-.22-.02-.01,0-.02,0-.05.06-.05.16-.08.14-.18.05-.02.02-.09.06-.11,0-.02-.02-.02-.01-.04.05-.11,0-.26.11-.3,0-.05.05-.08.03-.13.04-.03.05-.09.07-.14,0-.05.02-.1.03-.16.02-.08,0-.18.06-.23.02-.13.08-.21.16-.27,0-.06-.03-.13.02-.18-.02-.02,0-.04-.01-.06.05-.07.08-.17.17-.2-.02-.1.04-.2.05-.31,0-.05-.02-.1,0-.15.06-.09.1-.22.13-.33,0-.02-.02-.03-.03-.05.09-.04.13-.13.17-.23,0-.08-.02-.16.01-.24.01-.03.02-.05.03-.07-.01-.05.01-.07,0-.11.09-.12.09-.32.14-.49.08,0,0-.12.06-.14-.01,0-.03-.02-.03-.03,0-.08.02-.19.02-.29,0-.03.03-.06.03-.09,0,0-.01-.02-.01-.02,0-.02.02-.04.02-.06,0-.02,0-.04-.02-.06.03-.04.07-.08.1-.11,0-.1.1-.18.1-.29,0-.02.03-.02.03-.04.02-.13,0-.26.05-.4-.03-.07,0-.11.02-.16.01-.07,0-.13.03-.18.02-.03.05-.05.07-.08,0,0,0-.03.01-.04,0-.01.02-.01.03-.02.02-.04.02-.09.02-.14,0-.02.01-.03.02-.04,0,0-.01-.02-.01-.03.03-.08.03-.14.05-.23,0-.04.03-.1.04-.15,0-.03,0-.06,0-.09.01-.04.06-.07.08-.1.08-.12.05-.34.05-.49.01,0,0-.03.02-.04-.02-.1.09-.14.07-.27.06-.04.04-.1.05-.17,0-.04.04-.08.04-.1.02-.15.02-.31.09-.41.01.02.04.04.06.05,0,.08.02.22-.01.31.03.05.03.13.01.18.01,0,.02,0,.03.02.04.09,0,.21-.01.32,0,.05.01.1,0,.14.03.07,0,.17.02.26-.04.13,0,.32.02.47-.02.07-.04.2-.01.28-.04.16-.03.36-.01.51-.03.04-.01.17-.03.23,0,0,.02,0,.02.02.03.26.05.48,0,.77,0,.02.03.02.03.04v.13c.09.1.08.29.06.41-.02.02-.02.06-.05.07,0,.03,0,.04,0,.06,0,.01.02.02.03.03.02.09.06.21.08.3-.06.02-.02.13-.06.16,0,.02.02,0,.01.02,0,.02-.02.03-.03.05.01.13.03.28.03.38.04.18.09.41.06.6.04.02,0,.06.01.07,0,.01.02.02.02.03,0,.02,0,.05,0,.09.03.03.06.06.06.1,0,.06-.05.11-.04.18,0,.01-.01.02-.02.02.03,0,0,.06,0,.07.02.08-.01.2.09.26.02.08.02.16.04.22-.03.03-.04.08-.07.11.01.03,0,.08,0,.1.02,0,.01.02.02.03,0,.1.03.19.05.29.01.11,0,.23,0,.34,0,.03.02.06,0,.09.01,0,.02,0,.02.02.02.1.04.19.05.29.04.07.09.13.09.22,0,.03-.01.06-.01.09,0,.04.03.08.04.12,0,.05,0,.12,0,.17,0,.02.02.02.02.03,0,.09-.02.15-.02.23.07.07.06.23.13.3-.02.05.03.11.05.17,0,.02-.02.03-.02.05.05.17.09.31.2.44.01.07.08.09.1.16.03.02.07.05.1.07.02,0,.03-.02.06-.01,0,.01,0,.04,0,.06.04.02.04.07.07.11.09.05.23.06.3.13.07-.01.12.05.18.07.06,0,.11.01.17.02.06-.02.1-.01.18-.02.05.08.19.04.26.03.02,0,.04,0,.06,0,.03,0,.04-.04.07-.05.02,0,.09,0,.14,0,.14.05.25.06.37,0,.04.02.07-.01.1-.02.07-.03.17-.04.25-.07.07-.03.11-.07.16-.1h.06s.12-.1.19-.16c.02-.01.05-.02.06-.04.02-.03.02-.12.02-.17,0-.05-.07-.03-.08-.08-.05,0-.05-.04-.1-.05-.1-.11-.17-.26-.22-.42-.01-.07-.03-.13-.07-.17-.03-.1-.06-.21-.11-.3.03-.16-.02-.35-.11-.46,0-.1-.01-.22-.04-.29,0-.17-.02-.29,0-.45-.01-.02-.03-.07-.02-.1,0,0-.02,0-.02-.01-.03-.08-.02-.16-.04-.24-.01-.04-.04-.07-.05-.11-.01-.04,0-.1,0-.14-.03-.03-.04-.07-.06-.11.02-.04.03-.1.05-.15-.03-.05,0-.09,0-.14,0-.12-.08-.2-.09-.31-.02-.14.05-.3,0-.46,0,0,0-.03.01-.04-.1-.13-.04-.3-.04-.48-.04-.09,0-.26-.02-.38,0-.04-.03-.07-.03-.11-.01-.01-.04-.01-.05-.03-.04-.11-.07-.24-.09-.35,0-.08.05-.1.06-.14-.02-.05.03-.12,0-.17.04-.1.01-.3.03-.42,0-.02-.03,0-.02-.01,0-.2-.09-.38-.03-.61-.03-.1-.02-.25.02-.35-.02-.06-.03-.13-.08-.17.04-.03-.02-.1.01-.15,0-.02-.02-.02-.02-.04.02-.12-.01-.24.01-.33,0-.02.02-.03.02-.05,0-.01,0-.02,0-.03,0-.02.02-.02.02-.04,0-.04-.01-.08-.04-.11,0-.05-.02-.09-.01-.17-.04-.07-.04-.16-.08-.23.02-.03.05-.06.06-.1,0-.05-.02-.1-.03-.15-.01-.15,0-.32-.01-.46.03-.03.03-.09.05-.13,0,0-.02-.01-.03-.03-.02-.11-.06-.22-.04-.38-.02-.02-.01-.02-.02-.03-.04-.21.04-.37.04-.56,0-.02.01-.02.02-.03,0-.12-.05-.27-.01-.41-.03-.05,0-.12-.03-.17,0-.1-.02-.09-.02-.16,0,0,0,0,.02,0-.02-.03,0-.03-.01-.06.02,0,.02,0,.03,0,.01-.09.04-.2-.01-.29.03-.04.01-.08.02-.18-.06-.02-.02-.09-.07-.11,0-.07-.03-.13-.05-.19.04-.04.02-.11.03-.17.04-.04.04-.12.06-.18-.02-.02-.01-.02,0-.04-.03-.1-.01-.2-.06-.28,0-.07-.02-.14.02-.19,0-.05,0-.13.02-.18-.02-.08.02-.16-.02-.22.02-.07-.03-.14-.03-.21.01-.04,0-.06,0-.1.01-.04.04-.09.05-.13.04-.2-.03-.42-.04-.59.05-.14-.03-.23-.07-.35-.02-.06-.04-.12-.09-.15,0-.03,0-.06,0-.1-.07-.06-.18-.07-.25-.14-.02-.05-.06-.08-.09-.13-.03,0-.04-.05-.07-.03,0-.02,0-.01-.01-.02-.04,0-.07,0-.1,0-.05-.08-.12-.14-.19-.2-.15,0-.28,0-.4-.09-.04.02-.08-.02-.12-.02-.12-.01-.25.03-.37.02-.12-.03-.27,0-.38-.05-.11,0-.2.08-.3.06-.06.04-.17.02-.22.04-.1-.08-.2,0-.3.04-.05-.04-.13-.02-.18,0-.1.02-.17.09-.25.11,0,.01-.01.03-.02.03-.03,0-.03.03-.06.02-.06.11-.02.22.04.31v.05s.05.07.03.1c.03.01.04.08.03.1,0,0,.02,0,.01.02-.02.07,0,.14,0,.23,0,.08-.06.17.01.24,0,.13-.04.26-.02.39,0,.02-.01.03-.02.05.02.17-.13.32-.05.49-.02.07,0,.18,0,.27-.02.04-.05.08-.03.13-.01,0-.02.01-.03.02,0,.07-.07.12-.07.2,0,.03.02.05.02.09,0,.11-.02.26,0,.34,0,.03.02.03.02.05,0,.06-.07.09-.11.11-.03.11-.1.24-.06.36,0,.01-.01.02-.01.03.02.05.02.14,0,.19,0,.05-.01.06-.02.1-.07.04-.1.12-.14.18-.01.12-.01.27-.06.38,0,.02,0,.02,0,.04-.03,0-.03.04-.05.05,0,.16-.09.25-.09.39-.03.02,0,.07-.02.09.03.07.04.16.02.24.02.06.02.17-.03.21-.01.14-.09.26-.14.37-.03.11-.02.22-.05.34-.03.08-.04.17-.02.26-.01,0-.02.01-.02.03,0,.1-.04.17-.07.25v.04c-.02.1-.12.17-.12.29,0,.05.02.08.03.11.01.08-.01.2-.03.27-.02.06-.05.08-.07.12-.01.02-.01.05-.03.06-.02.08-.04.16-.07.24,0,.1-.02.22-.06.29,0,.09-.05.19-.05.29-.03.03-.05.1-.03.13-.03.06-.05.13-.06.19-.01.05-.02.1-.02.16-.02.01-.02.05-.05.07.02.04-.04.12-.04.18-.04.03-.06.11-.09.14-.05.06-.02.18-.07.26.02,0,0,.02.02.02-.03.04-.03.1-.02.14-.01.02-.03.05-.02.07-.05.02-.04.1-.08.13.01.11-.07.18-.09.29-.02.1-.03.18-.05.29-.05.04-.04.11-.07.15,0,.06,0,.11-.02.15-.02.01-.04.02-.05.04-.08,0-.04-.06-.05-.11,0-.03-.03-.05-.03-.08,0-.05,0-.07.02-.1,0-.02-.03,0-.02-.02,0-.12-.01-.21-.03-.34.02-.01.03-.04.02-.07,0-.01-.03-.01-.04-.02,0-.03,0-.06-.01-.1.05-.06.03-.17.03-.25,0-.01-.02-.01-.03-.02,0-.05-.02-.07-.01-.12-.07-.03-.05-.14-.05-.25,0-.02.03,0,.02-.03,0-.07,0-.14-.01-.2-.02-.02-.05-.01-.07-.02,0-.06-.04-.13-.04-.19Z"/></g></svg>