<?xml version="1.0" encoding="UTF-8"?><svg id="Capa_2" xmlns="http://www.w3.org/2000/svg" viewBox="0 0 60.57 23.62"><defs><style>.cls-1{fill:#125192;stroke-width:0px;}</style></defs><g id="Home"><path class="cls-1" d="M56.85,15.74s-.94-2.25-.92-2.25h-6.34s-.92,2.27-.92,2.25c-.95,1.72-4.46.81-3.59-1.84l5.68-12.34S51.3-.03,52.75,0c1.45-.04,2.02,1.56,2,1.55l5.68,12.34c.87,2.65-2.6,3.58-3.59,1.84h0ZM54.54,10.14l-1.79-4.21-1.79,4.21h3.57ZM57.25,2.35c0-.83.63-1.38,1.37-1.38s1.37.55,1.37,1.38-.63,1.38-1.37,1.38c-.8,0-1.37-.6-1.37-1.38h0ZM57.55,2.35c0,.63.41,1.14,1.07,1.14.6,0,1.07-.47,1.07-1.14s-.47-1.14-1.07-1.14-1.07.47-1.07,1.14h0ZM58.35,3.14h-.25v-1.53h.59c.37,0,.56.13.56.44,0,.28-.17.39-.4.42l.43.67h-.29l-.4-.65h-.24v.65ZM58.35,2.27h.28c.19,0,.36-.02.36-.24,0-.18-.18-.21-.34-.21h-.3v.45ZM41.58,11.82s-2.56.01-2.57,0v2.91c0,1.04-.86,1.89-1.91,1.89s-1.91-.84-1.91-1.89l.02-13.39c.16-.83.94-1.28,1.86-1.28.83-.01,3.53-.02,3.55,0,4.07.23,6.53,2.78,6.47,6.13,0,3.33-2.33,5.56-5.52,5.63h0ZM43.31,6.19c.03-1.81-1.33-2.42-4.32-2.18v4.43c2.9.16,4.28-.25,4.32-2.25h0ZM30.95,15.74s-.94-2.25-.92-2.25h-6.34s-.92,2.27-.92,2.25c-.96,1.72-4.46.81-3.59-1.84L24.86,1.55S25.41-.03,26.86,0c1.45-.03,2.02,1.56,2,1.55l5.68,12.35c.87,2.65-2.6,3.58-3.59,1.84h0ZM28.65,10.14l-1.79-4.21-1.79,4.21h3.57ZM15.43.99c-.54-1.32-2.72-1.32-3.23,0-.04.05-2.9,7.32-2.89,7.31,0,0-2.85-7.26-2.89-7.31C5.91-.33,3.73-.33,3.19.99L.19,13.4c-.41,1.36-.23,2.79,1.38,3.16,1.45.24,1.93-.63,2.3-1.65l1.61-5.83,2,6.22c.24.65.53.89.53.89.33.33.79.54,1.3.54s.96-.2,1.29-.53c0,0,.28-.22.53-.9l2-6.22,1.61,5.83c.28.98.74,1.89,2.3,1.65,1.63-.32,1.79-1.8,1.38-3.16L15.43.99Z"/><path class="cls-1" d="M5.08,21.16h.56c.35,0,.58-.22.58-.56s-.23-.54-.58-.54h-.56v1.09ZM4.47,19.06h1.08c1.13,0,1.88.61,1.88,1.54s-.75,1.57-1.89,1.57h-.47v.81c0,.34-.24.58-.57.58s-.58-.24-.58-.58v-3.38c0-.31.22-.54.54-.54h0Z"/><path class="cls-1" d="M9.56,21.02h.56c.35,0,.58-.19.58-.49s-.23-.47-.58-.47h-.56v.95ZM11.61,22.56c.11.19.16.36.16.51,0,.28-.2.47-.54.47-.29,0-.47-.13-.63-.44l-.58-1.09h-.46v.95c0,.34-.24.58-.57.58s-.58-.24-.58-.58v-3.38c0-.31.22-.54.53-.54h1.08c1.13,0,1.88.58,1.88,1.47,0,.56-.29.99-.76,1.25l.46.79Z"/><path class="cls-1" d="M15.05,20.1c-.61,0-1.1.53-1.1,1.18s.49,1.19,1.1,1.19,1.11-.53,1.11-1.18-.49-1.19-1.11-1.19h0ZM15.05,23.62c-1.29,0-2.33-1.05-2.33-2.34s1.05-2.33,2.33-2.33,2.33,1.05,2.33,2.34-1.05,2.33-2.33,2.33h0Z"/><path class="cls-1" d="M19.58,23.04c0,.34-.24.58-.58.58s-.57-.24-.57-.58v-3.45c0-.31.22-.54.53-.54h1.86c.31,0,.53.22.53.54s-.22.54-.53.54h-1.25v.71h.97c.31,0,.53.22.53.54s-.22.54-.53.54h-.97v1.12Z"/><path class="cls-1" d="M22.91,19.06h1.92c.31,0,.53.22.53.54s-.22.54-.53.54h-1.31v.58h1.04c.31,0,.54.22.54.54s-.22.54-.54.54h-1.04v.64h1.31c.31,0,.53.22.53.54s-.22.54-.53.54h-1.92c-.31,0-.54-.22-.54-.54v-3.39c0-.31.22-.54.54-.54h0Z"/><path class="cls-1" d="M26.78,22.23c.38,0,.68.31,1.24.31.28,0,.51-.09.51-.3,0-.6-2.27-.34-2.27-1.91,0-.8.67-1.38,1.77-1.38.82,0,1.56.26,1.56.88,0,.26-.19.47-.49.47-.4,0-.65-.26-1.24-.26-.28,0-.38.1-.38.26,0,.58,2.22.33,2.22,1.88,0,.83-.66,1.45-1.78,1.45-.85,0-1.64-.31-1.64-.92,0-.26.19-.46.49-.46h0Z"/><path class="cls-1" d="M31.09,22.23c.38,0,.68.31,1.24.31.28,0,.51-.09.51-.3,0-.6-2.27-.34-2.27-1.91,0-.8.67-1.38,1.77-1.38.82,0,1.56.26,1.56.88,0,.26-.19.47-.49.47-.4,0-.65-.26-1.24-.26-.28,0-.38.1-.38.26,0,.58,2.22.33,2.22,1.88,0,.83-.66,1.45-1.78,1.45-.85,0-1.64-.31-1.64-.92,0-.26.19-.46.49-.46h0Z"/><path class="cls-1" d="M35.57,19.02c.34,0,.58.24.58.58v3.37c0,.34-.24.58-.57.58s-.58-.24-.58-.58v-3.37c0-.34.24-.58.57-.58h0Z"/><path class="cls-1" d="M39.53,20.1c-.61,0-1.1.53-1.1,1.18s.49,1.19,1.1,1.19,1.1-.53,1.1-1.18-.49-1.19-1.1-1.19h0ZM39.53,23.62c-1.29,0-2.33-1.05-2.33-2.34s1.05-2.33,2.33-2.33,2.33,1.05,2.33,2.34-1.05,2.33-2.33,2.33h0Z"/><path class="cls-1" d="M46.91,19.6v3.23c0,.44-.26.72-.64.72-.44,0-.66-.24-.92-.62l-1.3-1.89v1.93c0,.34-.24.58-.57.58s-.58-.24-.58-.58v-3.23c0-.47.27-.72.67-.72s.62.22.88.62l1.31,1.97v-2.01c0-.34.24-.58.57-.58s.58.24.58.58h0Z"/><path class="cls-1" d="M50.7,21.66l-.5-1.33-.51,1.33h1.01ZM51.88,23.55c-.31,0-.54-.2-.68-.58l-.11-.29h-1.79l-.11.29c-.15.38-.29.58-.65.58-.43,0-.65-.36-.44-.87l1.2-2.93c.22-.52.46-.73.92-.73s.69.21.91.73l1.2,2.93c.21.51-.01.87-.47.87h0Z"/><path class="cls-1" d="M54.11,19.02c.34,0,.58.24.58.58v2.84h1.42c.31,0,.54.22.54.54s-.22.54-.54.54h-2.03c-.31,0-.54-.22-.54-.54v-3.38c0-.34.24-.58.57-.58h0Z"/></g></svg>