<?xml version="1.0" encoding="UTF-8"?><svg id="Capa_2" xmlns="http://www.w3.org/2000/svg" viewBox="0 0 38.24 55.59"><defs><style>.cls-1{fill:#a07eba;}.cls-1,.cls-2,.cls-3,.cls-4{stroke-width:0px;}.cls-2{fill:#682a8d;}.cls-4{fill:#b3b3b3;}</style></defs><g id="Home"><path class="cls-1" d="M18.34,0c-.08,0-.16,0-.24,0-2.4.03-4.83.59-7.07,1.66,0,0,.35-.09.59-.09.03,0,.06,0,.09,0,.23.04.45.16.63.3.26.2.36.58.64.76.23.14.52.16.79.17.57.03,1.14-.18,1.71-.21.58-.03,1.17-.05,1.74.03.85.12,1.69.35,2.48.68.93.39,1.8.94,2.62,1.54.8.58,1.51,1.29,2.22,1.98,1.03.99,1.86,2.2,2.98,3.1.46.37.93.68,1.51.92.83.34,2.62.59,2.62.59l.75.19c.39.06.74.15,1.06.26h.02c.29.11.54.23.75.37-.58-1.91-1.58-3.74-2.69-5.37C28.78,2.81,23.32.03,18.34,0h0Z"/><path class="cls-2" d="M8.27,3.32c-1.48,1.09-2.81,2.44-3.9,4.04-1.67,2.45-2.89,5.45-2.89,8.44v13.89c0,.31.17.46.39.46h4.21c-.56-.27-.95-.64-1.17-1.07-1.62-3.26,3.56-9,11.62-13.41.34-.25.67-.52.66-.62-.01-.13-.53.08-.53.08-3.84,1.52-7.23,3.92-10.33,6.52,0,0-.62-2.79-.88-4.16-.16-.85-.38-1.69-.45-2.55-.07-.79,0-2.38,0-2.38,0,0,.04-1.6.28-2.38.25-.82,1.2-2.36,1.2-2.36,0,0,.77-1.08,1.37-1.69.15-.15.31-.45.31-.68,0-.19-.12-.3-.16-.48-.06-.24-.11-.52-.11-.77,0-.19.05-.34.13-.51.06-.12.18-.27.27-.37h0Z"/><path class="cls-2" d="M34.76,15.78c-1.25,3.11-5.48,7.33-11.61,10.62-3.54,1.9-6.76,3.11-9.47,3.75h20.71c.25,0,.38-.12.38-.45,0-4.15,0-9.07,0-13.92h0Z"/><path class="cls-2" d="M29.95,15.47c-2.25,0-6.78,1.58-11.55,4.28-7.01,3.97-10.17,7.92-8.95,8.66,1.62.98,6.82.53,14.08-3.66,2.98-1.72,8.6-5.88,7.86-8.63-.12-.44-.63-.65-1.44-.65h0ZM19.14,20.35s1.58,3.02-.86,4.87c-3.33,2.53-5.79-.16-5.79-.16,1.64-1.75,3.96-3.42,6.66-4.71h0Z"/><path class="cls-3" d="M7.58,53.38c.37,0,.64-.08.84-.23.19-.16.29-.38.29-.68v-.03c0-.28-.09-.49-.28-.66-.19-.16-.48-.24-.88-.24h-2.21v1.83h2.24s0,0,0,0ZM6.83,49.61c.37,0,.64-.07.84-.21.19-.14.29-.36.29-.65v-.03c0-.27-.09-.49-.27-.63-.18-.15-.45-.22-.8-.22h-1.54v1.75h1.49ZM3.04,45.65h4.37c.54,0,1,.08,1.38.23.38.15.68.27.93.52.17.2.38.37.51.71.1.27.15.67.15,1.01v.08c0,.58-.22,1.02-.47,1.38-.25.35-.6.4-.99.59.72.12,1.51.71,1.81,1.09.31.38.46.9.46,1.57v.03c0,.86-.28,1.53-.85,2.02-.56.48-1.89.72-2.92.72H3.04v-9.94h0Z"/><path class="cls-3" d="M12.14,45.65h7.42v2.08h-5.03v1.83h4.29v1.95h-4.29v1.97h5.14v2.12h-7.53v-9.94h0Z"/><path class="cls-3" d="M20.71,45.65h2.56v7.84h4.47v2.11h-7.03v-9.94Z"/><path class="cls-3" d="M28.73,45.65h2.56v7.84h4.47v2.11h-7.03v-9.94h0Z"/><path class="cls-3" d="M2.97,36.08H0v-2.07h8.56v2.07h-3.06v7.9h-2.53v-7.9h0Z"/><path class="cls-3" d="M13.1,40.51l-1.22-3.41-1.3,3.41h2.51ZM10.96,33.97h2.05l4.06,10.01h-2.67l-.58-1.47h-3.93l-.61,1.47h-2.47l4.14-10.01Z"/><path class="cls-3" d="M31.04,33.84c-.69.02-1.45.21-2.03.46-.62.27-1.13.61-1.59,1.08-.46.47-.7.99-.96,1.62-.26.63-.33,1.3-.33,2.01v.03c0,.71.07,1.38.33,2,.26.62.61,1.17,1.06,1.63.45.46.99.83,1.61,1.1.62.27,1.3.4,2.02.4s1.4-.13,2.02-.4c.62-.27,1.16-.64,1.62-1.11.46-.47.82-1.02,1.07-1.65.26-.63.31-1.3.31-2.01v-.03c0-.71-.05-1.38-.31-2-.26-.62-.61-1.17-1.06-1.63-.45-.46-.98-.83-1.61-1.1-.62-.27-1.3-.4-2.03-.4h-.14ZM31.15,36.02c.39,0,.74.08,1.06.24.32.16.59.38.82.66.23.27.41.59.54.95.13.36.19.74.19,1.14v.03c0,.4-.06.78-.19,1.14-.13.36-.3.67-.52.94-.22.27-.49.48-.81.64-.32.16-.67.24-1.06.24s-.74-.08-1.06-.24-.59-.38-.82-.66c-.23-.27-.4-.59-.53-.95-.13-.36-.19-.74-.19-1.14v-.03c0-.4.06-.78.18-1.14.12-.36.29-.67.52-.94.23-.27.5-.48.81-.64.31-.16.66-.24,1.05-.24Z"/><path class="cls-3" d="M16.68,39.02c0-1.27.33-2.69,1.2-3.62.95-1.01,2.47-1.56,3.86-1.56,2.72,0,3.97,1.88,3.97,1.88l-1.93,1.39s-.52-.59-.86-.77c-.34-.18-.74-.33-1.13-.29-.72.07-1.49.38-1.98.93-.45.51-.67,1.26-.64,1.95.04.91.39,1.92,1.08,2.53.38.34,1.03.42,1.47.42.65,0,1-.13,1.44-.35.3-.15.77-.64.77-.64l2.02,1.45s-1.51,1.8-4.16,1.8c-1.16,0-2.43-.28-3.24-.96-1.2-1.01-1.88-1.84-1.88-4.17h0Z"/><path class="cls-4" d="M36.65,53.62h-.36v-.11h.85v.11h-.36v.97h-.12v-.97Z"/><path class="cls-4" d="M37.2,53.51h.12l.39.59.39-.59h.12v1.08h-.12v-.87l-.39.58h0l-.39-.58v.87h-.12v-1.08h0Z"/></g></svg>