<?xml version="1.0" encoding="UTF-8"?><svg id="Capa_2" xmlns="http://www.w3.org/2000/svg" viewBox="0 0 65.65 11.76"><defs><style>.cls-1{fill:#1d191a;stroke-width:0px;}</style></defs><g id="Home"><path class="cls-1" d="M2.03,10.35v.98H.31v-4.22h1.52c.39,1.47,1.19,2.24,2.67,2.55.95.23,1.62.34,2.42.39.29.02.59.02.93.02,1.06,0,3.06-.44,3.03-1.49-.02-1.03-1.8-1.1-2.52-1.15-.44-.02-.93-.05-1.44-.1-1.28-.1-2.68-.28-3.89-.59-1.44-.39-3.03-1.39-3.03-3.14C0,2.3.95,1.52,1.91.94,2.88.39,5.06,0,6.41.06c.17,0,.34,0,.51.02,1.51.1,3.14.51,4.12,1.06.05.02.1.05.15.07.23.11.44.24.44.34v-.92h1.47v3.62h-1.31c-.13-.35-.29-.71-.61-1-1-1-2.75-1.39-3.99-1.46-.08,0-.18,0-.28-.02-1.26-.06-3.66.11-3.86,1.31-.11.52.57.82,1.13.93.9.15,1.82.21,2.73.28.97.06,1.92.15,2.83.28.46.08.97.2,1.44.36,1.41.47,2.67,1.39,2.67,3.09,0,1.55-1.23,2.55-2.23,2.91-.13.05-.28.12-.44.16-.9.33-2.14.61-3.89.61h-.38c-1.47-.05-3.04-.42-4.17-.97l-.72-.39Z"/><path class="cls-1" d="M26.76,8.4c-.49.64-1.18,1.16-2.06,1.44-.47.16-1.03.26-1.62.26h-.05c-1.13-.02-2.1-.38-2.83-.95-.3-.23-.56-.47-.77-.77-.52-.67-.82-1.51-.82-2.37,0-1,.29-1.91.82-2.65.21-.3.47-.57.77-.8.72-.57,1.67-.9,2.76-.9h.07c.61,0,1.16.08,1.67.23.87.26,1.57.72,2.06,1.37.52.69.82,1.57.82,2.63,0,.92-.28,1.78-.82,2.5h0ZM29.04,1.77c-.56-.48-1.32-.88-2.21-1.18-.64-.21-1.32-.38-2.06-.47-.49-.06-1-.11-1.51-.11h-.16c-.98.02-1.93.13-2.83.35-.26.06-.52.15-.77.23-.53.18-1.02.41-1.47.67-.25.15-.49.31-.7.47-.57.46-1.11,1.06-1.51,1.78-.41.74-.67,1.59-.67,2.52.03.75.26,1.57.67,2.32.38.7.92,1.33,1.56,1.77.21.15.42.28.65.41.47.26.95.49,1.47.67.24.08.51.16.77.23.85.23,1.77.34,2.83.34h.1c.57,0,1.1-.02,1.57-.08.8-.1,1.47-.26,2.06-.46.88-.33,1.59-.75,2.21-1.2,1.24-.9,1.99-2.5,1.99-3.98,0-1.95-.83-3.34-1.99-4.29h0Z"/><path class="cls-1" d="M46.59,11.04h-2.23l-1.98-1.73-1.87-1.64-2.32-2.04-1.98-1.72v5.79l1.98.03h.2v1.31h-6.28v-1.31h.36l1.54-.03V2.15h-1.9V.73h5.17l.92.8,2.32,2.04,1.87,1.64,1.98,1.73V2.15h-2.09V.73h6.2v1.42h-1.88c-.06,0,0,8.41,0,8.88h0Z"/><polygon class="cls-1" points="65.65 2.15 63.82 2.15 59.29 7.06 59.29 9.73 61.32 9.73 61.32 11.04 57.54 11.04 53.99 11.04 53.99 9.73 55.87 9.73 55.87 7.17 51.37 2.15 51.33 2.15 49.44 2.15 49.44 .73 51.33 .73 56.9 .73 56.9 2.15 55.57 2.15 57.54 4.49 58.21 5.28 61 2.15 59.53 2.15 59.53 .73 65.65 .73 65.65 2.15"/></g></svg>