<?xml version="1.0" encoding="UTF-8"?><svg id="Capa_2" xmlns="http://www.w3.org/2000/svg" viewBox="0 0 88.25 19.96"><defs><style>.cls-1{fill:#1e2753;stroke-width:0px;}</style></defs><g id="Home"><path class="cls-1" d="M28.39,15.37c-.49,0-.99-.02-1.48,0-.5.02-.7-.19-.74-.71-.37-4.7-3.47-8.52-7.93-9.8-6.34-1.82-12.86,2.44-13.74,9.06-.23,1.7-.23,1.43-1.65,1.45-.7.01-1.41-.02-2.11,0-.54.02-.76-.2-.73-.76C.28,10.32,1.99,6.73,5.15,3.89,13.84-3.89,27.56.58,30.2,12.05c.2.86.26,1.76.37,2.64.06.47-.18.68-.63.68-.51,0-1.03,0-1.54,0h0Z"/><path class="cls-1" d="M35.23,2h3.11c1.24,0,1.23,0,1.53,1.22.65,2.71,1.31,5.41,1.97,8.12.04.16.1.32.2.64.11-.4.19-.65.26-.9.72-2.85,1.45-5.7,2.15-8.55.09-.38.22-.55.64-.54,1.08.03,2.17.01,3.26,0,.29,0,.44.05.47.41.25,3.98.52,7.97.79,11.95.02.27,0,.54,0,.89-.83,0-1.64.01-2.45-.02-.09,0-.24-.27-.25-.42-.1-1.96-.17-3.91-.25-5.87-.06-1.45-.13-2.9-.19-4.34-.05,0-.1-.01-.14-.02-.48,1.77-.95,3.54-1.43,5.31-.48,1.79-.97,3.58-1.46,5.39-.95,0-1.87-.02-2.78,0-.44.01-.42-.33-.48-.58-.78-2.95-1.54-5.91-2.31-8.87-.11-.44-.24-.88-.46-1.32-.07,1.11-.15,2.21-.22,3.32-.13,2.26-.27,4.53-.37,6.79-.02.5-.17.69-.67.65-.55-.04-1.1,0-1.77,0,.29-4.43.58-8.8.87-13.25h0Z"/><path class="cls-1" d="M22.97,15.38c-.46,0-.92-.03-1.37,0-.58.05-.81-.22-.89-.78-.29-1.9-1.31-3.28-3-4.12-3.31-1.63-7.13.35-7.81,4.03q-.16.86-1.04.86c-.91,0-1.83,0-2.74,0-.6,0-.75-.18-.7-.77.42-4.48,3.68-8.12,8.03-8.95,5.21-1,10.26,2.33,11.49,7.58.11.47.16.95.22,1.43.06.49-.14.73-.64.71-.51-.02-1.03,0-1.54,0h0Z"/><path class="cls-1" d="M57.12,9.13c.24-1.32-.2-1.98-1.39-1.99-1.36,0-2.73.11-4.13.18v-1.91c2.1-.34,4.21-.63,6.32-.05,1.38.38,2.09,1.32,2.13,2.87.06,2.19.03,4.38,0,6.57,0,.15-.23.41-.38.42-2.05.21-4.1.39-6.15.04-1.97-.34-2.9-1.72-2.57-3.73.13-.81.55-1.47,1.28-1.73.9-.32,1.86-.52,2.81-.66.67-.1,1.37-.02,2.07-.02h0ZM57.22,13.45c0-.77.02-1.42-.02-2.07,0-.13-.23-.36-.36-.37-.68-.01-1.36,0-2.04.07-.65.07-.94.47-.96,1.15-.02.67.26,1.14.89,1.2.8.08,1.61.02,2.49.02h0Z"/><path class="cls-1" d="M82.97,15.44c-2.16-.07-3.93-.77-4.83-2.9-1.01-2.39-.29-5.29,1.59-6.59,1.77-1.22,4.74-1.22,6.5,0,1.64,1.14,2.39,3.47,1.83,5.72-.5,2.01-2.18,3.5-4.22,3.71-.3.03-.61.04-.88.06h0ZM80.58,10.24c.1.62.14,1.24.31,1.83.28.96.94,1.36,2.06,1.36,1.13,0,1.79-.4,2.08-1.34.37-1.21.37-2.44,0-3.65-.28-.93-.93-1.33-2.03-1.33-1.14,0-1.81.38-2.1,1.31-.18.58-.22,1.21-.33,1.82h0Z"/><path class="cls-1" d="M15.2,19.96c-2.47-.05-4.45-2.11-4.39-4.56.06-2.55,2.07-4.49,4.62-4.43,2.46.05,4.4,2.14,4.33,4.67-.06,2.42-2.12,4.37-4.56,4.32h0Z"/><path class="cls-1" d="M69.81,7.18c-.98,0-1.87-.05-2.76.01-2.11.16-2.92,1.3-2.68,3.65.15,1.43.93,2.19,2.34,2.35.77.08,1.55.04,2.33.04.26,0,.52-.03.86-.05,0,.59.02,1.13-.01,1.67,0,.11-.19.28-.32.31-1.62.34-3.25.45-4.85-.07-2.26-.74-3.52-2.8-3.33-5.41.17-2.3,1.75-4.07,4.03-4.49,1.35-.25,2.69-.17,4.03.11.14.03.33.21.34.33.04.52.02,1.04.02,1.56h0Z"/><path class="cls-1" d="M73.88,5.25c.02.29.04.48.06.78,1.18-.62,2.38-.98,3.72-.82v2.38c-.34,0-.69-.02-1.04,0-.44.03-.87.05-1.3.13-1.05.2-1.12.3-1.12,1.4v6.12h-2.81c-.01-.19-.04-.37-.04-.56,0-2.95,0-5.89-.01-8.84,0-.45.11-.62.57-.6.64.04,1.29,0,1.98,0h0Z"/></g></svg>