<?xml version="1.0" encoding="UTF-8"?><svg id="Capa_2" xmlns="http://www.w3.org/2000/svg" viewBox="0 0 88.87 29.99"><defs><style>.cls-1{fill:#2c2a27;stroke-width:0px;}</style></defs><g id="Home"><path class="cls-1" d="M35.26,7.58c-.08.42-.14.85-.16,1.29,0,.09,0,.19-.01.28,0,.09,0,.17,0,.26,0,.09,0,.19,0,.28,0,.03,0,.06,0,.09,0,.06,0,.12,0,.19,0,.04,0,.07,0,.11,0,.06,0,.11.01.17,0,.04,0,.08.01.12,0,.05.01.11.02.16,0,.04.01.08.02.12,0,.05.01.1.02.16,0,.04.01.08.02.12,0,.05.02.1.03.15,0,.04.02.08.02.12,0,.05.02.1.03.15,0,.04.02.08.03.12,0,.02.01.05.02.07.02,0,.03,0,.05-.01.03,0,.06-.02.09-.03.05-.01.09-.03.14-.04.03,0,.06-.02.09-.03.05-.01.09-.03.14-.04.03,0,.05-.02.08-.03.06-.02.11-.04.17-.06.02,0,.04-.01.06-.02.07-.03.15-.05.22-.08.02,0,.04-.01.06-.02.05-.02.11-.04.16-.07.03-.01.05-.02.08-.03.05-.02.09-.04.14-.06.03-.01.06-.03.09-.04.02,0,.04-.02.07-.03,0-.01,0-.03,0-.04,0-.03-.01-.06-.02-.09,0-.04-.01-.08-.02-.11,0-.03-.01-.06-.02-.09,0-.04-.01-.08-.02-.12,0-.03,0-.06-.01-.09,0-.04-.01-.08-.02-.12,0-.03,0-.06,0-.09,0-.04,0-.08-.01-.12,0-.03,0-.06,0-.08,0-.04,0-.08,0-.13,0-.03,0-.05,0-.08,0-.05,0-.09,0-.14,0-.02,0-.04,0-.07,0-.07,0-.14,0-.21,0-.45.04-.9.12-1.34h0s.02-.12.02-.12l.04-.19h0c.12-.56.31-1.1.55-1.62h0s.07-.15.07-.15l.06-.13h0c.89-1.71,2.38-3.01,4.16-3.66.22-.08.44-.15.67-.21.15-.04.3-.08.46-.11.15-.03.31-.06.47-.08l.19-.03v.19c-.02.07-.03.14-.03.21,0,.02,0,.05,0,.07,0,.05,0,.09-.01.14,0,.03,0,.06-.01.09,0,.04,0,.08-.01.12,0,.03,0,.06-.01.09,0,.04-.01.08-.02.12,0,.03-.01.06-.01.09,0,.04-.01.08-.02.11,0,.03-.01.06-.02.1,0,.04-.01.07-.02.11,0,.03-.01.06-.02.1,0,.04-.01.07-.02.11,0,.03-.01.06-.02.1,0,.04-.02.07-.02.11,0,.03-.01.06-.02.1,0,.04-.02.07-.03.11,0,.03-.02.06-.02.1,0,.04-.02.07-.03.11,0,.03-.02.06-.03.1,0,.03-.02.07-.03.1,0,.03-.02.06-.03.1-.01.03-.02.07-.03.1,0,.03-.02.06-.03.09-.01.03-.02.07-.03.1-.01.03-.02.06-.03.09-.01.03-.02.07-.04.1-.01.03-.02.06-.03.09-.01.03-.02.07-.04.1-.01.03-.02.06-.04.09-.01.03-.03.07-.04.1-.01.03-.02.06-.04.09-.01.03-.03.07-.04.1-.01.03-.03.06-.04.09-.01.03-.03.07-.04.1-.01.03-.03.06-.04.09-.01.03-.03.07-.04.1-.01.03-.03.06-.04.09-.02.03-.03.07-.05.1-.01.03-.03.06-.04.09-.02.03-.03.06-.05.1-.01.03-.03.06-.05.09-.02.03-.03.06-.05.1l-.05.09s-.04.06-.05.1c-.02.03-.03.06-.05.09-.02.03-.04.06-.05.09-.02.03-.03.06-.05.09-.02.03-.04.06-.06.09-.02.03-.03.06-.05.08-.02.03-.04.06-.06.09-.02.03-.04.06-.05.08-.02.03-.04.06-.06.09-.02.03-.04.06-.05.08-.02.03-.04.06-.06.09-.02.03-.04.05-.06.08-.02.03-.04.06-.06.09-.02.03-.04.05-.06.08-.02.03-.04.06-.07.09-.02.03-.04.05-.06.08-.02.03-.04.06-.07.09-.02.03-.04.05-.06.08,0,0-.01.02-.02.03.02.01.03.03.05.04.02.02.04.04.07.06.04.03.08.07.12.1.02.02.04.04.06.06.04.04.09.08.13.12.02.01.03.03.05.04.06.05.12.11.17.16.01,0,.02.02.03.03.05.05.09.09.14.14.02.02.04.04.06.06.04.04.07.07.11.11.02.02.04.04.06.06.04.04.07.07.11.11.02.02.04.04.06.06,0,.01.02.02.03.03,0,0,.01-.02.02-.03.02-.03.04-.05.07-.08.03-.03.05-.07.08-.1.02-.03.04-.06.06-.08.03-.03.05-.07.08-.1.02-.03.04-.06.06-.09.03-.03.05-.07.08-.1.02-.03.04-.06.06-.09.02-.04.05-.07.07-.11.02-.03.04-.06.06-.09.02-.04.05-.07.07-.11.02-.03.04-.06.06-.09.02-.04.05-.07.07-.11.02-.03.04-.06.06-.09.02-.04.05-.07.07-.11.02-.03.04-.06.06-.09.02-.04.04-.07.07-.11.02-.03.04-.06.05-.09.02-.04.04-.07.06-.11.02-.03.04-.06.05-.09.02-.04.04-.08.06-.11.02-.03.03-.06.05-.09.02-.04.04-.08.06-.12.02-.03.03-.06.05-.09.02-.04.04-.08.06-.12.01-.03.03-.06.04-.09.02-.04.04-.09.06-.13.01-.03.03-.06.04-.08.02-.05.04-.1.06-.14.01-.02.02-.05.03-.07.03-.07.06-.14.09-.22l.14-.34.14.34c.5,1.18,1.17,2.27,1.99,3.25h0c.1.11.19.23.29.34.04.04.08.09.12.13.14.15.28.3.43.44.06.06.12.12.18.17.12.11.24.23.37.34.02.02.04.03.06.05.04.03.08.07.12.1.03.02.05.04.08.06.03.03.07.06.1.08.03.02.06.04.08.07.03.03.07.05.1.08.03.02.06.04.09.07.03.03.07.05.1.08.03.02.06.04.09.07.03.02.07.05.1.07.03.02.06.04.09.07.03.02.07.05.1.07.03.02.06.04.09.06.03.02.07.05.1.07.03.02.06.04.09.06.03.02.07.04.1.07.03.02.06.04.1.06.03.02.07.04.1.06.03.02.06.04.1.06.03.02.07.04.1.06.03.02.07.04.1.06.03.02.07.04.1.06.03.02.07.04.1.06.03.02.07.04.1.06.03.02.07.04.1.05.04.02.07.04.11.06.03.02.07.04.1.05.04.02.07.04.11.05.03.02.07.03.1.05.04.02.07.04.11.05.03.02.07.03.1.05.01,0,.03.01.04.02,0-.02.02-.03.03-.05.01-.03.03-.06.04-.09.02-.04.04-.09.06-.13.01-.03.03-.06.04-.08.02-.05.04-.09.06-.14.01-.03.02-.05.03-.08.02-.06.04-.11.07-.17,0-.02.01-.03.02-.05.03-.07.05-.15.08-.22,0-.02.01-.04.02-.06.02-.05.03-.11.05-.16,0-.03.02-.06.02-.08.01-.05.03-.09.04-.14,0-.03.01-.06.02-.09,0-.02.01-.05.02-.07,0,0-.01,0-.02,0-.09-.05-.19-.09-.28-.14-.01,0-.03-.01-.04-.02-.09-.05-.18-.1-.27-.15-.01,0-.03-.02-.04-.02-.09-.05-.18-.1-.27-.16-.01,0-.03-.02-.04-.03-.09-.05-.18-.11-.27-.17-.01,0-.03-.02-.04-.02-.09-.06-.18-.12-.26-.18-.01,0-.02-.01-.03-.02-.09-.06-.18-.13-.26-.19,0,0-.02-.01-.02-.02-.09-.07-.18-.13-.27-.2,0,0,0,0-.01-.01-.06-.05-.11-.09-.17-.14h0s-.1-.08-.1-.08t0,0l-.14-.12h0c-.42-.37-.82-.78-1.18-1.21h0s-.1-.12-.1-.12t0,0l-.09-.12h0c-.87-1.11-1.52-2.35-1.92-3.68-.01-.04-.02-.08-.03-.12-.03-.11-.07-.23-.09-.35-.03-.13-.07-.27-.1-.41-.01-.07-.03-.14-.04-.21-.03-.14-.05-.27-.07-.41-.04-.28-.08-.56-.1-.84l-.02-.19.19.03c.08.01.15.02.23.04.02,0,.05,0,.07.01.05,0,.1.02.15.03.03,0,.06.01.09.02.05,0,.09.02.14.03.03,0,.06.02.09.02.04.01.09.02.13.03.03,0,.06.02.1.03.04.01.08.02.12.04.03,0,.07.02.1.03.04.01.08.02.12.04.03.01.07.02.1.03.04.01.08.03.12.04.03.01.07.03.1.04.04.01.08.03.11.04.03.01.07.03.1.04.04.01.07.03.11.05.03.01.07.03.1.04.04.02.07.03.11.05.03.02.07.03.1.05.04.02.07.03.1.05s.07.03.1.05c.03.02.07.04.1.05.03.02.07.04.1.05.03.02.07.04.1.06.03.02.06.04.1.06.03.02.07.04.1.06.03.02.06.04.1.06.03.02.06.04.1.06.03.02.06.04.09.06.03.02.06.04.09.06.03.02.06.04.09.07.03.02.06.04.09.07.03.02.06.05.09.07.03.02.06.05.09.07.03.02.06.05.09.07.03.02.06.05.09.07.03.02.06.05.09.07.03.02.06.05.08.07.03.03.06.05.08.08.03.03.05.05.08.08.03.03.05.05.08.08.03.03.05.05.08.08.03.03.05.05.08.08.03.03.05.05.08.08.03.03.05.06.08.08.03.03.05.06.08.08s.05.06.07.09.05.06.07.09c.02.03.05.06.07.09.02.03.05.06.07.09.02.03.05.06.07.09.02.03.05.06.07.09.02.03.04.06.07.09.02.03.04.06.07.1.02.03.04.06.06.09.02.03.04.07.06.1.02.03.04.06.06.09.02.03.04.07.06.1.02.03.04.06.06.1.02.03.04.07.06.1.02.03.04.06.05.1,0,.01.02.03.02.04.02,0,.04-.02.06-.03.03-.01.06-.02.09-.04.05-.02.1-.04.14-.06.03-.01.05-.02.08-.03.06-.02.11-.04.17-.06.02,0,.04-.01.05-.02.07-.03.15-.05.23-.08.02,0,.04-.01.06-.02.06-.02.11-.04.17-.06.03,0,.06-.02.08-.03.05-.02.1-.03.15-.05.03,0,.06-.02.09-.03.05-.01.1-.03.15-.04.03,0,.06-.02.08-.02.01,0,.02,0,.04,0-1.41-2.83-4.21-4.8-7.35-5.15h-.04s-.05-.01-.07-.01c-.62-.06-1.25-.06-1.88,0-.04,0-.08,0-.12.01-3.24.36-6.11,2.44-7.47,5.41-.24.53-.44,1.08-.58,1.65-.02.08-.04.16-.06.24h0c-.02.07-.03.15-.04.22h0Z"/><path class="cls-1" d="M53.84,9.36c0,.19,0,.39-.02.58-.03.58-.12,1.15-.26,1.71h0c-.02.08-.04.16-.06.24-.05.18-.11.36-.17.54-.13.37-.28.74-.45,1.09-1.39,2.83-4.08,4.75-7.19,5.16-.09.01-.19.02-.28.03-.56.06-1.14.06-1.73.01-.08,0-.17-.02-.25-.02-3.12-.34-5.83-2.2-7.29-4.98.01,0,.03,0,.04-.01.03,0,.06-.02.09-.03.05-.01.1-.03.15-.05.03,0,.06-.02.09-.03.05-.02.1-.03.15-.05.03,0,.06-.02.08-.03.05-.02.11-.04.16-.06.02,0,.04-.01.06-.02.07-.03.15-.05.22-.08.02,0,.04-.02.06-.02.05-.02.11-.04.16-.06.03-.01.05-.02.08-.03.05-.02.09-.04.14-.06.03-.01.05-.02.08-.04.02,0,.04-.02.06-.03,0,.01.02.03.02.04.02.03.04.06.05.09.02.03.04.07.06.1.02.03.04.06.06.09.02.03.04.07.06.1.02.03.04.06.06.09.02.03.04.06.06.09.02.03.04.06.06.09.02.03.04.06.07.09.02.03.04.06.07.09.02.03.04.06.07.09.02.03.05.06.07.09.02.03.05.06.07.09.02.03.05.06.07.09.02.03.05.06.07.08.03.03.05.06.08.08.02.03.05.05.07.08.03.03.05.06.08.08.03.03.05.05.08.08.03.03.05.05.08.08.03.02.05.05.08.07.03.03.06.05.08.08.03.02.05.05.08.07.03.03.06.05.09.08.03.02.05.05.08.07.03.03.06.05.09.07.03.02.05.04.08.07.03.02.06.05.09.07.03.02.06.04.08.06.03.02.06.05.09.07.03.02.06.04.08.06.03.02.06.04.1.07.03.02.06.04.09.06.03.02.06.04.1.07.03.02.06.04.09.06.03.02.07.04.1.06.03.02.06.04.09.05.03.02.07.04.1.06.03.02.06.03.09.05.03.02.07.04.1.06.03.02.06.03.09.05.03.02.07.04.1.05.03.02.06.03.1.05.03.02.07.03.1.05.03.01.07.03.1.04.04.02.07.03.1.05.03.01.07.03.1.04.04.01.07.03.1.04.03.01.07.03.1.04.04.01.07.03.1.04.04.01.07.02.11.04.03.01.07.02.1.04.04.01.07.02.11.03.03.01.07.02.1.03.04.01.08.02.11.03.03,0,.07.02.1.03.04.01.08.02.12.03.03,0,.06.02.1.02.04,0,.08.02.13.03.03,0,.06.01.09.02.05,0,.1.02.14.03.03,0,.05,0,.08.01.07.01.15.02.22.03.08.01.16.02.24.03l.19.02-.02-.19c-.03-.31-.08-.63-.14-.93-.35-1.84-1.18-3.57-2.4-5.02h0s-.1-.12-.1-.12l-.1-.12h0s-.04-.05-.07-.07c-.11-.13-.23-.25-.35-.37-.26-.26-.53-.51-.81-.74h0s-.15-.12-.15-.12t0,0l-.1-.08h0c-.06-.04-.11-.09-.17-.13,0,0-.01,0-.02-.01-.09-.07-.18-.13-.27-.19,0,0-.02-.01-.03-.02-.09-.06-.18-.12-.27-.18-.01,0-.02-.01-.03-.02-.09-.06-.18-.11-.27-.17-.01,0-.02-.01-.04-.02-.09-.05-.18-.11-.27-.16-.01,0-.03-.01-.04-.02-.09-.05-.18-.1-.28-.15-.01,0-.03-.01-.04-.02-.09-.05-.19-.1-.28-.14-.01,0-.03-.01-.04-.02-.09-.05-.19-.09-.29-.13,0,0,0,0-.01,0,0-.02,0-.05.01-.07,0-.03.01-.06.02-.09.01-.05.02-.09.03-.14,0-.03.01-.06.02-.09.01-.05.03-.11.05-.16,0-.02.01-.04.02-.07.02-.07.05-.15.07-.22,0-.02.01-.03.02-.05.02-.06.04-.12.06-.18,0-.03.02-.05.03-.08.02-.05.04-.09.06-.14.01-.03.02-.06.04-.08.02-.04.04-.09.06-.13.01-.03.03-.06.04-.08,0-.02.02-.04.03-.05.01,0,.03.01.04.02.03.01.07.03.1.04.04.02.08.03.11.05.03.02.07.03.1.05.04.02.07.04.11.05.03.02.07.03.1.05.04.02.07.04.11.05.03.02.07.03.1.05.04.02.07.04.11.06.03.02.07.03.1.05.04.02.07.04.11.06.03.02.07.04.1.05.04.02.07.04.11.06l.1.06s.07.04.11.06c.03.02.06.04.09.06.04.02.07.04.11.07.03.02.06.04.09.06.04.02.07.05.11.07.03.02.06.04.09.06.04.02.07.05.11.07.03.02.06.04.09.06.04.03.07.05.11.08.03.02.05.04.08.06.04.03.07.05.11.08.03.02.05.04.08.06.04.03.08.06.12.09.02.02.04.03.07.05.05.04.09.07.14.11.01.01.03.02.04.03.06.05.12.1.18.15h0c.13.11.25.21.38.32.19.17.37.34.55.52.18.18.35.36.51.54h0c.82.92,1.5,1.94,2.02,3.05l.14.3.14-.3c.03-.07.06-.14.09-.2.01-.02.02-.04.03-.07.02-.04.04-.09.07-.13.01-.03.03-.05.04-.08.02-.04.04-.08.06-.12.01-.03.03-.06.04-.08.02-.04.04-.08.06-.11.02-.03.03-.06.05-.09.02-.04.04-.07.06-.11.02-.03.03-.06.05-.09.02-.04.04-.07.06-.11.02-.03.04-.06.05-.09.02-.03.04-.07.06-.1.02-.03.04-.06.06-.09.02-.03.04-.07.06-.1.02-.03.04-.06.06-.09.02-.03.04-.07.06-.1.02-.03.04-.06.06-.09.02-.03.04-.06.07-.1.02-.03.04-.06.06-.09.02-.03.04-.06.07-.09.02-.03.04-.06.06-.09.02-.03.04-.06.07-.09.02-.03.04-.06.06-.09.02-.03.05-.06.07-.09.02-.03.04-.06.07-.08.02-.03.05-.06.07-.09.02-.03.04-.05.07-.08.03-.03.05-.06.08-.09.02-.03.04-.05.06-.08,0,0,.01-.01.02-.02,0,0,.02.02.03.03.02.02.04.04.06.07.03.04.07.08.1.11.02.02.04.04.06.07.03.04.07.08.11.11.02.02.04.04.06.06.04.04.08.09.13.13.01.01.02.03.04.04.05.06.11.11.17.17.01.01.03.03.04.04.04.04.08.08.12.12.02.02.04.04.06.06.04.04.07.07.11.1.02.02.04.04.07.06.02.01.03.03.05.04,0,0,0,0,0,0-.07.08-.13.16-.19.25,0,0-.01.02-.02.03-.06.08-.12.17-.18.25,0,.01-.01.02-.02.03-.06.08-.12.17-.17.25,0,.01-.02.02-.02.03-.06.08-.11.17-.16.25,0,.01-.02.02-.02.04-.05.09-.1.17-.15.26,0,.01-.01.03-.02.04-.05.09-.1.17-.15.26,0,.01-.01.03-.02.04-.05.09-.09.18-.14.27,0,.01-.01.03-.02.04-.04.09-.09.18-.13.27,0,.01-.01.03-.02.04-.04.09-.08.18-.12.28,0,.01-.01.03-.02.04-.04.09-.08.19-.11.28,0,.01,0,.02-.01.04-.04.1-.07.19-.11.29,0,.01,0,.02-.01.04-.03.1-.07.19-.1.29,0,.01,0,.02,0,.03-.03.1-.06.2-.09.3,0,0,0,.02,0,.03-.03.1-.06.21-.08.31,0,0,0,.01,0,.02-.03.11-.05.21-.07.32,0,0,0,0,0,.01-.02.11-.05.22-.07.33-.06.33-.11.68-.14,1.03l-.02.19.19-.02c.09-.01.18-.03.27-.04.59-.1,1.16-.26,1.7-.49.2-.08.4-.18.6-.28,1.32-.69,2.44-1.76,3.17-3.09h0s.07-.13.07-.13c0,0,0,0,0,0l.08-.14h0c.05-.11.1-.21.15-.32.18-.41.33-.84.44-1.29h0s.04-.19.04-.19h0s.03-.12.03-.12h0c.1-.51.16-1.03.15-1.55,0-.06,0-.13,0-.19,0-.02,0-.04,0-.06,0-.04,0-.08,0-.12,0-.03,0-.05,0-.07,0-.04,0-.08,0-.11,0-.03,0-.05,0-.08,0-.04,0-.07,0-.11v-.08s-.02-.07-.02-.1c0-.03,0-.05-.01-.08,0-.03,0-.07-.02-.1,0-.03,0-.05-.01-.08,0-.04-.01-.07-.02-.1,0-.03,0-.05-.01-.08,0-.01,0-.02,0-.04.02,0,.05-.02.07-.03.03-.01.06-.02.08-.04.05-.02.09-.04.14-.06.03-.01.05-.02.08-.03.06-.02.11-.04.17-.06.02,0,.04-.01.05-.02.07-.03.15-.05.22-.08.02,0,.03-.01.05-.02.06-.02.12-.04.17-.06.03,0,.05-.02.08-.02.05-.02.1-.03.15-.04.03,0,.06-.02.09-.02.05-.01.1-.03.14-.04.03,0,.06-.02.09-.02.02,0,.04,0,.05-.01,0,.02,0,.04.01.06,0,.04.01.07.02.11,0,.05.02.1.03.14,0,.04.01.07.02.11,0,.05.02.1.02.14,0,.04.01.07.02.11,0,.05.01.1.02.15,0,.04,0,.07.01.11,0,.05.01.1.02.15,0,.04,0,.07.01.11,0,.05,0,.11.01.16,0,.03,0,.07,0,.1,0,.06,0,.12,0,.17,0,.03,0,.06,0,.09,0,.09,0,.17,0,.26h0Z"/><path class="cls-1" d="M37.77,12.8c-.6.27-1.24.5-1.89.68h0c-1.1.3-2.23.45-3.37.46-3.04,0-5.99-1.07-8.31-3.03-.48-.4-.93-.85-1.34-1.31.41-.47.86-.91,1.33-1.31,2.34-2,5.33-3.1,8.42-3.11,1,0,2,.11,2.97.33,0,.01-.01.03-.02.04-.01.03-.02.05-.03.08-.02.05-.04.1-.06.15-.01.03-.02.05-.03.08-.02.05-.04.1-.06.15,0,.03-.02.05-.03.08-.02.06-.04.12-.06.18,0,.02-.01.03-.02.05-.03.08-.05.15-.07.23,0,.02-.01.04-.02.06-.02.06-.03.11-.05.17,0,.03-.01.05-.02.08-.01.05-.03.1-.04.15,0,.03-.01.06-.02.09,0,.02,0,.04-.01.06-.03,0-.06-.01-.09-.02-.05,0-.09-.02-.14-.03-.06-.01-.11-.02-.17-.03-.05,0-.09-.02-.14-.02-.06,0-.11-.02-.17-.03-.05,0-.09-.01-.14-.02-.06,0-.12-.02-.18-.02-.05,0-.09-.01-.14-.02-.06,0-.12-.01-.18-.02-.04,0-.09,0-.13-.01-.06,0-.13,0-.19-.01-.04,0-.08,0-.13,0-.07,0-.14,0-.21,0-.03,0-.07,0-.1,0-.11,0-.21,0-.32,0-2.62,0-5.17.93-7.18,2.59l-.14.12.14.12c1.99,1.63,4.5,2.52,7.07,2.52.23,0,.47,0,.7-.02.64-.04,1.28-.14,1.9-.29h0s.15-.04.15-.04c0,0,0,0,0,0l.15-.04h0s.07-.02.1-.03c.15-.04.31-.09.46-.14.01,0,.02,0,.03,0,.35-.12.69-.25,1.02-.4h0s.17-.08.17-.08c0,0,0,0,0,0l.11-.05h0c.07-.03.13-.07.2-.1,0,0,.01,0,.02,0,.1-.05.19-.1.29-.15,0,0,.02,0,.03-.02.09-.05.19-.1.28-.16.01,0,.02-.01.03-.02.09-.05.18-.11.27-.16.01,0,.03-.02.04-.02.09-.06.17-.11.26-.17.01,0,.03-.02.04-.03.08-.06.17-.12.25-.18.01,0,.03-.02.04-.03.08-.06.16-.12.25-.19.01,0,.03-.02.04-.03.08-.06.16-.13.24-.19,0,0,0,0,.01-.01l.06.05s.05.04.07.06c.04.03.08.07.12.1.02.02.04.04.06.05.04.04.09.08.13.12.02.01.03.03.05.04.06.05.11.11.17.16.01.01.03.03.04.04.04.04.09.08.13.12.02.02.04.04.06.06.04.04.07.07.1.11l.06.07s.06.07.1.11c.02.02.04.05.06.07.01.01.02.03.03.04-.01,0-.02.02-.03.03-.03.02-.06.05-.08.07-.03.03-.06.05-.1.08-.03.02-.06.05-.08.07-.03.03-.06.05-.1.08-.03.02-.06.05-.09.07-.03.03-.06.05-.1.08-.03.02-.06.04-.09.07-.03.02-.07.05-.1.07-.03.02-.06.04-.09.06-.03.02-.07.05-.1.07-.03.02-.06.04-.09.06-.03.02-.07.05-.1.07-.03.02-.06.04-.09.06-.03.02-.07.04-.1.07-.03.02-.06.04-.09.06-.03.02-.07.04-.1.07-.03.02-.06.04-.09.06-.04.02-.07.04-.11.06-.03.02-.06.04-.09.06-.04.02-.07.04-.11.06-.03.02-.06.04-.09.05-.04.02-.07.04-.11.06-.03.02-.06.03-.09.05-.04.02-.08.04-.11.06-.03.02-.06.03-.09.05-.04.02-.08.04-.12.06-.03.01-.06.03-.08.04-.05.02-.09.04-.14.07-.02.01-.05.02-.07.03-.07.03-.14.07-.21.1h0Z"/><path class="cls-1" d="M51.01,6.2s-.05.02-.07.03c-.05.02-.09.04-.14.07-.03.01-.05.03-.08.04-.04.02-.08.04-.13.06-.03.01-.06.03-.09.04-.04.02-.08.04-.12.06-.03.02-.06.03-.09.05-.04.02-.08.04-.11.06-.03.02-.06.03-.09.05-.04.02-.07.04-.11.06-.03.02-.06.04-.09.05-.04.02-.07.04-.11.06-.03.02-.06.04-.09.06-.04.02-.07.04-.11.06-.03.02-.06.04-.09.06-.03.02-.07.04-.1.07-.03.02-.06.04-.09.06-.03.02-.07.04-.1.07-.03.02-.06.04-.09.06-.03.02-.07.05-.1.07-.03.02-.06.04-.09.06-.03.02-.07.05-.1.07-.03.02-.06.04-.09.07-.03.02-.06.05-.1.07-.03.02-.06.04-.09.07-.03.02-.06.05-.1.07-.03.02-.06.05-.09.07-.03.03-.06.05-.1.08-.03.02-.06.05-.08.07-.01,0-.02.02-.03.03l.03.04s.04.05.06.07c.03.04.06.07.09.11.02.02.04.05.06.07.03.04.07.07.1.11.02.02.04.04.06.06.04.05.09.09.13.14,0,0,.02.02.03.03.05.06.11.11.16.16.01.01.03.03.04.04.04.04.08.08.12.12.02.02.04.04.06.05.04.03.07.07.11.1.02.02.04.04.06.06.02.02.04.03.05.05,0,0,0,0,.01-.01.08-.07.16-.13.25-.19.01,0,.03-.02.04-.03.08-.06.17-.12.25-.18.01,0,.03-.02.04-.03.08-.06.17-.12.26-.17.01,0,.03-.02.04-.03.09-.06.17-.11.26-.17.01,0,.03-.02.04-.02.09-.05.18-.11.27-.16.01,0,.02-.01.04-.02.09-.05.19-.1.28-.15,0,0,.02-.01.03-.02.1-.05.2-.1.29-.15,0,0,.01,0,.02,0,.07-.03.13-.06.2-.09h0s.11-.05.11-.05c0,0,0,0,0,0l.17-.08h0c.15-.06.3-.12.45-.18.1-.04.2-.07.31-.11,0,0,.02,0,.02,0,.16-.05.33-.11.49-.15.12-.03.23-.06.35-.09h0s.15-.04.15-.04l.15-.04h0c.78-.17,1.57-.26,2.37-.26,2.66,0,5.23.95,7.24,2.69l.14.12-.14.12c-1.97,1.61-4.46,2.5-7.01,2.5-.11,0-.21,0-.32,0,0,0-.01,0-.02,0-.1,0-.2,0-.3-.01-.01,0-.02,0-.04,0-.1,0-.2-.01-.3-.02h-.04c-.1-.01-.19-.02-.29-.03-.02,0-.03,0-.05,0-.1-.01-.19-.02-.29-.04-.02,0-.03,0-.05,0-.1-.01-.19-.03-.29-.05-.01,0-.03,0-.04,0-.1-.02-.19-.04-.29-.06-.01,0-.02,0-.04,0-.1-.02-.19-.04-.29-.07,0,0,0,0,0,0,0,.02-.01.04-.02.06,0,.03-.02.06-.03.09-.01.05-.03.1-.04.14,0,.03-.02.06-.03.09-.02.05-.03.11-.05.16,0,.02-.01.05-.02.07-.02.07-.05.15-.08.22,0,.02-.01.04-.02.06-.02.06-.04.11-.06.17-.01.03-.02.05-.03.08-.02.05-.04.1-.06.14-.01.03-.02.06-.04.08-.02.05-.04.09-.06.14-.01.03-.02.05-.04.08,0,.01-.01.02-.02.04,1.05.27,2.13.41,3.23.4,3,0,5.91-1.07,8.21-2.99.47-.4.92-.83,1.33-1.29-.4-.47-.84-.92-1.3-1.34-2.34-2.08-5.35-3.22-8.47-3.21-1.05,0-2.09.13-3.11.39h0c-.44.11-.87.25-1.3.41-.12.05-.25.09-.37.14-.08.03-.16.06-.23.1,0,0,0,0-.01,0-.07.03-.13.06-.2.09h0Z"/><path class="cls-1" d="M9.48,23.2c-.13,0-.24.02-.34.06-.1.04-.18.1-.25.18-.07.08-.14.17-.2.28-.06.11-.11.24-.15.37l-2.01,5.89h-.21l-1.54-4.35-1.54,4.35h-.19l-2-5.66c-.05-.15-.1-.29-.15-.43-.04-.14-.1-.26-.17-.36-.07-.1-.16-.19-.27-.25-.11-.06-.26-.09-.45-.09v-.18h2.51v.18c-.07,0-.14,0-.22.01-.08,0-.15.03-.21.05-.06.03-.12.07-.16.12-.04.05-.06.13-.06.22,0,.05,0,.12.02.19.02.07.04.14.06.22.02.08.05.15.07.22.02.07.05.13.06.18l1.33,3.83,1.13-3.25c-.06-.21-.12-.43-.2-.64-.07-.21-.16-.4-.26-.57-.1-.17-.22-.31-.36-.41-.14-.11-.3-.16-.49-.16v-.18h2.66v.18c-.08,0-.17,0-.26,0-.09,0-.16.02-.23.05-.07.03-.12.07-.17.13-.04.06-.06.15-.06.26,0,.14.02.29.07.46.05.17.1.31.14.43l1.31,3.71,1.3-3.76c.02-.05.04-.12.06-.19.02-.07.05-.14.07-.22.02-.08.04-.15.05-.22.01-.07.02-.14.02-.19,0-.1-.02-.18-.07-.24-.05-.06-.11-.11-.18-.14-.07-.03-.15-.06-.24-.07-.08-.01-.17-.02-.25-.02v-.18h2.02v.18Z"/><path class="cls-1" d="M18.02,29.83h-5.23v-.19c.21,0,.38-.01.51-.04.13-.03.22-.08.29-.15.07-.07.11-.18.13-.31.02-.13.03-.3.03-.51v-4.43c0-.21,0-.38-.03-.51-.02-.13-.06-.23-.13-.3-.07-.07-.16-.12-.29-.14-.13-.02-.3-.04-.52-.04v-.18h5.23l.08,1.48h-.19c-.06-.22-.11-.4-.16-.54-.05-.14-.12-.26-.21-.34-.09-.08-.2-.14-.35-.18-.15-.04-.35-.05-.6-.05h-1.88v2.69h1.5c.21,0,.38-.01.5-.04.13-.03.23-.08.31-.15.08-.07.14-.17.17-.3.04-.13.07-.29.1-.49h.19v2.38h-.19c-.03-.2-.06-.36-.1-.49-.04-.13-.09-.23-.17-.31-.08-.08-.18-.13-.3-.16-.13-.03-.3-.05-.51-.05h-1.5v2.24c0,.13,0,.25.01.34,0,.1.03.17.07.24.04.06.09.11.17.14s.18.05.33.05h1.14c.3,0,.54-.02.73-.07.19-.05.36-.13.5-.23.14-.11.26-.25.38-.42.11-.17.24-.38.37-.62h.21l-.6,1.7Z"/><path class="cls-1" d="M29.12,23.2c-.21,0-.38.01-.51.04-.13.03-.23.08-.3.15-.07.07-.11.17-.13.3-.02.13-.03.3-.03.5v5.74h-.17l-4.5-5.48v4.19c0,.21,0,.38.03.51.02.13.06.23.13.3.07.07.16.12.29.14.13.02.3.04.51.04v.19h-2.37v-.19c.21,0,.38-.01.51-.04.13-.03.22-.08.29-.15.07-.07.11-.17.13-.3.02-.13.03-.3.03-.5v-4.73c-.08-.12-.16-.22-.24-.3-.07-.09-.15-.16-.23-.22-.08-.06-.18-.11-.29-.14-.11-.03-.24-.05-.39-.05v-.18h1.66l4.16,5.1v-3.93c0-.2-.01-.37-.03-.5-.02-.13-.07-.23-.14-.3-.07-.07-.17-.12-.29-.15-.13-.03-.3-.04-.51-.04v-.18h2.38v.18Z"/><path class="cls-1" d="M44.13,29.83h-5.28v-.19c.16,0,.3,0,.43-.03.12-.02.23-.06.31-.12.08-.06.15-.14.19-.26.04-.11.07-.26.07-.44v-4.73c0-.18-.02-.32-.07-.43-.04-.11-.11-.2-.19-.26-.08-.06-.19-.1-.31-.12-.12-.02-.27-.03-.43-.03v-.19h2.96v.19c-.16,0-.31.01-.43.03-.12.02-.23.06-.31.12-.08.06-.15.14-.19.26-.04.11-.07.25-.07.43v4.48c0,.17.01.31.04.42.03.11.07.2.14.26.06.06.15.11.26.13.11.02.25.04.42.04h.68c.33,0,.6-.02.83-.06.22-.04.41-.11.58-.21.16-.1.3-.25.43-.44.12-.19.25-.43.38-.74l.17.03-.59,1.86Z"/><path class="cls-1" d="M48.18,29.83v-.19c.22,0,.39-.01.52-.04.13-.03.23-.08.29-.15.07-.07.11-.18.13-.31.02-.13.03-.3.03-.5v-4.41c0-.21,0-.38-.03-.51-.02-.13-.06-.23-.13-.31-.07-.08-.16-.13-.29-.16-.13-.03-.3-.04-.52-.04v-.18h2.92v.18c-.21,0-.38.01-.51.04-.13.03-.23.08-.3.16-.07.08-.11.18-.14.31-.02.13-.03.3-.03.51v4.41c0,.2,0,.37.03.5.02.13.06.23.13.31.07.07.16.12.29.15.13.03.3.04.53.04v.19h-2.92Z"/><path class="cls-1" d="M61.64,23.2c-.14.02-.27.06-.37.12-.11.06-.2.13-.28.21-.08.08-.15.18-.21.29-.06.11-.11.23-.17.36l-2.37,5.81h-.18l-2.55-5.88c-.06-.14-.12-.27-.18-.37-.06-.11-.13-.2-.2-.27-.08-.08-.17-.13-.28-.18-.11-.04-.25-.07-.41-.09v-.18h2.77v.18c-.07,0-.15.01-.24.03-.09.01-.17.04-.25.07-.08.03-.14.08-.19.14-.05.06-.08.14-.08.24,0,.12.02.25.07.37.04.12.1.26.17.41l1.73,3.98,1.61-3.95s.04-.1.07-.17c.03-.07.05-.14.08-.21.02-.07.04-.14.06-.21.02-.07.03-.13.03-.18,0-.09-.03-.16-.08-.22-.05-.06-.11-.11-.19-.14-.07-.04-.15-.07-.24-.09-.08-.02-.16-.04-.23-.05v-.18h2.1v.18Z"/><path class="cls-1" d="M65.02,29.83v-.19c.22,0,.39-.01.52-.04.13-.03.23-.08.29-.15.07-.07.11-.18.13-.31.02-.13.03-.3.03-.5v-4.41c0-.21,0-.38-.03-.51-.02-.13-.06-.23-.13-.31-.07-.08-.16-.13-.29-.16-.13-.03-.3-.04-.52-.04v-.18h2.92v.18c-.21,0-.38.01-.51.04-.13.03-.23.08-.3.16-.07.08-.11.18-.14.31-.02.13-.03.3-.03.51v4.41c0,.2,0,.37.03.5.02.13.06.23.13.31.07.07.16.12.29.15.13.03.3.04.53.04v.19h-2.92Z"/><path class="cls-1" d="M78.46,23.2c-.21,0-.38.01-.51.04-.13.03-.23.08-.3.15-.07.07-.11.17-.13.3-.02.13-.03.3-.03.5v5.74h-.17l-4.5-5.48v4.19c0,.21,0,.38.03.51.02.13.06.23.13.3.07.07.16.12.29.14.13.02.3.04.51.04v.19h-2.37v-.19c.21,0,.38-.01.51-.04.13-.03.22-.08.29-.15.07-.07.11-.17.13-.3.02-.13.03-.3.03-.5v-4.73c-.08-.12-.16-.22-.24-.3-.07-.09-.15-.16-.23-.22-.08-.06-.18-.11-.29-.14-.11-.03-.24-.05-.39-.05v-.18h1.66l4.16,5.1v-3.93c0-.2-.01-.37-.03-.5-.02-.13-.07-.23-.14-.3-.07-.07-.17-.12-.29-.15-.13-.03-.3-.04-.51-.04v-.18h2.38v.18Z"/><path class="cls-1" d="M88.87,26.3c-.19,0-.33.02-.43.07-.1.04-.18.11-.23.19-.05.08-.08.19-.09.31-.01.12-.02.26-.02.42v2.08c-.36.21-.75.37-1.15.47-.41.1-.82.15-1.25.15-.52,0-1.01-.08-1.46-.23-.46-.16-.86-.38-1.19-.68-.34-.3-.61-.66-.81-1.09-.2-.43-.3-.92-.3-1.47,0-.51.09-.98.28-1.42.18-.44.44-.83.76-1.16.32-.33.71-.59,1.15-.78.44-.19.92-.28,1.43-.28.26,0,.5.02.72.07.22.04.41.09.58.14.17.05.3.1.41.14.1.04.17.07.21.07.04,0,.08-.02.12-.05.03-.03.06-.07.08-.12s.03-.09.04-.14c0-.05.02-.09.02-.12h.17l.18,2.14h-.18c-.09-.27-.2-.52-.33-.74-.13-.22-.29-.41-.47-.57-.18-.16-.39-.28-.63-.36-.24-.08-.51-.13-.81-.13-.44,0-.83.09-1.14.26-.32.17-.58.4-.79.69-.21.29-.36.62-.46.99-.1.37-.15.76-.15,1.15s.05.79.16,1.18c.1.39.26.75.48,1.07.22.32.49.57.82.77.33.2.72.3,1.17.3.24,0,.48-.03.72-.09.24-.06.46-.15.68-.28v-1.98c0-.19,0-.34-.03-.47-.02-.12-.06-.22-.12-.3-.06-.07-.15-.13-.27-.16-.12-.03-.27-.05-.47-.06v-.18h2.64v.18Z"/></g></svg>