<?xml version="1.0" encoding="UTF-8"?><svg id="Capa_2" xmlns="http://www.w3.org/2000/svg" viewBox="0 0 86.63 36.32"><defs><style>.cls-1{fill:#7cb62d;}.cls-1,.cls-2,.cls-3,.cls-4,.cls-5,.cls-6{stroke-width:0px;}.cls-2{fill:none;}.cls-3{fill:#b3b3b3;}.cls-4{fill:#293d80;}.cls-5{fill:#fff;}.cls-6{fill:#d92323;}</style></defs><g id="Home"><polygon class="cls-4" points=".53 34.73 0 36.32 78.84 36.32 79.37 34.73 .53 34.73"/><path class="cls-4" d="M15.99,31.54s-.04-.05-.07-.03c-.24.08-.6.14-.95.12-2.42-.11-4.66-2.11-9.04-1.89,0,0,1.9-.43,3.12-3.72,0,0,.87-2.62,1.31-4.01.27-.81.6-1.72.89-2.36.57-1.21,1.48-1.93,2.38-1.92.69.01,1.12.54,1.09,1.33-.06,1.25-.84,3.72-3.4,6.13-.03.03-.04.07-.02.1.03.04.1,0,.13,0,2.36-1.22,4.51-3.1,4.58-5.66.03-1.26-.82-2.09-1.95-2.23-1.68-.21-3.1.68-4.38,2.13-.97,1.09-1.42,2.13-2.4,5.11,0,0-.91,2.82-1.3,3.82-.32.98-1.09,1.44-1.09,1.44,0,.01-1.08.47-1.42,1.23,0,0,0,.02,0,.02,0,.01.02.02.04.01.01,0,.05-.01.04,0-.04,0,.55-.2,1.82-.2,2.78,0,5.79,1.69,7.7,1.69.94,0,2.02-.3,2.88-1.02.03-.03.04-.04.04-.08h0Z"/><path class="cls-4" d="M71.77,29.36c-.15.07-.31.12-.47.14-.67.07-1.26-.54-1.03-1.22.04-.11,1.3-3.9,1.3-3.9.11-.25.17-.59.17-.76-.01-.57-.61-.95-1.23-.95-1.29,0-1.92.58-4.02,3.89-.29.46-.26.33-.15-.01l1.14-3.42s.04-.11-.01-.18c-.14-.23-1.44-.58-2.02.24-.03.04-.1.16-.1.19-.18.5-1.65,4.98-1.65,4.98-.12.33-.19.65-.18.84.01.52.23.92.81.98.47.05.8-.12,1.22-.85.43-.74.92-1.71,1.37-2.42.87-1.38,1.65-2.46,2.13-3.01.58-.68.83-.56.77-.36,0,0-1.44,4.31-1.45,4.36-.17.49-.12.85-.11.86.07.83.7,1.42,1.69,1.42.09,0,.19,0,.28-.02.57-.06,1.13-.31,1.59-.68.01,0,.03-.02.04-.03.05-.05.02-.11-.05-.09h0Z"/><path class="cls-4" d="M34.27,18.5c-.05-.05-.17,0-.19,0-.27.09-2.08,1.08-3.18,2.86-.53.85-1.22,2.04-1.8,3.76,0,0-.95,2.85-1.28,3.87-.44,1.34-.84,2.54-1.59,3.49-.07.09-.03.1-.04.11-.04.08.2.05.29.02,1.3-.36,1.93-.87,2.25-1.21,1.21-1.29,1.77-3.87,2.64-6.34h0c.48-1.31.76-2.03,1.22-3.12.27-.65.51-1.17.71-1.61.32-.72.6-1.25.94-1.73.03-.03.06-.09.04-.11h0Z"/><path class="cls-4" d="M31.71,17.39c-3.96.38-7.1,2.8-7.05,5.82.02,1.14.85,1.93,1.53,2.09.12.04.11-.02.1-.08-.02-.09-.04-.16-.05-.34-.17-2.05.86-4.68,3.87-6.31,2.9-1.56,6.26-.93,6.82,1.95.46,2.35-.98,5.48-4.07,6.86-.66.29-1.22.48-1.73.56-.09.02-.13.14,0,.16.23.03.51.05.88.03,3.93-.26,6.79-2.95,6.96-5.96.19-3.4-3.3-5.16-7.26-4.79h0Z"/><path class="cls-4" d="M78.75,27.43l1.45-4.36c.08-.31-1.73-.88-2.2.4h0s0,0,0,0c-.12-.22-.29-.4-.49-.54-1.15-.77-3.13.16-4.42,2.09-1.3,1.92-1.42,4.11-.27,4.88.95.64,2.46.11,3.68-1.17,0,0,0,.01,0,.02.09.83.78,1.42,1.77,1.42.09,0,.19,0,.28-.02.57-.06,1.13-.31,1.57-.68.01,0,.03-.02.03-.03.05-.05.02-.11-.05-.09-.15.07-.31.12-.47.14-.67.07-1.13-.42-1.1-1.14,0-.13.06-.51.2-.94h0ZM76.51,27.98c-.52.76-2.33,1.94-2.47.72-.05-.46.06-.91.42-2.03.36-1.07.82-2.21,1.17-2.76.25-.45.6-.69,1.06-.69.32,0,.75.11,1.12.84l-1.3,3.93Z"/><path class="cls-4" d="M44.92,27.43l1.44-4.36c.08-.31-1.72-.87-2.19.41h0s0,0,0,0c-.12-.22-.29-.4-.49-.54-1.15-.77-3.13.17-4.42,2.09-1.3,1.92-1.42,4.11-.27,4.88.95.64,2.46.11,3.68-1.17,0,0,0,.01,0,.02.09.83.78,1.42,1.77,1.42.09,0,.19,0,.28-.02.57-.06,1.13-.31,1.58-.68.01,0,.02-.02.03-.03.05-.05.02-.11-.05-.09-.15.07-.31.12-.47.14-.67.07-1.12-.42-1.1-1.14,0-.13.06-.51.2-.94h0ZM42.68,27.97c-.52.77-2.33,1.95-2.46.73-.05-.47.06-.91.41-2.03.36-1.07.82-2.21,1.17-2.76.25-.45.59-.69,1.06-.69.32,0,.75.11,1.12.83l-1.31,3.93Z"/><path class="cls-4" d="M20.26,27.43l1.44-4.36c.08-.31-1.72-.87-2.19.41,0,0,0,0,0,0,0,0,0,0,0,0-.12-.22-.29-.4-.49-.54-1.15-.77-3.13.17-4.42,2.09-1.3,1.92-1.42,4.11-.27,4.88.94.64,2.46.11,3.68-1.17,0,0,0,.01,0,.02.09.83.78,1.42,1.77,1.42.09,0,.18,0,.28-.02.57-.06,1.13-.31,1.57-.68.01,0,.02-.02.03-.03.05-.05.02-.11-.05-.09-.15.07-.31.12-.47.14-.67.07-1.13-.42-1.1-1.14,0-.13.06-.51.2-.94h0ZM18.03,27.98c-.53.75-2.33,1.94-2.47.71-.05-.47.06-.91.42-2.03.36-1.07.82-2.21,1.17-2.76.25-.45.59-.69,1.06-.69.32,0,.75.11,1.13.85l-1.3,3.93Z"/><path class="cls-4" d="M53.33,27.45l1.46-4.4c.08-.31-1.73-.86-2.2.43,0,0-1.49,4.47-1.5,4.53-.54.77-2.33,1.97-2.48.71-.01-.09-.01-.57.26-1.27,0,0,1.39-4.16,1.47-4.39.1-.31-1.71-.87-2.18.42l-1.26,3.78c-.23.66-.28,1.23-.23,1.5,0,0,.02.65.73,1.15.93.65,2.46.11,3.68-1.17,0,0,0,.01,0,.02.09.83.77,1.42,1.76,1.42.09,0,.19,0,.28-.02.57-.06,1.13-.31,1.57-.68.01,0,.02-.02.03-.03.05-.05.02-.11-.05-.09-.15.07-.31.12-.47.14-.66.07-1.12-.42-1.1-1.14,0-.12.06-.46.19-.85,0-.02,0-.04.02-.06h0Z"/><path class="cls-4" d="M60.65,17.73c.08-.31-1.74-.86-2.21.43,0,0-2.96,8.96-3.1,9.39-.21.6-.15,1.2-.15,1.21.09.83.78,1.42,1.76,1.42.09,0,.19,0,.28-.02.57-.06,1.13-.31,1.57-.68,0,0,.02-.02.03-.03.05-.05.02-.11-.05-.09-.15.07-.31.12-.47.14-.67.07-1.12-.42-1.1-1.14,0-.12.06-.51.18-.9l3.23-9.73Z"/><path class="cls-4" d="M63.14,23.06c.1-.31-1.72-.87-2.19.42,0,0-1.4,4.21-1.4,4.21-.19.54-.1,1.06-.1,1.07.09.83.78,1.42,1.76,1.42.09,0,.19,0,.28-.02.57-.06,1.13-.31,1.58-.68.01,0,.02-.02.03-.03.05-.05.02-.11-.05-.09-.15.07-.31.12-.47.14-.67.07-1.12-.42-1.1-1.14,0-.12.08-.58.21-.97,0,0,1.34-4.01,1.44-4.33h0Z"/><path class="cls-4" d="M63.94,20.58c-.09.58-.61,1.05-1.16,1.05s-.94-.47-.85-1.05.61-1.05,1.16-1.05.94.47.85,1.05h0Z"/><path class="cls-4" d="M66.64,12.86C62.27,5.18,54.01,0,44.54,0s-17.72,5.18-22.09,12.86H7.78l-.53,1.6h16.09c3.97-7.67,11.97-12.91,21.2-12.91,3.93,0,7.64.95,10.91,2.64.4.09.72.19.93.27v.24c3.68,2.11,6.74,5.16,8.85,8.83.17.3.34.62.5.93h20.37s.53-1.6.53-1.6h-20Z"/><path class="cls-1" d="M43.3,16.46c-.05,0-.1.01-.15.03,0,0,0,0,0-.01-.05-.32-.36-.54-.64-.49,0,0,0,0-.01,0-.16-.23-.42-.37-.69-.33-.09.01-.17.05-.24.1h0c-.03-.16-.25-.7-.87-.66-.52.03-.67.52-.69.6-.12-.16-.47-.45-.93-.31-.44.13-.53.55-.58.77-.05-.01-.11-.02-.16,0-.24.04-.4.29-.35.57.05.27.28.45.52.42.19-.03.31-.24.31-.24,0,0,.16.31.53.26.29-.04.44-.31.44-.31,0,0,.16.28.42.34.19.04.51-.03.63-.14.11.13.27.23.44.2.13-.02.24-.08.32-.14.14.1.32.15.49.12.12-.02.22-.07.31-.15.1.06.21.08.33.06.09-.02.18-.06.25-.13.06.12.19.21.34.21.21,0,.38-.17.38-.38s-.17-.38-.38-.38h0Z"/><path class="cls-1" d="M62.64,15.02c-.02-.22-.23-.4-.45-.4,0,0,0,0-.01,0-.1-.18-.28-.39-.58-.52-.34-.14-.68-.08-.89.04-.06-.24-.34-.37-.48-.33-.15-.67-.97-1-1.58-.69-.04-.56-.56-.99-.95-1.11-.39-.12-.81-.08-1.09.04.03-.03-.22-.47-.7-.58-.48-.11-.75.04-.8.09v4.1c.96.41,1.64.16,1.85-.18,0,0,.27.4.68.36.23-.03.41-.21.49-.38.04.17.23.32.46.33.22.01.4-.09.45-.25h0s.42.2.65-.17c-.03.05.23.28.61.33.4.05.56-.09.61-.11h0s0,0,0,0h0c.22.24.85.34,1.2-.05.05.02.11.04.17.04.22,0,.37-.25.34-.54h0Z"/><path class="cls-1" d="M51.31,16.66c.05-.57-.43-.96-1.04-.84-.02-.24-.25-.44-.52-.44-.08,0-.15.02-.22.04,0-.01,0-.02,0-.04,0-.28-.25-.51-.56-.51-.06,0-.12.01-.17.03,0-.21-.19-.38-.42-.38-.03,0-.06,0-.09.01.02-.57-.51-.68-.7-.64v3.24c.24.15.38.17.66.17.2,0,.4-.04.57-.11,0,0,.42.25.86-.03,0,0,.57.48,1.16,0l.05-.04c.05.15.19.27.36.27.21,0,.38-.17.38-.38,0-.19-.14-.34-.31-.37h0Z"/><path class="cls-1" d="M27.97,14.53s.04-.09.09-.08l.37.03s.09.04.09.09v.3l1.78.14v-.27s.04-.09.09-.08l.4.03s.09.05.09.09v.2l2.26-.05v-.2s.04-.09.09-.08h.37s.09.03.09.08v.19l2.02-.05v-.27s.04-.09.09-.08h.1c0-.06,0-.1,0-.13,0-.43-.23-.65-.53-.69-.26-.04-.44.07-.53.16h0c-.27-1.04-1.18-1.25-2.01-.98.06-.39-.42-.66-.78-.43.01-.48-.34-.78-.9-.6,0-.29-.16-.54-.54-.53-.27,0-.4.25-.4.25,0,0-.52-.54-1.18-.13-.48.3-.42.91-.42.91,0,0-.48-.14-.8.16-.28.27-.16.65-.12.76-.2-.04-.47.09-.56.29-.1.23,0,.44,0,.47-.49-.15-.78.26-.71.6.06.28.38.44.64.37.3.47.75.34.92.28v-.72Z"/><path class="cls-3" d="M30.83,10.78l.24.04s.22-.65.65-1.4c.44-.75.86-1.3.86-1.3l-.14-.22s-.29.42-.82,1.25c-.53.82-.83,1.63-.83,1.63h.03Z"/><path class="cls-4" d="M49.43,12.34s-.08.04-.08.09v1.79l1.09-1.88h-1.01Z"/><path class="cls-4" d="M49.65,14.62h1.02s.08-.04.08-.09v-1.81l-1.1,1.89Z"/><rect class="cls-4" x="45.38" y="14.48" width=".58" height=".56"/><rect class="cls-4" x="45.38" y="15.28" width=".58" height=".56"/><rect class="cls-4" x="45.38" y="16.09" width=".58" height=".56"/><path class="cls-4" d="M47.12,13.75s-.1-.32-.39-.63c-.3-.32-.54-.44-.55-.45h-1s-.03.01-.03.01c-.01,0-.26.12-.58.47-.27.3-.42.56-.42.56-.03.04-.03.1,0,.13l.26.33s.05.05.09.05v2.95c0,.06.04.1.1.1.06,0,.1-.05.1-.1v-2.95h.23v2.93s.01.05.03.07c.02.02.04.03.07.03h0l1.22-.02c.05,0,.1-.04.1-.1v-2.98s.01,0,.02,0h.21s0,2.99,0,2.99c0,.06.05.1.1.1s.1-.05.1-.1v-2.98s.04-.01.05-.03l.26-.3s.03-.07.02-.1h0ZM44.45,13.67c.06-.09.16-.23.3-.37.15-.17.28-.27.37-.34.04-.03.08-.05.1-.07,0,0,.01,0,.02,0h.65c-.09.07-.2.17-.32.3-.21.22-.32.39-.38.49h-.74ZM45.14,17.06v-2.83h.34s.07-.02.09-.05c0,0,.17-.26.34-.44l.26.25v3.05l-1.02.02ZM46.78,13.91c-.05-.08-.12-.19-.22-.31-.15-.2-.33-.31-.34-.31-.03-.02-.07-.02-.1,0-.01,0-.14.07-.36.3-.12.12-.23.27-.3.38l-.11-.17s0,0,0,0c.01-.02.03-.05.05-.08.06-.09.15-.22.3-.38.15-.16.28-.27.38-.35.04-.03.07-.05.09-.07.02.02.05.04.09.06.09.07.2.16.31.29.12.14.21.28.27.39.03.05.04.09.06.12l-.12.14Z"/><path class="cls-4" d="M43.65,9.5h0c0-.37.27-.66.61-.66s.6.29.6.65h0s-1.21,0-1.21,0Z"/><path class="cls-4" d="M45.25,9.51h0v-.02c-.01-.57-.44-1.03-.99-1.03s-.98.47-.99,1.05h0s0,.02,0,.02h0v.1c0,.14.11.25.25.25h1.47c.13,0,.25-.09.25-.23v-.13ZM45.06,9.64s-.02.05-.06.04h-1.47s-.06-.03-.06-.06v-.1h0c0-.5.36-.88.8-.88s.8.38.8.87c0,0,0,.02,0,.04,0,.02,0,.06,0,.09h0Z"/><path class="cls-4" d="M43.48,10.87c0-.26-.14-.52-.46-.52-.13,0-.27.06-.32.16.04-.03.12-.05.19-.05.2,0,.4.16.37.45h0v.94h0s-.69,0-.69,0v.14h.92v-1.11h0Z"/><rect class="cls-4" x="42.55" y="11.08" width=".57" height=".6"/><path class="cls-4" d="M42.55,10.92h0c0-.18.13-.32.29-.32s.29.14.29.32h0s-.57,0-.57,0Z"/><path class="cls-4" d="M32.1,10.36c0-.27.15-.53.49-.55.15,0,.26.05.33.16,0,0-.06-.06-.21-.06-.21,0-.41.18-.38.48h0v1.01h.08s.63,0,.63,0h.02s0,.15,0,.15h-.97v-1.19h0Z"/><rect class="cls-4" x="32.46" y="10.54" width=".61" height=".73"/><path class="cls-4" d="M33.07,10.39h0c0-.19-.14-.34-.31-.34s-.3.15-.3.34h0s.61,0,.61,0Z"/><path class="cls-4" d="M43.58,10.27s.48.01.49.38v1.13s-.04.09-.09.09l-.37-.03s-.05-.02-.05-.04.02-.04.05-.04l.29-.03v-1.05c0-.26-.32-.32-.32-.32-.03,0-.04-.02-.04-.04,0-.02.03-.04.05-.04h0Z"/><path class="cls-4" d="M42.41,10.27s.04.01.04.04c0,.03-.02.04-.04.04,0,0-.33.05-.32.32v1.05l.3.03s.05.02.05.04-.02.04-.05.04l-.39.03s-.09-.04-.09-.09v-1.13c0-.37.49-.38.49-.38h0Z"/><path class="cls-4" d="M46.21,10.93c0-.26-.14-.52-.46-.52-.13,0-.27.06-.32.15.04-.03.12-.05.19-.05.2,0,.4.17.37.45h0v.87h0s-.69,0-.69,0v.14h.92v-1.04h0Z"/><rect class="cls-4" x="45.28" y="11.14" width=".57" height=".53"/><path class="cls-4" d="M45.28,10.98h0c0-.18.13-.32.29-.32s.28.14.28.32h0s-.57,0-.57,0Z"/><path class="cls-4" d="M46.31,10.33s.48.01.49.38v1.06s-.04.09-.09.09l-.37-.03s-.05-.02-.05-.04.02-.04.05-.04l.29-.03v-.97c0-.26-.32-.32-.32-.32-.03,0-.04-.02-.04-.04,0-.02.03-.04.05-.04h0Z"/><path class="cls-4" d="M45.14,10.33s.05.02.05.04c0,.03-.02.04-.04.04,0,0-.33.05-.32.32v.97l.3.03s.05.02.05.04-.02.04-.05.04l-.39.03s-.09-.04-.09-.09v-1.06c0-.37.49-.38.49-.38h0Z"/><path class="cls-4" d="M43.26,13.16c0-.27-.2-.58-.65-.58-.29,0-.46.16-.49.28,0,0,.15-.13.36-.14.3-.02.57.17.55.47h0v1.93h0s-.89,0-.89,0v.14h1.12v-2.1h0Z"/><rect class="cls-4" x="42.13" y="13.38" width=".75" height="1.58"/><path class="cls-4" d="M42.13,13.22h0c0-.16.18-.34.39-.34s.36.15.36.34h0s-.74,0-.74,0Z"/><path class="cls-4" d="M43.37,12.53s.51.01.52.4v2.06c0,.05-.04.09-.09.09l-.39-.03s-.05-.02-.05-.05.02-.04.05-.04l.3-.04v-1.97c0-.28-.34-.34-.33-.34-.03,0-.04-.02-.05-.04,0-.02.03-.04.05-.04h0Z"/><path class="cls-4" d="M41.98,12.53s.05.02.05.04c0,.02-.02.04-.04.04,0,0-.34.06-.34.34v1.97l.31.04s.05.02.05.04c0,.03-.03.05-.05.05l-.41.03c-.05,0-.09-.04-.09-.09v-2.07c0-.39.52-.4.52-.4h0Z"/><path class="cls-4" d="M50.3,7.94h0c0-.36.26-.64.59-.64.32,0,.59.28.59.63h0s-1.17.01-1.17.01ZM51.92,8.14v2.09s-.01.05-.03.07c-.02.02-.04.03-.07.03h-1.85c-.05,0-.1-.05-.1-.11v-2s0-.11,0-.13c0-.62.39-1.19,1.02-1.19.3,0,.56.11.75.32.18.21.28.51.28.86v.05ZM50.07,8.1s0,0,.01,0h1.62s.02,0,.02,0h0c0-.65-.34-.99-.83-.99-.48,0-.82.46-.82,1h0ZM51.72,8.32h-1.65v1.8h1.65s0-1.8,0-1.8ZM50.77,9.1v-.56h-.36s-.06.02-.06.05v.51h.43ZM50.98,9.1h.48v-.5s-.03-.05-.07-.05h-.41s0,.55,0,.55ZM50.77,9.31h-.43v.54s.03.05.06.05h.36s0-.59,0-.59ZM50.98,9.31v.6h.41s.07-.02.07-.05v-.55h-.48Z"/><path class="cls-4" d="M49.22,15.5s-.09,0-.12.02c-.02,0-.03.01-.04.02,0,0-.02.02-.02.04,0,.03.02.05.05.05,0,0,0,0,0,0,0,0,0,0,0,0,.21,0,.37.17.38.38,0,0,0,0,0,.01,0,0,0,.01,0,.02,0,.02.02.03.04.04h0s0,0,0,0c.01,0,.02,0,.03-.01,0-.01.01-.03.02-.04.01-.04.02-.09.02-.13,0-.21-.18-.39-.39-.39h0Z"/><path class="cls-4" d="M50.31,16.25s-.08,0-.12.02c-.01,0-.03.01-.04.02,0,.01-.01.02-.01.04,0,.03.02.05.05.05h.01c.2,0,.36.17.37.36,0,0,0,0,0,.01,0,0,0,.01,0,.02,0,.02.02.03.04.04h0s0,0,0,0c.01,0,.02,0,.03-.01,0-.01.01-.03.02-.04.01-.04.02-.08.02-.13,0-.21-.17-.38-.38-.38h0Z"/><path class="cls-2" d="M48.27,15.13s-.06,0-.09.02c-.01,0-.02,0-.03.01,0,0-.01.02-.01.03,0,.02.02.04.04.04,0,0,0,0,0,0,0,0,0,0,0,0,.16,0,.28.13.28.28,0,0,0,0,0,0,0,0,0,.01,0,.02,0,.01.02.03.03.03h.01s.02,0,.02,0c0-.01,0-.02.01-.04.01-.03.02-.06.02-.1,0-.16-.13-.29-.29-.29"/><path class="cls-2" d="M47.93,14.52s-.06,0-.09.02c-.01,0-.02,0-.03.01,0,0-.01.02-.01.03,0,.02.02.04.04.04h.01c.16,0,.28.13.28.28,0,0,0,0,0,0,0,0,0,0,0,.02,0,.01.02.03.03.03h0s0,0,0,0c0,0,.02,0,.02-.01,0-.01,0-.02.01-.03.01-.03.02-.06.02-.1,0-.16-.13-.29-.29-.29"/><path class="cls-2" d="M49.39,16.2s-.06,0-.09.02c-.01,0-.02,0-.03.01,0,0-.01.02-.01.03,0,.02.02.04.04.04,0,0,0,0,0,0,0,0,0,0,0,0,.16,0,.28.13.28.28,0,0,0,0,0,0,0,0,0,0,0,.02,0,.01.02.03.03.03h0s0,0,0,0c0,0,.02,0,.02,0,0-.01.01-.02.01-.03.01-.03.02-.06.02-.1,0-.16-.13-.29-.29-.29"/><path class="cls-4" d="M48.52,16.26s0-.02.01-.02c.01-.03.02-.06.02-.1,0-.16-.13-.29-.29-.29-.03,0-.06,0-.1.02,0,0-.02,0-.03.01,0,0,0,.02,0,.03,0,.02.01.04.04.04h.01c.15,0,.28.13.28.28,0,0,0,0,0,0,0,0,0,.01,0,.02,0,0,0,0,0,0-.05,0-.1,0-.14.03-.02,0-.04.01-.06.02-.01.01-.02.03-.02.05,0,.03.03.06.06.07,0,0,0,0,0,0,0,0,0,0,0,0,.27,0,.48.22.49.48,0,0,0,.01,0,.01,0,.01,0,.02,0,.03,0,.03.03.04.06.05h.02s.03,0,.04-.02c0-.02.02-.04.03-.06.02-.05.03-.11.03-.17,0-.26-.2-.47-.45-.5h0Z"/><path class="cls-4" d="M30.48,13.68s-.01-.03-.02-.04c-.02-.01-.05-.02-.07-.03-.07-.03-.13-.04-.21-.04-.25,0-.46.15-.55.36,0,0,0,0,0-.01-.01,0-.03-.01-.04-.02-.04-.02-.09-.03-.14-.03-.22,0-.4.18-.4.4,0,.04,0,.09.02.13,0,.02.01.03.02.04.01.01.02.02.04.02.03,0,.05-.02.06-.05,0,0,0,0,0,0,0,0,0,0,0,0,0-.21.17-.38.38-.39h.01s.01,0,.02,0c0,0,0,0,0,0-.01.05-.03.11-.03.16,0,.07.01.13.03.19,0,.02.02.05.03.07.02.01.04.02.06.02.04,0,.08-.03.08-.07,0,0,0,0,0,0,0,0,0-.01,0-.01,0-.32.26-.57.58-.58,0,0,.01,0,.02,0,0,0,.02,0,.03,0,.03,0,.05-.04.06-.07h0s0-.02,0-.02h0Z"/><path class="cls-4" d="M30.35,12.17s0-.02-.01-.03c-.01,0-.03-.01-.05-.02-.04-.02-.09-.03-.13-.03-.13,0-.25.06-.32.16-.02,0-.03-.02-.05-.02-.07-.03-.15-.04-.23-.04-.37,0-.67.3-.67.67,0,.08.01.15.04.22,0,.03.02.05.03.07.02.02.04.03.06.03.05,0,.09-.03.09-.08,0,0,0,0,0-.01,0,0,0-.01,0-.02,0-.35.29-.64.65-.65h0s0,.05,0,.07c0,.04,0,.09.02.13,0,.01.01.03.02.04,0,.01.02.01.04.01.03,0,.05-.02.05-.05h0s0-.01,0-.02c0-.21.17-.38.38-.38,0,0,0,0,.01,0,0,0,.01,0,.02,0,.02,0,.03-.02.04-.04,0,0,0,0,0,0,0,0,0,0,0,0h0Z"/><path class="cls-4" d="M30.92,12.92s0,.08.02.11c0,.01.01.03.02.04,0,0,.02.01.03.01.02,0,.04-.02.05-.04h0s0-.01,0-.01c0-.18.15-.33.33-.34,0,0,0,0,.01,0,0,0,.01,0,.02,0,.02,0,.03-.02.03-.04h0s0-.03-.01-.04c-.01,0-.02-.01-.04-.02-.04-.01-.08-.02-.12-.02-.19,0-.35.16-.35.35h0Z"/><path class="cls-4" d="M27.92,13.83s0,.08.02.11c0,.01,0,.02.02.04,0,0,.02.01.03.01.03,0,.04-.02.05-.04h0s0-.01,0-.01c0-.18.15-.33.33-.34,0,0,0,0,0,0,0,0,.01,0,.02,0,.02,0,.03-.02.03-.04h0s0-.03-.01-.04c-.01,0-.02-.01-.04-.02-.04-.01-.08-.02-.12-.02-.19,0-.35.16-.35.35h0Z"/><path class="cls-4" d="M30.26,12.96s0,.08.02.11c0,.01.01.03.02.04,0,0,.02.01.03.01.02,0,.04-.02.05-.04,0,0,0,0,0,0,0,0,0,0,0,0,0-.19.15-.33.33-.34,0,0,0,0,0,0,0,0,.01,0,.02,0,.02,0,.03-.02.03-.04h0s0-.03-.01-.04c-.01,0-.03-.01-.04-.02-.04-.01-.08-.02-.12-.02-.19,0-.35.16-.35.35h0Z"/><path class="cls-4" d="M33.31,14.05s0,.1.02.14c0,.02.01.03.02.05.01,0,.02.02.04.02.03,0,.05-.02.06-.05h0s0-.01,0-.02c0-.22.19-.41.41-.41h.04s.04-.03.04-.05c0,0,0,0,0,0,0,0,0,0,0-.01,0-.01,0-.02-.02-.03-.01,0-.03-.02-.05-.02-.04-.02-.09-.03-.14-.03-.24,0-.43.19-.43.43h0Z"/><path class="cls-4" d="M34.19,14.36s.01.09.03.14c0,.02.01.03.02.05.01,0,.02.01.04.01.03,0,.05-.02.06-.05,0,0,0,0,0,0,0,0,0,0,0-.01,0-.23.19-.41.41-.41,0,0,0,0,.01,0,0,0,.01,0,.02,0,.02,0,.04-.02.04-.05h0s0-.01,0-.02c0-.01,0-.02-.01-.03-.01,0-.03-.01-.05-.02-.05-.02-.09-.02-.14-.02-.24,0-.43.19-.43.43h0Z"/><path class="cls-4" d="M32.67,13.57s0-.02-.02-.03c-.01,0-.03-.02-.05-.02-.05-.02-.09-.03-.15-.03-.17,0-.31.1-.38.24,0,0,0,0,0,0-.02-.01-.04-.02-.07-.03-.06-.02-.13-.04-.2-.04-.32,0-.58.26-.58.58,0,.07.01.13.03.19,0,.02.02.04.03.06.01.01.03.02.05.02.04,0,.07-.03.08-.07h0s0-.02,0-.02c0-.31.25-.55.56-.56,0,0,.01,0,.02,0,.01,0,.02,0,.03,0,0,.02,0,.04,0,.06,0,.05,0,.09.02.14,0,.02.01.03.02.05.01.01.02.02.04.02.03,0,.05-.02.06-.05h0s0-.01,0-.02c0-.23.19-.41.41-.41,0,0,0,0,.01,0s.01,0,.02,0c.02,0,.04-.02.04-.05,0,0,0,0,0,0s0,0,0-.01h0Z"/><path class="cls-4" d="M55.84,12.08s-.08,0-.11.02c-.01,0-.03,0-.04.02,0,0-.01.02-.01.03,0,.02.02.04.04.05,0,0,0,0,0,0s0,0,0,0c.19,0,.33.15.34.34h0v.03s.02.03.04.03h.01s.02,0,.03-.01c0-.01.01-.03.02-.04.01-.04.02-.08.02-.12,0-.19-.16-.35-.35-.35h0Z"/><path class="cls-4" d="M57.09,12.23s-.08,0-.11.02c-.01,0-.03.01-.04.01,0,0-.01.02-.01.03,0,.03.02.05.04.05,0,0,0,0,0,0,0,0,0,0,0,0,.19,0,.34.15.34.34h0s0,.02,0,.03c0,.02.02.03.04.03,0,0,0,0,0,0,0,0,0,0,.01,0,0,0,.02,0,.02-.01,0-.01.01-.03.02-.04.01-.04.02-.08.02-.12,0-.19-.16-.35-.35-.35h0Z"/><path class="cls-4" d="M58.69,14.42s-.08,0-.11.02c-.01,0-.03.01-.04.02,0,0-.01.02-.01.03,0,.02.02.05.04.05,0,0,0,0,0,0,0,0,0,0,0,0,.19,0,.33.15.34.34h0v.03s.02.03.04.03h.02s.02,0,.02-.01c0-.01.01-.03.02-.04.01-.04.02-.08.02-.12,0-.19-.16-.35-.35-.35h0Z"/><path class="cls-4" d="M55.73,13.68s-.08,0-.12.02c-.01,0-.03.01-.04.02,0,.01-.01.02-.01.03,0,.03.02.05.04.05,0,0,0,0,0,0,0,0,0,0,0,0,.2,0,.36.17.37.37,0,0,0,0,0,.01,0,0,0,.01,0,.02,0,.02.02.03.04.04h.01s.02,0,.03-.01c0-.01.01-.03.02-.04.01-.04.02-.08.02-.13,0-.21-.17-.38-.38-.38h0Z"/><path class="cls-4" d="M56.66,13.91s-.07,0-.1.02c-.01,0-.02.01-.04.02,0,0-.01.02-.01.03,0,.02.02.04.04.04h.01c.17,0,.31.14.31.31,0,0,0,0,0,0,0,0,0,.01,0,.02,0,.02.02.03.04.03h0s0,0,0,0c.01,0,.02,0,.03-.01,0-.01.01-.02.02-.04.01-.03.02-.07.02-.11,0-.18-.14-.32-.32-.32h0Z"/><path class="cls-4" d="M58.05,13.3c-.05,0-.11.01-.16.03-.02,0-.04.01-.06.02-.01.01-.02.03-.02.05,0,.03.03.06.06.07,0,0,0,0,0,0,0,0,0,0,.01,0,.26,0,.47.21.47.47,0,0,0,.01,0,.01,0,0,0,.02,0,.03,0,.02.03.04.05.05,0,0,0,0,0,0,0,0,0,0,.01,0,.01,0,.03,0,.04-.02,0-.02.02-.04.03-.05.02-.05.03-.11.03-.17,0-.27-.22-.49-.49-.49h0Z"/><path class="cls-4" d="M57.55,14.25c-.06,0-.11.01-.16.03-.02,0-.04.01-.05.02-.01.01-.02.03-.02.05,0,.03.03.06.06.07h0s0,0,.01,0c.26,0,.46.21.47.47,0,0,0,0,0,.01,0,0,0,.02,0,.03,0,.02.03.04.05.05,0,0,0,0,0,0,0,0,.01,0,.01,0,.01,0,.03,0,.04-.02,0-.02.02-.04.02-.06.02-.05.03-.11.03-.17,0-.27-.22-.48-.49-.48h0Z"/><path class="cls-4" d="M56.82,13.19c-.05,0-.11.01-.16.03-.02,0-.04.01-.05.02,0,.01-.02.03-.02.05,0,.03.03.06.06.07,0,0,0,0,0,0,0,0,0,0,.01,0,.26,0,.46.21.47.47,0,0,0,0,0,.01,0,.01,0,.02,0,.03,0,.02.03.04.05.05,0,0,0,0,0,0,0,0,0,0,.01,0,.01,0,.03,0,.04-.02,0-.02.02-.04.02-.06.02-.05.03-.11.03-.17,0-.27-.22-.49-.49-.49h0Z"/><path class="cls-4" d="M59.33,14.05s0-.01,0-.02c.01-.04.02-.08.02-.13,0-.21-.17-.38-.38-.38-.04,0-.08,0-.12.02-.01,0-.03.01-.04.02-.01,0-.01.02-.01.04,0,.03.02.05.04.05h.02c.2,0,.35.16.37.35-.03,0-.06-.01-.09-.01-.04,0-.08,0-.12.02-.01,0-.03.01-.04.02,0,0-.01.02-.01.04,0,.03.02.05.04.05h.01c.2,0,.37.17.37.37,0,0,0,0,0,.01,0,0,0,.01,0,.02,0,.02.02.03.04.04h.02s.02,0,.03-.01c0-.01.01-.03.02-.04.02-.04.03-.08.03-.13,0-.14-.08-.26-.19-.33h0Z"/><path class="cls-4" d="M60.04,13.98c-.05,0-.1,0-.14.02-.02,0-.03.01-.05.02,0,.01-.02.03-.02.04,0,.03.02.05.05.06h.02c.23,0,.41.19.42.42,0,0,0,0,0,.01,0,0,0,.01,0,.02,0,.02.03.04.05.04h0s0,0,.01,0c.01,0,.02,0,.03-.01,0-.02.01-.03.02-.05.01-.05.03-.1.03-.15,0-.24-.19-.43-.43-.43h0Z"/><path class="cls-4" d="M61.42,14.49c-.05,0-.1,0-.14.01-.02,0-.03.01-.05.02-.01.01-.02.03-.02.04,0,.03.02.06.05.06,0,0,0,0,0,0,0,0,0,0,0,0,.24.02.42.22.43.45,0,0,0,0,0,.01,0,0,0,.02,0,.02,0,.02.03.04.05.05,0,0,0,0,0,0,0,0,0,0,.01,0,.01,0,.02,0,.03-.01,0-.01.01-.03.02-.05.02-.05.03-.1.03-.15,0-.24-.19-.45-.43-.46h0Z"/><path class="cls-4" d="M55.78,12.64s-.09,0-.13.02c-.02,0-.03.01-.05.02,0,.01-.01.03-.01.04,0,.03.02.05.05.06h0s0,0,.01,0c.22,0,.39.18.4.4,0,0,0,0,0,.01,0,0,0,.01,0,.02,0,.02.02.04.05.04,0,0,0,0,0,0,0,0,0,0,0,0,.01,0,.02,0,.03-.01,0-.02.01-.03.02-.05.02-.04.03-.09.03-.14,0-.23-.18-.41-.41-.41h0Z"/><path class="cls-4" d="M55.86,14.61s-.09,0-.13.02c-.02,0-.03.01-.05.02,0,0-.01.02-.01.04,0,.03.02.05.05.06,0,0,0,0,0,0,0,0,0,0,0,0,.22,0,.4.18.4.4,0,0,0,0,0,.01,0,0,0,.02,0,.02,0,.02.02.04.05.04,0,0,0,0,0,0,0,0,0,0,.01,0,.01,0,.02,0,.03-.01,0-.01.02-.03.02-.05.02-.04.03-.09.03-.14,0-.23-.18-.41-.41-.41h0Z"/><path class="cls-2" d="M57.32,13.03s-.06,0-.09.02c-.01,0-.02,0-.03.01,0,0,0,.01,0,.02,0,.02.01.03.03.04h0s0,0,0,0c.14,0,.26.12.26.26,0,0,0,0,0,0,0,0,0,.01,0,.02,0,.01.02.02.03.03h0s0,0,0,0c0,0,.01,0,.02,0,0-.01.01-.02.01-.03,0-.03.02-.06.02-.09,0-.15-.12-.27-.27-.27"/><path class="cls-4" d="M36.16,14.5h-.37c-.05,0-.09.05-.09.09v.27l-2.02.05v-.19s-.04-.09-.09-.09h-.37s-.09.04-.09.09v.2l-2.26.05v-.2s-.04-.09-.09-.09l-.4-.03s-.09.03-.09.08v.27l-1.78-.14v-.3s-.04-.09-.09-.09l-.37-.03s-.09.03-.09.08v.96s.04.09.09.09l.37.02s.09-.03.09-.08v-.17l1.78.14v.18s.04.09.09.09l.4.03s.09-.03.09-.08v-.25l2.26-.05v.25s.04.09.09.09h.37s.09-.04.09-.09v-.26l2.02-.05v.18s.04.09.09.09h.37s.09-.05.09-.09v-.94s-.04-.09-.09-.09h0Z"/><path class="cls-5" d="M28.12,14.66h.22v.74h-.22v-.74ZM30.46,15.58h.24s0-.7,0-.7h-.24s0,.7,0,.7ZM33.31,15.55h.22v-.71h-.22v.71ZM35.85,14.71v.71h.22v-.72h-.22ZM33.72,15.23l1.97-.05v-.14l-1.97.05v.14ZM30.89,15.29l2.3-.08v-.14l-2.3.08v.14ZM28.52,15.17l1.79.14v-.14l-1.79-.14v.13Z"/><path class="cls-6" d="M44.45,13.67c.06-.1.16-.23.29-.37.15-.17.28-.27.37-.34.04-.03.08-.05.1-.07,0,0,.01,0,.02,0h.65c-.09.07-.2.17-.32.3-.21.22-.32.39-.38.49h-.74Z"/><path class="cls-6" d="M46.61,4.54c.12.08.3.19.51.36.21.16.36.31.47.41l-1-.06-.02-.74s.03.02.05.03h0Z"/><path class="cls-6" d="M45.65,5.02c.3-.25.56-.42.72-.52l.02.74-1.22.21c.11-.11.27-.26.48-.43h0Z"/><path class="cls-6" d="M37.9,7.51l.69-.07v.63s0,.04.02.06c.02.02.04.02.06.02h0l.76-.03s.02,0,.03,0c0,0,0,0,0,0,0,0,.02-.01.02-.02,0,0,0,0,0,0l.57-.8,3.95-.39c-.34.28-.91.78-1.56,1.45-.89.93-1.57,1.79-1.73,1.99l-3.17.13.34-2.96Z"/><path class="cls-6" d="M34.76,10.35c-.09-.2-.38-.83-.99-1.83-.47-.78-.82-1.23-1.03-1.46l4.91.47-.33,2.94-2.56-.12Z"/><path class="cls-6" d="M39.96,12.27c-.21.18-.37.36-.45.47l-.03.02-2.84.04c.07-.07.16-.17.29-.28.17-.15.33-.27.45-.34.07-.05.13-.08.16-.1l2.81-.09c-.12.08-.26.18-.38.28h0Z"/><path class="cls-6" d="M53.34,3.69c-1.37,0-2.52.28-2.95.4.2-.18.6-.54,1.37-1.09.56-.4.97-.66,1.23-.82.17-.1.28-.16.34-.19,0,0,0,0,.01,0,.15.07.57.29,1.43.86,1.07.71,1.85,1.36,1.96,1.45-.3-.13-1.61-.63-3.4-.63h0Z"/><path class="cls-6" d="M45.39,7.36c-.55-.47-.9-.72-.91-.72-.03-.02-.06-.02-.09-.02,0,0-.01,0-.02,0l-2.55.25c.19-.18.38-.34.55-.47.18-.14.32-.23.38-.27l2.25-.24v.85s.01.05.03.07c.02.02.04.03.07.03h0l1.39-.12.05-.02,1.36-1.11,2.76-.3c-.29.19-.71.47-1.13.78-.78.57-1.39,1.14-1.4,1.14l-2.75.15Z"/><path class="cls-6" d="M48.14,7.21l-.02.02s-.31.45-.6.99c-.2.38-.35.68-.41.81-.2-.21-.41-.44-.65-.67-.4-.4-.77-.73-1.08-1l2.75-.15Z"/><path class="cls-4" d="M38.83,16.17s-.04.07-.05.11c0,.01,0,.03,0,.04,0,.01,0,.02.02.03.02.02.05.01.07,0,0,0,0,0,0,0,0,0,0,0,0,0,.12-.16.35-.2.52-.09,0,0,0,0,0,0,0,0,.01,0,.02.01.02,0,.04,0,.05-.01,0,0,0,0,0,0,0,0,0,0,0,0,0-.01,0-.02,0-.03,0-.01-.01-.03-.02-.04-.02-.04-.05-.07-.09-.09-.17-.12-.41-.08-.53.09h0Z"/><path class="cls-4" d="M41.09,15.82s-.06-.08-.11-.11c-.2-.14-.48-.1-.62.1-.03.04-.05.09-.06.13,0,.02,0,.03-.01.05,0,.01,0,.02.01.03-.12,0-.24.05-.32.16-.02.04-.04.07-.05.11,0,.01,0,.03,0,.04,0,.01,0,.03.02.03.02.02.05.01.07,0,0,0,0,0,0,0,0,0,0,0,0,0,.12-.16.35-.2.51-.09,0,0,0,0,.01,0,0,0,.01,0,.01.01.02,0,.04,0,.06-.01h0s0,0,0-.01c0-.01,0-.02,0-.03,0-.01-.02-.03-.02-.04-.02-.03-.06-.07-.09-.09-.04-.03-.09-.05-.13-.06,0,0,0,0,.01,0,0,0,0,0,0,0,0,0,0,0,0,0,.14-.19.41-.23.6-.1,0,0,0,0,.01,0,0,0,.01.01.02.02.02,0,.05,0,.06-.02,0,0,0,0,0,0,0,0,0,0,0,0,0-.01,0-.02,0-.04,0-.02-.02-.03-.03-.05h0Z"/><path class="cls-4" d="M41.01,16.48s-.03.06-.04.09c0,.01,0,.02,0,.04,0,.01,0,.02.02.03.02.01.04,0,.06,0,0,0,0,0,0,0,0,0,0,0,0,0,.1-.13.28-.16.42-.07,0,0,0,0,0,0,0,0,0,0,.01.01.02,0,.03,0,.04-.01,0,0,0,0,0,0,0,0,0,0,0,0,0,0,0-.02,0-.03,0,0-.01-.02-.02-.03-.02-.03-.04-.06-.07-.08-.14-.1-.34-.07-.44.07h0Z"/><path class="cls-4" d="M42.15,16.32s-.04.06-.05.09c0,.01,0,.03,0,.04,0,.01,0,.02.02.03.02.01.04.01.06,0,0,0,0,0,0,0,0,0,0,0,0,0,.1-.13.28-.16.42-.07,0,0,0,0,0,0,0,0,0,0,.01.01.02,0,.03,0,.04-.01,0,0,0,0,0,0,0,0,0,0,0,0,0,0,0-.02,0-.03,0-.01-.01-.02-.02-.03-.02-.03-.04-.05-.07-.08-.14-.1-.34-.07-.43.07h0Z"/><path class="cls-6" d="M53.19,2.18s-1.34.87-2.09,1.53c0,0,.61-.14,1.23-.19,0,0,.3-.64.86-1.35h0Z"/><path class="cls-4" d="M53.45,11.62l-4.67-.02s-.07.03-.07.07v2.99c.06.07.1.15.1.25.03,0,.07-.02.11-.02v-3.05l2.28.02s0,2.72,0,4.29c.09.14.14.31.12.51.15.03.27.14.3.29.36,0,1.84,0,1.9,0v-5.25s-.03-.07-.07-.07h0Z"/><path class="cls-6" d="M55.41,10.82s.02,0,.02,0l.48-.23c.06-.03.09-.1.06-.16,0,0-.34-.78-.84-1.71-.54-1.02-1.04-1.58-1.04-1.59-.01-.01-.3-.31-1.31-1.07-.95-.71-1.55-1-1.58-1.02-.02-.02-.06-.03-.09-.03l-.65.07v-.72s0,0,0,0c.15-.04.4-.11.74-.18.55-.11,1.31-.22,2.16-.22,1.42,0,2.53.32,3.04.5v7.25c.16.14.25.3.24.33,0,0,0,0,0,0,0,0,.01,0,.02,0v-7.47s.01,0,.01,0c.02.01.02.01.04.02.04.02.06.02.09.02.06,0,.11-.02.16-.05.05-.03.11-.09.11-.19,0-.1-.06-.17-.14-.24,0,0-.83-.7-2-1.48-1.17-.78-1.53-.91-1.55-.92-.03-.01-.07-.01-.1,0,0,0-.53.25-1.66,1.06-1.03.73-1.45,1.17-1.51,1.22-.07.06-.13.13-.13.22.01.15.12.22.23.24v.63l-2.31.25s-.25-.27-.65-.6c-.44-.35-.74-.49-.74-.49-.01,0-.03,0-.04,0,0,0,0,0,0,0-.02,0-.03,0-.04,0h0s-.41.22-.88.62c-.48.4-.69.66-.7.66-.03.03-.03.08,0,.11,0,.01.02.02.03.03l-2.14.23-.05.02s-.7.44-1.2.99l-1.2.12s.01-.03.01-.04v-.41s.05,0,.07-.02c.02-.01.03-.04.03-.06v-.49s-.03-.08-.07-.08l-.85-.11h0s0,0,0,0h-.02s-.89.14-.89.14c-.04,0-.07.04-.07.09v.51s0,.05.03.07c.01.01.04.02.06.02,0,0,0,0,.01,0h.04s0,.56,0,.56l-.83.09s-.02,0-.03,0l-5.28-.5s-.08.01-.1.04c0,0-.46.52-1.16,1.8-.52.94-.87,1.77-.87,1.77-.02.05,0,.1.03.14l.36.32h0s0,0,0,0h0s.02.02.04.03c0,0,0,0,0,0,0,0,0,0,.01,0,0,0,.01,0,.02,0,0,0,.01,0,.01,0l.16.03v.49c.11.1.17.24.17.41.03,0,.05-.01.08-.02v-1.03c.07-.2.28-.71.62-1.3.33-.57.66-1.02.79-1.2.14.19.34.48.6.9.3.48.54.92.7,1.25.16.33.24.53.24.54.02.04.06.07.11.08h.04v1.99c.09.07.17.15.24.25v-2.23l2.72.09v.81c-.12.08-.31.21-.52.39-.37.33-.48.51-.49.53,0,0,0,0,0,.01,0,0,0,0,0,0-.02.03-.02.07,0,.1l.11.22s.05.06.09.06h.31s0,2.24,0,2.24c0,.07.05.12.12.12s.12-.05.12-.12v-2.24l2.39-.02v2.12c.09,0,.17.03.24.07v-2.25s.26-.35.59-.62c.17-.14.32-.24.42-.3.05-.03.09-.05.11-.06v2.9c.09,0,.17.02.24.04v-4.07h.06s.07-.02.09-.05c0,0,1.01-1.26,1.9-2.17.48-.49.89-.85,1.14-1.07.01,0,.02.02.04.03.16.11.6.46,1.54,1.31.49.44.89.9,1.17,1.24.17.21.3.38.37.48v6.28c0,.07.05.12.12.12s.12-.05.12-.12v-6.14h.24s.01-.01.02-.01c.03,0,.07-.01.09-.03l.36-.36s.05-.11,0-.16c0,0-.25-.32-.66-.79.02-.03.2-.37.5-.97.16-.32.3-.55.4-.71.08-.13.13-.2.15-.23.07-.06.55-.49,1.31-1.04.34-.25.61-.43.8-.56,0,0,0,0,.01,0,0,0,.01,0,.05.03.13.06.48.26,1.19.79.47.35.79.63.99.81.2.18.28.28.28.28,0,0,.37.49.8,1.26.29.51.47.88.59,1.12.09.2.14.31.15.34v6.09c0,.22.24.18.24.05v-6.05h.23s.04-.02.06-.03h0ZM51.76,3.01c.56-.4.97-.66,1.23-.82.17-.1.28-.16.34-.19,0,0,0,0,.01,0,.15.07.57.29,1.43.86,1.07.71,1.85,1.36,1.96,1.45-.3-.13-1.6-.63-3.4-.63-1.37,0-2.52.28-2.95.4.2-.18.6-.54,1.37-1.09h0ZM46.61,4.54c.12.08.3.19.51.36.21.16.36.31.46.41l-1-.06-.02-.74s.03.02.05.03h0ZM47.65,5.55l-1.07.91v-.94s1.07.03,1.07.03ZM45.65,5.02c.3-.25.56-.42.72-.51l.02.73-1.22.21c.11-.11.27-.26.48-.43h0ZM46.39,6.55l-1.19.1v-.94l1.19-.19v1.02ZM42.39,6.41c.18-.14.33-.23.38-.27l2.25-.24v.85s.01.05.03.07c.02.02.04.03.07.03h0l1.39-.12.05-.02,1.36-1.11,2.76-.3c-.29.19-.71.47-1.13.78-.78.57-1.39,1.14-1.4,1.14l-.02.02s-.31.45-.6.99c-.2.38-.35.68-.41.81-.2-.21-.41-.44-.65-.66-1.12-1.11-1.98-1.72-1.99-1.72-.03-.02-.06-.02-.09-.02,0,0-.01,0-.02,0l-2.55.25c.19-.18.38-.34.55-.47h0ZM39.52,6l.67.09v.31l-.67-.07v-.33ZM39.52,6.54l.58.05v.38l-.58.81v-1.24ZM38.62,6.12l.73-.11v.34l-.73.1v-.33ZM39.35,6.54v1.42l-.58.02v-1.37l.58-.07ZM37.9,7.51l.69-.07v.63s0,.04.02.06c.02.02.04.02.06.02h0l.76-.03s.02,0,.03,0c0,0,0,0,0,0,0,0,.02-.01.02-.02,0,0,0,0,0,0l.57-.8,3.95-.4c-.34.28-.91.78-1.56,1.45-.89.93-1.57,1.79-1.73,1.99l-3.17.13.34-2.96ZM34.35,10.77c-.11-.25-.43-.95-.92-1.73-.61-.97-.88-1.26-.88-1.26-.02-.02-.05-.04-.09-.04-.03,0-.06.01-.09.04-.01.01-.2.21-.77,1.17-.05.08-.1.17-.15.25-.36.57-.59,1.11-.7,1.38l-.16-.15c.1-.23.4-.91.82-1.67.35-.64.63-1.08.83-1.36.09-.13.16-.23.21-.29,0,0,0,0,.01.01.16.16.55.62,1.1,1.53.37.61.62,1.08.78,1.39.16.31.22.47.22.47,0,0,0,0,0,0l-.22.25ZM34.76,10.35c-.09-.2-.38-.83-.99-1.83-.47-.78-.82-1.23-1.03-1.46l4.91.46-.33,2.94-2.56-.12ZM39.96,12.27c-.21.18-.37.36-.45.47l-.03.02-2.84.04c.07-.07.16-.17.29-.28.17-.15.33-.27.45-.34.07-.05.13-.08.16-.1l2.81-.09c-.12.08-.26.18-.38.28h0ZM40.78,11.74s-.02,0-.03,0l-3.23.11v-.7l3.26-.07v.67ZM48.06,10.48l-.19.18c-.23-.28-.94-1.12-1.61-1.78-.36-.35-.71-.67-1-.92-.47-.42-.74-.63-.74-.63-.04-.03-.11-.03-.15,0,0,0-.64.49-1.46,1.34-.76.77-1.59,1.78-1.84,2.09l-.18-.23s.74-.97,1.75-2.01c.51-.53.98-.95,1.31-1.24.22-.19.38-.32.47-.39.09.07.26.19.49.38.35.29.84.71,1.4,1.26.87.87,1.54,1.68,1.75,1.94h0ZM54.67,8.99c-.48-.87-.97-1.46-.97-1.47h0s-.36-.37-1.21-1.02c-.64-.48-1.09-.75-1.23-.82h0s0,0,0,0c-.02-.01-.03-.02-.03-.02-.04-.02-.08-.02-.12,0,0,0-.39.22-1.22.83-.84.6-1.34,1.07-1.34,1.07l-.02.02s-.25.33-.58.98c-.23.45-.38.75-.46.88-.06-.07-.13-.14-.19-.22,0,0,.01-.01.02-.02,0,0,.17-.36.43-.86.25-.48.53-.88.57-.95.08-.07.65-.59,1.37-1.11.65-.47,1.27-.87,1.46-.99.07.03.18.1.35.2.27.16.65.41,1.13.77.5.38.83.64,1.02.81.19.16.26.23.26.23,0,0,.12.14.3.39.19.26.44.65.7,1.15.39.72.68,1.35.79,1.59l-.26.12c-.11-.25-.4-.89-.77-1.55h0Z"/><path class="cls-4" d="M53.96,11.04l-5.66-.02s-.06.01-.09.04c-.02.02-.04.05-.04.09v2.99c.08.1.13.23.12.42.03,0,.06-.01.09-.01,0,0,.02,0,.02,0v-3.27l5.41.02v5.6s0,.13.12.13.12-.13.12-.13v-5.72c0-.07-.05-.12-.12-.12h0Z"/></g></svg>