<?xml version="1.0" encoding="UTF-8"?><svg id="Capa_2" xmlns="http://www.w3.org/2000/svg" viewBox="0 0 65.64 30.57"><defs><style>.cls-1{fill:#ffc035;}.cls-1,.cls-2{fill-rule:evenodd;stroke-width:0px;}.cls-2{fill:#373435;}</style></defs><g id="Home"><path class="cls-2" d="M54.67,29.21c0,.19-.08.22-.16.22h-2.45v-2.76c0-.13.11-.15.24-.16v-.11h-1.68v.11c.14,0,.24.03.24.16v3.41c0,.12-.1.15-.24.16v.1h3.9c.07,0,.16.04.16.23h.11v-1.36h-.11ZM41.52,27.55c0-.39.79-.39,1.02-.39.6,0,1.23.24,1.23.33,0,.04,0,.08,0,.1l.12.05.54-1.13-.1-.04s-.1.11-.2.11c-.2,0-.92-.24-1.78-.24-1.46,0-1.98.78-1.98,1.34,0,1.5,2.93.82,2.93,1.52,0,.35-.6.39-.82.39-.73,0-1.75-.24-1.75-.47,0-.04,0-.07,0-.09l-.11-.06-.37,1.2.1.03c.06-.06.13-.13.21-.13s1.08.33,1.93.33c1.37,0,1.97-.61,1.97-1.31,0-1.56-2.92-.9-2.92-1.54h0ZM33.86,27.19c.07,0,.16.04.16.22h.11v-1.2h-.11c0,.16-.09.2-.16.2h-4.06v.11c.13,0,.25.03.25.16v3.4c0,.13-.12.15-.25.16v.1h3.99c.14,0,.19.03.25.19h.09v-1.2h-.11c-.04.16-.13.23-.23.23h-2.54v-.89h1.68c.07,0,.16.03.16.2h.1v-1.17h-.1c0,.17-.09.21-.16.21h-1.68v-.73h2.61ZM27.64,26.51c.05,0,.2,0,.2.09,0,.08-.62,1.53-.93,2.29-.08-.27-.82-2.19-.82-2.29,0-.09.15-.09.23-.09v-.11h-1.7v.11s.09,0,.16.05c.13.07,1.27,3.5,1.27,3.54,0,.1-.1.15-.19.14v.11h1.89v-.11c-.08.01-.18-.05-.18-.14,0-.07,1.27-3.08,1.39-3.46.03-.09.08-.11.18-.12v-.11h-1.49v.11ZM23.94,30.24c-.17-.01-.28-.04-.28-.16v-3.4c0-.13.11-.15.28-.16v-.11h-1.77v.11c.18,0,.29.03.29.16v3.4c0,.12-.11.15-.29.16v.11h1.77v-.11ZM19.55,30.24v.11h1.66v-.11c-.14-.01-.25-.04-.25-.16v-3.4c0-.13.11-.15.25-.16v-.11h-1.57v.11c.14,0,.25.03.25.16v1.77c-.75-.82-1.62-1.71-1.62-1.77,0-.13.11-.15.19-.16v-.11h-2.13v.11c.14,0,.24.03.24.16v3.4c0,.12-.11.15-.23.16v.11h1.53v-.11c-.13-.01-.23-.04-.23-.16v-2.35c1.03,1.17,2.18,2.19,2.18,2.39,0,.11-.17.12-.26.12h0ZM13.88,26.49c.19.02.21.07.21.14v2.02c0,.58-.34.81-.95.81s-.95-.23-.95-.81v-2.02c0-.07.02-.12.21-.14v-.09h-1.55v.09c.19.02.21.07.21.14v2.02c0,1.33.92,1.76,2.08,1.76s2.07-.44,2.07-1.76v-2.02c0-.07.02-.12.21-.14v-.09h-1.55v.09ZM46.57,28.9l.73-1.57.75,1.57h-1.48ZM49.8,30.15c-.39-.92-1.65-3.44-1.65-3.55,0-.06.03-.08.12-.09v-.11h-1.87v.11c.09,0,.11.03.11.09,0,.13-.83,1.88-1.54,3.55-.03.06-.11.09-.18.09v.11h1.34v-.11s-.12,0-.12-.08c0-.1.21-.44.26-.61h2.08c.06.16.25.51.25.61,0,.08-.08.08-.11.08v.11h1.48v-.11c-.07,0-.15-.03-.18-.09h0ZM39.19,30.06l-.8-1.2c.55-.22.99-.57.99-1.21,0-.82-.59-1.25-1.46-1.25h-2.87v.11c.09,0,.19.03.19.16v3.41c0,.12-.1.15-.17.16v.1h1.54v-.1c-.13-.01-.24-.04-.24-.16v-1.2h.86c.07.15.68,1.13.68,1.24,0,.09-.14.12-.22.12v.1h1.81v-.1c-.13,0-.25-.08-.31-.18h0ZM37.65,28.13h-1.28v-.97h1.21c.53,0,.68.21.68.48,0,.32-.24.49-.61.49h0Z"/><path class="cls-1" d="M59.47,7.36v-.61c-.43-.23-.87-.46-1.33-.68C51.34,2.71,41.5,0,32.71,0S14.08,2.71,7.27,6.07c-.45.22-.89.45-1.32.68v.61s10.64-5,26.76-5.07c16.12.06,26.77,5.07,26.77,5.07h0Z"/><path class="cls-2" d="M44.63,11.3c-1.31-1.25-2.97-1.94-4.67-1.94h-4.95v12.61h4.93c3.7,0,6.49-2.71,6.49-6.3,0-1.71-.64-3.26-1.8-4.37h0ZM43.57,12.4c-.9-.86-2.18-1.51-3.61-1.51h-3.42v9.55h3.4c2.89,0,4.96-2.06,4.96-4.77,0-1.27-.46-2.43-1.33-3.27h0ZM37.03,11.36h2.91c1.16,0,2.26.45,3.1,1.27.91.88,1.35,1.89,1.35,3.11.03,1.07-.39,2.1-1.17,2.91-.85.87-2.01,1.35-3.27,1.35h-2.91v-8.63ZM59.12,18.55c-1.59,0-2.88-1.29-2.88-2.87s1.29-2.87,2.88-2.87,2.88,1.28,2.88,2.87-1.29,2.87-2.88,2.87h0ZM59.12,9.17c-3.6,0-6.52,2.91-6.52,6.5s2.92,6.5,6.52,6.5,6.52-2.91,6.52-6.5-2.92-6.5-6.52-6.5h0ZM59.12,20.62c-2.73,0-4.96-2.22-4.96-4.94s2.22-4.94,4.96-4.94,4.96,2.22,4.96,4.94-2.23,4.94-4.96,4.94h0ZM59.12,11.24c-2.46,0-4.45,1.99-4.45,4.44s1.99,4.44,4.45,4.44,4.45-1.99,4.45-4.44-2-4.44-4.45-4.44h0ZM10.86,9.36v3.59h3.4v9.02h3.59v-9.02h3.41v-3.59h-10.41ZM19.74,11.43h-3.4v9.02h-.54v-9.02h-3.4v-.54h7.35v.54ZM33.25,9.36h-3.59v7.15c0,1.4-.63,2.11-1.87,2.11s-1.81-.73-1.81-2.19v-7.07h-3.59v7.14c0,3.53,2.02,5.64,5.4,5.64s5.47-2.14,5.47-5.72v-7.05ZM27.78,20.65c-2.57,0-3.87-1.5-3.87-4.15v-5.61h.55v5.54c0,2.29,1.25,3.67,3.33,3.67s3.4-1.35,3.4-3.6v-5.62h.54v5.53c0,2.71-1.33,4.23-3.95,4.23h0ZM47.72,21.97h3.59v-12.61h-3.59v12.61ZM49.79,20.45h-.54v-9.56h.54v9.56ZM6.44,14.04s-1.1-.26-1.54-.42c-.14-.05-.52-.18-.53-.48,0-.14.07-.37.36-.47.12-.04.27-.07.48-.07.44,0,1.12.23,1.91.66l1.21.67,2-2.88-1.46-.82c-.88-.5-2.07-1.07-3.59-1.07-1.47,0-2.61.42-3.4,1.23-.72.73-1.09,1.75-1.09,2.94.09,2.05,1.51,3.36,4.25,3.96.65.14,1.82.38,1.82.95,0,.27-.15.48-.58.53-.28.03-.66-.02-1.06-.12-.51-.13-1.21-.4-1.89-.85l-1.1-.73-2.24,2.85,1.41.91c.92.59,2.33,1.38,4.07,1.39.1,0,.2,0,.31,0,2.31,0,4.64-1.26,4.64-4.11-.01-1.16-.41-3.12-3.99-4.09h0ZM8.92,18.41c-.07.96-.59,1.62-1.21,1.97-.78.43-1.59.41-2.02.4-.33,0-.91-.08-1.25-.17-.79-.2-1.51-.6-2.19-1.05l.33-.42c.7.46,1.32.81,2.01.98.18.05.36.09.57.12.16.03.34.05.56.05.8,0,1.15-.05,1.66-.31.7-.34,1.04-1.02,1.04-1.67,0-.54-.19-.97-.51-1.32-.55-.61-1.51-.95-2.54-1.17-2.23-.48-3-1.35-3.05-2.49,0-.59.12-1.08.38-1.49.19-.29.45-.56.78-.75.24-.13.49-.26.81-.33.29-.06.62-.07.96-.07,1.1,0,2.04.4,2.87.86l-.28.41c-.93-.52-1.53-.8-2.62-.8-.31,0-.6.02-.85.08-.25.06-.45.17-.63.27-.25.14-.43.34-.57.54-.23.33-.34.69-.34,1.09-.03,1.62,1.56,1.98,3.24,2.39,1.14.28,1.84.69,2.26,1.14.46.49.59,1.04.59,1.49,0,.09,0,.18,0,.26h0ZM39.94,18.46h-1.38v-5.58h1.38c.76,0,1.48.3,2.03.84.61.59.88,1.21.88,2.01.02.7-.24,1.34-.74,1.84-.56.57-1.33.89-2.17.89h0Z"/></g></svg>