<?xml version="1.0" encoding="UTF-8"?><svg id="Capa_2" xmlns="http://www.w3.org/2000/svg" viewBox="0 0 56.36 14.16"><defs><style>.cls-1{fill:#b3b3b3;stroke-width:0px;}</style></defs><g id="Home"><path class="cls-1" d="M13.84,1.64c-1.58,0-2.91.54-3.99,1.61-.05.05-.09.1-.13.14-.04-.05-.08-.1-.13-.14-1.08-1.08-2.41-1.61-3.99-1.61-.98,0-1.87.21-2.66.62h0S0,1.65,0,1.65v12.52h2.94v-6.96c0-.79.25-1.45.75-1.98.5-.53,1.13-.8,1.91-.8s1.39.27,1.89.8c.5.53.75,1.19.75,1.98v6.96h2.97v-6.96c0-.09,0-.17-.01-.25.05-.67.29-1.25.74-1.73.5-.53,1.13-.8,1.91-.8s1.39.27,1.89.8c.5.53.75,1.19.75,1.98v6.96h2.97v-6.96c0-1.55-.54-2.87-1.61-3.95-1.08-1.08-2.41-1.61-3.99-1.61Z"/><path class="cls-1" d="M50.76,1.64c-1.58,0-2.91.54-3.99,1.61-.05.05-.09.1-.13.14-.04-.05-.08-.1-.13-.14-1.08-1.08-2.41-1.61-3.99-1.61s-2.91.54-3.99,1.61c-1.08,1.08-1.61,2.39-1.61,3.95v6.96h2.94v-6.96c0-.79.25-1.45.75-1.98.5-.53,1.13-.8,1.91-.8s1.39.27,1.89.8c.5.53.75,1.19.75,1.98v6.96h2.97v-6.96c0-.09,0-.17-.01-.25.05-.67.29-1.25.74-1.73.5-.53,1.13-.8,1.91-.8s1.39.27,1.89.8c.5.53.75,1.19.75,1.98v6.96h2.97v-6.96c0-1.55-.54-2.87-1.61-3.95-1.08-1.08-2.41-1.61-3.99-1.61Z"/><path class="cls-1" d="M28.18,1.64c-3.46,0-6.26,2.8-6.26,6.26s2.8,6.26,6.26,6.26,6.26-2.8,6.26-6.26-2.8-6.26-6.26-6.26ZM28.18,11.48c-1.98,0-3.58-1.6-3.58-3.58s1.6-3.58,3.58-3.58,3.58,1.6,3.58,3.58-1.6,3.58-3.58,3.58Z"/><path class="cls-1" d="M34.44,0c-.9,0-1.64.73-1.64,1.64s.73,1.64,1.64,1.64,1.64-.73,1.64-1.64-.73-1.64-1.64-1.64Z"/></g></svg>