<?xml version="1.0" encoding="UTF-8"?><svg id="Capa_2" xmlns="http://www.w3.org/2000/svg" viewBox="0 0 65.34 26.53"><defs><style>.cls-1{fill:#d81a23;stroke-width:0px;}</style></defs><g id="Home"><path class="cls-1" d="M65.34,26.53H0V0h65.34v26.53ZM.39,26.14h64.57V.39H.39v25.76Z"/><path class="cls-1" d="M55.16,6.29V2.28h-11.14l-1.83,13.37-1.81-13.37h-4.02l.45,3.57c-.46-.91-2.11-3.57-5.73-3.57-.02,0-4.02,0-4.02,0l-.02,19.49-2.93-19.49h-5.26s-3.03,20.19-3.03,20.19V2.28s-5.03,0-5.03,0l-1.81,11.34-1.77-11.34H2.2v21.95h3.96v-10.58l1.8,10.58h2.11l1.78-10.58v10.58h7.64l.46-3.38h3.08l.46,3.38h7.5s0,0,0,0h0s0,0,0,0h0v-7.12l.92-.13,1.9,7.26h3.88,0s0,0,0,0h0l-2.5-8.51c1.27-.94,2.7-3.32,2.32-5.59h0s2.36,14.12,2.36,14.12h4.62s3.15-19.91,3.15-19.91v19.9h7.49v-3.95h-3.55v-5.03h3.55v-4.01h-3.55v-4.96h3.55ZM20.42,17.38l1.09-9.38,1.13,9.38h-2.22ZM31.95,13.04c-.31.15-.62.22-.93.22v-7.06s.01,0,.02,0c.31,0,2.63.09,2.63,3.49,0,1.78-.79,2.9-1.71,3.35h0ZM63.15,20.28v3.95h-7.3V2.28h3.93v18h3.37Z"/></g></svg>