<?xml version="1.0" encoding="UTF-8"?><svg id="Capa_2" xmlns="http://www.w3.org/2000/svg" viewBox="0 0 62.93 22.25"><defs><style>.cls-1{fill:#010101;}.cls-1,.cls-2{stroke-width:0px;}.cls-2{fill:#c2d401;}</style></defs><g id="Home"><path class="cls-1" d="M0,.2h4.94c2.26,0,3.61,1.68,3.61,3.59s-1.23,3.13-2.79,3.43h-.57l3.49,4.62h-1.4L3.19,6.29h1.5c1.51,0,2.66-.96,2.66-2.51,0-1.33-.85-2.48-2.46-2.48H1.21v10.54H0V.2Z"/><path class="cls-1" d="M14.34.2h1.76l4.56,11.64h-1.26l-1.13-2.89h-5.37l-.63-1.1h5.63l-2.66-6.77-4.26,10.76h-1.25L14.34.2Z"/><path class="cls-1" d="M20.95,5.95c0-3.29,2.56-5.95,5.84-5.95,2.43,0,4.42,1.5,5.31,3.64l-1.16.33c-.7-1.65-2.2-2.81-4.14-2.83-2.66-.02-4.64,2.13-4.64,4.81s1.95,4.79,4.64,4.79c1.96,0,3.44-1.13,4.14-2.79l1.16.32c-.86,2.13-2.84,3.63-5.31,3.63-3.31,0-5.84-2.68-5.84-5.94Z"/><path class="cls-1" d="M43.04,11.84h-1.51l-4.32-5.42-2.21,2.39v3.03h-1.21V.2h1.21v7.03L41.36.2h1.5l-4.86,5.32,5.04,6.32Z"/><path class="cls-1" d="M44.22.2h8.1v1.11h-6.9v4.16h6.24v1.08h-6.24v5.29h-1.2V.2ZM46.3,10.73h6.02v1.11h-5.36l-.66-1.11Z"/><path class="cls-1" d="M57.77,1.31h-4.07V.2h9.23v1.11h-4.89l.93,1.58v8.94h-1.2V1.31Z"/><path class="cls-2" d="M28.4,5.96c0,.9-.73,1.63-1.63,1.63s-1.63-.73-1.63-1.63.73-1.63,1.63-1.63,1.63.73,1.63,1.63Z"/><polygon class="cls-2" points="28.03 21.01 24.43 15.23 23.18 15.23 23.18 22.17 24.09 22.17 24.09 16.34 27.68 22.17 28.92 22.17 28.92 15.23 28.02 15.23 28.03 21.01"/><path class="cls-2" d="M39.31,19.5h.02c1.02-.2,1.7-1.04,1.7-2.09s-.75-2.19-2.19-2.19h-2.96v6.94h.93v-6.08h2.01c.9,0,1.31.66,1.31,1.32,0,.8-.57,1.34-1.42,1.34h-1.09l2.53,3.43h1.09l-2.01-2.67h.1Z"/><polygon class="cls-2" points="49.45 21.3 49.45 15.23 48.53 15.23 48.53 21.19 48.52 22.17 52.91 22.17 52.91 21.3 49.45 21.3"/><path class="cls-2" d="M15.83,19.8c-.41.97-1.27,1.56-2.3,1.56-1.45,0-2.58-1.17-2.58-2.67,0-.76.28-1.45.79-1.96.47-.47,1.11-.73,1.8-.72,1.03,0,1.89.6,2.3,1.57l.04.09.9-.26-.05-.12c-.55-1.35-1.78-2.19-3.19-2.19-.95,0-1.83.37-2.49,1.05-.65.67-1.02,1.57-1.02,2.53,0,2,1.54,3.57,3.51,3.57,1.42,0,2.64-.84,3.19-2.18l.05-.12-.9-.24-.04.09Z"/><polygon class="cls-2" points="29.66 16.09 32.01 16.09 32.01 22.17 32.93 22.17 32.93 17.32 32.22 16.09 35.21 16.09 35.21 15.23 29.66 15.23 29.66 16.09"/><polygon class="cls-2" points="44.18 15.22 41.43 22.17 42.39 22.17 43.05 20.5 44.77 16.15 46.14 19.64 43.08 19.64 42.73 20.5 43.22 19.88 43.58 20.5 46.45 20.5 47.1 22.17 48.07 22.17 45.35 15.22 44.18 15.22"/><polygon class="cls-2" points="18.73 21.27 18.73 21.27 19.28 22.17 22.31 22.17 22.31 21.27 18.73 21.27"/><polygon class="cls-2" points="18.33 21.27 18.33 21.27 18.33 19.12 21.93 19.12 21.93 18.27 18.33 18.27 18.33 16.09 22.31 16.09 22.31 15.23 17.41 15.23 17.41 22.17 18.33 22.17 18.33 21.27"/></g></svg>