<?xml version="1.0" encoding="UTF-8"?><svg id="Capa_2" xmlns="http://www.w3.org/2000/svg" viewBox="0 0 67.1 33.36"><defs><style>.cls-1{fill:#1d191a;stroke-width:0px;}</style></defs><g id="Home"><path id="path20" class="cls-1" d="M36.16.11c-.22.03-.43.84-.85,1.26-.31.3-.7.28-.9.66-.08.14-.05.38-.14.61-.17.46-.78.5-.78,1,0,.54.51.64.95,1.03.35.31.38.52.8.67.36.12.89-.28,1.37-.13.39.12.77.2.86.6.08.37,0,.95-.48.88-.16-.02-.86-.25-1.71-.16-1.03.12-2.21.45-2.32,1.6-.06.64.73,1.4,1.5,1.25.53-.1.28-.73.57-1.03.38-.39,2.53,1.36,4.52,1.36.84,0,1.46-.21,2.09-.86.06-.05.13-.16.22-.16.08,0,.23.09.28.13,1.61,1.29,2.82,3.88,8.73,3.91.83,0,1.78.4,2.55,1.11.69.64,1.09,1.63,1.48,2.63.59,1.51,1.65,2.98,3.26,4.61.09.09,1.41,1.12,1.52,1.19.02.01.11.24.08.37-.04.98-.18,3.83,1.94,3.96.52.03.38-.34.38-.59,0-.5-.09-.99.17-1.5.36-.7-.76-1.02-.73-2.53.02-1.13-.92-.93-1.4-1.79-.28-.5-.52-.76-.5-1.37.11-3.42-.73-5.67-1.14-6.22-.33-.42-.59-.58-.3-.78,1.77-1.17,2.17-2.26,2.17-2.26.94-2.22,1.79-4.24,2.96-5.13.24-.18.84-.63,1.21-.81,1.09-.51,1.66-.83,1.98-1.13.5-.49.9-1.51.42-2.12-.6-.76-1.63-.16-2.09.11-3.26,1.93-3.74,5.34-4.87,7.3-.9,1.56-2.36,2.71-3.67,2.81-.98.07-2.04-.13-3.09-.59-2.56-1.12-3.96-2.57-4.29-2.83-.69-.53-6.03-5.77-10.36-5.99,0,0-.54-1.08-.67-1.09-.32-.04-.64.64-.87.72-.22.07-.59-.74-.81-.7h0Z"/><path id="path24" class="cls-1" d="M17.11,31.41c-.41,0-.75-.34-.75-.76v-13.5s-4.45,0-4.45,0v14.88c0,.73.59,1.32,1.32,1.32h7.78c.73,0,1.31-.6,1.31-1.32v-14.88h-4.44v13.5c0,.41-.35.75-.76.76h0Z"/><path id="path28" class="cls-1" d="M32.01,17.15h-6.73c-.8,0-1.45.65-1.45,1.45v14.75h4.45v-13.53c0-.41.34-.74.75-.74s.75.32.76.73v13.54h4.44v-13.54c0-.41.34-.73.75-.73s.75.33.75.74v13.53h4.45v-14.75c0-.81-.65-1.45-1.45-1.45h-6.73Z"/><path id="path32" class="cls-1" d="M5.96,19.85c0-.45-.36-.77-.75-.77h-.76v8.2h.76c.39,0,.76-.31.75-.76v-6.66ZM8.94,29.29h-4.49v4.07H0v-16.2h8.97c.8,0,1.43.65,1.43,1.46v9.21c0,.81-.65,1.46-1.46,1.46h0Z"/><path id="path44" class="cls-1" d="M47.66,27.28v-7.46c-.01-.41-.34-.73-.76-.73s-.75.33-.75.74v7.45h1.51ZM47.66,33.36v-4.07h-1.51v4.07h-4.44v-14.75c0-.81.65-1.45,1.45-1.45h7.51c.8,0,1.45.65,1.45,1.45v14.75h-4.45Z"/></g></svg>