<?xml version="1.0" encoding="UTF-8"?><svg id="Capa_2" xmlns="http://www.w3.org/2000/svg" xmlns:xlink="http://www.w3.org/1999/xlink" viewBox="0 0 59.38 35.18"><defs><style>.cls-1{fill:#ec5327;}.cls-1,.cls-2,.cls-3,.cls-4,.cls-5{stroke-width:0px;}.cls-2{fill:#e32930;}.cls-3{fill:url(#Degradado_sin_nombre_5-2);}.cls-4{fill:#131718;}.cls-5{fill:url(#Degradado_sin_nombre_5);}</style><linearGradient id="Degradado_sin_nombre_5" x1="0" y1="10.63" x2="59.38" y2="10.63" gradientUnits="userSpaceOnUse"><stop offset="0" stop-color="#e3298b"/><stop offset="1" stop-color="#000"/></linearGradient><linearGradient id="Degradado_sin_nombre_5-2" x1="29.91" y1="28.12" x2="36.34" y2="28.12" xlink:href="#Degradado_sin_nombre_5"/></defs><g id="Home"><path class="cls-5" d="M41.14,6.09c-1.24,0-2.12.85-2.12,2.24v10.54c0,1.39.88,2.24,2.12,2.24s2.12-.85,2.12-2.24v-10.54c0-1.39-.91-2.24-2.12-2.24h0ZM41.14,4.79c1.33,0,2.39-1.06,2.39-2.39s-1.06-2.39-2.39-2.39-2.39,1.06-2.39,2.39,1.06,2.39,2.39,2.39h0ZM46.57,19.27c0,1,.79,1.85,1.88,1.85.64,0,1.27-.3,1.76-.94l2.76-3.64h.03l2.76,3.64c.48.64,1.12.94,1.76.94,1.09,0,1.88-.85,1.88-1.85,0-.45-.18-.94-.51-1.39l-3.45-4.51,3.09-4.03c.33-.45.51-.94.51-1.39,0-1-.79-1.85-1.88-1.85-.64,0-1.27.3-1.76.94l-2.39,3.15h-.03l-2.39-3.15c-.48-.64-1.12-.94-1.76-.94-1.09,0-1.88.85-1.88,1.85,0,.45.18.94.51,1.39l3.09,4.03-3.45,4.51c-.33.45-.51.94-.51,1.39h0ZM28.18,21.12c1.21,0,2.12-.85,2.12-2.24v-5.97c0-1.97.67-3.09,2.24-3.09.33,0,.79.06,1.09.15.3.09.61.15.91.15,1.24,0,2.09-.91,2.09-2.15,0-.73-.36-1.36-1.12-1.73-.39-.18-.88-.3-1.55-.3-1.67,0-3.03.85-3.7,1.82h-.03v-.03c-.24-1.06-1.06-1.64-2.06-1.64-1.24,0-2.12.85-2.12,2.24v10.54c0,1.39.88,2.24,2.12,2.24h0ZM16,9.42h.12c.12,0,.21.06.21.18v6.6c0,3.33,1.24,4.91,4.7,4.91h.18c1.61,0,2.33-.79,2.33-1.82,0-.91-.55-1.73-1.88-1.88-.79-.09-1.12-.45-1.12-1.33v-6.48c0-.12.06-.18.18-.18h1.15c1.09,0,1.7-.64,1.7-1.58s-.61-1.58-1.7-1.58h-1.15c-.12,0-.18-.06-.18-.18v-2.18c0-1.39-.88-2.24-2.09-2.24s-2.12.85-2.12,2.24v2.18c0,.12-.09.18-.21.18h-.12c-1.09,0-1.7.64-1.7,1.58s.61,1.58,1.7,1.58h0ZM6.6,17.94c-1.42,0-2.55-.45-3.6-1.06-.48-.27-.85-.39-1.24-.39-.97,0-1.76.76-1.76,1.7,0,.7.3,1.24,1.03,1.7,1.21.76,3.06,1.39,5.36,1.39,4.15,0,6.54-2.03,6.54-5.03,0-2.45-1.42-4.06-4.88-4.45l-1.61-.18c-1.67-.18-2.03-.55-2.03-1.21,0-.7.55-1.15,1.85-1.15,1.06,0,2.06.21,2.97.64.58.27.91.36,1.21.36,1,0,1.67-.73,1.67-1.67,0-.73-.42-1.24-1.24-1.67-1.24-.64-2.82-.97-4.45-.97C2.58,5.94.36,7.79.36,10.66c0,2.54,1.61,4.12,4.79,4.48l1.61.18c1.73.18,2.12.55,2.12,1.24,0,.82-.73,1.36-2.27,1.36h0Z"/><polygon class="cls-4" points="21.76 26.32 23.25 26.32 23.26 30.43 25.86 30.43 25.86 31.78 21.76 31.78 21.76 26.32"/><path class="cls-4" d="M38.84,26.32l-2.32,5.46h1.59l.39-.97h2.1l.4.97h1.62l-2.32-5.46h-1.46ZM38.95,29.65l.62-1.54.61,1.54h-1.22Z"/><polygon class="cls-4" points="50.8 28.66 52.86 26.32 51.07 26.32 49.2 28.53 49.2 26.32 47.7 26.32 47.7 31.78 49.2 31.78 49.2 30.37 49.75 29.75 51.12 31.78 52.93 31.78 50.8 28.66"/><path class="cls-4" d="M45.9,30.09c-.09.08-.17.15-.27.21-.09.06-.2.1-.31.13-.12.03-.24.05-.38.05-.19,0-.36-.04-.52-.11-.16-.07-.29-.18-.41-.3-.11-.13-.2-.28-.26-.46-.06-.18-.09-.37-.09-.57v-.02c0-.19.03-.38.09-.55.06-.18.15-.33.26-.45.12-.13.25-.23.41-.3.16-.07.33-.11.52-.11.26,0,.48.06.67.17.18.11.35.27.51.46l1.12-.87c-.12-.16-.25-.31-.4-.45-.15-.14-.32-.26-.51-.36-.19-.1-.39-.18-.62-.23-.22-.05-.48-.08-.75-.08-.41,0-.79.07-1.13.21-.34.15-.64.34-.89.6-.25.25-.45.55-.59.89-.14.34-.22.7-.22,1.09v.02c0,.4.08.77.22,1.11.14.34.34.64.59.88.25.25.54.44.88.58.34.14.7.21,1.08.21.29,0,.56-.03.8-.09.24-.06.45-.15.64-.25.19-.11.37-.24.51-.38s.29-.31.42-.48l-1.12-.8c-.08.1-.17.18-.25.26h0Z"/><polygon class="cls-3" points="33.88 26.76 36.34 21.05 32 28.13 32.97 28.11 31.39 30.7 31.95 30.7 29.91 35.18 34.1 29.3 33.57 29.31 35.2 26.63 33.88 26.76"/><polygon class="cls-2" points="36.34 21.05 32 28.13 33.03 28.01 32.97 28.11 31.39 30.7 32 30.61 31.95 30.7 29.91 35.18 34.1 29.3 33.39 29.42 35.2 26.63 33.68 26.87 36.34 21.05"/><polygon class="cls-1" points="33.24 27.88 33.06 28.16 31.6 30.56 32.19 30.47 30.12 34.8 34.38 27.02 33.14 27.19 35.8 22.06 32.2 28 33.24 27.88"/><path class="cls-4" d="M35.28,29.85c0,.24-.05.42-.16.54-.11.12-.25.18-.43.18-.16,0-.3-.04-.42-.12-.03-.02-.07-.05-.1-.08l-.58.79-.17.24c.09.07.19.14.26.18.15.08.31.14.49.18.18.04.38.07.61.07h0c.29,0,.56-.05.8-.13.23-.09.44-.22.61-.39.17-.17.3-.38.38-.61.08-.24.13-.51.13-.84v-4.13l-1.42,1.99v2.13Z"/><path class="cls-4" d="M31.63,28.75h-.92l.69-1.18c-.49-.81-1.4-1.34-2.49-1.34-1.66,0-2.91,1.25-2.91,2.8h0c0,1.56,1.23,2.8,2.89,2.8h.04c.32,0,.62-.05.9-.13l1.81-2.95ZM28.91,30.49c-.82,0-1.38-.68-1.38-1.45v-.02c0-.78.55-1.44,1.36-1.44s1.38.68,1.38,1.45h0c0,.79-.55,1.45-1.37,1.45h0Z"/><path class="cls-4" d="M7.85,26.37h2.77c.34,0,.63.04.87.12.24.08.44.2.6.36.11.11.19.23.26.38.06.14.09.31.09.49v.02c0,.31-.08.57-.24.76-.16.19-.35.34-.6.44.33.11.59.27.79.47.19.2.29.49.29.85v.02c0,.47-.18.83-.54,1.1-.36.26-.86.39-1.51.39h-2.79v-5.4ZM10.25,28.53c.23,0,.41-.04.53-.12.12-.08.18-.2.18-.36v-.02c0-.15-.06-.26-.17-.34-.11-.08-.28-.12-.51-.12h-.97v.95h.94ZM10.46,30.57c.23,0,.41-.04.53-.13.12-.09.19-.21.19-.37v-.02c0-.15-.06-.27-.18-.35-.12-.09-.3-.13-.56-.13h-1.14v1h1.16Z"/><polygon class="cls-4" points="14.93 29.75 12.87 26.37 14.58 26.37 15.69 28.34 16.81 26.37 18.48 26.37 16.43 29.73 16.43 31.78 14.93 31.78 14.93 29.75"/></g></svg>