<?xml version="1.0" encoding="UTF-8"?><svg id="Capa_2" xmlns="http://www.w3.org/2000/svg" viewBox="0 0 59.81 52.41"><defs><style>.cls-1{stroke-width:0px;}</style></defs><g id="Home"><path class="cls-1" d="M37.75,18.69l-10,18.69h-2.86s-10-18.69-10-18.69L24.89,0h2.86s-10,18.69-10,18.69l8.57,16.02,8.57-16.02-5-9.35,1.43-2.67,6.43,12.02ZM33.46,0h-2.86s-10,18.69-10,18.69l6.43,12.02,1.43-2.67-5-9.35L32.03,2.67l8.57,16.02-10,18.69h2.86s10-18.69,10-18.69L33.46,0ZM59.81,44.86v1.51h-2.87v5.92h-1.93v-5.92h-2.87v-1.51h7.67ZM48.76,44.86h-1.93v7.43h6.15v-1.51h-4.21v-5.92ZM11.55,49.25h4.02v-1.43h-4.02v-1.45h4.4v-1.51h-6.34v7.43h6.46v-1.51h-4.52v-1.53ZM24.17,44.86v4.88l-4.43-4.88h-1.65v7.43h1.74s0-4.88,0-4.88l4.4,4.88h1.67v-7.43h-1.73ZM40.8,52.41c2.19,0,3.83-.93,3.83-3.17v-4.38s-1.95,0-1.95,0c0,0,0,4.22,0,4.38,0,.75-.28,1.64-1.88,1.64-1.61,0-1.88-.89-1.88-1.64v-4.38h-1.95v4.38c0,2.24,1.65,3.17,3.83,3.17ZM33.53,50.91h-3.78l-.58,1.38h-1.99s3.2-7.43,3.2-7.43h2.51l3.2,7.43h-1.99l-.58-1.38ZM32.9,49.4l-1.26-3.01-1.26,3.01h2.52ZM7.76,52.3l-1.58-2.71c.86-.42,1.32-1.23,1.32-2.2,0-1.45-1.01-2.53-2.89-2.53H0v7.43h1.94v-2.38h2.4l1.29,2.38h2.13ZM5.52,47.39c0,.59-.41,1.02-1.17,1.02H1.94v-2.04h2.41c.76,0,1.17.43,1.17,1.02Z"/></g></svg>