<?xml version="1.0" encoding="UTF-8"?><svg id="Capa_2" xmlns="http://www.w3.org/2000/svg" viewBox="0 0 68.36 28.67"><defs><style>.cls-1{fill:#e5cd6c;}.cls-1,.cls-2{stroke-width:0px;}.cls-2{fill:#eb0009;}</style></defs><g id="Home"><path class="cls-1" d="M41.6,1.68c-.18.08-.03-.07-.03-.07,1.7-1.58,3.08-1.16,3.08-1.16.31.03.03-.09.03-.09-2.21-.83-3.11-.06-4.13.72-1,.78-1.15,1.03-2.06,1.13-1.3.14-2.01.74-2.01.74-.08.04-.08,0-.08,0,1.37-2.57,3.23-2.5,3.23-2.5.18-.02.06-.06.06-.06-.18-.03-.48-.03-.48-.03-2.51-.21-3.6,1.32-4.03,1.96-.44.64-.46,1.21-1.34,2.09-.86.88-2.59,1.31-2.59,1.31-.11.04-.04-.05-.04-.05.28-.42,1.05-1.49,1.05-1.49,1.31-1.76,2.51-1.89,2.51-1.89.14-.02.01-.07.01-.07-2.6.02-3.83,1.15-4.32,1.87-.44.62-.82,1-.82,1-1.32.95-3.32-.66-3.32-.66-.4-.32-.96-.25-.96-.25-3.26-2.3-6.8-.7-6.8-.7.01.13-.14.25-.14.25-.3.09-.23.5-.23.5.78.03,4.32-2.07,7.59,1.02,2.25,1.43,3.82,1.57,3.82,1.57,1.25.22,2.44.78,2.44.78,3.2.93,5.42-.42,5.42-.42,1.65-1.17,2.27-1.13,2.46-1.16.19-.03.04-.09.04-.09-3.21-1.5-4.88-1.15-4.88-1.15-.12,0-.03-.05-.03-.05,0,0,1.06-.47,2.81.08,2.04.64,4,.39,4.9-.09.89-.46,1.71-.35,1.71-.35.17.02.02-.11.02-.11-2.02-1.51-3.71-1.9-3.71-1.9-.19-.06.02-.06.02-.06,1.2,0,2.38.77,2.38.77,2.53,1.44,3.95,1.06,4.43,1.06s.78.14.78.14c.32.12.05-.19.05-.19-3.66-4.1-6.84-2.4-6.84-2.4h0ZM50.02,2.59c.06.02.11.05.16.07,0-.08-.07-.12-.13-.14-.33-.38-.69-.68-1.09-.99-.23-.18-.46-.31-.72-.44-.28-.11-.57-.24-.86-.32-.9-.28-1.86-.16-2.72.15.06.02.12.04.18.06-.06.02-.1.04-.1.04-.05.02-.06.06.02.07.08.02.69.09,1.3.52.6.44,2.18,1.06,2.85,1,.68-.07,1.06.12,1.06.12.24.13.05-.11.05-.11,0,0,0,0-.01-.02h0Z"/><path class="cls-2" d="M18.84,22.66c-.25-.45-.3-.89-.3-2.66v-9.83c0-1.67.43-2.41,1.42-2.41.12,0,.2,0,.32.06v-.73c-.3-.1-.45-.14-.76-.14s-.66.03-1.07.05c-.48.05-.83.08-1.12.08-.22,0-.63-.03-1.17-.09-.45-.02-.83-.05-1.16-.05-.45,0-.61.03-.96.14v.67c.13-.02.18-.02.31-.02.76,0,1.22.38,1.22,1.02,0,.25-.08.53-.21.85l-4.76,11.13-5.54-12.4c-.18-.4-.28-.81-.28-1.08,0-.1,0-.16.05-.26l-.43-.46c-.41.36-.81.51-1.42.51-.08,0-.15-.03-.23-.03l-1.01-.08c-.18,0-.34-.02-.51-.02-.43,0-.83.06-1.24.16v.67h.2c.48,0,1.16.16,1.47.36.48.3.65.78.65,1.9v9.76c0,2.03-.15,7.33-.63,7.74-.25.2-.86.38-1.26.38h-.18v.73c.23.05.3.05.63.05.43,0,.89-.03,1.42-.1.68-.08,1.01-.13,1.26-.13.15,0,.35.03.63.05.38.05.66.08.84.08.2,0,.33-.02.58-.1v-.66h-.1c-.61,0-1.27-.23-1.57-.55-.48-.48-.6-5.66-.61-7.84v-8.13s5.85,13,5.85,13h1.06l5.55-12.9v8.54c0,2.18-.17,2.84-.99,3.29-.33.18-.48.2-.87.23v.69c.21.04.29.04.53.04.38,0,.87-.02,1.43-.13.73-.1,1.26-.18,1.6-.18.2,0,.55.06.99.1.48.08.86.1,1.14.1.23,0,.38-.03.71-.1v-.63h-.05c-.71-.05-1.22-.28-1.45-.68h0ZM23.94,19.89c-.21-.3-.27-.73-.27-1.83v-5.87c0-.98.08-1.37.31-1.58.13-.13.47-.24.74-.24h.08v-.44h-.02c-.26-.07-.49-.1-.72-.1-.16,0-.38.01-.63.04-.33.04-.56.04-.7.04-.13,0-.34,0-.67-.03-.31-.02-.55-.03-.72-.04-.29,0-.35.02-.52.09v.44s.06-.02.12-.02c.26,0,.57.13.71.28.21.24.26.56.26,1.57v6c0,1.88-.16,2.19-1.19,2.26h-.04v.44c.14.01.21.03.37.03.16,0,.6-.03.94-.07.52-.05.76-.08,1.04-.08.16,0,.4.01.67.03.35.03.62.03.78.03.21,0,.31,0,.54-.05v-.44s-.05,0-.05,0c-.54-.05-.88-.21-1.05-.48h0ZM35.49,20.01v.03c0,.84-.29,1.52-.77,1.86-.47.31-.82.35-2.27.35h-2.76v-7.66c0-1.1.08-1.52.39-1.75.18-.16.47-.23.8-.23.28,0,.64.07.8.16v-.49c-.26-.16-.73-.26-1.21-.26-.21,0-.51,0-.85.03-.28.01-.51.03-.67.03-.21,0-.39-.02-.82-.05-.29-.04-.55-.03-.78-.03-.26,0-.37.02-.63.06v.46h.13c.29,0,.6.09.75.21.26.23.34.57.34,1.52v6.26c0,1.55-.24,1.94-1.19,2v.43h.05l1.76-.03,5.54.07c.78,0,.92.03.98.25h.4s-.02-.06-.02-.09c0-.21.04-.45.11-.69l.16-.61c.15-.52.24-.98.24-1.37,0-.23,0-.29-.07-.47h-.42ZM58.06,8.18c-.2,0-.45.02-.71.04-.5.04-.81.07-.92.07-.21,0-.52-.03-.96-.07-.34-.04-.66-.04-.9-.04-.32,0-.43.02-.7.08v.61q.09-.03.18-.02c.41,0,.94.16,1.26.36.64.4.85,1.03.85,2.69v7.85l-8.38-10.67c-.21-.29-.39-.67-.39-.89,0-.03,0-.05.01-.07l-.56-.27c-.18.27-.53.42-.96.42-.2,0-.49-.02-.85-.06-.36-.05-.72-.07-.94-.07-.32,0-.7.07-1.03.13v.59s.04,0,.04,0c.92,0,1.36.2,2.02.9.29.31.37.42.61.76v8.2c0,3.32-.32,4.04-1.77,4.04h-.02v.6c.18.05.27.07.47.07s.72-.04,1.07-.09c.47-.07.74-.09,1.03-.09.14,0,.36.03.61.03.36.03.6.05.8.05.29,0,.43-.02.7-.09v-.59h-.05c-.53,0-1.12-.19-1.39-.46-.44-.47-.54-.99-.54-3.32v-7.26l9.18,11.76h1.19v-11.47c0-1.57.11-2.2.47-2.58.27-.29.62-.42,1.11-.42h.14v-.61c-.25-.06-.34-.08-.67-.08h0ZM42.86,11.49h-.07c-.09,0-.23-.05-.29-.13-.05-.04-.25-.3-.6-.76-.78-.96-2.08-1.57-3.4-1.57-2.66,0-4.74,2.13-4.74,4.82,0,2.78,2.04,4.88,4.72,4.88,1.65,0,3.01-.65,4.22-2.03l.02-.05-.43-.42-.07.05c-.98.78-1.81,1.13-2.73,1.13-1.5,0-2.71-1.02-3.18-2.66l6.68-2.71-.15-.53ZM36.14,13.88c-.09-.36-.11-.52-.11-.92,0-1.76.98-3.11,2.3-3.11,1.03,0,1.9.82,2.32,2.21l-4.52,1.81ZM68.25,18.85c-.29.11-.38.13-.64.13-.61,0-.92-.58-.92-1.7v-3.43c0-1.15-.23-1.73-.9-2.24-.63-.49-1.53-.78-2.42-.78-1.32,0-2.84.7-4.16,1.9l-.02.03.43.49.02-.03c.99-.69,1.97-1.05,2.77-1.05,1.37,0,2.01.69,2.06,2.24v.14l-1.99.65c-2.66.89-3.58,1.7-3.58,3.13s1.03,2.38,2.53,2.38c1.09,0,2.07-.47,3.2-1.5.22.61.57,1.08,1.07,1.39l.03-.02c.25-.14.72-.31,1.36-.59.58-.25,1.01-.41,1.23-.46l.05-.02-.11-.65ZM64.47,17.91c0,.85-.8,1.49-1.92,1.49-.74,0-1.3-.62-1.3-1.41,0-.87.58-1.48,1.86-2.01l1.36-.57v2.49Z"/></g></svg>