<?xml version="1.0" encoding="UTF-8"?><svg id="Capa_2" xmlns="http://www.w3.org/2000/svg" viewBox="0 0 43.84 23.9"><defs><style>.cls-1{fill:#533173;stroke-width:0px;}</style></defs><g id="Home"><path class="cls-1" d="M23.44,6.33h-4.19v6.33c0,1.35-2.77,1.27-2.77.08v-6.41h-4.34v6.41c-.04,3.87,3.69,6.26,7.04,4.88,0,1.13.09,2.05-1.32,2.04-.28,0-1.25-.09-1.25-1.11h-4.45c0,1.43.76,3.16,2.12,4.25,2.23,1.52,5.51,1.38,7.61-.3.49-.46.88-1.01,1.15-1.66.27-.64.41-1.36.41-2.14V6.33Z"/><path class="cls-1" d="M28.47,6.33c0-.91.08-1.19.4-1.48.38-.35.96-.4,1.71-.4h2.32V.03c-3.08,0-4.69-.3-6.75,1.06-1.34.96-2.13,2.4-2.13,4.22v12.15h4.46v-6.82h3.67v-4.32h-3.67Z"/><path class="cls-1" d="M7.28,5.88c-.05-1.16-.59-1.66-1.53-1.66-1.13,0-1.62,1.25-.56,1.81,2.81,1.47,6.27,2.03,6.67,5.67.38,3.41-2.07,6.22-5.73,6.22-1.63,0-3.13-.44-4.24-1.45C.78,15.45-.11,14.02.07,11.5h4.25c0,1.33.54,2.2,1.58,2.22,1.04.01,1.85-.62,1.47-1.46-.17-.38-1.23-.84-2.37-1.4-1.16-.56-2.16-1.03-2.92-1.62-.76-.59-2.09-1.55-2.09-4.01,0-1.92.87-3.13,1.94-3.97C3.01.42,4.04.04,5.96.04c3.67-.04,5.79,2.42,5.79,5.86l-4.48-.03Z"/><path class="cls-1" d="M43.84,6.33h-4.14v6.35c0,1.36-2.73,1.27-2.73.08v-6.43h-4.29v6.43c-.04,3.88,3.64,6.28,6.95,4.89,0,1.13.09,2.06-1.3,2.05-.28,0-1.23-.1-1.23-1.12h-4.4c0,1.43.75,3.17,2.09,4.26,2.2,1.52,5.44,1.38,7.51-.31.49-.46.86-1.02,1.13-1.66.27-.65.4-1.36.4-2.15V6.33Z"/></g></svg>