<?xml version="1.0" encoding="UTF-8"?><svg id="Capa_2" xmlns="http://www.w3.org/2000/svg" viewBox="0 0 41.77 41.77"><defs><style>.cls-1{fill:#001e50;stroke-width:0px;}</style></defs><g id="Home"><path class="cls-1" d="M20.89,39.85C10.49,39.85,1.96,31.29,1.96,20.89c0-2.34.42-4.55,1.21-6.64l11.07,22.27c.13.29.33.54.67.54s.54-.25.67-.54l5.1-11.4c.04-.13.13-.25.25-.25s.17.13.25.25l5.1,11.4c.13.29.33.54.67.54s.54-.25.67-.54l11.07-22.27c.79,2.09,1.21,4.3,1.21,6.64-.08,10.4-8.61,18.97-19.01,18.97ZM20.89,16.58c-.13,0-.17-.13-.25-.25L14.7,2.97c1.92-.71,4.01-1.09,6.18-1.09s4.26.38,6.18,1.09l-5.93,13.37c-.08.17-.13.25-.25.25ZM14.83,30.33c-.13,0-.17-.13-.25-.25L4.97,10.69c1.71-2.63,4.01-4.85,6.81-6.39l6.93,15.41c.08.25.29.33.5.33h3.34c.25,0,.42-.04.54-.33l6.93-15.41c2.76,1.55,5.1,3.76,6.81,6.39l-9.69,19.38c-.04.13-.13.25-.25.25s-.17-.13-.25-.25l-3.63-8.27c-.13-.29-.29-.33-.54-.33h-3.34c-.25,0-.42.04-.54.33l-3.51,8.27c-.04.13-.13.25-.25.25ZM20.89,41.77c11.57,0,20.89-9.32,20.89-20.89S32.46,0,20.89,0,0,9.32,0,20.89s9.32,20.89,20.89,20.89Z"/></g></svg>