<?xml version="1.0" encoding="UTF-8"?><svg id="Capa_2" xmlns="http://www.w3.org/2000/svg" viewBox="0 0 81.2 24.99"><defs><style>.cls-1{fill:lime;stroke-width:0px;}</style></defs><g id="Home"><path class="cls-1" d="M35.78,12.68h0c.7,0,1.2.68.99,1.34l-2.99,9.64c-.19.61-.75,1.02-1.39,1.02h0c-.63,0-1.2-.41-1.39-1.02l-2.49-7.87-2.49,7.87c-.19.6-.75,1.02-1.39,1.02h0c-.64,0-1.2-.41-1.39-1.02l-2.99-9.64c-.21-.67.29-1.34.99-1.34h0c.46,0,.87.3,1,.75l2.43,8.38,2.53-8.16c.18-.57.71-.96,1.31-.96h0c.6,0,1.13.39,1.31.96l2.54,8.19,2.43-8.4c.13-.44.53-.75,1-.75Z"/><path class="cls-1" d="M48.58,12.67h.17c.53,0,.96.43.96.96v10c0,.58-.47,1.04-1.04,1.04h0c-.58,0-1.04-.47-1.04-1.04v-1.02c-1.03,1.58-2.55,2.38-4.54,2.38-1.68,0-3.12-.6-4.3-1.83-1.18-1.22-1.78-2.74-1.78-4.49s.6-3.24,1.78-4.47c1.18-1.22,2.62-1.85,4.3-1.85,1.9,0,3.36.72,4.38,2.15.05.07.16.03.16-.05v-.83c0-.53.43-.96.96-.96ZM46.4,21.75c.82-.84,1.22-1.85,1.22-3.07s-.41-2.23-1.22-3.05c-.82-.84-1.83-1.25-3.05-1.25s-2.21.41-3.03,1.25c-.82.82-1.22,1.83-1.22,3.05s.41,2.23,1.22,3.07c.82.82,1.83,1.22,3.03,1.22s2.23-.41,3.05-1.22Z"/><path class="cls-1" d="M62.35,17.31v6.33c0,.58-.47,1.04-1.04,1.04h0c-.58,0-1.04-.47-1.04-1.04v-6.21c0-1.95-1.13-3.07-2.98-3.07-2.09,0-3.48,1.27-3.48,3.96v5.32c0,.58-.47,1.04-1.04,1.04h0c-.58,0-1.04-.47-1.04-1.04v-9.92c0-.58.47-1.04,1.04-1.04h0c.58,0,1.04.47,1.04,1.04v.4c0,.08.11.12.16.05.84-1.21,2.09-1.8,3.73-1.8,2.81,0,4.66,1.9,4.66,4.95Z"/><path class="cls-1" d="M76.56,14.61c.56,0,1.01-.45,1.01-1.01h0c0-.56-.45-1.01-1.01-1.01h-2.19s0-2.97,0-2.97c0-.56-.42-1.04-.98-1.08-.61-.04-1.11.44-1.11,1.04v3.01h-4.99v-2.97c0-.56-.42-1.04-.98-1.08-.61-.04-1.11.44-1.11,1.04v3.01h-1.37c-.56,0-1.01.45-1.01,1.01h0c0,.56.45,1.01,1.01,1.01h1.37v6.51c0,2.71,1.35,3.77,4.34,3.58.51-.03.94-.43.95-.94.01-.55-.44-1-.99-.98-1.47.04-2.2-.12-2.2-1.65v-6.51h4.99v6.51c0,2.71,1.35,3.77,4.34,3.58.51-.03.94-.43.95-.94.01-.55-.44-1-.99-.98-1.47.04-2.2-.12-2.2-1.65v-6.51h2.19Z"/><path class="cls-1" d="M78.48,9.7c0-.73.59-1.36,1.34-1.37.7-.01,1.29.54,1.36,1.23.08.8-.55,1.48-1.34,1.48s-1.37-.6-1.37-1.34ZM78.75,23.63v-9.98c0-.58.47-1.04,1.04-1.04h0c.58,0,1.04.47,1.04,1.04v9.98c0,.58-.47,1.04-1.04,1.04h0c-.58,0-1.04-.47-1.04-1.04Z"/><path class="cls-1" d="M12.47,11.1s-.05-.03-.06-.06c-.47-1.5-1.84-2.51-3.42-2.51h-1.57c-.19,0-.34.15-.34.34v1.32c0,.19.15.34.34.34h1.57c.7,0,1.29.46,1.51,1.12.28.87,1.06,1.45,1.97,1.45.87,0,1.57.71,1.57,1.57v4.58c0,1.9-1.54,3.44-3.44,3.44h-.63c-.55,0-1,.45-1,1h0c0,.55.45,1,1,1h.63c3.01,0,5.45-2.44,5.45-5.45v-4.58c0-1.97-1.6-3.58-3.58-3.58Z"/><path class="cls-1" d="M7.73,16.31h-2.51s0,0,0,0c-.27,0-.52.11-.71.29l-.23.23c-.61.61-.61,1.59,0,2.19l.08.08c.13.13.35.13.49,0l.79-.79h2.1c1.63,0,2.96-1.36,2.9-3.01-.06-1.57-1.4-2.79-2.97-2.79h-3.02c-.73,0-1.41.28-1.92.8l-1.91,1.91C.29,15.74,0,16.42,0,17.15v2.11c0,3.01,2.44,5.45,5.45,5.45h.54c.55,0,1-.45,1-1h0c0-.55-.45-1-1-1h-.54c-1.9,0-3.44-1.54-3.44-3.44v-2.11c0-.19.07-.37.21-.51l1.91-1.91c.13-.13.32-.21.51-.21h3.06c.45,0,.86.33.92.78.07.54-.35,1.01-.89,1.01Z"/><path class="cls-1" d="M.39,13.75c.09,0,.17-.03.24-.09h0s1.27-1.27,1.27-1.27c0,0,0,0,0,0l.02-.02h0c.05-.07.08-.14.08-.22v-.22h0V2.99c0-.52.4-.96.92-.98.27,0,.52.09.71.28.18.18.28.42.28.67v7.09s0,0,0,0v.16c0,.19.15.34.34.34h1.32c.19,0,.34-.15.34-.34v-.22h0V2.96c.01-.92-.41-1.77-1.15-2.35-.38-.29-.82-.49-1.29-.56C1.62-.27,0,1.16,0,2.96v10.35s0,.04,0,.07c0,.21.17.39.39.39Z"/></g></svg>