<?xml version="1.0" encoding="UTF-8"?><svg id="Capa_2" xmlns="http://www.w3.org/2000/svg" viewBox="0 0 63.6 45.09"><defs><style>.cls-1{fill:#32193f;}.cls-1,.cls-2,.cls-3{stroke-width:0px;}.cls-2{fill:#4d225f;}.cls-3{fill:#b3b3b3;}</style></defs><g id="Home"><path class="cls-2" d="M49.85,27.24c-2.1,8.44-9.71,14.7-18.78,14.7s-16.69-6.26-18.78-14.7h-3.23c.77,3.62,2.4,6.92,4.67,9.67l3.1-.22-.33,3.03c3.93,3.35,9.01,5.37,14.57,5.37,10.82,0,19.85-7.65,22.01-17.85h-3.23ZM9.29,16.83h3.28c2.44-7.92,9.8-13.67,18.5-13.67s16.06,5.75,18.5,13.67h3.27C50.31,7.14,41.53,0,31.07,0S11.79,7.12,9.29,16.83h0Z"/><path class="cls-3" d="M49.55,27.24c-2.09,8.27-9.58,14.4-18.48,14.4s-16.38-6.13-18.48-14.4h-.3c2.09,8.44,9.71,14.7,18.78,14.7s16.68-6.26,18.78-14.7h-.3Z"/><path class="cls-2" d="M49.55,27.24c-2.09,8.27-9.58,14.4-18.47,14.4s-16.38-6.13-18.48-14.4h-.3c2.09,8.44,9.71,14.7,18.78,14.7s16.68-6.26,18.78-14.7h-.3Z"/><path class="cls-2" d="M31.07,3.15c-8.7,0-16.06,5.75-18.5,13.67h.31c2.43-7.74,9.66-13.38,18.19-13.38s15.76,5.63,18.18,13.38h.31c-2.44-7.92-9.8-13.67-18.5-13.67h0Z"/><path class="cls-2" d="M15.49,29.38h0c0-1.18.88-2.14,2.14-2.14.78,0,1.24.26,1.62.64l-.58.66c-.32-.29-.64-.46-1.05-.46-.69,0-1.19.58-1.19,1.28h0c0,.72.49,1.31,1.19,1.31.47,0,.76-.19,1.08-.48l.57.58c-.42.45-.89.73-1.69.73-1.21,0-2.11-.94-2.11-2.12h0Z"/><polygon class="cls-2" points="20.22 27.31 21.13 27.31 21.13 28.94 22.79 28.94 22.79 27.31 23.7 27.31 23.7 31.43 22.79 31.43 22.79 29.77 21.13 29.77 21.13 31.43 20.22 31.43 20.22 27.31"/><path class="cls-2" d="M26.28,27.28h.83l1.76,4.15h-.95l-.38-.92h-1.74l-.38.92h-.92l1.76-4.15ZM27.23,29.7l-.55-1.34-.54,1.34h1.09Z"/><polygon class="cls-2" points="29.6 27.31 30.44 27.31 32.36 29.85 32.36 27.31 33.26 27.31 33.26 31.43 32.49 31.43 30.49 28.81 30.49 31.43 29.6 31.43 29.6 27.31"/><polygon class="cls-2" points="34.66 27.48 35.5 27.48 37.43 30.03 37.43 27.48 38.33 27.48 38.33 31.62 37.56 31.62 35.56 28.99 35.56 31.62 34.66 31.62 34.66 27.48"/><polygon class="cls-2" points="39.6 27.48 42.72 27.48 42.72 28.29 40.5 28.29 40.5 29.13 42.45 29.13 42.45 29.94 40.5 29.94 40.5 30.81 42.75 30.81 42.75 31.62 39.6 31.62 39.6 27.48"/><polygon class="cls-2" points="43.93 27.48 44.84 27.48 44.84 30.79 46.9 30.79 46.9 31.62 43.93 31.62 43.93 27.48"/><path class="cls-1" d="M5.01,22.52c0,.26-.03.49-.1.69-.2.61-.68.9-1.33.9-.42,0-.76-.13-1.01-.38-.26-.27-.41-.69-.41-1.26v-4.29H0v4.33c0,.71.12,1.3.34,1.79.5,1.11,1.52,1.66,2.91,1.73h.6c1.92-.1,3.18-1.11,3.3-3.25,0-.11,0-.22,0-.33v-4.28h-2.16v4.34Z"/><polygon class="cls-1" points="13.21 21.92 13.21 22.26 12.97 21.95 10.04 18.18 8.05 18.18 8.05 22.66 8.05 25.9 10.16 25.9 10.16 22.32 10.16 21.66 10.62 22.25 13.46 25.9 15.32 25.9 15.32 21.69 15.32 18.18 13.21 18.18 13.21 21.92"/><polygon class="cls-1" points="16.29 21.62 16.29 25.9 18.42 25.9 18.42 21.44 18.42 18.18 16.29 18.18 16.29 21.62"/><polygon class="cls-1" points="23.72 21.15 23.03 23.06 22.37 21.21 21.29 18.18 18.91 18.18 20.17 21.33 22.02 25.95 24 25.95 25.96 21.09 27.13 18.18 24.79 18.18 23.72 21.15"/><polygon class="cls-1" points="29.81 22.85 33.51 22.85 33.51 21.17 29.81 21.17 29.81 21.05 29.81 19.99 33.89 19.99 33.89 18.18 27.7 18.18 27.7 21.06 27.7 25.9 33.95 25.9 33.95 24.08 29.81 24.08 29.81 22.85"/><path class="cls-1" d="M41.71,21.62c.04-.2.07-.42.07-.65v-.02c0-.76-.23-1.35-.69-1.81-.52-.52-1.34-.83-2.52-.83h-3.66v7.75h2.14v-2.35h.95l1.56,2.35h2.47l-1.85-2.7c.77-.33,1.33-.9,1.52-1.74h0ZM38.49,22.03h-1.43v-1.87h1.42c.71,0,1.16.31,1.16.93v.02c0,.14-.03.26-.07.37-.15.34-.53.55-1.08.55h0Z"/><path class="cls-1" d="M48.74,23.65c0-.63-.21-1.1-.59-1.45-.5-.46-1.28-.74-2.28-.96-1.08-.24-1.35-.4-1.35-.75v-.02c0-.29.25-.5.77-.5.68,0,1.46.25,2.16.76l1.07-1.52c-.84-.67-1.87-1.03-3.18-1.03-1.86,0-2.99,1.04-2.99,2.48v.02c0,.4.08.73.22,1,.44.81,1.46,1.15,2.69,1.43,1.06.26,1.32.42,1.32.75v.02c0,.33-.31.53-.9.53-.89,0-1.73-.32-2.51-.93l-1.19,1.43c.96.85,2.26,1.28,3.62,1.28,1.88,0,3.13-.94,3.13-2.52v-.02Z"/><path class="cls-1" d="M53.87,18.26h-2.07l-1.74,4.14-1.54,3.67h2.24l.55-1.39h2.99l.55,1.39h2.3l-1.2-2.84-2.09-4.96ZM51.95,23l.14-.34.74-1.85.81,2.06.05.13h-1.74Z"/><polygon class="cls-1" points="61.49 24.18 59.85 24.18 59.85 23.86 59.85 18.31 57.7 18.31 57.7 23.48 57.7 26.06 63.6 26.06 63.6 24.63 63.6 24.18 61.49 24.18"/></g></svg>