<?xml version="1.0" encoding="UTF-8"?><svg id="Capa_2" xmlns="http://www.w3.org/2000/svg" viewBox="0 0 68.36 34.18"><defs><style>.cls-1,.cls-2{stroke-width:0px;}.cls-2{fill:none;}</style></defs><g id="Home"><path class="cls-1" d="M0,25.17h6.8v4.87h-2.71l3.22,4.14h-1.6l-3.27-4.14h-1.24v4.14H0v-9ZM5.59,26.36H1.21v2.47h4.38v-2.47Z"/><path class="cls-1" d="M10.5,29.63h3.56v3.36h-3.56v-3.36ZM9.29,34.18h5.98v-5.76h-5.98v5.76Z"/><polygon class="cls-1" points="23.05 28.41 17.48 28.41 17.48 34.18 23.05 34.18 23.05 32.99 18.69 32.99 18.69 31.91 23.05 31.91 23.05 30.71 18.69 30.71 18.69 29.63 23.05 29.63 23.05 28.41"/><polygon class="cls-1" points="25.28 34.18 26.49 34.18 26.49 29.63 28.84 29.63 28.84 34.18 30.05 34.18 30.05 29.63 32.4 29.63 32.4 34.18 33.61 34.18 33.61 28.41 25.28 28.41 25.28 34.18"/><polygon class="cls-1" points="35.84 34.18 37.06 34.18 37.06 29.63 39.4 29.63 39.4 34.18 40.61 34.18 40.61 29.63 42.96 29.63 42.96 34.18 44.17 34.18 44.17 28.41 35.84 28.41 35.84 34.18"/><polygon class="cls-1" points="51.96 28.41 46.39 28.41 46.39 34.18 51.96 34.18 51.96 32.99 47.6 32.99 47.6 31.91 51.96 31.91 51.96 30.71 47.6 30.71 47.6 29.63 51.96 29.63 51.96 28.41"/><path class="cls-1" d="M54.18,34.18v-5.76h5.64v3.56h-1.65l2.08,2.2h-1.65l-2.06-2.2h-1.16v2.2h-1.21ZM55.39,30.83h3.22v-1.27h-3.22v1.27Z"/><polygon class="cls-1" points="63.23 32.7 62.02 32.7 62.02 34.18 68.36 34.18 68.36 31.81 63.23 30.04 63.23 29.63 67.13 29.63 67.13 29.92 68.36 29.92 68.36 28.41 62.02 28.41 62.02 30.91 67.13 32.65 67.13 32.99 63.23 32.99 63.23 32.7"/><path class="cls-2" d="M31.37,12.15s.77,1.7.21,4.75c-.41,2.23-.92,3.65-1.81,4.46,0,0,.78.25,2.44.28,0,0,0-1.31.25-2.16.28-.96.35-3.37.35-4.25l1.24-.6c.49.32,1.46,2.16,1.77,3.51.32,1.38.11,3.53.11,3.53,1.79-.04,2.37-.23,2.37-.23,0,0-.8-1.54-1.2-3.3-.5-2.16-2.2-4.21-2.2-4.21.14-.14,1.49-.92,1.45-3.12-.04-2.41-2.16-5.63-2.16-5.63-.54.88-.92,1.66-1.38,2.73-.98,2.29-1.46,4.25-1.46,4.25ZM34.27,6.83s.98,1.42.67,4.22c-.32,2.9-2.2,3.15-2.2,3.15-.07-1.17-.39-2.2-.39-2.2.18-1.13.67-2.38,1.12-3.48.44-1.07.79-1.7.79-1.7Z"/><path class="cls-1" d="M32.75,14.2s1.88-.25,2.2-3.15c.31-2.8-.67-4.22-.67-4.22,0,0-.35.63-.79,1.7-.45,1.1-.95,2.34-1.12,3.48,0,0,.32,1.03.39,2.2Z"/><path class="cls-1" d="M21.65,0v25.17h25.17V0h-25.17ZM39.73,22.79c-1.79.35-3.64.54-5.54.54s-3.73-.18-5.51-.53c-.03-.61-.05-1.22-.05-1.84,0-7.03,2.05-13.59,5.57-19.1,3.52,5.52,5.57,12.07,5.57,19.1,0,.61-.01,1.22-.05,1.83Z"/><path class="cls-1" d="M29.4,20.93c0,.4.01.8.02,1.21,1.55.27,3.14.4,4.76.4s3.24-.14,4.8-.42c.01-.39.01-.79.01-1.19,0-6.45-1.76-12.46-4.81-17.64-3.04,5.17-4.79,11.21-4.79,17.64ZM36.36,10.8c.03,2.19-1.31,2.98-1.45,3.12,0,0,1.7,2.06,2.2,4.21.4,1.76,1.2,3.3,1.2,3.3,0,0-.58.19-2.37.23,0,0,.21-2.14-.11-3.53-.31-1.35-1.28-3.18-1.77-3.51l-1.24.6c0,.88-.07,3.29-.35,4.25-.25.85-.25,2.16-.25,2.16-1.66-.04-2.44-.28-2.44-.28.89-.82,1.4-2.23,1.81-4.46.55-3.05-.21-4.75-.21-4.75,0,0,.48-1.96,1.46-4.25.46-1.07.83-1.85,1.38-2.73,0,0,2.12,3.22,2.16,5.63Z"/></g></svg>