<?xml version="1.0" encoding="UTF-8"?><svg id="Capa_2" xmlns="http://www.w3.org/2000/svg" viewBox="0 0 96.69 30.02"><defs><style>.cls-1,.cls-2,.cls-3,.cls-4{stroke-width:0px;}.cls-1,.cls-3{fill:#a38840;}.cls-2{fill:#2b2a29;}.cls-3,.cls-4{fill-rule:evenodd;}.cls-4{fill:#fff;}</style></defs><g id="Home"><path class="cls-1" d="M87.82,12.67l-.11-.16.09.14.72,1.1.05-.08-.75-1ZM82.23,23.55l2.83-4.41-3.2,4.41h.37ZM96.69,6.52h-13.04l-.02.06-.08.36,3.77,5.06s.01,0,.01,0l.38.5-.3-.45-2.91-4.46h10.39l-2.81,7.96,2.85,7.99h-12.7l-.7,1.09h15.12l-3.35-9.06,3.39-9.06ZM85.06,19.14l3.67-5.06-.21-.33-3.46,5.39Z"/><polygon class="cls-2" points="89.47 13.63 89.5 13.65 89.48 13.62 89.47 13.61 89.46 13.61 84.64 7.6 94.89 7.6 92.08 15.56 94.93 23.55 82.75 23.55 89.2 14.04 89.47 13.63"/><polygon class="cls-3" points="89.5 13.65 89.47 13.63 87.82 12.67 87.8 12.65 81.86 9.17 82.18 8.7 83.63 6.58 83.68 6.52 83.72 6.46 83.77 6.52 84.64 7.6 89.46 13.61 89.47 13.61 89.48 13.62 89.5 13.65"/><path class="cls-1" d="M8.73,15.16l5.62,8.4h.14l-5.76-8.4ZM9.23,12.28l.11-.16-.14.18-.5.68-.75,1.02.1.15.79-1.25.39-.62ZM14.35,23.56H1.76l2.85-7.99L1.8,7.61h10.39l-2.85,4.51,3.8-5.18-.1-.41H0l3.4,9.06L.04,24.64h15.03l-.72-1.08ZM8.73,15.16l-.68-1.01h-.01s.69,1.01.69,1.01Z"/><polygon class="cls-2" points="1.76 23.56 4.61 15.57 1.8 7.61 12.17 7.61 7.17 13.87 7.45 14.28 13.99 23.56 1.76 23.56"/><polygon class="cls-3" points="14.98 9.33 8.84 12.9 8.7 12.98 7.17 13.87 12.17 7.61 13.03 6.53 13.04 6.53 14.59 8.77 14.98 9.33"/><path class="cls-1" d="M89.47,13.61h-.01l-.38-.3c-.55-.42-1.1-.84-1.67-1.25-.03-.02-.05-.04-.08-.05,0,0-.01,0-.01,0-1.63-1.18-3.35-2.28-5.14-3.3-2.64-1.51-5.44-2.85-8.37-4-1.08-.42-2.2-.82-3.34-1.2-6.8-2.26-14.22-3.5-21.98-3.5h-.55c-11.29.07-21.83,2.76-30.75,7.36-.88.45-1.75.92-2.6,1.41-.83.48-1.63.97-2.42,1.48-1,.65-1.99,1.32-2.94,2.03-.01,0-.01.01-.01.01-.01-.01-.02,0-.02.01-.56.4-1.1.82-1.64,1.24h-.01s-.38.33-.38.33l.28.41,6.54,9.28.76,1.08,3.46,4.9.34.48.45-.38c2.92-2.52,6.45-4.64,10.41-6.27.77-.32,1.56-.61,2.37-.9,2.47-.85,5.08-1.52,7.81-1.98,2.73-.46,5.57-.71,8.48-.73,8.63-.06,16.63,1.93,23.1,5.29,1.25.66,2.45,1.36,3.59,2.12,1.13.75,2.2,1.55,3.19,2.39h.01s.46.38.46.38l.33-.49,3.26-4.81.74-1.09,6.45-9.51.27-.41h.01s-.01-.02-.01-.02ZM78.19,28.35c-.9-.73-1.84-1.43-2.84-2.08-1.16-.77-2.39-1.5-3.68-2.17-6.53-3.4-14.57-5.43-23.23-5.43h-.38c-5.94.05-11.58,1.03-16.64,2.78-.81.29-1.62.59-2.42.92-3.87,1.59-7.33,3.64-10.25,6.06l-10.12-14.35c1.31-1.02,2.69-2,4.13-2.92,1.58-1.02,3.22-1.97,4.92-2.84C26.45,3.8,36.83,1.15,47.94,1.08h.01c7.84-.05,15.33,1.18,22.18,3.44,1.1.37,2.2.76,3.29,1.19,5.38,2.11,10.3,4.87,14.6,8.15l-9.83,14.49Z"/><path class="cls-2" d="M88.02,13.86l-9.83,14.49c-.9-.73-1.84-1.43-2.84-2.08-1.16-.77-2.39-1.5-3.68-2.17-6.53-3.4-14.57-5.43-23.23-5.43h-.38c-5.94.05-11.58,1.03-16.64,2.78-.81.29-1.62.59-2.42.92-3.87,1.59-7.33,3.64-10.25,6.06l-10.12-14.35c1.31-1.02,2.69-2,4.13-2.92,1.58-1.02,3.22-1.97,4.92-2.84C26.45,3.8,36.83,1.15,47.94,1.08h.01c7.84-.05,15.33,1.18,22.18,3.44,1.1.37,2.2.76,3.29,1.19,5.38,2.11,10.3,4.87,14.6,8.15Z"/><path class="cls-4" d="M49.82,11.93l-2.94-.11c-.01,1.49-.26,2.4-1.5,2.45-1.58.06-1.77-1.45-1.87-3.88-.09-2.2.04-4,1.47-4.06,1.22-.05,1.5,1.32,1.54,2.13l3.15-.13c-.1-2.45-1.63-4.33-4.86-4.19-4.11.17-5.06,3.54-4.94,6.39.13,3.09,1.36,6.13,5.46,5.96,2.93-.12,4.6-1.95,4.49-4.55h0ZM47.35,8.12l-.55.02c-.11-1.15-.61-1.89-1.37-2.07.03,0,.07,0,.1,0,.03,0,.05,0,.08,0,.96,0,1.6.76,1.74,2.06h0ZM40.18,10.51c-.05-1.13.06-2.74.84-4.03.78-1.28,2.06-1.97,3.81-2.04.1,0,.21,0,.31,0,.25,0,.48.01.7.04-.05,0-.09,0-.14,0-.1,0-.2,0-.31,0-1.75.07-3.04.76-3.81,2.04-.78,1.29-.89,2.91-.84,4.03.1,2.42.92,5.28,4.13,5.64-3.68-.08-4.59-3.11-4.69-5.67h0ZM45.96,14.6s-.07,0-.11,0c-.15,0-.29-.01-.42-.04,1.46-.08,1.71-1.25,1.74-2.44l.56.03c-.04,1.2-.28,2.38-1.78,2.44h0Z"/><path class="cls-4" d="M27.49,19.68l2.48-1.08-4.75-10.9-2.48,1.08,2.55,5.86-.03.02-6.09-4.33-2.58,1.13,4.75,10.9,2.48-1.08-2.65-6.08.03-.02,6.28,4.49ZM23.14,8.94l.52-.22,2.55,5.85-.46.22-.09-.06-2.52-5.79ZM21.76,14.62l6.28,4.49-.51.22-6.2-4.43-.03-.06.46-.22ZM22.02,21.74l-.52.23-4.51-10.35.52-.22,4.5,10.34Z"/><path class="cls-4" d="M38.82,12.86l-1.68-7.94-2.76.58,1.68,7.92c.18.87.14,1.83-.98,2.07-1.1.23-1.59-.45-1.78-1.33l-1.71-8.07-3.31.7,1.68,7.94c.53,2.5,2.17,3.64,5.17,3,2.89-.61,4.25-2.26,3.69-4.88h0ZM33.62,17.6c-1.85,0-2.95-.96-3.36-2.94l-1.62-7.65.5-.1,1.62,7.66c.42,1.98,1.52,2.94,3.36,2.94.28,0,.58-.03.89-.07-.5.1-.97.16-1.4.16h0ZM35.64,15.7c-.12.02-.23.04-.34.04.7-.2,1.38-.79,1.05-2.38l-1.61-7.63.51-.11,1.61,7.65c.36,1.72-.46,2.27-1.22,2.43h0Z"/><path class="cls-4" d="M59.95,7.47l.24-2.29-8.37-.87-1.22,11.83,8.37.87.25-2.39-5.01-.52.25-2.46,3.36.35.24-2.29-3.36-.35.25-2.39,5.01.52ZM54.45,14.42l4.43.46-.05.51-4.43-.46.05-.51ZM54.94,9.67l2.79.29-.05.51-2.78-.29.05-.51ZM52.61,5.21l-1.11,10.71-.58-.06,1.16-11.23,7.77.81-.05.51-7.19-.75Z"/><path class="cls-4" d="M61.7,5.43l-.59,2.23,2.93.77-2.43,9.27,3.27.86,2.43-9.27,2.93.77.59-2.23-9.12-2.4ZM62.07,7.59l-.58-.15.43-1.65.58.15-.43,1.64ZM62.56,17.63l-.58-.15,2.42-9.23.58.15-2.42,9.23Z"/><path class="cls-4" d="M79.08,13.98l.95-2.1-7.67-3.47-4.9,10.83,7.67,3.47.99-2.19-4.59-2.08,1.02-2.25,3.08,1.39.95-2.1-3.08-1.39.99-2.19,4.59,2.08ZM71.61,18.82l4.1,1.86-.19.42-4.1-1.86.19-.42ZM73.58,14.47l2.6,1.17-.19.42-2.6-1.17.19-.42ZM72.8,9.46l-4.46,9.86-.49-.22,4.66-10.28,7.12,3.22-.19.42-6.63-3Z"/></g></svg>