<?xml version="1.0" encoding="UTF-8"?><svg id="Capa_2" xmlns="http://www.w3.org/2000/svg" viewBox="0 0 77.58 28.93"><defs><style>.cls-1{fill:#003;stroke-width:0px;}</style></defs><g id="Home"><path class="cls-1" d="M31.46,16.52c0,1.2-.3,1.73-1.29,2.27,0,0-.07.04-.07.04-.3.16-.58.31-.58.71,0,.49.4.49.59.49.38,0,.75-.05,1.12-.09.36-.04.73-.08,1.09-.08s.73.04,1.09.08c.36.04.74.09,1.12.09.19,0,.71,0,.71-.49,0-.45-.32-.63-.66-.76-1.47-.57-1.67-1.72-1.67-2.88v-5.65c0-.28.02-.34.03-.36,0,0-.02.01-.02.01h0s0,0,0,0c.03.01.11.08.29.51,0,0,4.1,9.07,4.1,9.07,0,0,.01.03.01.03.1.22.25.51.58.51.27,0,.52-.23.74-.68l4.19-8.74.09-.18c.14-.28.27-.56.33-.59,0,0,0,0-.01,0-.05,0-.08-.03-.09-.04.02.04.05.25.05.49v6.84c0,1.17-.04,1.47-.48,1.66-.42.18-.67.32-.67.76,0,.49.54.49.99.49h.01c.42-.05.84-.07,1.25-.09.42-.02.84-.05,1.27-.08h-.03c.42.04.85.06,1.27.08.41.02.84.04,1.25.09h.01c.44,0,.99,0,.99-.49,0-.45-.28-.58-.72-.76-1.57-.62-1.65-1.71-1.65-3.44v-7.59c0-1.2.31-1.36.99-1.59,0,0,.11-.04.11-.04.6-.22.99-.35.99-.78.02-.18-.01-.31-.09-.39-.06-.06-.13-.1-.22-.1-.32,0-.64.02-.96.04-.31.02-.62.04-.94.04s-.63-.02-.93-.04c-.31-.02-.64-.04-.96-.04-.26,0-.38.11-.61.57l-4.61,8.96c-.05.1-.11.2-.15.3-.1.19-.22.42-.28.46,0,0,.02,0,.04,0,.04,0,.07.02.08.03-.04-.04-.15-.28-.29-.58l-.29-.6-4.1-8.68c-.19-.38-.41-.45-.85-.45-.32,0-.65.02-.96.04-.31.02-.62.04-.94.04s-.63-.02-.94-.04c-.31-.02-.64-.04-.96-.04-.37,0-.42.26-.42.49,0,.38.26.5.74.72.1.05.21.1.33.16.66.32.95,1.36.95,2.24v8.06Z"/><path class="cls-1" d="M51.62,18.96c.12.42.53.49.76.53.02,0,.05,0,.07.01.39.08.78.18,1.16.27.86.21,1.75.43,2.72.43,3.1,0,5.02-2.56,5.02-4.92,0-3.45-2.67-4.36-4.8-5.08-1.88-.64-3.03-1.1-3.03-2.42,0-1.1,1.08-1.67,2.14-1.67,1.48,0,3.17,1.28,3.64,2.74l.03.09c.16.49.31.96.86.96.42,0,.69-.28.69-.73,0-.08-.02-.24-.07-.58-.09-.72-.26-1.92-.23-2.76,0-.45-.2-.68-.6-.68-.14,0-.31.07-.51.16-.12.05-.31.14-.38.14-.22,0-.53-.12-.9-.25-.64-.24-1.52-.57-2.67-.57-2.5,0-4.53,1.97-4.53,4.4,0,3.43,2.69,4.39,4.84,5.16,1.86.66,2.99,1.12,2.99,2.37,0,1.5-1.22,2.18-2.42,2.18-1.95,0-3.37-1.54-4.05-2.99-.03-.05-.05-.13-.08-.2-.13-.33-.31-.84-.83-.84s-.71.3-.71.58c0,.17.06.37.11.55.02.07.04.13.05.19,0,0,.74,2.94.75,2.94h0Z"/><path class="cls-1" d="M77.02,5.53c-.05-.27-.26-.44-.53-.44-.45,0-.62.3-.72.48-.09.16-.11.17-.19.17-.14,0-.47-.13-.82-.27-.87-.34-2.17-.85-3.74-.85-3.54,0-7.67,2.17-7.67,8.28,0,4.57,3.77,7.3,7.4,7.3,4.53,0,6.83-3.62,6.83-4.35,0-.41-.25-.56-.49-.56-.38,0-.69.34-.94.61-.05.05-.09.1-.14.15-1.19,1.21-2.78,1.94-4.25,1.94-2.72,0-4.54-3.12-4.54-6.04,0-3.94,1.4-5.85,4.28-5.85,1.75,0,3.39,1.22,4.62,3.43.01.02.03.04.04.07.14.27.38.72.75.72s.57-.39.57-.77c0-.16-.03-.37-.07-.61-.03-.17-.06-.34-.07-.51,0,0-.31-2.87-.31-2.89h0Z"/><path class="cls-1" d="M32.82,25.34c.01.1.04.21.04.28,0,.06-.02.13-.08.13-.06,0-.12-.13-.14-.17-.32-.58-.76-.89-1.21-.89-.66,0-1.14.38-1.14,1.53,0,.81.51,1.58,1.2,1.58.43,0,.84-.23,1.11-.51.06-.06.14-.17.22-.17.04,0,.06.02.06.07,0,.16-.56,1.03-1.64,1.03-.87,0-1.78-.64-1.78-1.77,0-1.47.96-2.01,1.85-2.01.57,0,1,.28,1.14.28.13,0,.08-.17.23-.17.05,0,.06.03.07.06l.08.72Z"/><path class="cls-1" d="M36.3,25.15c0-.31-.18-.41-.4-.44-.07,0-.11-.04-.11-.13,0-.05.02-.09.14-.09s.26.04.63.04c.28,0,.66-.04.89-.04.69,0,1.41.13,1.41,1.01,0,.36-.18.54-.39.67-.1.06-.25.09-.25.14,0,.08.58,1.13.83,1.43.05.06.09.09.14.09.06,0,.11-.01.16-.01.06,0,.08.04.08.09,0,.22-.61.26-.78.26-.15,0-.33-.11-.44-.32l-.6-1.13c-.09-.16-.17-.29-.36-.29-.14,0-.17.03-.17.09v.9c0,.43.18.53.39.54.07,0,.11.04.11.13,0,.07-.06.08-.3.08-.21,0-.41-.04-.62-.04s-.42.04-.62.04c-.07,0-.15,0-.15-.08s.09-.11.14-.13c.2-.06.26-.26.26-.44v-2.38ZM37.08,26.01c0,.06,0,.18.33.18.47,0,.66-.22.66-.75,0-.38-.22-.75-.67-.75-.27,0-.32.09-.32.27v1.04Z"/><path class="cls-1" d="M42.64,25.15c0-.33-.17-.44-.39-.44-.07,0-.11-.04-.11-.11,0-.07.05-.1.3-.1.2,0,.41.04.62.04s.41-.04.62-.04c.12,0,.15.03.15.08,0,.06-.07.08-.15.13-.17.09-.25.25-.25.44v1.64c0,.62.4,1.06,1.04,1.06.93,0,1.15-.76,1.15-1.34v-1.35c0-.27-.14-.44-.42-.46-.09,0-.17-.04-.17-.13,0-.06.06-.08.19-.08.15,0,.31.02.46.02s.31-.02.47-.02c.1,0,.12.02.12.08,0,.08-.1.09-.18.13-.15.07-.19.16-.19.62v1.13c0,1.17-.59,1.77-1.76,1.77-.94,0-1.5-.41-1.5-1.41v-1.66Z"/><path class="cls-1" d="M52.6,25.34c.01.1.03.21.03.28,0,.06-.02.13-.08.13-.06,0-.12-.13-.14-.17-.33-.58-.76-.89-1.21-.89-.66,0-1.14.38-1.14,1.53,0,.81.51,1.58,1.2,1.58.43,0,.84-.23,1.11-.51.06-.06.14-.17.22-.17.04,0,.06.02.06.07,0,.16-.56,1.03-1.64,1.03-.87,0-1.79-.64-1.79-1.77,0-1.47.97-2.01,1.86-2.01.56,0,1,.28,1.14.28.13,0,.08-.17.23-.17.05,0,.06.03.06.06l.08.72Z"/><path class="cls-1" d="M56.05,25.42c0-.26-.03-.65-.24-.68-.16-.02-.27-.07-.27-.15s.09-.08.19-.08c.4.05.8.04,1.19.04.4,0,.79-.04,1.2-.04.12,0,.22,0,.22.11,0,.12-.02.23-.02.35s.02.23.02.35c0,.06-.01.1-.09.1s-.1-.1-.1-.14c-.03-.33-.18-.47-.79-.47h-.34c-.14,0-.18.05-.18.26v.92c0,.08.09.11.29.11.3,0,.53-.09.61-.32.06-.15.08-.16.13-.16.08,0,.08.07.08.15,0,.16-.02.32-.02.48s.02.32.02.47c0,.07,0,.15-.1.15-.08,0-.08-.16-.14-.26-.13-.22-.28-.25-.58-.25-.25,0-.29.07-.29.2v.9c0,.39.07.45.34.45.54,0,.84-.17,1.02-.34.18-.18.23-.35.31-.35.06,0,.08.05.08.1,0,.11-.04.31-.08.42-.07.21-.3.47-.54.47-.34,0-.69-.04-1.04-.04s-.69.04-1.04.04c-.16,0-.24,0-.24-.08s.1-.12.2-.17c.17-.08.2-.21.2-.51v-1.99Z"/><path class="cls-1" d="M61.92,25.15c0-.31-.18-.41-.4-.44-.06,0-.11-.04-.11-.13,0-.05.02-.09.14-.09s.26.04.63.04c.28,0,.66-.04.89-.04.69,0,1.41.13,1.41,1.01,0,.36-.17.54-.39.67-.1.06-.25.09-.25.14,0,.08.57,1.13.83,1.43.05.06.1.09.14.09.06,0,.12-.01.16-.01.06,0,.08.04.08.09,0,.22-.61.26-.78.26-.15,0-.33-.11-.44-.32l-.61-1.13c-.09-.16-.17-.29-.36-.29-.13,0-.17.03-.17.09v.9c0,.43.18.53.39.54.07,0,.11.04.11.13,0,.07-.06.08-.3.08-.21,0-.41-.04-.62-.04s-.41.04-.62.04c-.07,0-.15,0-.15-.08s.09-.11.14-.13c.2-.06.26-.26.26-.44v-2.38ZM62.7,26.01c0,.06,0,.18.33.18.46,0,.66-.22.66-.75,0-.38-.22-.75-.67-.75-.27,0-.32.09-.32.27v1.04Z"/><path class="cls-1" d="M69.98,24.45c1.06,0,1.89.7,1.89,1.82,0,1.19-1.04,1.95-2.12,1.95s-1.84-.72-1.84-1.79c0-1.14,1-1.98,2.07-1.98h0ZM70,27.98c.61,0,1.04-.66,1.04-1.42,0-.71-.42-1.87-1.25-1.87-.61,0-1.04.67-1.04,1.42,0,.72.43,1.88,1.25,1.88h0Z"/><path class="cls-1" d="M74.93,27.22s-.04-.12-.04-.17c0-.04.02-.08.11-.08.11,0,.13.14.17.22.19.42.56.79,1.05.79.36,0,.65-.23.65-.61,0-.86-1.91-.44-1.91-1.88,0-.55.43-1.04,1.04-1.04.44,0,.7.2.87.2.06,0,.17-.07.22-.07.07,0,.08.03.08.1-.01.3.07.78.07.84,0,.07-.03.12-.1.12-.1,0-.12-.08-.16-.21-.12-.39-.56-.73-.95-.73-.32,0-.59.18-.59.49,0,.9,1.92.42,1.92,1.88,0,.51-.39,1.17-1.17,1.17-.33,0-.62-.11-.94-.18-.05,0-.13-.02-.15-.09l-.18-.73Z"/><path class="cls-1" d="M26.15,14.47l-4.35-1.16c.06.38.09.77.09,1.16h4.26ZM2.72,14.47l4.35,1.16c-.06-.37-.09-.77-.09-1.16,0,0-4.26,0-4.26,0h0ZM21.39,17.15c-.14.38-.29.69-.5,1.05l2.26,1.32-1.76-2.36ZM19.12,20.28c-.31.25-.6.46-.95.66l1.31,2.28-.36-2.93ZM14.44,21.94s0,4.27,0,4.27l1.16-4.36c-.37.06-.77.09-1.16.09h0ZM10.71,20.93l-1.32,2.28,2.36-1.78c-.38-.14-.69-.3-1.04-.5h0ZM7.98,18.2l-2.26,1.32,2.92-.36c-.26-.31-.45-.6-.66-.96h0ZM7.48,11.78c.14-.37.3-.7.5-1.05l-2.26-1.31,1.76,2.36ZM9.76,8.65c.31-.25.6-.45.95-.66l-1.32-2.27.36,2.92ZM13.28,7.09s.51-.09,1.16-.09V2.73l-1.16,4.35ZM18.16,8l1.32-2.27-2.36,1.77c.38.14.69.3,1.04.5h0ZM17.5,20.28c.07.12.22.16.33.09.12-.06.16-.22.09-.34-.07-.12-.22-.16-.33-.09-.12.07-.16.22-.09.33h0ZM10.95,20.03c-.07.12-.03.27.09.34.12.07.27.03.33-.09.07-.12.03-.27-.09-.33-.12-.07-.27-.03-.34.09h0ZM8.13,14.47c0-.14-.11-.25-.25-.25s-.24.11-.24.25.11.24.24.24.25-.11.25-.24h0ZM11.37,8.66c-.06-.12-.22-.16-.33-.09-.12.07-.16.22-.09.33.07.12.22.16.34.09.12-.07.16-.22.09-.33h0ZM17.93,8.9c.07-.12.02-.27-.09-.33-.12-.07-.27-.03-.33.09-.06.12-.03.27.09.33.12.07.27.03.34-.09h0ZM14.66,16.6c-.06.41,0,.84.14,1.23.17.36.48.64.86.78.37.14.78.12,1.13-.07.49-.23.82-.71.87-1.26h-.95c-.06.2-.17.36-.3.45-.3.2-.66,0-.8-.45-.14-.44,0-.97.3-1.17.3-.2.66,0,.79.45h.96c-.01-.46-.25-.88-.64-1.12-.57-.4-1.33-.36-1.85.1-.31.27-.5.66-.52,1.08h0ZM13.13,17.66c0,.11-.07.21-.17.25-.17.07-.36.07-.53,0-.1-.04-.17-.14-.18-.25h-1.02c0,.46.32.85.77.93.59.19,1.23.13,1.79-.15.46-.28.6-.87.32-1.32-.06-.1-.14-.19-.23-.26-.1-.07-.21-.12-.33-.14-.28-.09-.57-.16-.86-.2-.15-.02-.28-.11-.36-.25-.05-.14.02-.3.16-.36.12-.06.27-.07.4-.04.15.02.28.14.31.29h1.03c0-.38-.25-.72-.61-.85-.6-.26-1.28-.25-1.87.02-.49.22-.71.79-.49,1.28.03.08.08.16.14.23.24.21.54.34.85.39.05,0,.11.01.17.02.11.02.22.05.32.07.09.02.17.05.24.08.09.05.16.14.16.25h0ZM16.28,14.2c-.37.06-.74.17-1.09.31v-2.47c.01-.28.22-.5.49-.52.3-.03.57.19.6.49v2.2ZM13.68,14.48c-.35-.14-.71-.23-1.09-.27v-2.27c.05-.26.27-.45.53-.45.3,0,.55.24.56.54v2.46ZM19.05,14.83l-.25-.42c-.3.16-.66.18-.97.04v-2.68c-.05-.89-.81-1.59-1.7-1.54-.45.02-.87.23-1.16.58-.56-.68-1.56-.78-2.24-.22-.06.05-.11.1-.16.15v-.39h-1.54v4.11c-.32.14-.67.12-.97-.04l-.25.42c.43.24.95.27,1.41.07.69-.28,1.46-.28,2.15,0,.33.13.69.2,1.05.19.36,0,.72-.06,1.06-.19.69-.28,1.46-.28,2.15,0,.46.2.98.17,1.41-.07h0ZM21.24,14.47c0-.14-.11-.24-.25-.24s-.24.11-.24.24.11.25.24.25.25-.11.25-.25h0ZM21.38,14.47c0,.22-.18.39-.39.39s-.39-.17-.39-.39.18-.4.39-.4.39.18.39.4h0ZM20.4,14.47c0,3.3-2.67,5.97-5.96,5.97s-5.96-2.67-5.96-5.97,2.67-5.97,5.96-5.97,5.96,2.67,5.96,5.97h0ZM18.05,8.98c-.11.19-.35.25-.54.14-.19-.1-.25-.35-.14-.53.11-.19.35-.25.54-.15.19.11.25.35.14.54h0ZM11.36,9.12c-.19.11-.43.05-.54-.14-.11-.19-.05-.43.15-.54.19-.11.43-.04.53.15.11.19.05.43-.14.53h0ZM8.28,14.47c0,.22-.18.39-.39.39s-.39-.18-.39-.39.18-.4.39-.4.39.18.39.4h0ZM10.82,19.95c.11-.19.35-.25.54-.14.19.11.25.35.14.53-.11.19-.35.25-.53.15-.19-.11-.26-.35-.14-.54h0ZM17.52,19.81c.19-.11.43-.05.54.14.11.19.04.43-.14.54-.19.11-.43.05-.54-.14-.1-.19-.04-.43.14-.54h0ZM21.59,14.47c0-3.96-3.2-7.16-7.15-7.16s-7.15,3.21-7.15,7.16,3.2,7.16,7.15,7.16,7.15-3.21,7.15-7.16h0ZM23.15,9.42l-2.92.36c.25.31.45.6.66.95l2.26-1.31ZM19.98,9.48l3.89-.47-2.35,3.14c.08.25.15.49.21.78l5.78,1.54-5.78,1.54c-.06.28-.12.52-.21.78l2.35,3.14-3.89-.48c-.18.2-.37.39-.57.57l.47,3.9-3.14-2.36c-.25.08-.5.15-.77.21l-1.54,5.8-1.54-5.79c-.27-.06-.52-.12-.78-.21l-3.13,2.36.47-3.9c-.2-.18-.39-.37-.57-.57l-3.9.47,2.35-3.14c-.08-.25-.15-.51-.2-.77l-5.78-1.54,5.78-1.54c.06-.28.13-.52.21-.77l-2.35-3.14,3.89.47c.19-.2.37-.39.57-.57l-.47-3.9,3.13,2.35c.25-.08.51-.15.77-.2l1.54-5.8,1.53,5.79c.28.06.53.13.78.21l3.13-2.35-.47,3.9c.2.18.39.37.57.57h0ZM24.59,8.59l-4.87.59.58-4.89-3.93,2.95-1.93-7.24-1.94,7.24-3.93-2.95.58,4.89-4.87-.59,2.94,3.94-7.22,1.94,7.22,1.94-2.94,3.94,4.87-.59-.58,4.89,3.92-2.95,1.94,7.24,1.93-7.24,3.93,2.95-.59-4.88,4.88.58-2.94-3.94,7.22-1.94-7.22-1.94,2.94-3.94Z"/></g></svg>