<?xml version="1.0" encoding="UTF-8"?><svg id="Capa_2" xmlns="http://www.w3.org/2000/svg" viewBox="0 0 101.79 12.07"><defs><style>.cls-1{fill:#40008d;stroke-width:0px;}</style></defs><g id="Home"><path class="cls-1" d="M7.57.87h3.92v.16l-.62.63c-.15.16-.23.28-.23.52v9.89h-.15L3.07,5.25v5.1c0,.25.08.37.23.52l.62.63v.16H0v-.16l.62-.63c.15-.15.23-.28.23-.52V.38h.15l7.42,6.81V2.18c0-.24-.08-.37-.23-.52l-.62-.63v-.16ZM22.45,8.59c0,2.09-1.47,3.07-3.88,3.07h-6.19v-.15l.62-.63c.15-.15.23-.28.23-.52V2.19c0-.25-.08-.37-.23-.53l-.62-.63v-.16h6.26c2.26,0,3.38,1.08,3.38,2.92,0,1.18-.92,1.98-1.91,2.2v.03c1.44.25,2.35,1.11,2.35,2.57h0ZM15.65,5.14h2.68c.82,0,1.29-.39,1.29-1.14,0-.69-.41-1.16-1.29-1.16h-2.68v2.3ZM19.99,8.34c0-.95-.58-1.32-1.71-1.32h-2.63v2.63h2.63c.97,0,1.71-.34,1.71-1.31h0ZM29.03,9.83c-1.83,0-3.07-1.4-3.07-3.51,0-2.23,1.38-3.56,3.18-3.56,1.41,0,2.11.78,2.3,1.44l.17.05.91-3.68-.15-.06c-.29.23-.59.38-1.06.38-.52,0-1.33-.2-2.32-.2-3.19,0-5.62,2.13-5.62,5.6s2.42,5.57,5.57,5.57c1.82,0,3.2-.69,4.05-1.61l-1.43-1.71c-.45.63-1.27,1.28-2.53,1.28h0ZM40.29,1.04l.62.63c.15.15.23.28.23.52v5.3c0,1.56-.78,2.31-2.14,2.31s-2.16-.72-2.16-2.31V2.19c0-.24.08-.37.23-.52l.62-.63v-.16h-4.08v.16l.62.63c.15.15.23.28.23.52v5.24c0,2.99,1.89,4.45,4.56,4.45s4.56-1.46,4.56-4.45V2.19c0-.24.08-.37.23-.52l.62-.63v-.16h-4.12v.16ZM53.05,10.16v-3.11c0-1.85-.91-2.92-2.48-2.92-1.08,0-2.09.63-2.44,1.46v-1.33h-3.06v.16l.62.63c.2.2.23.32.23.71v4.4c0,.39-.03.51-.23.71l-.62.63v.16h3.97v-.16l-.62-.63c-.2-.2-.23-.32-.23-.71v-2.48c0-.88.43-1.57,1.4-1.57.82,0,1.19.6,1.19,1.44v4.1h3.12v-.16l-.62-.63c-.2-.2-.23-.32-.23-.71h0ZM57.88,10.16v-5.89h-3.12v.16l.62.63c.2.2.23.32.23.71v4.4c0,.39-.03.51-.23.71l-.62.63v.16h3.97v-.16l-.62-.63c-.19-.2-.22-.32-.22-.71h0ZM56.73,3.17c.73,0,1.33-.55,1.33-1.34s-.61-1.34-1.33-1.34-1.35.55-1.35,1.34.63,1.34,1.35,1.34h0ZM67.22,4.26h-2.83l-1.32,3.57h-.03l-1.5-3.57h-2.78v.17c.57.42.87.94,1.14,1.47l3.02,6.08h.15l3-6.08c.29-.58.55-1.04,1.15-1.47v-.17ZM74.48,7.96c0,.26-.01.51-.03.66h-5.09c.09.72.72,1.39,1.85,1.39.71,0,1.26-.28,1.56-.62l1.26,1.51c-.65.61-1.8.97-3.01.97-2.44,0-3.98-1.48-3.98-3.78s1.48-3.96,3.93-3.96,3.52,1.62,3.52,3.83h0ZM72.17,7.28c-.04-.79-.47-1.43-1.36-1.43s-1.42.68-1.49,1.43h2.85ZM78.39,5.76v-1.49h-3.06v.16l.62.63c.2.2.23.32.23.71v4.4c0,.39-.03.51-.23.71l-.62.63v.16h3.97v-.16l-.62-.63c-.2-.2-.23-.32-.23-.71v-2.23c0-1.11.54-1.71,1.42-1.71.5,0,.85.22,1.09.43l.59-2.31c-.19-.11-.54-.22-.95-.22-1.07,0-1.89.74-2.21,1.63h0ZM86.29,7.13c-.98-.17-1.76-.2-1.76-.77,0-.34.28-.57.95-.57.89,0,1.73.3,2.04.99l.16.05.71-2.82-.15-.06c-.3.23-.56.38-1,.38-.5,0-.96-.2-1.9-.2-1.62,0-3.13.58-3.13,2.42,0,1.43,1.13,1.99,2.23,2.17,1.02.17,1.83.2,1.83.82,0,.35-.3.61-.97.61-1.05,0-1.92-.41-2.44-.85l-1.06,1.57c.79.66,2.07,1,3.34,1,2.12,0,3.44-.94,3.44-2.58,0-1.42-1.2-1.97-2.31-2.16h0ZM96.6,10.87l.62.63v.16h-3.06v-1c-.35.71-1.2,1.22-2.29,1.22-1.31,0-2.35-.85-2.35-2.15,0-1.63,1.13-2.4,3.59-2.45.79-.02,1-.19,1-.6,0-.39-.36-.76-1.31-.76-1.02,0-1.53.48-1.85.77l-1.18-1.41c.68-.69,1.79-1.14,3.25-1.14,2.33,0,3.34.97,3.34,2.86v3.17c0,.39.03.51.23.71h0ZM94.12,8.34c-.18.06-.51.09-.95.12-1.02.06-1.36.43-1.36.94,0,.46.3.84.84.84,1.01,0,1.48-.69,1.48-1.38v-.51ZM101.17,10.87c-.2-.2-.23-.32-.23-.71V0h-3.12v.15l.62.63c.2.2.23.32.23.71v8.66c0,.39-.03.51-.23.71l-.62.63v.16h3.97v-.16l-.62-.63Z"/></g></svg>