<?xml version="1.0" encoding="UTF-8"?><svg id="Capa_2" xmlns="http://www.w3.org/2000/svg" viewBox="0 0 67.47 12.26"><defs><style>.cls-1{stroke-width:0px;}</style></defs><g id="Home"><path id="Trazado_319" class="cls-1" d="M55.21,6.14c0-.81.16-1.61.47-2.35.31-.73.76-1.4,1.31-1.96.56-.57,1.22-1.03,1.95-1.34,1.51-.65,3.23-.65,4.74,0,.73.32,1.4.78,1.96,1.34.57.56,1.02,1.23,1.34,1.96.32.74.48,1.54.48,2.35,0,.82-.16,1.63-.48,2.38-.31.73-.77,1.39-1.34,1.95-.57.56-1.23,1-1.96,1.31-1.52.63-3.22.63-4.74,0-1.47-.62-2.64-1.79-3.26-3.26-.32-.75-.48-1.56-.47-2.38h0ZM57.65,6.14c0,.51.09,1.02.29,1.49.19.45.46.87.8,1.22.7.72,1.66,1.13,2.67,1.12.98,0,1.91-.4,2.57-1.12.68-.74,1.05-1.71,1.04-2.71,0-1.02-.37-2-1.07-2.75-.33-.35-.73-.63-1.17-.82-.93-.39-1.97-.39-2.9,0-.44.19-.84.47-1.17.82-.34.36-.6.77-.78,1.23-.19.48-.28,1-.28,1.51h0Z"/><path id="Trazado_320" class="cls-1" d="M9.66.45v6.03c-.05.9-.41,1.76-1.02,2.43-.65.71-1.57,1.11-2.54,1.1-.99.01-1.94-.39-2.62-1.1-.64-.66-1.01-1.52-1.06-2.43V.45H0v6.04h0c.02.72.18,1.43.46,2.09,1.29,3.06,4.82,4.5,7.88,3.21.72-.31,1.38-.74,1.93-1.29.56-.55,1.01-1.2,1.32-1.92.29-.66.44-1.37.47-2.09h0V.45h-2.42Z"/><path id="Trazado_321" class="cls-1" d="M23.71.45v6.03c-.05.9-.41,1.76-1.02,2.43-.65.71-1.57,1.11-2.54,1.1-.99.01-1.94-.39-2.62-1.1-.64-.66-1.01-1.52-1.06-2.43V.45h-2.42v6.04h0c.02.72.18,1.43.46,2.09,1.29,3.06,4.82,4.5,7.88,3.21.72-.31,1.38-.74,1.93-1.29.56-.55,1.01-1.2,1.32-1.92.29-.66.44-1.37.47-2.09h0V.45h-2.42Z"/><path id="Trazado_322" class="cls-1" d="M52.28.45c-1.14,3.13-2.99,7.81-2.99,7.81,0,0-.5,1.55-1.79,1.55s-1.79-1.55-1.79-1.55c0,0-1.85-4.69-2.99-7.81h-2.68c.41,1.15,2.92,8.06,3.89,9.58,1.12,1.75,2.12,2.21,3.57,2.21s2.45-.45,3.57-2.21c.97-1.52,3.47-8.43,3.89-9.58h-2.68Z"/><path id="Trazado_323" class="cls-1" d="M39.65,5.72c.02-1.04-.23-2.07-.74-2.99-.48-.85-1.19-1.55-2.06-2.02-.21-.11-.42-.21-.64-.3h-.03s-.03-.02-.03-.02c-.06-.02-.12-.05-.19-.07h0c-.68-.22-1.39-.33-2.11-.33-1.08-.02-2.15.23-3.11.74-.89.48-1.62,1.21-2.1,2.1-.51.97-.77,2.06-.75,3.16v.15c0,.82.15,1.63.47,2.38.62,1.47,1.79,2.64,3.26,3.26,1.52.63,3.22.63,4.74,0,.05-.02.09-.04.14-.06h0c.3-.15.59-.32.85-.52.92-.66,1.6-1.6,1.95-2.68h-2.65c-.16.32-.37.62-.62.87-.58.39-1.26.59-1.95.58-1,.01-1.97-.39-2.67-1.12-.52-.54-.87-1.22-1.01-1.95h9.16s0-.08.01-.12c.05-.35.07-.71.07-1.07h0ZM31.55,2.82c.6-.53,1.38-.81,2.19-.79.86-.03,1.7.26,2.36.8.63.53.99,1.31.97,2.13h-6.61c.08-.83.46-1.59,1.08-2.14h0Z"/></g></svg>