<?xml version="1.0" encoding="UTF-8"?><svg id="Capa_2" xmlns="http://www.w3.org/2000/svg" viewBox="0 0 78.66 25.21"><defs><style>.cls-1{fill:#faad42;}.cls-1,.cls-2,.cls-3{stroke-width:0px;}.cls-2{fill:#f25c29;}.cls-3{fill:#7a7a80;}</style></defs><g id="Home"><path class="cls-3" d="M24.6,0v25.21h54.06V0H24.6ZM31.41,21.06h-1.47v-10.29h-2.75v-1.28h6.97v1.28h-2.75v10.29ZM39.26,17.44h-4.55c0,2.26.61,2.71,1.63,2.71.9,0,1.36-.72,1.41-1.54h1.44c-.02,1.79-1.12,2.61-2.82,2.61s-3.08-.51-3.08-4.09c0-2.37.27-4.33,3.08-4.33,2.31,0,2.88,1.27,2.88,3.94v.69ZM44.85,14.17c-.11-.02-.24-.03-.35-.05-.11-.02-.22-.03-.35-.03-1.46,0-1.83,1.11-1.83,2.2v4.78h-1.31v-8.09h1.31v1.22h.03c.54-1.23,1.22-1.38,2.5-1.38v1.36ZM51.76,21.06h-1.31v-5.61c0-.87-.3-1.57-1.43-1.57-1.44,0-1.65,1.28-1.65,2.39v4.79h-1.31v-6.41c0-.56-.03-1.12-.08-1.68h1.39v1.04h.06c.51-.91,1.12-1.2,2.16-1.2,1.73,0,2.16,1.04,2.16,2.64v5.61ZM55.11,21.06h-1.31v-8.09h1.31v8.09ZM55.19,10.9h-1.47v-1.41h1.47v1.41ZM61.55,21.06v-.98h-.05c-.43.74-1.2,1.14-2.05,1.14-1.41,0-2.18-.71-2.18-2.08v-6.17h1.31v5.61c0,.98.45,1.63,1.38,1.63.71,0,1.59-.53,1.59-1.88v-5.37h1.31v6.41c0,.56.03,1.12.08,1.68h-1.39ZM74.25,21.06h-1.31v-5.61c0-.82-.22-1.57-1.28-1.57-.5,0-.64.02-.99.3-.38.32-.45,1.12-.45,1.43v5.45h-1.31v-5.61c0-.82-.22-1.57-1.28-1.57-.4,0-.95.24-1.14.54-.24.4-.3.88-.3,1.19v5.45h-1.31v-6.41c0-.56-.03-1.12-.08-1.68h1.39v1.01h.03c.38-.87,1.07-1.17,2.02-1.17.74,0,1.59.3,1.89,1.04.45-.87,1.19-1.04,1.92-1.04.85,0,2.21.19,2.21,2.1v6.15ZM36.25,13.8c-.83,0-1.52.4-1.54,2.64h3.16c0-2.36-.66-2.64-1.62-2.64h0Z"/><polygon class="cls-1" points="0 14.05 8.64 5.02 22.68 12.93 22.68 0 0 0 0 14.05"/><polygon class="cls-2" points="16.37 10.77 0 15.7 0 25.21 22.68 25.21 22.68 18.61 16.37 10.77"/></g></svg>