<?xml version="1.0" encoding="UTF-8"?><svg id="Capa_2" xmlns="http://www.w3.org/2000/svg" viewBox="0 0 72.96 14.17"><defs><style>.cls-1{fill:#0b5ecd;stroke-width:0px;}</style></defs><g id="Home"><path class="cls-1" d="M60.58,1.66c-.89-.87-2.12-1.44-4.16-1.49-1.33-.03-1.49.02-5.52.08v13.58h3.64s0-2.89,0-2.89c.84-.02,1.33.02,1.91-.02,4.93-.25,5.61-4.19,5.63-5.26.03-1.86-.65-3.15-1.5-3.99h0ZM54.54,7.86V3.27c1.83-.32,3.67.33,3.58,2.35-.08,1.8-1.63,2.4-3.58,2.24h0Z"/><path class="cls-1" d="M67.59,5.04l2.98,1.03c1.99.76,2.41,2.3,2.39,3.64-.04,3.09-2.58,4.25-4.6,4.41-2.3.19-4.08-.19-4.68-.28v-3.36c1.83.54,3.94.52,4.66.24.54-.2.95-.52.92-.93-.02-.22-.04-.51-.73-.79l-2.75-.97c-1.77-.62-2.45-2.25-2.37-3.7C63.56,1.4,65.97-.08,68.38,0c.74.03,1.72,0,3.17.21l.05,3.33c-1.63-.37-2.42-.36-3.26-.26-.94.11-1.36.59-1.34,1.09,0,.26.27.54.6.66h0Z"/><polygon class="cls-1" points="16.6 5.31 20.51 5.31 20.5 .26 24.14 .26 24.14 13.84 20.5 13.84 20.51 8.39 16.6 8.39 16.59 13.84 12.95 13.84 12.95 .26 16.59 .26 16.6 5.31"/><rect class="cls-1" x="27.56" y=".26" width="3.64" height="13.58"/><rect class="cls-1" x="43.81" y=".26" width="3.64" height="13.58"/><polygon class="cls-1" points="38.25 10.76 42 10.76 42 13.84 34.62 13.84 34.62 .26 38.26 .26 38.25 10.76"/><path class="cls-1" d="M9.68,1.66C8.8.79,7.56.22,5.52.17c-1.33-.03-1.49.02-5.52.08v13.58h3.64s0-2.89,0-2.89c.84-.02,1.34.02,1.91-.02,4.93-.25,5.62-4.19,5.64-5.26.03-1.86-.65-3.15-1.5-3.99h0ZM3.64,7.86V3.27c1.83-.32,3.68.33,3.58,2.35-.08,1.8-1.63,2.4-3.58,2.24h0Z"/></g></svg>