<?xml version="1.0" encoding="UTF-8"?><svg id="Capa_2" xmlns="http://www.w3.org/2000/svg" viewBox="0 0 14.11 14.1"><defs><style>.cls-1{fill:#fff;stroke-width:0px;}</style></defs><g id="Home"><path class="cls-1" d="M13.99,3.54c-.1-.93-.45-1.75-1.14-2.41-.73-.69-1.61-1-2.59-1.05C8.61-.01,4.67-.07,3.29.16,1.71.41.67,1.34.24,2.9c-.34,1.2-.27,6.73-.07,7.92.27,1.62,1.23,2.66,2.83,3.08,1.11.29,6.58.25,7.81.05,1.62-.26,2.67-1.22,3.09-2.82.32-1.23.21-6.47.1-7.58ZM12.69,10.59c-.19,1.23-1.01,1.99-2.24,2.13-1.14.12-6.22.19-7.27-.1-1.01-.28-1.59-.98-1.75-1.99-.16-.97-.2-5.82,0-7.12.19-1.22,1-1.98,2.24-2.12,1.25-.14,5.75-.16,6.94.03,1.23.19,1.99,1.01,2.13,2.25.13,1.16.16,5.68-.03,6.93ZM7.05,3.43c-2,0-3.62,1.62-3.62,3.62,0,1.99,1.61,3.61,3.61,3.61,2,0,3.62-1.61,3.63-3.61,0-2-1.62-3.62-3.62-3.62ZM7.03,9.39c-1.28,0-2.31-1.06-2.31-2.35,0-1.29,1.05-2.33,2.35-2.33s2.33,1.05,2.33,2.35c0,1.3-1.05,2.33-2.36,2.33ZM11.66,3.3c0,.47-.38.84-.85.84s-.84-.37-.85-.84c0-.48.38-.85.85-.85.47,0,.84.38.84.85Z"/></g></svg>