<?xml version="1.0" encoding="UTF-8"?><svg id="Capa_2" xmlns="http://www.w3.org/2000/svg" viewBox="0 0 70.73 15.9"><defs><style>.cls-1{fill:#b3b3b3;stroke-width:0px;}</style></defs><g id="Home"><path class="cls-1" d="M16.43,12V3.39c0-1.85,1.49-3.34,3.36-3.34s3.42,1.49,3.42,3.34v8.61c0,1.85-1.49,3.4-3.42,3.4s-3.36-1.55-3.36-3.4Z"/><path class="cls-1" d="M9.35,14.43L.99,5.9c-1.33-1.33-1.33-3.46.02-4.81s3.52-1.39,4.85-.06l8.42,8.42c1.33,1.33,1.37,3.51-.02,4.9s-3.59,1.42-4.92.09Z"/><path class="cls-1" d="M15.05,8.68c.09.09.17.18.25.27V3.41c0-1.89-1.52-3.41-3.49-3.41-1.49,0-2.74.92-3.22,2.22l6.46,6.46Z"/><path class="cls-1" d="M0,6.74v5.21c0,1.89,1.52,3.47,3.43,3.47,1.3,0,2.4-.69,3-2.11L0,6.74Z"/><path class="cls-1" d="M24.91,9.8l7.72-8.4c1.2-1.33,3.24-1.44,4.58-.23,1.4,1.25,1.5,3.29.31,4.62l-7.6,8.46c-1.2,1.33-3.28,1.49-4.67.24-1.35-1.21-1.53-3.35-.34-4.69Z"/><path class="cls-1" d="M26.23,6.76L31.82.67c.12-.14.25-.26.39-.38h-4.56c-1.85,0-3.4,1.49-3.4,3.36,0,1.41.82,2.58,1.98,3.11Z"/><path class="cls-1" d="M36.17,8.89l-5.46,6.08c-.13.15-.27.28-.42.41h4.53c1.85,0,3.34-1.49,3.34-3.42,0-1.38-.81-2.55-1.98-3.07Z"/><path class="cls-1" d="M39.59,9.8l7.72-8.4c1.2-1.33,3.24-1.44,4.58-.23,1.4,1.25,1.5,3.29.31,4.62l-7.6,8.46c-1.2,1.33-3.28,1.49-4.67.24-1.35-1.21-1.53-3.35-.34-4.69Z"/><path class="cls-1" d="M40.91,6.76l5.59-6.09c.12-.14.25-.26.39-.38h-4.56c-1.85,0-3.4,1.49-3.4,3.36,0,1.41.82,2.58,1.98,3.11Z"/><path class="cls-1" d="M50.85,8.89l-5.46,6.08c-.13.15-.27.28-.42.41h4.53c1.85,0,3.34-1.49,3.34-3.42,0-1.38-.81-2.55-1.98-3.07Z"/><circle class="cls-1" cx="67.99" cy="13.16" r="1.27"/><path class="cls-1" d="M64.12,13.16c0-1.74,1.15-3.21,2.73-3.7l-2.8-7.01c-.74-1.85-2.83-2.75-4.76-1.97-1.87.75-2.77,2.83-2.03,4.69l3.32,8.3c.7,1.76,2.64,2.71,4.43,2.16-.55-.67-.89-1.53-.89-2.47Z"/><path class="cls-1" d="M59.57,13.86l-3.32-8.3c-.06-.15-.11-.31-.16-.47l-2.38,5.56c-.78,1.82.03,3.97,1.87,4.76,1.56.67,3.26.19,4.25-1.01-.1-.18-.18-.36-.26-.55Z"/><path class="cls-1" d="M67.99,15.9c-1.51,0-2.74-1.23-2.74-2.74s1.23-2.74,2.74-2.74,2.74,1.23,2.74,2.74-1.23,2.74-2.74,2.74ZM67.99,11.19c-1.08,0-1.97.88-1.97,1.97s.88,1.97,1.97,1.97,1.97-.88,1.97-1.97-.88-1.97-1.97-1.97Z"/></g></svg>