<?xml version="1.0" encoding="UTF-8"?><svg id="Capa_2" xmlns="http://www.w3.org/2000/svg" viewBox="0 0 91.33 34.9"><defs><style>.cls-1{fill:none;}.cls-1,.cls-2,.cls-3{stroke-width:0px;}.cls-2{fill:#ba17ff;}.cls-3{fill:#ff5c80;}</style></defs><g id="Home"><path class="cls-3" d="M4.5,11.99l9.22-1.33-.64,3.27-5.92.85-1.32,6.71,4.67-.67-.64,3.27-4.67.67-1.9,9.65-3.3.48L4.5,11.99Z"/><path class="cls-3" d="M24.92,10.49c-.74-.86-1.9-1.17-3.48-.95l-5.17.75-4.5,22.91,3.3-.48,1.86-9.46,1.71-.25.54,9.11,3.43-.49-.76-9.84c.82-.56,1.5-1.28,2.06-2.14.55-.86.93-1.82,1.14-2.87l.5-2.52c.33-1.66.12-2.92-.62-3.77ZM22.26,14.67l-.52,2.65c-.13.68-.41,1.23-.84,1.65-.43.42-.96.68-1.61.77l-1.71.25,1.36-6.91,1.71-.25c.64-.09,1.1.02,1.38.34.28.32.35.82.22,1.49Z"/><path class="cls-3" d="M29.83,8.33l9.38-1.35-.64,3.27-6.07.88-1.25,6.38,4.83-.7-.64,3.27-4.83.7-1.32,6.71,6.07-.88-.64,3.27-9.38,1.35,4.5-22.91Z"/><path class="cls-3" d="M41.98,6.58l9.38-1.35-.64,3.27-6.07.88-1.25,6.38,4.83-.7-.64,3.27-4.83.7-1.32,6.71,6.07-.88-.64,3.27-9.38,1.35,4.5-22.91Z"/><path class="cls-2" d="M49.62,27.74l4.5-22.91,3.3-.48-1.9,9.65,3.93-.57,1.9-9.65,3.3-.48-4.5,22.91-3.3.48,1.96-9.98-3.93.57-1.96,9.98-3.3.48Z"/><path class="cls-2" d="M89.38,12.17c.28.7.31,1.6.09,2.69l-.37,1.87c-.33,1.66-1.05,3.05-2.18,4.18-1.13,1.13-2.48,1.81-4.06,2.03l-5.51.8L81.85.83l5.23-.76c1.58-.23,2.74.09,3.48.95.74.86.95,2.12.62,3.77l-.24,1.21c-.4,2.05-1.43,3.62-3.07,4.7.73.28,1.24.77,1.51,1.47ZM86.24,14.98c.16-.83.09-1.42-.21-1.77-.31-.35-.85-.47-1.64-.35l-1.74.25-1.35,6.87,2.06-.3c.64-.09,1.18-.35,1.6-.77.43-.42.71-.97.84-1.65l.45-2.29ZM84.51,3.62l-1.22,6.22,1.46-.21c.79-.11,1.41-.4,1.88-.86.46-.46.78-1.1.94-1.93l.32-1.64c.13-.68.06-1.17-.22-1.49-.28-.32-.74-.43-1.39-.34l-1.78.26Z"/><path class="cls-1" d="M70.34,7.94l-2.41,12.26c-.13.65-.06,1.14.21,1.46.27.32.67.44,1.21.37.54-.08,1.02-.33,1.43-.75.42-.42.69-.96.82-1.61l2.24-11.39c-.26.02-.52.03-.79.03-.94,0-1.85-.13-2.72-.37Z"/><path class="cls-2" d="M71.61,19.67c-.13.65-.4,1.19-.82,1.61-.42.42-.89.67-1.43.75-.54.08-.94-.04-1.21-.37-.27-.32-.34-.81-.21-1.46l2.41-12.26c-1.06-.29-2.05-.75-2.94-1.34l-2.77,14.08c-.31,1.59-.09,2.82.67,3.67.76.86,1.9,1.17,3.41.95,1.52-.22,2.84-.89,3.97-2.02,1.13-1.13,1.85-2.49,2.16-4.08l2.31-11.75c-1.03.45-2.14.73-3.31.82l-2.24,11.39Z"/></g></svg>