<?xml version="1.0" encoding="UTF-8"?><svg id="Capa_2" xmlns="http://www.w3.org/2000/svg" viewBox="0 0 91.39 21.46"><defs><style>.cls-1{fill:#1d191a;stroke-width:0px;}</style></defs><g id="Home"><path class="cls-1" d="M88.84,4.64C75.8,1.7,60.48,0,45.69,0S15.59,1.7,2.55,4.64l-.15.04,2.51,4.8.85-.19-1.86-3.63C17.42,2.65,31.87.98,45.69.98s28.28,1.67,41.8,4.68l-1.86,3.63.85.19,2.51-4.8-.16-.03Z"/><path class="cls-1" d="M82.7,17.63c-.09-.02-.19-.04-.3-.06-.1-.02-.2-.04-.29-.06l-.09-.02-1.37,2.72c-11.56-2.37-23.32-3.48-34.96-3.48s-23.41,1.11-34.96,3.48l-1.37-2.72-.09.02c-.09.02-.19.04-.29.06-.1.02-.21.04-.29.06l-.15.03,1.85,3.79.09-.02c12.09-2.49,24.27-3.72,35.22-3.72s23.13,1.23,35.22,3.72l.09.02,1.85-3.79-.15-.03Z"/><path class="cls-1" d="M12.93,9.99l-.13-.92-.19.04c-4.35.87-8.59,1.9-12.61,3.06l.09.35s4.94-1.22,12.66-2.51l.18-.03Z"/><path class="cls-1" d="M15.25,12.19l-.18-.9-.18.04c-4.22.86-8.34,1.86-12.24,2.99l.09.35s4.79-1.18,12.31-2.45l.19-.03Z"/><path class="cls-1" d="M15.39,13.88c-3.14.7-6.23,1.49-9.19,2.34l.09.35s3.53-.87,9.25-1.91l.18-.03-.15-.79-.18.04Z"/><path class="cls-1" d="M78.78,9.11l-.19-.04-.13.92.18.03c7.72,1.29,12.61,2.49,12.66,2.51l.1-.35c-4.02-1.16-8.26-2.19-12.61-3.06h0Z"/><path class="cls-1" d="M77.93,11.63l-.05.15c-.08.24-.09.25-.1.52v.16s.15.03.15.03c6.58,1.15,10.67,2.16,10.71,2.17l.09-.35c-3.41-.98-6.98-1.87-10.64-2.65l-.16-.03Z"/><path class="cls-1" d="M75.81,13.84l-.15.79.18.03c5.72,1.04,9.21,1.9,9.25,1.91l.09-.35c-2.95-.85-6.04-1.64-9.19-2.34l-.18-.04Z"/><path class="cls-1" d="M19.46,5.86l.84-.13-.13-.83-3.75.6.13.83.72-.12c.19-.03.36-.05.49-.05.25,0,.31.06.3.06l-1.11,6.26-3.44-5.67,1.18-.19-.13-.83-5.41.87.13.83.99-.16,6.04,9.98.74-.12,1.67-9.4c.33-1.87.47-1.89.73-1.93h0Z"/><path class="cls-1" d="M28.56,14.58l-5.37-10.24-.88.11-2.67,10.84c-.09.38-.7.45-1.06.5l-.21.02.1.83,3.74-.45-.1-.83-.17.02s-.09.01-.16.03c-.2.03-.54.09-.82.09s-.34-.06-.34-.07c-.01-.09.05-.5.19-1.1l.26-1.12,3.13-.38,1.04,2.15-1.2.14.1.83,5.55-.67-.1-.83-1.04.13ZM23.79,12.03l-2.47.3.84-3.51,1.63,3.22Z"/><path class="cls-1" d="M37.62,11.16l-.03.12c-.49,2.02-1.44,3.01-3,3.12-.11,0-.21.01-.3.01-1.61,0-1.73-.97-2.01-5.08-.31-4.59.16-5.03,1.56-5.13.08,0,.16,0,.24,0,1.52,0,2.32,1.01,3.06,2.52l.05.1.77-.05-.23-3.41-.81.05-.47.62c-.8-.51-1.68-.72-2.71-.65-3.18.21-5.15,4.15-5.02,6.2.21,3.18,2.69,5.67,5.63,5.67.11,0,.23,0,.35-.01.86-.06,1.71-.39,2.55-.99l.63.53.83-.06-.24-3.61-.86.06Z"/><path class="cls-1" d="M49.32,13.79l-4.15-10.79h-.88s-3.91,10.46-3.91,10.46c-.13.37-.74.37-1.11.37h-.21s0,.84,0,.84l3.77-.02v-.84s-.17,0-.17,0c-.03,0-.09,0-.16,0-.12,0-.29.02-.46.02-.64,0-.69-.13-.69-.13,0-.1.11-.49.32-1.07l.39-1.08h3.15s.79,2.24.79,2.24h-1.21s0,.84,0,.84l5.59-.02v-.84s-1.05,0-1.05,0ZM44.88,10.72h-2.49s1.24-3.38,1.24-3.38l1.24,3.38Z"/><path class="cls-1" d="M60,11.36c-.56,1.42-1.31,2.94-3.09,2.83l-1.68-.1.58-9.71,1.49.09.05-.84-5.73-.34-.05.84,1.12.07-.58,9.7-1.12-.07-.05.84,9.46.56.42-3.95-.77-.05-.05.12Z"/><polygon class="cls-1" points="66.41 5.28 67.79 5.42 67.88 4.59 62.17 3.99 62.09 4.83 63.3 4.95 62.29 14.62 61.08 14.5 60.99 15.33 66.7 15.93 66.78 15.09 65.4 14.95 66.41 5.28"/><path class="cls-1" d="M76.8,5.86l-.13.83.63.1c.16.03.41.09.62.2.16.09.25.18.24.24l-.77,4.98-3.4-6.79-4.58-.71-.13.83.71.11c.23.03.53.09.61.19.05.07.02.24-.02.47-.01.08-.03.18-.05.28l-1.25,8.08c-.07.47-.14.62-.44.62-.03,0-.06,0-.08,0l-.95-.15-.13.83,3.94.61.13-.83-1.1-.17c-.39-.09-.45-.27-.41-.51l1.21-7.87,5.3,10.42.63.1,1.6-10.38c.01-.08.04-.24.38-.24.07,0,.15,0,.23.02l.86.13.13-.83-3.79-.58Z"/><path class="cls-1" d="M83.98,8.06c-.13,0-.13-.05-.13-.12,0-.34-.07-.56-.41-.65.22-.04.47-.15.47-.4,0-.4-.46-.4-.7-.4h-.89v.12h.2v1.43h-.2v.12h.81v-.12h-.2v-.71c.41,0,.46.1.46.46,0,.18.08.4.46.4.08,0,.16-.01.24-.04h.02v-.12h-.04s-.08.02-.11.02h0ZM83.02,7.2s-.05,0-.08,0v-.59h0s.08,0,.12,0c.03,0,.06,0,.09,0,.21,0,.31.03.31.3,0,.29-.17.29-.44.29h0Z"/><path class="cls-1" d="M83.17,5.64c-.93,0-1.68.77-1.68,1.73s.77,1.71,1.68,1.71c.96,0,1.71-.76,1.71-1.73s-.77-1.71-1.71-1.71h0ZM83.17,8.72c-.74,0-1.33-.61-1.33-1.36s.59-1.37,1.35-1.37,1.35.6,1.35,1.37-.6,1.36-1.36,1.36h0Z"/></g></svg>