<?xml version="1.0" encoding="UTF-8"?><svg id="Capa_2" xmlns="http://www.w3.org/2000/svg" viewBox="0 0 99.74 33.83"><defs><style>.cls-1{fill:#1999d4;stroke-width:0px;}</style></defs><g id="Home"><path class="cls-1" d="M16.94,33.83C7.6,33.83,0,26.24,0,16.91S7.6,0,16.94,0s16.94,7.59,16.94,16.91-7.6,16.91-16.94,16.91h0ZM16.94.78C8.03.78.78,8.02.78,16.91s7.25,16.14,16.16,16.14,16.16-7.24,16.16-16.14S25.85.78,16.94.78h0Z"/><path class="cls-1" d="M16.94,29.18c-6.95,0-12.61-5.5-12.61-12.27s5.66-12.27,12.61-12.27,12.61,5.5,12.61,12.27-5.66,12.27-12.61,12.27h0ZM16.94,5.51c-6.48,0-11.75,5.11-11.75,11.4s5.27,11.4,11.75,11.4,11.75-5.11,11.75-11.4-5.27-11.4-11.75-11.4h0Z"/><polygon class="cls-1" points="3.56 11.03 3.78 11.86 4.59 11.86 4 12.32 4.22 13.05 3.52 12.48 2.84 13.1 3.12 12.32 2.42 11.86 3.23 11.88 3.56 11.03"/><path class="cls-1" d="M4.31,13.17l-.78-.64-.65.6-.07-.05.26-.74-.79-.53.93.02.37-.94.25.92h.9l-.66.52.25.83ZM2.57,11.91l.6.4-.23.65.58-.53.62.5-.19-.62.51-.41h-.72l-.2-.73-.29.75h-.69Z"/><polygon class="cls-1" points="29.39 22.76 29.61 23.59 30.42 23.59 29.84 24.06 30.06 24.78 29.36 24.21 28.68 24.83 28.95 24.06 28.25 23.59 29.06 23.61 29.39 22.76"/><path class="cls-1" d="M30.14,24.91l-.78-.64-.65.6-.07-.05.26-.74-.8-.53.93.02.37-.94.25.92h.9l-.66.52.26.83ZM28.4,23.64l.6.4-.23.64.58-.53.62.51-.19-.62.51-.41h-.72l-.2-.73-.29.75h-.69Z"/><polygon class="cls-1" points="4.42 22.58 4.65 23.41 5.46 23.41 4.87 23.87 5.09 24.6 4.39 24.03 3.71 24.65 3.98 23.87 3.29 23.41 4.1 23.43 4.42 22.58"/><path class="cls-1" d="M5.17,24.72l-.78-.64-.65.6-.07-.05.26-.74-.79-.53.93.02.37-.94.25.92h.9l-.66.52.25.83ZM3.43,23.46l.6.4-.23.64.58-.53.62.51-.19-.62.51-.41h-.72l-.2-.73-.29.75h-.69Z"/><polygon class="cls-1" points="30.4 10.43 30.69 11.26 31.43 11.26 30.84 11.73 31.06 12.45 30.4 11.84 29.68 12.5 29.96 11.73 29.26 11.27 30.07 11.28 30.4 10.43"/><path class="cls-1" d="M31.15,12.59l-.75-.7-.69.64-.07-.05.26-.75-.8-.53.93.02.36-.93.32.91h.83l-.66.52.26.85ZM29.41,11.31l.6.4-.23.64.62-.57.58.53-.18-.6.51-.4h-.64l-.27-.75-.3.77h-.69Z"/><path class="cls-1" d="M17.93,16.91c.07,0,.14,0,.2,0h-.2Z"/><polygon class="cls-1" points="8.36 26.52 8.71 26.85 7.02 28.67 6.65 28.32 7.11 26.34 7.1 26.34 5.9 27.64 5.54 27.31 7.23 25.49 7.63 25.86 7.18 27.79 7.18 27.79 8.36 26.52"/><path class="cls-1" d="M17.57,3.97l-.55-.05,1.14-2.36.6.06.64,2.53-.57-.06-.11-.52-.92-.09-.22.49ZM17.97,3.07l.64.06-.21-1h0l-.42.93Z"/><polygon class="cls-1" points="20.95 4.08 22.13 4.46 21.99 4.88 20.31 4.34 21.1 2.03 21.6 2.19 20.95 4.08"/><path class="cls-1" d="M24.77,5.59c-.36.54-.84.56-1.37.23-.19-.12-.45-.35-.5-.67-.03-.2.04-.39.17-.6l.91-1.36.44.28-.89,1.33c-.19.29-.1.52.1.65.3.19.52.13.68-.12l.9-1.35.44.28-.89,1.33Z"/><polygon class="cls-1" points="25.9 7.53 25.5 7.21 26.83 5.66 26.24 5.19 26.53 4.86 28.1 6.12 27.81 6.46 27.23 5.99 25.9 7.53"/><path class="cls-1" d="M14.79,3.39c.03.14.14.38.59.32.24-.04.51-.13.46-.39-.03-.19-.23-.21-.5-.24l-.28-.02c-.41-.03-.81-.06-.9-.6-.05-.27.02-.77.83-.89.76-.11,1.04.35,1.09.65l-.5.07c-.03-.11-.12-.36-.57-.29-.2.03-.42.13-.38.36.03.19.2.21.3.22l.63.06c.35.03.68.12.76.56.12.73-.63.91-.84.94-.9.13-1.14-.36-1.19-.66l.5-.07Z"/><path class="cls-1" d="M9.12,3.46c.29-.15,1.13-.42,1.67.6.54,1.02-.16,1.54-.46,1.69-.29.15-1.13.42-1.67-.6-.54-1.02.16-1.54.46-1.69h0ZM10.14,5.37c.25-.13.52-.46.2-1.07-.32-.61-.76-.58-1.01-.45-.25.13-.52.46-.2,1.07.32.61.76.58,1.01.45h0Z"/><path class="cls-1" d="M5.52,6.43l.87-.9c.46-.47.89-.23,1.05-.09.2.18.27.44.16.67.2-.09.34-.11.67.2.26.24.32.3.43.25l.05.04-.4.41c-.11-.05-.22-.12-.4-.3-.24-.23-.35-.3-.62-.03l-.37.38.7.65-.35.36-1.78-1.67ZM7.07,6.36c.19-.19.21-.35.04-.51-.1-.09-.27-.18-.49.04l-.45.46.48.45.42-.44Z"/><path class="cls-1" d="M24.64,27.29l.87-.66c.66-.51,1.24-.05,1.53.31.33.41.63,1.14-.02,1.63l-.85.65-1.54-1.93ZM26.32,28.58l.4-.3c.34-.25.19-.67-.07-.99-.45-.57-.77-.41-.94-.27l-.4.3,1.01,1.26Z"/><polygon class="cls-1" points="28.81 26.94 28.47 27.32 26.59 25.71 26.94 25.33 28.81 26.94"/><polygon class="cls-1" points="29.62 8.74 28.81 7.7 28.39 8.02 29.13 8.97 28.78 9.23 28.04 8.28 27.53 8.66 28.37 9.74 28.01 10 26.86 8.52 28.85 7.04 29.97 8.48 29.62 8.74"/><path class="cls-1" d="M5.77,10.01l-.29.43-2.07-1.38.64-.94c.27-.39.69-.46,1.1-.19.19.13.59.54.21,1.1l-.34.49.74.5ZM4.94,8.87c.22-.32-.01-.47-.1-.53-.2-.13-.36-.08-.54.19l-.23.34.61.41.27-.4Z"/><path class="cls-1" d="M19.41,26.55c.18.42-.29.31-.47.47h-.15c.03-.24.29-.63.63-.47h0Z"/><path class="cls-1" d="M16.72,19.08v.16h-.64c-.06-.36.49-.42.64-.16h0Z"/><polygon class="cls-1" points="17.83 14.8 18.14 14.43 18.97 14.36 19.35 14.29 19.17 14.63 18.73 14.8 18.8 14.63 18.28 14.6 18.01 14.8 17.83 14.8"/><polygon class="cls-1" points="19.86 14.32 20.14 14.29 20.44 14.43 20.27 14.63 19.96 14.7 19.83 14.87 19.65 14.74 19.38 14.8 19.35 14.67 19.59 14.6 19.48 14.46 19.59 14.36 19.86 14.32"/><polygon class="cls-1" points="20.71 14.65 20.88 14.51 21.19 14.54 21.12 14.71 20.67 14.82 20.71 14.65"/><polygon class="cls-1" points="18.28 15.04 18.62 15.01 18.55 15.22 18.21 15.22 18.28 15.04"/><polygon class="cls-1" points="20.62 14.99 20.82 14.84 20.93 14.95 20.8 15.06 20.62 14.99"/><polygon class="cls-1" points="20.44 15.33 20.61 15.53 20.75 15.46 20.65 15.12 20.44 15.33"/><polygon class="cls-1" points="21.07 15.46 21.17 15.32 20.86 15.15 21.07 15.46"/><line class="cls-1" x1="21.07" y1="15.46" x2="21.17" y2="15.32"/><polygon class="cls-1" points="21.41 15.3 21.53 15.35 21.49 15.86 21.32 15.4 21.41 15.3"/><path class="cls-1" d="M15.92,7.58c.12-.14.03-.72-.17-.78-.23.36.47.52,0,.78h.17ZM17.02,9.45c-.03-.28-.1-.87.16-1.25l.16-.16c-.06.05-.11.1-.16.16l-.32-.31.15-.16c-.23.07-.31-.19-.47-.3-.21.58,1.16,1.33-.15,1.39-.09-.09-.21-.16-.17-.31h-.15v.17h.15c-.09.08-.17.19-.31.15-.01.18.03.37-.17.47h.32c.09.09.21.16.15.31.21.06.54-.13.64.15-.05-.13.08-.21.15-.3h0ZM18.71,16.91c.34-.21.53-.35,1.02-.46-.05.15.08.22.15.31.35-.4.56-.07.83.15.13.11.27.19.44.15,0-.05.03-.1.06-.15h.17c.24.58,1.13.92,1.2,1.56.55.27,1.31.04,1.74.61,1.12,1.24-1.34,1.69-.95,2.97-.2.82-.82.96-1.59,1.08-.25.63-.73.88-1.27,1.24-.79-.03-.9.56-1.59.78-.24.81-.92,1.03-1.12,1.87.12.25.55.1.47.46-.55.02-1.25-.31-1.27-.93.21-1.74,1.48-3.05,1.59-4.82-.85-.63-.99-1.83-.95-2.95.55-.28.43-.84.63-1.24l-.31-.31c-.32.47-.53-.24-.96,0-.03-.12-.09-.22-.16-.32-.18-.22-.44-.41-.64-.63-.63-.19-1.33-.24-1.89-.61-.72-.06-.31-.87-.95-1.09-.09.09-.21.16-.17.31-1.02-.27-.61-1.39-1.1-2.02.11-.44.13-.85.03-1.24-.06-.27-.18-.53-.36-.78-1.01-1.11-2.12.81-3.33.15.44-.03.81-.24,1.1-.61-.09-.15-.37-.24-.31-.46l.15-.16-.15-.15.15-.15c-.09-.09-.22-.16-.15-.31.6-.48,1.41-1.14,2.37-1.09.73-.27,1.73.6,2.39-.31-.33-.02-.69-.51-.32-.76.23.03.47-.37.64,0,.2-.1.15-.3.15-.48.52-.28,1.09.6,1.27-.15h.32c-.05.15.08.23.15.31l.17-.16.15.16c.43-.42.7.43,1.27.15.43.27.69.87.79,1.41-.17,0-.37-.04-.47.15l.64.63c.2-.11.15-.3.15-.48.76.39,1.22,1.18,1.59,1.87-.83.14-1.57.49-2.06,1.24.5,1.26-1.62,1.23-.64,2.49l-.31.32c-.03-.29-.13-.55-.31-.78-.82.52-2.26-.52-2.06,1.09.21.18.2.45.47.61.4.18.54-.31.79-.46v-.15h.63c.33.57-.7,1.24.32,1.39,0,.18.05.38-.15.47.08.22.22.29.37.31.12.02.24,0,.37,0h.2c.12.01.24.05.32.15.09-.05.18-.1.25-.15h0Z"/><path class="cls-1" d="M30.42,13.83c.12-.02.29-.03.54-.03.24,0,.4.04.52.13.11.08.19.23.19.4s-.06.31-.16.4c-.13.12-.33.17-.55.17-.04,0-.08,0-.11,0v.56h-.44v-1.62ZM30.86,14.56s.05,0,.1,0c.17,0,.28-.09.28-.23,0-.12-.08-.2-.25-.2-.07,0-.11,0-.13,0v.42Z"/><path class="cls-1" d="M31.14,17.35l-.09.38h-.45l.48-1.64h.58l.49,1.64h-.47l-.11-.38h-.42ZM31.5,17.02l-.08-.29c-.02-.09-.06-.23-.08-.32h0c-.02.1-.05.23-.07.33l-.07.29h.3Z"/><polygon class="cls-1" points="30.78 18.43 30.78 19.03 31.32 19.03 31.32 18.43 31.75 18.43 31.75 20.07 31.32 20.07 31.32 19.42 30.78 19.42 30.78 20.07 30.34 20.07 30.34 18.43 30.78 18.43"/><path class="cls-1" d="M31.36,21.55c0,.53-.32.86-.82.86s-.79-.38-.79-.84.31-.86.82-.86c.53,0,.8.39.8.83h0ZM30.22,21.57c0,.31.13.5.35.5s.33-.21.33-.5-.13-.5-.34-.5-.34.2-.34.5h0Z"/><path class="cls-1" d="M3.68,15.49c0,.53-.32.86-.82.86s-.79-.38-.79-.84.31-.85.81-.85c.53,0,.8.39.8.83h0ZM2.53,15.51c0,.31.14.5.35.5s.34-.21.34-.5-.13-.5-.34-.5-.34.2-.34.5h0Z"/><path class="cls-1" d="M2.07,17.32c.12-.02.29-.03.54-.03.24,0,.4.04.52.13.11.08.19.23.19.4s-.05.31-.16.4c-.13.12-.33.17-.55.17-.04,0-.08,0-.11,0v.56h-.44v-1.62ZM2.51,18.05s.05,0,.1,0c.17,0,.28-.09.28-.23,0-.12-.08-.2-.25-.2-.07,0-.11,0-.13.01v.42Z"/><path class="cls-1" d="M2.78,20.8c.1.05.26.1.43.1.15,0,.22-.05.22-.13s-.07-.13-.26-.19c-.28-.1-.46-.25-.46-.49,0-.29.24-.51.66-.51.2,0,.34.04.44.08l-.09.35c-.07-.03-.19-.08-.36-.08-.13,0-.21.05-.21.12,0,.08.09.12.29.19.29.11.43.26.43.49,0,.28-.22.52-.7.52-.2,0-.39-.05-.48-.1l.08-.36Z"/><path class="cls-1" d="M39.5,2.13c1.63,0,3.12,1.31,3.12,4.36s-1.49,4.36-3.12,4.36-3.12-1.31-3.12-4.36,1.49-4.36,3.12-4.36ZM39.5,9.66c.91,0,1.64-.84,1.64-3.17s-.73-3.17-1.64-3.17-1.64.84-1.64,3.17.73,3.17,1.64,3.17Z"/><path class="cls-1" d="M43.74,5.51c0-.39-.01-.75-.04-1.03h1.26c.01.38.04.77.04,1.14h.02c.17-.49.61-1.24,1.47-1.24.09,0,.16.02.24.04v1.41c-.12-.04-.25-.06-.39-.06-.57,0-1.2.38-1.2,1.54v3.43h-1.39v-5.22Z"/><path class="cls-1" d="M47.64,11.7c.32.19.98.53,1.7.53,1.31,0,1.52-.98,1.52-1.97v-.6h-.02c-.22.49-.62,1.06-1.52,1.06-.81,0-2.02-.58-2.02-3.11,0-1.72.57-3.24,2.09-3.24.84,0,1.23.52,1.52,1.07h.04c0-.33.03-.64.04-.97h1.26c-.02.33-.04.66-.04.98v4.62c0,1.96-.55,3.35-2.67,3.35-.92,0-1.65-.26-1.98-.39l.08-1.34ZM49.65,9.63c.87,0,1.22-.68,1.22-2.1,0-1.31-.46-2.02-1.12-2-.73.01-1.01.74-1.01,2.02,0,1.47.44,2.09.91,2.09Z"/><path class="cls-1" d="M53.69,4.84c.39-.19.94-.46,1.83-.46,1.79,0,2.21.95,2.21,2.51v2.73c0,.45.04.86.08,1.11h-1.26c-.07-.24-.08-.55-.08-.85h-.02c-.35.51-.78.95-1.61.95-.9,0-1.73-.67-1.73-1.83,0-1.7,1.28-2.13,3.04-2.13h.28v-.23c0-.62-.28-1.19-1.08-1.19-.69,0-1.31.36-1.58.61l-.08-1.21ZM56.43,7.67h-.12c-1.19,0-1.89.27-1.89,1.18,0,.57.35.96.89.96.83,0,1.13-.67,1.13-1.79v-.35Z"/><path class="cls-1" d="M58.95,5.51c0-.39-.01-.75-.04-1.03h1.3c.01.32.04.64.04.96h.03-.01c.2-.38.59-1.06,1.54-1.06,1.31,0,1.7,1.06,1.7,2.32v4.03h-1.39v-3.75c0-.96-.22-1.36-.8-1.36-.73,0-.99.67-.99,1.47v3.64h-1.39v-5.22Z"/><path class="cls-1" d="M64.81,1.82h1.43v1.48h-1.43v-1.48ZM64.84,4.48h1.39v6.25h-1.39v-6.25Z"/><path class="cls-1" d="M67.24,9.43l2.47-3.81h-2.39v-1.14h3.78v1.29l-2.42,3.83h2.5v1.14h-3.93v-1.3Z"/><path class="cls-1" d="M72.32,4.84c.39-.19.94-.46,1.83-.46,1.79,0,2.21.95,2.21,2.51v2.73c0,.45.04.86.08,1.11h-1.26c-.07-.24-.08-.55-.08-.85h-.02c-.35.51-.78.95-1.61.95-.9,0-1.73-.67-1.73-1.83,0-1.7,1.28-2.13,3.04-2.13h.28v-.23c0-.62-.28-1.19-1.08-1.19-.69,0-1.31.36-1.58.61l-.08-1.21ZM75.06,7.67h-.12c-1.19,0-1.89.27-1.89,1.18,0,.57.35.96.89.96.83,0,1.13-.67,1.13-1.79v-.35Z"/><path class="cls-1" d="M81.51,10.58c-.33.13-.81.26-1.37.26-1.91,0-2.71-1.45-2.71-3.22s.85-3.23,2.79-3.23c.44,0,.95.15,1.21.26l-.08,1.19c-.25-.13-.59-.3-.98-.3-1.05,0-1.51.77-1.51,2.1,0,1.17.52,2.06,1.58,2.06.34,0,.8-.17.99-.3l.08,1.19Z"/><path class="cls-1" d="M82.39,1.82h1.43v1.48h-1.43v-1.48ZM82.41,4.48h1.39v6.25h-1.39v-6.25Z"/><path class="cls-1" d="M87.51,4.38c1.18,0,2.53.67,2.53,3.22s-1.36,3.23-2.53,3.23-2.54-.61-2.54-3.23,1.37-3.22,2.54-3.22ZM87.51,9.76c.9,0,1.1-1.12,1.1-2.16s-.2-2.15-1.1-2.15-1.11,1.11-1.11,2.15.21,2.16,1.11,2.16ZM87.57,2.04h1.3l-1.14,1.75h-.87l.72-1.75Z"/><path class="cls-1" d="M91.08,5.51c0-.39-.01-.75-.04-1.03h1.3c.01.32.04.64.04.96h.03-.01c.2-.38.59-1.06,1.54-1.06,1.31,0,1.7,1.06,1.7,2.32v4.03h-1.39v-3.75c0-.96-.22-1.36-.8-1.36-.73,0-.99.67-.99,1.47v3.64h-1.39v-5.22Z"/><path class="cls-1" d="M36.63,12.91h2.24c1.61,0,2.46.97,2.46,2.57s-.84,2.59-2.46,2.59h-.81v3.32h-1.43v-8.48ZM38.61,16.88c.9,0,1.29-.47,1.29-1.4s-.39-1.38-1.29-1.38h-.54v2.78h.54Z"/><path class="cls-1" d="M41.91,15.5c.39-.19.94-.46,1.83-.46,1.79,0,2.21.95,2.21,2.51v2.73c0,.45.04.86.08,1.11h-1.26c-.07-.24-.08-.55-.08-.85h-.02c-.35.51-.78.95-1.61.95-.9,0-1.73-.67-1.73-1.83,0-1.7,1.28-2.13,3.04-2.13h.28v-.23c0-.62-.28-1.19-1.08-1.19-.69,0-1.31.36-1.58.61l-.08-1.21ZM44.65,18.33h-.12c-1.19,0-1.89.27-1.89,1.18,0,.57.35.96.89.96.83,0,1.13-.67,1.13-1.79v-.35Z"/><path class="cls-1" d="M47.16,16.16c0-.39-.01-.75-.04-1.03h1.3c.01.32.04.64.04.96h.03-.01c.2-.38.59-1.06,1.54-1.06,1.31,0,1.7,1.06,1.7,2.32v4.03h-1.39v-3.75c0-.96-.22-1.36-.8-1.36-.73,0-.99.67-.99,1.47v3.64h-1.39v-5.22Z"/><path class="cls-1" d="M53.19,15.5c.39-.19.94-.46,1.83-.46,1.79,0,2.21.95,2.21,2.51v2.73c0,.45.04.86.08,1.11h-1.26c-.07-.24-.08-.55-.08-.85h-.02c-.35.51-.78.95-1.61.95-.9,0-1.73-.67-1.73-1.83,0-1.7,1.28-2.13,3.04-2.13h.28v-.23c0-.62-.28-1.19-1.08-1.19-.69,0-1.31.36-1.58.61l-.08-1.21ZM55.92,18.33h-.12c-1.19,0-1.89.27-1.89,1.18,0,.57.35.96.89.96.83,0,1.13-.67,1.13-1.79v-.35Z"/><path class="cls-1" d="M58.41,16.15c0-.45-.02-.79-.04-1.02h1.39c.01.33.04.66.04.98h.02c.21-.49.66-1.08,1.46-1.08.98,0,1.29.66,1.46,1,.28-.44.69-1,1.55-1,1.26,0,1.66.97,1.66,2.49v3.86h-1.39v-3.95c0-.78-.22-1.17-.74-1.17-.62,0-.94.63-.94,1.32v3.79h-1.39v-3.95c0-.78-.22-1.17-.74-1.17-.62,0-.94.63-.94,1.32v3.79h-1.39v-5.23Z"/><path class="cls-1" d="M71.34,21.08c-.29.13-.9.4-1.73.4-1.86,0-2.67-1.45-2.67-3.13,0-1.87.91-3.32,2.38-3.32,1.24,0,2.31.79,2.31,3.34v.29h-3.34c0,1.07.39,1.71,1.47,1.71.85,0,1.26-.28,1.51-.49l.07,1.19ZM70.28,17.72c0-1.11-.34-1.66-.96-1.66-.73,0-1.03.84-1.03,1.66h2Z"/><path class="cls-1" d="M72.68,16.16c0-.39-.01-.75-.04-1.03h1.26c.01.38.04.77.04,1.14h.02c.17-.49.61-1.24,1.47-1.24.09,0,.16.02.24.04v1.41c-.12-.04-.25-.06-.39-.06-.57,0-1.2.38-1.2,1.54v3.43h-1.39v-5.22Z"/><path class="cls-1" d="M76.63,12.47h1.43v1.48h-1.43v-1.48ZM76.65,15.13h1.39v6.25h-1.39v-6.25Z"/><path class="cls-1" d="M83.29,21.23c-.33.13-.81.26-1.37.26-1.91,0-2.71-1.45-2.71-3.22s.85-3.23,2.79-3.23c.44,0,.95.15,1.21.26l-.08,1.19c-.25-.13-.59-.3-.98-.3-1.05,0-1.51.77-1.51,2.1,0,1.17.52,2.06,1.58,2.06.34,0,.8-.17.99-.3l.08,1.19Z"/><path class="cls-1" d="M84.34,15.5c.39-.19.94-.46,1.83-.46,1.79,0,2.21.95,2.21,2.51v2.73c0,.45.04.86.08,1.11h-1.26c-.07-.24-.08-.55-.08-.85h-.02c-.35.51-.78.95-1.61.95-.9,0-1.73-.67-1.73-1.83,0-1.7,1.28-2.13,3.04-2.13h.28v-.23c0-.62-.28-1.19-1.08-1.19-.69,0-1.31.36-1.58.61l-.08-1.21ZM87.08,18.33h-.12c-1.19,0-1.89.27-1.89,1.18,0,.57.35.96.89.96.83,0,1.13-.67,1.13-1.79v-.35Z"/><path class="cls-1" d="M89.6,16.16c0-.39-.01-.75-.04-1.03h1.3c.01.32.04.64.04.96h.03-.01c.2-.38.59-1.06,1.54-1.06,1.31,0,1.7,1.06,1.7,2.32v4.03h-1.39v-3.75c0-.96-.22-1.36-.8-1.36-.73,0-.99.67-.99,1.47v3.64h-1.39v-5.22Z"/><path class="cls-1" d="M95.63,15.5c.39-.19.94-.46,1.83-.46,1.79,0,2.21.95,2.21,2.51v2.73c0,.45.04.86.08,1.11h-1.26c-.07-.24-.08-.55-.08-.85h-.02c-.35.51-.78.95-1.61.95-.9,0-1.73-.67-1.73-1.83,0-1.7,1.28-2.13,3.04-2.13h.28v-.23c0-.62-.28-1.19-1.08-1.19-.69,0-1.31.36-1.58.61l-.08-1.21ZM98.37,18.33h-.12c-1.19,0-1.89.27-1.89,1.18,0,.57.35.96.89.96.83,0,1.13-.67,1.13-1.79v-.35Z"/><path class="cls-1" d="M41.24,22.93v8.04c0,.45.01.84.04,1.07h-1.3c-.02-.18-.04-.55-.04-.97h-.03c-.22.53-.64,1.07-1.54,1.07-1.43,0-2.03-1.48-2.03-3.22,0-2.04.75-3.23,2-3.23.83,0,1.29.51,1.49,1h.02v-3.75h1.39ZM38.75,31.03c.82,0,1.1-.96,1.1-2.14s-.31-2.1-1.08-2.1-1.04.81-1.04,2.06c0,1.45.21,2.17,1.02,2.17Z"/><path class="cls-1" d="M46.69,31.74c-.29.13-.9.4-1.73.4-1.86,0-2.67-1.45-2.67-3.13,0-1.87.91-3.32,2.38-3.32,1.24,0,2.31.79,2.31,3.34v.29h-3.34c0,1.07.39,1.71,1.47,1.71.85,0,1.26-.28,1.51-.49l.07,1.19ZM45.63,28.37c0-1.11-.34-1.66-.96-1.66-.73,0-1.03.84-1.03,1.66h2Z"/><path class="cls-1" d="M50.97,22.93h1.39v9.11h-1.39v-9.11Z"/><path class="cls-1" d="M53.96,26.15c.39-.19.94-.46,1.83-.46,1.79,0,2.21.95,2.21,2.51v2.73c0,.45.04.86.08,1.11h-1.26c-.07-.24-.08-.55-.08-.85h-.02c-.35.51-.78.95-1.61.95-.9,0-1.73-.67-1.73-1.83,0-1.7,1.28-2.13,3.04-2.13h.28v-.23c0-.62-.28-1.19-1.08-1.19-.69,0-1.31.36-1.58.61l-.08-1.21ZM56.7,28.98h-.12c-1.19,0-1.89.27-1.89,1.18,0,.57.35.96.89.96.83,0,1.13-.67,1.13-1.79v-.35Z"/><path class="cls-1" d="M62.17,30.4c.28.19.9.52,1.66.52.63,0,1.19-.38,1.19-1.23,0-.61-.33-.87-1.02-1.29l-.73-.44c-.77-.46-1.28-1.13-1.28-2.22,0-1.52,1.15-2.31,2.47-2.31.83,0,1.41.23,1.64.3l-.07,1.3c-.35-.15-.81-.36-1.47-.36-.72,0-1.09.41-1.09,1,0,.63.39.87.83,1.14l.84.51c.92.56,1.36,1.09,1.36,2.28,0,1.72-1.13,2.55-2.62,2.55-.78,0-1.39-.12-1.78-.38l.08-1.38Z"/><path class="cls-1" d="M67.87,26.15c.39-.19.94-.46,1.83-.46,1.79,0,2.21.95,2.21,2.51v2.73c0,.45.04.86.08,1.11h-1.26c-.07-.24-.08-.55-.08-.85h-.02c-.35.51-.78.95-1.61.95-.9,0-1.73-.67-1.73-1.83,0-1.7,1.28-2.13,3.04-2.13h.28v-.23c0-.62-.28-1.19-1.08-1.19-.69,0-1.31.36-1.58.61l-.08-1.21ZM70.61,28.98h-.12c-1.19,0-1.89.27-1.89,1.18,0,.57.35.96.89.96.83,0,1.13-.67,1.13-1.79v-.35Z"/><path class="cls-1" d="M73.27,22.93h1.39v9.11h-1.39v-9.11Z"/><path class="cls-1" d="M80.54,31.01c0,.39.01.75.04,1.03h-1.3c-.01-.32-.04-.64-.04-.96h-.03s.01,0,.01,0c-.27.46-.63,1.06-1.54,1.06-1.31,0-1.7-1.06-1.7-2.32v-4.03h1.39v3.75c0,.96.25,1.36.83,1.36.74,0,.95-.73.95-1.53v-3.58h1.39v5.22Z"/><path class="cls-1" d="M86.47,22.93v8.04c0,.45.01.84.04,1.07h-1.3c-.02-.18-.04-.55-.04-.97h-.03c-.22.53-.64,1.07-1.54,1.07-1.43,0-2.03-1.48-2.03-3.22,0-2.04.75-3.23,2-3.23.83,0,1.29.51,1.49,1h.02v-3.75h1.39ZM83.98,31.03c.82,0,1.1-.96,1.1-2.14s-.31-2.1-1.08-2.1-1.04.81-1.04,2.06c0,1.45.21,2.17,1.02,2.17Z"/></g></svg>