<?xml version="1.0" encoding="UTF-8"?><svg id="Capa_2" xmlns="http://www.w3.org/2000/svg" viewBox="0 0 75.03 24.67"><defs><style>.cls-1{fill:#b3b3b3;stroke-width:0px;}</style></defs><g id="Home"><path class="cls-1" d="M9.57,19.82l-.03-.02.03-.4.09.08c.05.05.54.47,1.24.69.35.11.7.16,1.05.16.64,0,1.29-.19,1.93-.56,1.13-.65,1.61-1.86,1.82-2.76.23-.98.18-1.81.18-1.82h0s-.02-12.53-.02-12.53h0s.03-.56.37-.83c.24-.19.51-.29.62-.32v-.4h-2.93v.4c.12.04.4.14.64.32.29.23.36.67.37.79h0c.01,4.03.03,13.12.03,13.5,0,.78-.22,1.41-.65,1.88-.54.6-1.14.72-1.54.72h-.01c-.47,0-1.03-.24-1.44-.63-.44-.41-.58-1.27-.59-1.47l-.05-14h0c.02-.21.09-.49.24-.7.23-.31.6-.4.74-.43v-.41h-4.11v.39c.12.02.41.1.67.35.26.25.32.65.33.89h0v14.1s-.31,0-.31,0V2.75c0-.15-.03-.51-.23-.7-.24-.23-.52-.27-.55-.27-.13-.01-.23-.13-.23-.26v-.51c0-.14.11-.26.25-.26h4.24c.14,0,.25.12.25.26v.53c0,.14-.1.25-.23.26-.04,0-.39.05-.58.31-.11.15-.16.36-.18.52l.04,13.99c0,.22.15.92.48,1.23.35.33.84.54,1.23.54h.01c.5,0,.94-.21,1.32-.62.36-.4.56-.97.57-1.66,0-.38-.01-9.45-.03-13.48h0c-.01-.09-.06-.41-.25-.55-.24-.2-.57-.28-.58-.28-.11-.03-.19-.13-.19-.25v-.52c0-.14.11-.26.25-.26h3.06c.14,0,.25.12.25.26v.52c0,.12-.08.22-.19.25,0,0-.31.09-.56.28-.2.16-.24.5-.25.57v.3c0,4.66.02,12.49.02,12.53,0,.37-.04.95-.19,1.6-.31,1.38-1,2.41-1.98,2.97-.68.4-1.38.6-2.09.6-.39,0-.77-.06-1.14-.18-.65-.21-1.08-.53-1.24-.66h0ZM9.4,17.43l-.53,6.4c-.01.13-.12.24-.25.24l-7.82.02c-.07,0-.25,0-.25-.26v-.63c0-.13.1-.24.23-.26.06,0,.36-.07.6-.43.11-.17.13-.56.13-.64l-.04-19.24s-.02-.31-.21-.54c-.17-.2-.38-.26-.53-.3l-.07-.02c-.11-.03-.18-.13-.18-.25v-.11c0-.15,0-.4,0-.4,0-.07.03-.13.07-.18s.11-.08.18-.08h4.44c.14,0,.25.12.25.26v.53c0,.13-.09.24-.21.26-.03,0-.35.07-.52.24-.21.2-.26.47-.27.5,0,.02,0,6.59,0,12.18v7.7s1.18,0,1.4,0c.05,0,.51-.01,1-.43.23-.19.39-.4.48-.62v-.03c.04-.08.14-.3.18-.52.03-.14.45-3.43.45-3.46.02-.13.12-.23.25-.23h.99c.07,0,.14.03.19.09s.07.13.06.2h0ZM11.85,21.09c.6,0,1.09-.13,1.39-.23,1.3-.46,2.23-1.26,2.78-2.39.34-.71.53-1.52.56-2.48.07-1.76.07-13.15.07-13.32,0,0,.02-.19.08-.25.13-.15.72-.4.72-.4.12-.03.19-.18.19-.3V.55c0-.08-.03-.16-.07-.21-.05-.05-.12-.09-.19-.09h-3.95c-.07,0-.14.03-.19.09-.05.05-.07.13-.07.21v1.34c0,.12.08.24.2.27h0s0,0,0,0c.58.09.72.34.76.58,0,0,.21,13.18,0,13.96,0,0,0,0,0,0h0c-.07.27-.2.56-.4.77-.25.26-.57.4-.96.4-.15,0-.54-.03-.85-.37-.27-.29-.41-.72-.4-1.27h0c0-.11,0-2.45,0-13.03v-.58c0-.13,0-.18.08-.23.09-.07.3-.14.7-.24h0c.12-.03.2-.15.2-.27V.55c0-.08-.03-.16-.07-.21-.05-.05-.12-.09-.19-.09h-5.13c-.07,0-.14.03-.19.09-.05.05-.07.13-.07.21v1.34c0,.12.08.24.2.27h0s0,0,0,0c.4.1.61.17.7.24.07.05.07.1.08.23v14.01s-.32.01-.34.24c-.19,1.05-.27,1.9-.33,2.58-.09.95-.15,1.58-.44,1.95-.28.35-.78.49-1.78.5V2.54c0-.05.03-.1.06-.13.1-.09.45-.15.64-.18h.01c.13-.03.22-.14.23-.28V.56c0-.17-.13-.3-.29-.3H.26c-.07,0-.14.03-.19.09-.05.05-.07.13-.07.21v1.35c0,.12.08.24.2.27h0c.41.1.61.18.7.24.08.06.08.25.08.25,0,.07,0,19.32,0,19.49,0,.22-.3.29-.32.3,0,0-.26.04-.35.06-.13.02-.23.13-.23.27H.09v1.53c0,.05,0,.14.06.2.06.06.13.06.17.06h8.72c.14,0,.26-.11.27-.26l.33-3.91c.18.13.5.34.93.48.42.14.86.21,1.3.21h0Z"/><path class="cls-1" d="M74.5,24.02s-.11.08-.18.08h-4.48c-.14,0-.25-.12-.25-.26v-.6c0-.13.09-.24.21-.26.02,0,.21-.03.35-.12.1-.07.22-.15.29-.31.06-.15.11-.38.11-.66,0,0,0-13.89,0-15.24-.11,0-.28,0-.39,0-.17.84-2.33,11.65-2.35,11.76-.05.24-.11.47-.25.47-.16,0-.21-.28-.24-.45-.01-.06-2.23-10.74-2.44-11.77h-.37v11.63s0,.18.05.35c.04.14.14.29.19.36.04.05.15.15.27.23.15.09.3.16.3.16.1.04.15.14.15.24v.6c0,.09-.04.17-.11.22-.04.03-.09.04-.14.04-.03,0-.07,0-.1-.02l-1.63-.79-1.34-.62c-.09-.04-.15-.14-.15-.24v-.68c0-.13.09-.23.2-.26,0,0,0,0,0,0,.16-.03.27-.07.33-.1.11-.04.21-.11.26-.16.05-.05.14-.16.17-.26.04-.1.04-.21.04-.23v-.84c0-11.91,0-13.52,0-13.53,0-.02,0-.15-.03-.26-.03-.13-.11-.26-.16-.32-.05-.06-.17-.17-.3-.23-.14-.07-.3-.1-.3-.1-.12-.02-.21-.13-.21-.25v-.57c0-.07.02-.14.06-.19.05-.05.11-.08.18-.08h3.45c.12,0,.22.09.25.21,1.6,7.92,1.79,8.87,1.81,8.97.09,0,.22,0,.32,0,.15-.73,1.78-8.93,1.79-8.98.02-.12.13-.21.24-.21h4.18c.14,0,.25.12.25.26v.57c0,.12-.08.23-.2.25-.04.01-.18.05-.32.11-.11.05-.22.13-.27.19-.06.06-.14.17-.18.28-.05.12-.05.26-.06.28,0,.28,0,19.33,0,19.47,0,0,0,.13.07.28.05.1.16.24.21.29.03.04.15.11.27.16.13.05.26.06.27.06.13.01.22.13.22.26v.62c0,.07-.02.13-.07.18h0ZM62.69,17.08c0,.09-.05.17-.12.24-.09.08-.21.09-.24.09-.05,0-.11-.03-.05-.29.05-.26.39-2.02.39-2.02,0-.09.07-.21.09,0,.01.2-.06,1.91-.07,1.99h0ZM61.47,18.76s-2.29-.91-3.36-1.29c-.99-.35-2.4-.79-2.67-.88h0c-.11-.04-.18-.14-.18-.25v-.61c0-.14.1-.25.23-.26h0c.11-.01.22-.03.3-.06.11-.04.2-.1.23-.13.04-.05.1-.12.13-.22.04-.14.05-.3.05-.34h0V2.81s0-.19-.05-.37c-.03-.11-.1-.23-.16-.3-.08-.1-.37-.24-.6-.32-.1-.04-.17-.14-.17-.26v-.55c0-.14.1-.25.24-.25h4.17c.14,0,.25.12.25.26v.54c0,.11-.07.21-.17.24-.55.17-.68.44-.72.53-.06.13-.07.26-.07.27,0,1.92,0,6.95,0,9.95v3.52c.33.14.64.21.91.21.25,0,.38-.06.39-.06h.01c.46-.19.68-.8.71-.87.02-.09.73-2.7.74-2.73h0s.06-.17.24-.17c.15,0,.59,0,.59,0,.07,0,.14.03.19.09.05.06.07.13.06.21l-.94,5.8c-.06.26-.31.21-.34.2h0ZM54.35,16.17s-.1.05-.15.05c-.03,0-.15-.03-.19-.04-.36-.09-3.94-.94-3.98-.95-.11-.02-.2-.13-.2-.25v-.58c0-.13.1-.24.22-.26.04,0,.18-.03.29-.1.12-.07.23-.2.28-.26.02-.03.09-.16.12-.3.03-.15.04-.3.04-.3v-.73c0-2.64-.01-9.62-.01-9.83h0c0-.05-.02-.18-.06-.28-.04-.1-.11-.19-.14-.24h0s-.1-.11-.18-.17l-.2-.12c-.07-.04-.14-.13-.14-.23v-.55c0-.14.11-.26.25-.26h3.62c.07-.01.13.02.18.07.05.05.07.12.07.19v.59c0,.1-.07.19-.14.23l-.16.1c-.1.07-.2.18-.24.23-.03.04-.08.13-.1.22-.05.16-.06.33-.07.35,0,.26,0,11.26,0,11.26,0,0,.01.18.05.34.09.42.75.73.75.73.11.03.18.13.18.25v.64c0,.08-.03.16-.09.2h0ZM49.33,4.26c0,.15-.11.26-.25.26h-1c-.14,0-.25-.12-.25-.26v-.84s-.02-.2-.08-.36c-.06-.14-.19-.3-.27-.37-.07-.06-.21-.17-.36-.22-.21-.07-.43-.08-.43-.08h-1.25c0,.51,0,3.82,0,4.36h.99s.13-.01.22-.05c.1-.05.19-.15.22-.18.04-.04.13-.17.18-.29.05-.12.07-.25.07-.25.02-.13.12-.23.25-.23h.84c.14,0,.25.12.25.26v3.04c0,.14-.11.26-.25.26h-.82c-.12,0-.22-.09-.24-.21h0s0,0,0,0c0-.03-.04-.17-.09-.3-.05-.13-.34-.53-.64-.53h-.96c0,.73.01,4.42.01,4.42,0,0,0,.14.06.27.04.1.13.23.18.28.05.05.19.15.32.21.11.05.22.07.22.07.13.02.22.13.22.26v.56c0,.07-.03.15-.08.19-.05.05-.11.07-.17.07,0,0-.02,0-.03,0l-.56-.06c-.95-.11-1.13-.13-1.38-.15-.58-.04-1.61-.14-2.02-.18h-.02c-.13-.01-.23-.13-.23-.26v-.59c0-.13.09-.24.21-.26,0,0,.15-.03.29-.1.12-.06.23-.17.28-.22.04-.04.11-.17.14-.28.04-.13.04-.28.05-.3,0-.15-.02-9.48-.02-9.48,0,0,0-.17-.06-.32-.04-.11-.13-.22-.16-.25-.04-.05-.15-.14-.28-.2-.13-.07-.28-.09-.28-.09-.12-.02-.2-.13-.2-.26v-.56c0-.07.02-.14.07-.19.05-.05.11-.08.18-.08h6.89c.14,0,.25.12.25.26v3.24h0ZM41.17,4.66c0,.14-.11.26-.25.26h-.92c-.14,0-.25-.12-.25-.26v-.67c0-.07.01-.41-.09-.75-.05-.15-.15-.31-.25-.46-.25-.38-.77-.55-1.05-.55-.25,0-.55.12-.74.3-.11.1-.19.22-.23.31-.09.2-.09.39-.09.39v1.58s0,.18.06.35c.05.13.15.28.19.34.04.06.27.25.5.4l.46.29c.55.35,1.46.95,1.47.95.03.02.28.2.5.43.18.19.32.42.4.57.08.15.19.42.24.67.07.32.07.62.07.63v2.31h0s-.05.84-.55,1.42c-.3.35-.62.61-.95.77-.46.22-.85.26-1.29.26-.48,0-.99-.09-1.37-.24-.26-.11-.63-.33-.83-.45,0,.18,0,.42,0,.42,0,.07-.03.13-.07.18-.05.05-.11.08-.18.08h-.89c-.07,0-.13-.03-.18-.08-.05-.05-.07-.11-.07-.19v-4.22c0-.14.11-.26.25-.26h.87c.13,0,.25.11.25.26v1.53s.01.18.07.39c.05.17.15.36.25.47.15.17.35.3.53.36.09.03.19.05.31.05,0,0,.38,0,.58-.09.15-.06.3-.19.45-.37.05-.07.12-.18.15-.3.07-.27.07-.58.07-.61v-1.23s0-.23-.05-.41c-.02-.09-.09-.19-.12-.23h-.01s-.09-.13-.18-.21c-.13-.11-.29-.22-.34-.25-.08-.05-1.95-1.29-1.96-1.3-.03-.02-.21-.15-.38-.32-.17-.17-.34-.4-.44-.58-.08-.16-.19-.41-.24-.66-.07-.32-.07-.63-.07-.64v-2.73h0s.06-.82.62-1.33c.24-.22.47-.42.78-.54.46-.19.97-.23,1.13-.23,0,0,.21-.02.85.1.26.05.55.16.86.31.21.1.49.3.67.44v-.31c0-.15.11-.26.25-.26h.95c.14,0,.25.12.25.26v3.64h0ZM34.24,14.04c0,.13-.1.24-.22.26,0,0-3.51.39-3.51.39-.06,0-.12-.02-.17-.07-.05-.05-.08-.12-.08-.19v-.54c0-.11.07-.21.17-.25,0,0,.12-.04.23-.13.08-.06.17-.18.19-.21.02-.04.06-.14.07-.24,0-.02,0-.05,0-.07,0-.11-.04-.36-.04-.36l-.04-.24-.13-.74c-.09-.53-.19-1.11-.23-1.35h-2.26l-.15.97-.02.12c-.13.88-.32,2.09-.32,2.1,0,0-.05.23.1.35.03.03.13.1.22.13.08.02.23.02.23.02.07,0,.13.03.17.07.05.05.08.12.08.19v.54c0,.12-.08.23-.2.25l-2.5.52s-.03,0-.05,0c-.06,0-.12-.02-.16-.06-.06-.05-.09-.12-.09-.2v-.48c0-.08.03-.15.09-.2,0,0,.15-.13.27-.27.09-.11.18-.26.22-.35.05-.09.13-.44.17-.66.09-.58,1.54-10.44,1.54-10.44,0,0,.04-.19.01-.38-.02-.13-.08-.28-.13-.37-.04-.07-.13-.16-.23-.22-.15-.09-.32-.12-.34-.13-.12-.03-.21-.13-.2-.26v-.54c0-.14.12-.26.25-.26h5.59c.14,0,.25.12.25.26v.57c0,.07-.03.14-.08.19-.05.05-.11.07-.17.07,0,0-.22,0-.31.03-.13.03-.26.12-.3.15-.09.08-.15.15-.18.21-.06.15-.06.23-.06.31,0,0,1.52,9.84,1.53,9.92,0,0,0,0,0,0,.03.12.06.21.08.26.04.09.11.17.13.2.03.03.1.1.2.15l.17.07c.1.04.17.15.17.25v.65h0ZM24.88,14.55c-.17.52-.53,1.02-.82,1.29-.47.45-.95.76-1.43.93-.24.08-.65.18-1.21.18,0,0-.17,0-.22,0-.28,0-.57-.03-.84-.08-.54-.11-1.08-.34-1.34-.56-.21-.19-.59-.56-.77-1.02-.22-.56-.21-1.15-.21-1.16V3.01h0c0-.08.03-.5.27-.95.23-.44.8-.98,1.28-1.19.03-.02.74-.37,1.54-.37.09,0,.17,0,.25.01.42.04.92.17,1.36.35.2.08.4.18.6.29v-.12c0-.15.11-.26.25-.26h1.17c.14,0,.25.12.25.26v4.51c0,.07-.03.14-.07.19s-.11.08-.18.08h-1.13c-.14,0-.25-.12-.25-.26v-1.66s-.06-1.06-.69-1.55c-.22-.17-.46-.25-.72-.25-.37,0-.68.18-.8.29-.3.26-.47.66-.47,1.15v10.22c0,.05.02.24.09.43.07.18.22.39.33.51.1.1.28.23.44.28.15.05.29.06.36.06,0,0,.34,0,.61-.11.2-.08.39-.24.52-.37.07-.08.21-.29.27-.52.08-.27.08-.56.08-.57v-3.28c0-.07.02-.14.07-.19.05-.05.11-.08.18-.08h1.14c.14,0,.25.12.25.26v3.2s.02.61-.17,1.19h0ZM75.02,22.77c0-.14-.11-.26-.24-.28l-.4-.05s-.4-.04-.4-.31V2.66c0-.23,0-.29.81-.5h0c.12-.03.2-.15.2-.27V.55c0-.08-.03-.16-.07-.21-.05-.05-.12-.08-.19-.08h-5.01c-.13,0-.24.09-.26.22,0,0-1.15,5.78-1.56,7.81-.41-2.01-1.56-7.75-1.58-7.81-.03-.13-.14-.22-.26-.22h-4.26c-.07,0-.14.03-.19.08-.05.05-.07.13-.07.21v1.34c0,.13.08.24.2.27h0c.4.1.61.17.7.24.07.05.07.1.08.23v.02c0,.15,0,8.35,0,9.28h-.97c-.12,0-.23.08-.26.2,0,.03-.84,3.06-.86,3.16-.01.04-.13.36-.37.46h0s-.07.03-.2.03c-.15,0-.31-.04-.48-.11,0-.95,0-12.83,0-13.02,0-.01,0-.02,0-.04,0-.13,0-.17.07-.22.09-.07.29-.14.69-.24h0s0,0,0,0c.12-.03.2-.14.2-.27V.55c0-.08-.03-.16-.07-.21-.05-.05-.12-.08-.19-.08h-4.98c-.07,0-.14.03-.19.08-.05.05-.07.13-.07.21v1.36c0,.13.08.24.2.27h0c.56.11.68.34.68.48v12.02s-.03.26-.26.29l-.42.03s-.07.01-.1.02c0,0,.02-.26-.2-.32,0,0-.81-.11-.79-.7V2.66c0-.2.09-.27.36-.42.02-.01.29-.14.29-.34V.55c0-.08-.03-.16-.07-.21-.05-.05-.12-.08-.19-.08h-4.41c-.07,0-.14.03-.19.08-.05-.05-.12-.08-.19-.08h-7.8c-.07,0-.14.03-.19.08-.05-.05-.11-.08-.18-.08h-1.86c-.12,0-.22.09-.25.2,0,0-.67-.29-.97-.35-.45-.1-.88-.11-.93-.11h-.02c-.23,0-.8.06-1.31.27-.38.16-.65.39-.91.63-.69.63-.77,1.56-.78,1.66h0s0,2.75,0,2.75c0,.06,0,.39.08.75.08.36.24.69.29.78.11.22.32.49.52.7.19.2.38.34.44.38h.02s0,.01,0,.01h0c.08.05,1.91,1.27,1.95,1.29.01.01.18.13.3.22l.09.09h0c.04.07.05.09.05.1.03.1.04.24.04.29,0,.02,0,.8,0,1.21h0c0,.2-.07.48-.25.67-.14.15-.32.22-.54.22-.09,0-.3-.02-.48-.21-.15-.16-.22-.39-.21-.68h0c0-.18,0-1.87,0-1.89,0-.15-.12-.28-.27-.28h-1.76c-.15,0-.27.13-.27.28v3.49s-.3-.03-.39-.39c-.09-.54-1.48-9.43-1.5-9.6-.03-.15,0-.25.05-.32.07-.09.19-.09.24-.09.01,0,.52,0,.52,0,.07,0,.13-.03.18-.08.05-.05.09-.13.09-.21V.54c0-.15-.12-.28-.27-.28h-6.5c-.07,0-.14.03-.19.08-.05.05-.07.13-.07.21v1.34c0,.13.08.24.2.27,0,0,.58.05.68.23.04.07.07.14.06.25l-1.58,10.62c-.04.25-.11.48-.12.52,0,0-.09.24-.24.34.05-.36.06-.75.06-.77v-3.67c0-.15-.12-.28-.27-.28h-2.05c-.07,0-.14.03-.19.08-.05.05-.08.13-.08.2v3.78c0,.23-.08.56-.29.79-.16.17-.38.26-.64.26-.1,0-.36-.02-.56-.24-.17-.19-.26-.46-.25-.81h0c0-.16,0-10.25,0-10.25,0-.02.01-.18.1-.33.11-.21.31-.32.57-.32.83,0,1.03.59,1.06,1.48v1.96c0,.15.12.28.27.28h2.03c.07,0,.14-.03.19-.08.05-.05.08-.13.08-.2V.54c0-.15-.13-.28-.28-.28h-2.06c-.15,0-.23.14-.23.14h0c-.49-.2-1.03-.34-1.49-.38-.1,0-.19-.01-.29-.01-.87,0-1.63.36-1.74.41,0,0-.99.5-1.51,1.41-.31.55-.26,1.14-.26,1.19v11.13s0,.01,0,.01c0,.94.31,1.74.88,2.32.63.64,1.58.98,2.74.98.02,0,.12,0,.13,0,.96-.01,1.8-.28,2.5-.79.61-.44.98-.98,1.19-1.35v.6c.02.23.22.34.35.34.01,0,3.44-.75,3.44-.75.09-.05.15-.14.15-.25v-1.46c0-.08-.03-.15-.08-.2-.05-.05-.12-.08-.19-.08,0,0-.5.01-.52.01.04-.27.41-2.7.41-2.7h1.45c.07.42.32,1.92.34,2.01,0,0,.04.35-.25.4-.18.03-.41.13-.39.34v.34s0,1.11,0,1.11c0,.08.03.15.09.21.05.05.11.07.18.07h.01c1.23-.2,4.36-.56,4.36-.56.04,0,.07-.02.1-.04.05.03.08.04.12.04,0,0,1.34-.07,1.9-.09,0,0,.14-.02.14-.23v-.05c.07.03.12.06.17.08.18.07.39.13.61.18.3.06.62.09.93.09.37,0,.67-.03.96-.11.18-.05.35-.11.53-.2.39-.18.76-.48,1.11-.89.6-.7.67-1.61.67-1.72,0-.05,0-2.34,0-2.34,0-.04,0-.37-.08-.73-.06-.3-.19-.61-.29-.8-.05-.09-.22-.41-.48-.69-.25-.26-.59-.51-.59-.51t-1.92-1.24c-.46-.29-.53-.5-.52-.69v-1.49c0-.07.05-.56.58-.56.73,0,.9.53.93,1.32,0,.09,0,1.04,0,1.07,0,.16.12.28.27.28h1.83c.15,0,.27-.13.27-.28v-2.97s.58.11.73.26c.06.06.07.09.08.23l.02,9.52c-.05.46-.69.51-.69.51-.13.02-.23.14-.23.28v1.42c0,.15.1.26.24.28l.28.03h.08c1.51.09,2.98.24,4.52.46,0,0,.09,0,.17-.07.05-.06.09-.13.09-.21v-1.49c0-.14-.1-.26-.23-.28,0,0-.74-.1-.77-.42,0-.11-.01-3.9-.01-3.9h.48c.24-.01.3.57.35.82.03.13.14.23.26.23h1.65c.15,0,.27-.13.27-.28v-3.98c0-.15-.12-.28-.27-.28h-1.69c-.13,0-.25.11-.27.24l-.06.4s-.06.34-.25.36h-.49c0-.95,0-2.93,0-3.37h.78s.17.01.28.05c.05.02.14.07.19.12.04.03.12.14.14.2.03.07.04.15.04.18v1.29c0,.16.12.28.27.28h1.9c.15,0,.27-.13.27-.28v-2.58s.48.13.49.41h0c0,.13.01,10.61.01,10.62,0,0,0,.42-.32.47l-.39.05c-.13.02-.23.14-.23.28v1.37c0,.09.04.18.12.23,0,0,5.25,1.24,5.25,1.24.02,0,.04,0,.06-.02.02.02.03.04.06.05h.01c.32.1.62.19.9.27,4.06,1.22,7.61,2.9,9.88,4.09,0,0,.06.03.18-.03.08-.05.12-.14.12-.24v-1.65c0-.11-.06-.22-.16-.26,0,0-.81-.25-.81-.78s0-5.84,0-8.79c.59,2.81,2.01,9.64,2.03,9.71,0,.03.04.18.1.25.05.07.15.08.22.08,0,0,.49,0,.49,0,.01,0,.11-.01.18-.09.07-.07.12-.22.12-.22,0,0,1.39-6.92,1.96-9.75,0,3.56,0,12.29,0,12.42,0,.17-.03.34-.05.4-.04.13-.26.19-.3.2-.02,0-.1.01-.38.06-.13.02-.23.14-.23.28v1.48c0,.16.12.28.27.28h5.39c.07,0,.14-.03.19-.08.05-.05.08-.13.08-.2t-.01-1.52h0Z"/><path class="cls-1" d="M29.88,19.04c-.8,0-1.55.37-2.06,1.01l-4.19.02c-.09,0-.24-.09-.24-.25,0-.18.14-.24.25-.25.08,0,.16.07.21.14.05.07.13.11.22.11.06,0,.12-.02.17-.06.12-.09.1-.29.02-.43-.12-.19-.35-.3-.63-.31h-.01c-.18,0-.38.09-.52.24-.1.11-.22.29-.22.56,0,.57.49.81.75.81h.01s4.31-.01,4.52-.02h.02v-.02c.4-.57,1.03-.92,1.7-.92,1.14,0,2.08.98,2.08,2.18s-.93,2.18-2.08,2.18c-.69,0-1.33-.36-1.72-.96v-.02h-.03l-14.32-.02c-.31.01-.67.37-.67.8,0,.53.4.8.78.81h0c.22,0,.46-.15.55-.25.14-.16.16-.34.05-.46h0s-.09-.06-.15-.06c-.12,0-.23.08-.27.12-.04.04-.11.1-.18.1-.13,0-.24-.12-.24-.25,0-.13.11-.24.23-.24,0,0,13.4.01,13.88.01.52.68,1.28,1.07,2.1,1.07,1.48,0,2.69-1.26,2.69-2.82,0-1.55-1.2-2.81-2.69-2.81h0Z"/><path class="cls-1" d="M64.08,23.03l-14.33.02h-.02v.02c-.4.6-1.04.96-1.73.96-1.14,0-2.08-.98-2.08-2.18s.93-2.17,2.08-2.17c.67,0,1.3.34,1.69.91v.02h.03c.22,0,4.76.01,4.78.01h0c.26,0,.75-.24.75-.81,0-.27-.12-.45-.22-.56-.14-.15-.34-.24-.53-.24h0c-.28,0-.51.12-.63.31-.08.14-.1.34.02.43.05.04.11.06.17.06.09,0,.17-.04.22-.11.05-.06.12-.13.21-.14.11,0,.25.08.25.25,0,.16-.15.25-.24.25l-4.44-.02c-.52-.64-1.27-1.01-2.07-1.01-1.48,0-2.69,1.26-2.69,2.82s1.21,2.81,2.69,2.81c.82,0,1.59-.39,2.1-1.07.48,0,13.87-.01,13.87-.01h.02c.12,0,.23.11.23.24,0,.13-.11.25-.24.25-.07,0-.13-.05-.17-.1-.04-.04-.15-.12-.27-.12-.06,0-.11.02-.16.06h0c-.11.12-.09.3.05.46.09.1.32.25.55.25h0c.38,0,.77-.28.78-.81,0-.43-.36-.79-.66-.8h0Z"/><path class="cls-1" d="M47.99,21.23c-.31,0-.57.27-.57.6s.26.6.57.6c.21,0,.4-.12.5-.31l12.56-.02c.15,0,.27-.12.27-.28s-.12-.28-.27-.28l-12.55.02c-.1-.2-.29-.33-.51-.33h0Z"/><path class="cls-1" d="M29.38,22.11c.1.19.29.31.5.31.31,0,.57-.27.57-.6s-.26-.6-.57-.6c-.21,0-.41.13-.51.33l-12.54-.02c-.15,0-.27.13-.27.28s.12.28.27.28l12.55.02Z"/><path class="cls-1" d="M68.31,23.45c-.06-.04-5.57-3.52-12.59-5.63-5.64-1.69-11.25-2.55-16.68-2.55-3.92,0-8.84.26-15.51,2.15-7.17,2.03-13.12,5.66-13.37,5.81-.17.11-.23.34-.13.52,0,0,.08.15.22.17.11.03.27-.04.27-.04.25-.15,6.12-3.73,13.2-5.73,6.6-1.87,11.45-2.12,15.33-2.12,5.36,0,10.91.85,16.48,2.52,6.93,2.08,12.35,5.51,12.41,5.54.17.11.39.05.49-.13.1-.18.05-.41-.12-.51h0Z"/><path class="cls-1" d="M37.03,21.76h-.62s-.06,0-.06.04l-.1.59c-.05.24-.13.47-.15.54-.08.23-.16.4-.24.49-.15.18-.33.23-.39.23-.05,0-.13-.05-.19-.17-.05-.11-.06-.26-.07-.36,0,0-.02-2.89-.02-4.24,0-.39,0-.65,0-.69h0s0-.01,0-.02h0s0-.13.03-.2c.02-.06.06-.11.09-.15,0,0,.02-.03.02-.03.03-.05.13-.11.26-.15.03,0,.04-.03.04-.06v-.5s-.02-.04-.03-.05c-.01-.01-.03-.02-.05-.02l-2.3.2s-.06.03-.06.07v.46s.02.05.04.06l.21.1c.09.06.14.14.15.16.03.04.07.17.09.29,0,0,.03.31.03.31,0,.07.02,4.46.02,4.46,0,0,0,.12-.04.23-.03.1-.09.19-.1.21-.03.04-.1.11-.16.15l-.19.11s-.04.04-.04.06v.44s.04.06.08.06h3.5s.06-.02.06-.05l.25-2.5s0-.04-.02-.05c-.01-.01-.03-.02-.05-.02h0Z"/><path class="cls-1" d="M39.98,23.52s-.04-.01-.06,0l-.18.07c-.1.02-.22.03-.3.03-.05,0-.29,0-.41-.13-.13-.14-.15-.39-.15-.49,0-.14,0-1.16,0-2.86v-.07s0-.07.03-.09c.02-.02.08-.03.11-.03,0,0,.01,0,.01,0,.01,0,.02,0,.03,0,.07,0,.7,0,.7,0,.03,0,.05-.02.06-.04.02-.06.06-.19.08-.36l.02-.31v-.03s-.03-.07-.06-.07h-.81c-.09,0-.14,0-.15-.01-.02-.02-.03-.06-.03-.1v-1.2s0-.04-.02-.05c-.01-.01-.04-.02-.05-.01l-1.31.36s-.05.03-.05.06v.85s0,.08-.02.09c-.01.01-.05.02-.1.02h-.64s-.06.03-.06.07v.67s0,.03.01.05c.01.01.03.02.05.02h.61s.11,0,.13.03c.01.01.03.05.03.12v.03s0,3.16,0,3.16c0,.03.01.24.08.45.06.18.18.34.24.4.05.06.2.19.38.26.16.07.33.08.35.08h.67s.22-.03.22-.03c0,0,.06-.02.06-.02,0,0,.26-.08.26-.08.12-.05.17-.09.23-.15.07-.07.09-.12.09-.15v-.45s-.02-.04-.03-.05h0Z"/><path class="cls-1" d="M42.76,22.91c0,.18-.19.5-.52.5s-.55-.27-.54-.51c0-.15,0-2.49,0-2.56,0-.11.07-.54.51-.54.48,0,.55.41.56.5,0,.07,0,2.47,0,2.61h0ZM44.76,23.8c-.08,0-.28-.02-.4-.12-.17-.14-.18-.45-.18-.45,0-.18,0-5.96,0-6.02,0-.03-.02-.06-.05-.07-.17-.03-.74-.12-1.29-.13h-.77s-.03,0-.05.01c-.01.01-.02.03-.02.05v.5s.02.06.06.07c.07,0,.14.02.2.04.11.04.21.13.24.17.02.02.14.14.19.26.03.06.05.16.05.22v.02s0,.02,0,.02c0,0,0,0,0,0v.76s-.01.08-.03.11c-.01.02-.04.03-.07.03-.02,0-.09-.04-.09-.04-.06-.03-.17-.09-.28-.14-.19-.06-.42-.09-.5-.09-.1,0-.71.07-1.05.36-.42.37-.41,1.03-.41,1.04,0,0,0,3.04,0,3.04,0,0,.01.37.27.64.24.24.56.38.77.38,0,0,.56.06.9-.12.15-.08.34-.23.38-.26h.06s.08.16.17.25c.07.07.18.09.23.09h1.67s.06-.03.06-.07v-.48s-.03-.07-.06-.07h0Z"/><path class="cls-1" d="M29.7,8.5c-.07,0-.63,0-.68,0s-.1-.05-.09-.12c.02-.11.38-3.3.39-3.31,0-.01.01-.02.02-.02s.02,0,.03.02c0,.01.42,3.27.43,3.32,0,.05-.02.12-.08.12h0ZM29.19,3.49l-.79,5.4h1.91l-.87-5.4h-.25Z"/><path class="cls-1" d="M30.57,9.12c-.05.06-.12.09-.19.09h-2.05c-.07,0-.14-.03-.19-.09-.05-.06-.07-.13-.05-.21l.81-5.53c.02-.13.12-.22.24-.22h.36c.12,0,.23.09.25.21l.89,5.53c.01.08,0,.15-.06.21h0ZM33.46,13.14s-.13-.15-.18-.28c-.07-.15-.11-.32-.11-.33h0s-1.44-9.24-1.44-9.24c0,0-.05-.29-.07-.43-.02-.17-.02-.27-.02-.32,0-.09,0-.23.09-.44.06-.15.2-.27.26-.33.07-.06.24-.17.42-.22.12-.03.25-.04.31-.04h.01v-.44h-5.47v.43c.07.02.23.07.38.15.16.09.28.23.34.33.07.11.15.31.18.5.03.25-.02.47-.02.48l-1.54,10.43s-.1.59-.2.77c0,0-.14.26-.26.4-.11.14-.24.25-.29.3v.37l2.38-.49v-.42c-.07,0-.15-.01-.24-.04-.16-.04-.3-.15-.36-.2-.06-.05-.15-.19-.19-.34-.03-.16,0-.3,0-.31l.5-3.31s.02-.08.06-.11c.04-.03.09-.03.11-.03h2.46s.08,0,.13.04c.07.05.08.11.08.13l.42,2.53s.04.22.03.42c-.01.15-.06.29-.1.37-.04.07-.15.22-.28.32-.11.08-.21.13-.27.15v.42l3.36-.38v-.55s-.11-.04-.18-.08c-.13-.07-.24-.16-.29-.22h0Z"/><path class="cls-1" d="M40.03,1.65s0,.13-.06.16c-.09.05-.16-.02-.17-.03h0s0,0,0,0c-.09-.07-.58-.46-.87-.6-.29-.14-.55-.24-.79-.29-.38-.08-.77-.09-.78-.09h0c-.14,0-.61.04-1.02.21-.26.11-.47.28-.68.49-.45.41-.51,1.07-.52,1.1v2.71s0,.28.06.57c.04.21.14.43.21.57.08.15.23.36.38.51.16.16.33.28.33.29l1.95,1.29s.21.13.37.27c.11.09.19.2.24.26h0c.04.08.12.2.16.35.06.23.07.49.07.49v1.23s0,.37-.08.7c-.04.15-.12.31-.22.42-.13.15-.32.36-.56.46-.25.11-.69.12-.7.12-.15,0-.29-.02-.41-.06-.23-.07-.48-.24-.66-.45-.13-.15-.26-.38-.32-.6-.07-.25-.08-.47-.08-.48v-1.47h-.75v4.09s.76,0,.76,0v-.6c-.01-.06,0-.16.09-.2.01,0,.03,0,.05,0,.08,0,.15.06.17.07.1.07.62.4.93.52.34.14.81.22,1.26.22.4,0,.75-.04,1.16-.23.29-.14.57-.37.85-.69.42-.49.47-1.19.47-1.22v-2.3s0-.27-.06-.55c-.05-.22-.14-.46-.21-.6-.07-.13-.2-.34-.35-.49-.2-.21-.44-.38-.45-.39l-1.91-1.24s-.48-.32-.59-.49c-.05-.07-.17-.25-.22-.42-.08-.23-.08-.44-.08-.45v-1.59s0-.26.12-.52c.06-.13.17-.28.3-.42.24-.23.62-.39.95-.39s.97.19,1.31.7h0c.11.18.23.35.28.54.13.42.11.83.11.87v.59h.8V1.08h-.83v.57h0Z"/><path class="cls-1" d="M7.96,19.55s-.15,1.09-.2,1.35c-.05.26-.15.51-.19.59v.02c-.12.27-.31.52-.58.75-.56.48-1.18.5-1.19.5,0,0-1.54,0-1.54,0-.03,0-.18-.01-.18-.23V2.55s0,0,0,0h0s.04-.42.37-.73c.2-.2.5-.29.63-.32v-.41H.78v.4c.16.04.48.14.69.4.28.34.29.74.29.75,0,.79.04,19.22.04,19.24,0,.02.02.52-.18.82-.27.41-.64.53-.77.56v.51s7.7-.02,7.7-.02l.52-6.27h-.86s-.25,2.08-.25,2.08Z"/><path class="cls-1" d="M42.26,1.52c.07.02.19.05.3.11.16.08.31.21.37.27.04.04.17.19.23.36.07.2.07.41.07.42l.02,9.49s0,.2-.06.39c-.05.17-.14.33-.2.4-.06.07-.2.22-.37.3-.13.07-.26.1-.33.12v.48c.25.02,1.37.14,1.98.18.27.02.44.04,1.43.15l.46.05v-.44c-.06-.01-.15-.03-.25-.08-.17-.07-.35-.2-.42-.28-.07-.07-.19-.23-.25-.38-.07-.19-.08-.37-.08-.39v-4.51s-.02-.12.03-.19c.03-.03.09-.05.18-.05.03,0,.05,0,.06,0h.99c.24,0,.46.11.66.31.18.19.26.39.27.41.05.12.08.25.1.32h.71v-2.91h-.73c-.01.06-.04.17-.08.28-.07.16-.18.32-.24.38-.07.08-.18.19-.31.25-.15.07-.32.08-.33.08h-1.14s-.1,0-.14-.04c-.05-.05-.05-.13-.04-.15V2.27s-.02-.11.03-.15c.04-.04.09-.05.14-.05h1.38s.27,0,.53.1c.18.06.36.19.46.28.09.08.26.28.35.48.1.24.11.46.11.48v.79h.88V1.08h-6.77v.44Z"/><path class="cls-1" d="M24.74,10.22h-1.02v3.22s.01.34-.08.66c-.07.26-.23.53-.35.66-.07.07-.32.33-.63.45-.34.13-.73.13-.73.13-.09,0-.26,0-.45-.07-.21-.07-.44-.24-.56-.36-.13-.13-.31-.38-.4-.62-.11-.27-.12-.53-.12-.54,0,0,.02-9.72.01-10.2,0-.62.17-1.05.58-1.4.21-.18.6-.38,1.04-.38.31,0,.6.1.86.3.76.58.81,1.78.81,1.8v1.61h1V1.09h-1.04v.28s.02.12-.08.17c-.11.05-.25-.03-.27-.04-.1-.06-.36-.21-.68-.34-.41-.17-.89-.29-1.28-.33-.07,0-.15-.01-.23-.01-.73,0-1.4.33-1.41.34-.42.19-.95.67-1.14,1.05-.22.42-.23.81-.23.81v11.11s0,.54.18,1.03c.15.39.49.73.68.89.26.23.8.42,1.2.5.26.05.52.08.79.08.03,0,.22,0,.23,0,.23,0,.69-.02,1.11-.17.43-.15.89-.45,1.32-.86.25-.25.58-.7.73-1.16.17-.52.15-1.07.15-1.07v-3.15h0Z"/><path class="cls-1" d="M61.23,15.45h0c-.05.15-.31.85-.89,1.07-.04.02-.21.09-.51.09-.35,0-.73-.09-1.13-.27l-.09-.04v-.21c0-.13,0-13.32,0-13.47,0-.16.04-.25.1-.4.07-.16.22-.33.28-.38.23-.19.47-.28.58-.31v-.43h-4.02l-.02.44c.16.06.55.22.7.4.07.09.17.25.22.42.07.23.07.45.07.46v11.9s0,.23-.07.44c-.04.16-.13.28-.19.35-.08.09-.22.17-.36.22-.13.04-.25.06-.32.07v.5c.26.08,1.65.52,2.64.87.98.34,2.92,1.11,3.3,1.26l.92-5.65h-.47c-.35,1.27-.73,2.65-.73,2.67h0Z"/><path class="cls-1" d="M53.88,15.26c-.18-.11-.37-.29-.44-.38-.04-.05-.17-.24-.23-.44-.07-.22-.06-.43-.06-.44V2.73s0,0,0,0c0,0,.02-.22.08-.43.04-.13.1-.25.15-.32.06-.08.2-.22.31-.3.07-.05.13-.09.17-.11v-.49h-3.5v.46s.13.07.21.13c.1.08.2.17.24.23h0c.05.06.14.19.19.33.06.17.08.36.08.38h0s.01,10.57.01,10.57c0,0,0,.19-.05.38-.04.17-.12.34-.17.42-.02.02-.17.23-.38.35-.13.07-.27.11-.35.12v.47c.38.09,3.51.84,3.99.96v-.5c-.06-.02-.16-.06-.26-.12h0Z"/><path class="cls-1" d="M73.97,23.2c-.17-.06-.32-.16-.39-.23-.07-.07-.21-.24-.27-.39-.09-.21-.09-.4-.09-.41V2.69s0-.2.07-.39c.06-.16.17-.32.25-.4.09-.09.23-.19.36-.25.13-.06.26-.1.33-.12v-.46h-4.07l-1.79,9.02h0s0,0,0,0c0,0-.03.08-.06.11-.03.04-.1.05-.12.05h-.5s0,0,0,0h0s-.09,0-.14-.07c-.05-.05-.07-.15-.07-.17l-1.8-8.94h-3.34v.46c.08.02.21.05.34.12.16.08.32.21.4.3.08.09.18.27.23.45.05.18.04.35.04.36v14.35s.01.17-.05.34c-.05.15-.17.31-.25.39-.07.07-.2.16-.36.23-.13.05-.27.09-.34.1v.59c.15.07.67.3,1.31.61.61.29,1.31.63,1.55.75v-.46c-.06-.03-.19-.09-.31-.17-.14-.09-.29-.22-.35-.31-.08-.11-.19-.29-.24-.46-.07-.22-.08-.43-.08-.44V6.51s0-.09.06-.14c.03-.03.08-.04.11-.04,0,0,.02,0,.02,0,.04,0,.62,0,.63,0,.04,0,.07,0,.09.03.04.03.05.1.06.13l2.4,11.54,2.31-11.53s.03-.1.06-.13c.03-.02.06-.03.11-.03h.62s.01,0,.02,0c.03,0,.08,0,.12.04.06.06.06.15.06.16v15.36s-.01,0-.01,0c0,.17-.02.6-.15.81-.14.23-.4.51-.81.58v.48h4.36v-.5c-.07,0-.17-.03-.28-.07h0Z"/></g></svg>