<?xml version="1.0" encoding="UTF-8"?><svg id="Capa_2" xmlns="http://www.w3.org/2000/svg" viewBox="0 0 86.91 23.21"><defs><style>.cls-1{fill-rule:evenodd;}.cls-1,.cls-2{stroke-width:0px;}</style></defs><g id="Home"><rect class="cls-2" x=".14" y="14.38" width="86.73" height=".81"/><path class="cls-2" d="M8.4,9.94h3.94v-.31c-.97-.06-1.33-.2-1.35-.83-.05-2.84-.16-6.28-.16-6.9,0-1.21.26-1.51,1.5-1.58v-.31h-2.41l-3.77,7.85c-.2-.59-.44-1.02-.66-1.52L2.72,0H.13v.31c1.19.06,1.41.19,1.41,1.78,0,.82-.08,3.87-.23,5.88-.09,1.27-.42,1.49-1.32,1.65v.31h3.25v-.31c-1.14,0-1.42-.52-1.42-1.79,0-1.43.11-3.82.13-6.38h.03c.92,2.17,1.96,4.47,2.47,5.5.5,1.01.93,2.21,1.21,2.82h.22c1.05-2.6,2.46-5.42,3.71-8.13h.03c.09,2.3.09,4.72.16,7.07.02.66-.25.85-1.37.91v.31h0Z"/><path class="cls-1" d="M15.73,4.07c1.52,0,1.93,1.35,1.93,2.84s-.4,2.84-1.93,2.84-1.92-1.35-1.92-2.84.41-2.84,1.92-2.84h0ZM15.73,3.76c-1.61,0-3.17,1.16-3.17,3.15s1.56,3.15,3.17,3.15,3.18-1.16,3.18-3.15-1.56-3.15-3.18-3.15h0Z"/><path class="cls-1" d="M20.76,5.52c.17-.71.67-1.44,1.58-1.44.79,0,1.34.6,1.4,1.44h-2.99ZM24.69,5.89c.11,0,.16-.01.16-.07,0-.97-1.03-2.06-2.35-2.06-1.64,0-3.01,1.35-3.01,3.32,0,1.38,1.12,2.98,2.99,2.98,1.01,0,1.7-.5,2.4-1.07l-.19-.25c-.69.47-1.19.69-1.81.69-1.46,0-2.3-1.22-2.3-2.61,0-.43.05-.69.11-.93h4ZM23.08,1.8c0,.41.33.74.74.74s.73-.33.73-.74-.33-.73-.73-.73-.74.33-.74.73h0ZM20.3,1.8c0,.41.33.74.73.74s.74-.33.74-.74-.33-.73-.74-.73-.73.33-.73.73h0Z"/><path class="cls-2" d="M29.33,3.89h-1.95v-1.1c0-.2-.08-.25-.17-.25-.16,0-.3.22-1.34,1.29-.13.12-.27.24-.27.34,0,.15.38.17.5.22.16.06.19.11.19.62v3.48c0,.75.31,1.57,1.61,1.57.7,0,1.14-.19,1.58-.34v-.32c-.3.05-.66.12-1.1.12-.57,0-1-.27-1-.95v-3.02c0-.97.22-1.13.86-1.13h1.1v-.53h0Z"/><path class="cls-2" d="M35.94,4.48V1.72c0-1.19.19-1.41,1.41-1.41V0h-3.98v.32c1.04,0,1.22.22,1.22,1.41v6.49c0,1.19-.19,1.41-1.3,1.41v.31h4.1v-.31c-1.27,0-1.45-.22-1.45-1.41v-3.2h6.25v3.2c0,1.19-.18,1.41-1.51,1.41v.31h4.1v-.31c-1.05,0-1.24-.22-1.24-1.41V1.72c0-1.19.19-1.41,1.24-1.41V0h-4.02v.32c1.25,0,1.44.22,1.44,1.41v2.76h-6.25Z"/><path class="cls-1" d="M46.41,5.52c.17-.71.67-1.44,1.58-1.44.8,0,1.34.6,1.41,1.44h-2.99ZM50.33,5.89c.11,0,.16-.01.16-.07,0-.97-1.03-2.06-2.35-2.06-1.64,0-3.02,1.35-3.02,3.32,0,1.38,1.13,2.98,2.98,2.98,1.02,0,1.71-.5,2.41-1.07l-.19-.25c-.69.47-1.19.69-1.81.69-1.46,0-2.3-1.22-2.3-2.61,0-.43.05-.69.11-.93h4Z"/><path class="cls-2" d="M50.85,9.94h3.08v-.25c-.76,0-.95-.22-.95-1.41v-3.19c.25-.3.8-.79,1.44-.79,1.08,0,1.63.64,1.63,1.91v2.07c0,1.19-.19,1.41-.92,1.41v.25h2.94v-.25c-.74,0-.92-.22-.92-1.41v-2.33c0-1.84-1.22-2.18-2.14-2.18-1.02,0-1.66.46-2.08.74v-.64c0-.14-.1-.19-.18-.19-.2,0-.62.27-1.16.59-.17.09-.27.14-.27.27,0,.1.07.13.19.2.3.19.38.25.38.61v2.93c0,1.19-.19,1.41-1.04,1.41v.25h0Z"/><path class="cls-2" d="M58.39,9.94h3.08v-.25c-.77,0-.95-.22-.95-1.41v-3.19c.25-.3.79-.79,1.44-.79,1.08,0,1.63.64,1.63,1.91v2.07c0,1.19-.18,1.41-.92,1.41v.25h2.94v-.25c-.73,0-.92-.22-.92-1.41v-2.33c0-1.84-1.22-2.18-2.14-2.18-1.02,0-1.66.46-2.08.74v-.64c0-.14-.09-.19-.17-.19-.2,0-.62.27-1.16.59-.18.09-.27.14-.27.27,0,.1.07.13.19.2.3.19.37.25.37.61v2.93c0,1.19-.18,1.41-1.03,1.41v.25h0Z"/><path class="cls-1" d="M67.26,5.52c.18-.71.67-1.44,1.58-1.44.79,0,1.35.6,1.41,1.44h-2.99ZM71.19,5.89c.11,0,.15-.01.15-.07,0-.97-1.03-2.06-2.34-2.06-1.65,0-3.02,1.35-3.02,3.32,0,1.38,1.13,2.98,2.99,2.98,1.02,0,1.71-.5,2.41-1.07l-.19-.25c-.69.47-1.19.69-1.82.69-1.45,0-2.3-1.22-2.3-2.61,0-.43.05-.69.11-.93h4.01Z"/><path class="cls-2" d="M75.47,4.09c0-.06-.04-.11-.11-.12-.33-.11-.85-.21-1.21-.21-1.38,0-2.11.85-2.11,1.68,0,1.72,2.85,1.63,2.85,3.2,0,.77-.6,1.11-1.08,1.11-1.24,0-1.35-1.5-1.57-1.5-.09,0-.17.05-.17.15,0,.14-.16.75-.16.85,0,.3.91.82,1.8.82,1.47,0,2.21-1.15,2.21-1.88,0-1.93-2.84-1.65-2.84-3.2,0-.6.37-.91.84-.91.61,0,1.03.53,1.33,1.08.03.05.08.1.16.1.06,0,.09-.06.09-.13l-.03-1.03h0Z"/><path class="cls-2" d="M80.09,4.09c0-.06-.05-.11-.11-.12-.32-.11-.84-.21-1.2-.21-1.38,0-2.11.85-2.11,1.68,0,1.72,2.85,1.63,2.85,3.2,0,.77-.6,1.11-1.08,1.11-1.24,0-1.34-1.5-1.56-1.5-.09,0-.17.05-.17.15,0,.14-.16.75-.16.85,0,.3.9.82,1.8.82,1.47,0,2.2-1.15,2.2-1.88,0-1.93-2.85-1.65-2.85-3.2,0-.6.38-.91.85-.91.61,0,1.03.53,1.33,1.08.03.05.08.1.16.1.06,0,.1-.06.1-.13l-.03-1.03h0Z"/><path class="cls-2" d="M80.85,3.89v.25c.47.13.62.33.83.82l1.98,4.87c.06.14.11.23.11.33,0,.16-.19.66-.38,1.18-.33.91-.44.94-.88,1.04-.8.17-1.08.32-1.08.72,0,.26.21.55.62.55.83,0,1.32-1.02,1.68-2l2.28-6.18c.37-1,.52-1.16.89-1.32v-.25h-1.94v.25c.39.08.69.18.69.61s-.78,2.55-1.25,4.07h-.03c-.41-1.58-1.47-3.57-1.47-4.12,0-.38.19-.55.77-.57v-.25h-2.83Z"/><path class="cls-2" d="M20.49,21.96h-1.35l-.24.55c-.06.13-.09.24-.09.3,0,.05.02.1.07.14.05.04.16.07.33.08v.09h-1.1v-.09c.15-.03.24-.06.28-.1.09-.08.19-.25.29-.5l1.23-2.88h.09l1.21,2.91c.1.24.19.39.27.46.08.07.19.1.33.11v.09h-1.38v-.09c.14,0,.23-.03.28-.07.05-.04.08-.09.08-.15,0-.07-.03-.19-.1-.36l-.21-.5ZM20.42,21.77l-.59-1.42-.61,1.42h1.2Z"/><path class="cls-2" d="M27.74,23.13h-.93l-1.18-1.63c-.09,0-.16,0-.21,0-.02,0-.04,0-.07,0h-.08v1.01c0,.22.03.35.08.41.06.08.16.11.29.11h.14v.09h-1.49v-.09h.13c.15,0,.26-.05.32-.15.04-.05.05-.18.05-.38v-2.26c0-.22-.02-.36-.07-.41-.07-.08-.17-.11-.3-.11h-.13v-.09h1.27c.37,0,.64.03.82.08.18.05.33.15.45.3.12.15.18.32.18.52,0,.22-.07.4-.21.56-.14.16-.36.27-.65.34l.72,1c.16.23.31.38.43.46.12.08.27.13.46.15v.09ZM25.26,21.34s.06,0,.08,0h.06c.33,0,.58-.07.75-.22.17-.14.25-.33.25-.55s-.07-.39-.2-.53c-.14-.14-.32-.2-.54-.2-.1,0-.23.01-.41.05v1.45Z"/><path class="cls-2" d="M33.51,19.56l.09,1.1h-.09c-.09-.28-.21-.48-.35-.62-.21-.2-.48-.3-.8-.3-.44,0-.78.18-1.01.53-.19.3-.29.65-.29,1.07,0,.33.07.64.19.91.13.27.3.48.51.61.21.13.42.19.64.19.13,0,.26-.01.37-.05.12-.03.24-.08.35-.14v-1.01c0-.18-.01-.29-.04-.34-.03-.06-.07-.1-.13-.13-.05-.03-.15-.04-.29-.04v-.1h1.35v.1h-.06c-.13,0-.23.04-.27.13-.03.06-.05.19-.05.38v1.07c-.2.11-.39.18-.58.23-.19.05-.41.08-.64.08-.68,0-1.19-.21-1.54-.65-.26-.32-.39-.7-.39-1.12,0-.31.07-.6.22-.88.18-.34.42-.59.72-.77.25-.15.56-.22.9-.22.13,0,.24.01.34.03.1.02.25.07.44.14.1.04.16.05.19.05.03,0,.06-.01.08-.04.03-.03.04-.09.04-.18h.1Z"/><path class="cls-2" d="M37.76,19.83v1.38h.77c.2,0,.33-.03.4-.09.09-.08.14-.21.15-.41h.1v1.22h-.1c-.02-.17-.05-.28-.07-.32-.03-.06-.08-.11-.15-.15-.07-.03-.18-.05-.32-.05h-.77v1.15c0,.16,0,.25.02.29.01.03.04.06.07.08.04.02.1.03.2.03h.59c.2,0,.34-.01.43-.04.09-.03.17-.08.26-.16.11-.11.22-.27.33-.48h.1l-.3.88h-2.69v-.1h.12c.08,0,.16-.02.23-.06.06-.03.1-.07.11-.12.02-.06.03-.17.03-.34v-2.27c0-.22-.02-.36-.07-.4-.06-.07-.16-.11-.31-.11h-.12v-.1h2.69l.04.77h-.1c-.04-.19-.08-.31-.12-.38-.04-.07-.11-.12-.19-.16-.07-.03-.19-.04-.37-.04h-.96Z"/><path class="cls-2" d="M42.39,19.64h.95l2.13,2.62v-2.02c0-.22-.02-.35-.07-.4-.06-.07-.16-.11-.3-.11h-.12v-.09h1.22v.09h-.13c-.14,0-.25.05-.31.14-.04.05-.06.18-.06.38v2.95h-.09l-2.3-2.82v2.15c0,.21.02.35.07.4.06.07.17.11.3.11h.12v.09h-1.21v-.09h.12c.15,0,.26-.04.32-.13.04-.06.06-.18.06-.38v-2.43c-.1-.12-.18-.2-.23-.23-.05-.04-.13-.07-.23-.11-.05-.02-.13-.02-.23-.02v-.09Z"/><path class="cls-2" d="M51.8,19.64l.04.82h-.1c-.02-.14-.05-.25-.08-.31-.05-.1-.12-.17-.21-.22-.09-.05-.21-.07-.35-.07h-.49v2.67c0,.21.02.35.07.4.06.07.17.11.3.11h.12v.09h-1.48v-.09h.12c.14,0,.25-.04.31-.13.04-.06.05-.18.05-.38v-2.67h-.42c-.16,0-.28.01-.35.04-.09.03-.17.09-.23.18-.06.09-.1.22-.11.38h-.1l.04-.82h2.85Z"/><path class="cls-2" d="M56.08,23.04v.1h-1.5v-.1h.12c.15,0,.25-.04.31-.12.04-.06.06-.19.06-.4v-2.26c0-.18-.01-.29-.03-.35-.02-.04-.05-.08-.1-.11-.08-.04-.16-.06-.24-.06h-.12v-.1h1.5v.1h-.13c-.14,0-.25.04-.31.13-.04.05-.06.19-.06.39v2.26c0,.18,0,.29.03.35.02.04.06.08.11.11.08.04.16.06.24.06h.13Z"/><path class="cls-2" d="M58.72,19.64h.95l2.13,2.62v-2.02c0-.22-.02-.35-.07-.4-.06-.07-.16-.11-.3-.11h-.12v-.09h1.21v.09h-.12c-.15,0-.25.05-.32.14-.04.05-.06.18-.06.38v2.95h-.09l-2.3-2.82v2.15c0,.21.02.35.07.4.07.07.16.11.3.11h.13v.09h-1.22v-.09h.12c.15,0,.25-.04.31-.13.04-.06.06-.18.06-.38v-2.43c-.1-.12-.18-.2-.23-.23-.05-.04-.13-.07-.23-.11-.05-.02-.13-.02-.23-.02v-.09Z"/><path class="cls-2" d="M67.3,21.96h-1.35l-.24.55c-.06.13-.09.24-.09.3,0,.05.03.1.08.14.05.04.16.07.33.08v.09h-1.1v-.09c.15-.03.24-.06.28-.1.09-.08.19-.25.29-.5l1.23-2.88h.09l1.21,2.91c.1.24.19.39.27.46.08.07.19.1.34.11v.09h-1.38v-.09c.14,0,.23-.03.28-.07.05-.04.07-.09.07-.15,0-.07-.03-.19-.1-.36l-.21-.5ZM67.23,21.77l-.59-1.42-.61,1.42h1.2Z"/></g></svg>